<?xml version="1.0" encoding="UTF-8"?>
<!-- Generator: Adobe Illustrator 16.0.3, SVG Export Plug-In . SVG Version: 6.00 Build 0)  -->
<!DOCTYPE svg PUBLIC "-//W3C//DTD SVG 1.1//EN" "http://www.w3.org/Graphics/SVG/1.1/DTD/svg11.dtd">
<svg version="1.1" id="Layer_1" xmlns="http://www.w3.org/2000/svg" xmlns:xlink="http://www.w3.org/1999/xlink" x="0px" y="0px" width="400px" height="400px" viewBox="0 0 400 400" enable-background="new 0 0 400 400" xml:space="preserve">
<g>
	<path fill="#E03A3E" d="M201,362.995c-89.326,0-161.998-72.67-161.998-161.992c0-89.326,72.672-161.999,161.998-161.999   c89.326,0,161.998,72.672,161.998,161.999C362.998,290.325,290.326,362.995,201,362.995z"/>
	<path fill="#FFFFFF" d="M201,355.52c-85.204,0-154.523-69.316-154.523-154.517C46.477,115.799,115.796,46.48,201,46.48   c85.203,0,154.522,69.319,154.522,154.523C355.522,286.203,286.203,355.52,201,355.52z"/>
	<path fill="#E03A3E" d="M201,348.044c-81.082,0-147.047-65.963-147.047-147.041c0-81.083,65.965-147.047,147.047-147.047   s147.046,65.964,147.046,147.047C348.046,282.081,282.082,348.044,201,348.044z"/>
	<g>
		<polygon fill="#FFFFFF" points="148.51,76.736 151.313,83.056 143.36,79.02 138.953,80.974 148.158,101.732 152.566,99.776     146.72,86.595 154.831,90.989 157.715,97.493 162.125,95.538 152.919,74.78   "/>
		<polygon fill="#FFFFFF" points="244.74,73.263 241.352,83.917 235.985,82.21 239.371,71.556 234.774,70.096 231.386,80.75     229.805,80.247 230.533,83.436 227.895,91.734 232.492,93.196 234.678,86.322 240.046,88.028 237.859,94.903 242.454,96.363     249.335,74.723   "/>
		<path fill="#FFFFFF" d="M320.102,136.515c-0.865-1.355-1.731-2.709-2.598-4.064c-2.697,1.504-6.904,3.386-10.496,4.339    l-1.957-3.062l9.418-6.023l-2.598-4.063l-9.419,6.022l-0.896-1.399l-1.479,2.92l-7.335,4.69l2.596,4.062l6.079-3.885l2.267,3.544    c-1.737,2.046-4.286,4.253-5.311,5.087c0.866,1.353,1.733,2.708,2.6,4.063c1.459-1.189,6.039-5.176,6.906-7.499    C311.756,140.537,316.956,138.269,320.102,136.515z"/>
		<path fill="#FFFFFF" d="M326.103,149.909c-3.909-0.006-6.439,1.074-9.714,2.352L315.06,164.1c-0.942,0.285-1.907,0.53-2.892,0.723    l-1.943-4.979l1.668-0.65l-1.757-4.493l-5.682,2.219c0,0,4.867,12.472,5.078,13.011c4.115-0.074,6.802-1.216,10.275-2.573l0,0    h0.001l1.123-11.761c0.819-0.245,1.659-0.456,2.516-0.623l1.959,5.022l-1.663,0.649l1.752,4.493l5.685-2.22    C331.18,162.919,326.425,150.738,326.103,149.909z"/>
		<polygon fill="#FFFFFF" points="81.892,136.93 85.581,139.166 88.312,134.66 104.047,144.195 106.547,140.072 90.81,130.537     93.54,126.03 89.852,123.794   "/>
		<polygon fill="#FFFFFF" points="165.237,70.581 166.198,74.786 171.333,73.613 175.431,91.553 180.132,90.479 176.034,72.539     181.17,71.367 180.21,67.161   "/>
		<polygon fill="#FFFFFF" points="100.9,110.347 97.658,113.915 114.461,129.187 122.314,120.545 119.121,117.644 114.51,122.715       "/>
		<path fill="#FFFFFF" d="M98.266,154.689l-10.37-3.742c-3.635-1.275-7.708-1.754-11.925-1.379c-0.04,0.11-3.166,8.745-3.313,9.153    c2.88,2.87,6.166,5.04,9.62,6.401l-0.575,1.587l3.232-0.604l8.13,2.952l1.643-4.536l-6.742-2.439l1.917-5.298l6.742,2.44    L98.266,154.689z M77.799,157.188l1.141-3.151c2.4,0.146,4.717,0.575,6.885,1.288l-1.912,5.281    C81.792,159.767,79.737,158.613,77.799,157.188z"/>
		<path fill="#FFFFFF" d="M263.87,107.676l5.535-9.533c1.903-3.35,3.104-7.271,3.487-11.488c-0.102-0.059-8.04-4.676-8.414-4.895    c-3.339,2.323-6.061,5.168-8.016,8.323l-1.461-0.849l0.019,3.287l-4.355,7.472l4.169,2.426l3.604-6.196l4.868,2.832l-3.604,6.197    L263.87,107.676z M265.068,87.093l2.896,1.684c-0.569,2.338-1.407,4.54-2.496,6.545l-4.854-2.824    C261.816,90.562,263.319,88.746,265.068,87.093z"/>
		<path fill="#FFFFFF" d="M139.709,106.389l-6.698-8.756c-2.37-3.039-5.536-5.645-9.287-7.608c-0.093,0.072-7.391,5.646-7.737,5.909    c0.873,3.972,2.465,7.573,4.633,10.585l-1.341,1.025l3.044,1.239l5.245,6.878l3.833-2.928l-4.351-5.697l4.476-3.418l4.352,5.696    L139.709,106.389z M121.143,97.424l2.662-2.034c1.942,1.42,3.659,3.035,5.097,4.806l-4.462,3.408    C123.107,101.752,122.001,99.671,121.143,97.424z"/>
		<path fill="#FFFFFF" d="M196.126,88.7l-0.082-7.168l5.634-0.065l0.08,7.169l4.821-0.055l-0.105-8.648l1.636-2.852l-1.687,0.019    c-0.148-3.709-1.112-7.526-2.873-11.193c-0.434,0.005-9.616,0.109-9.733,0.11c-1.745,3.859-2.633,7.862-2.628,11.716l0.115,11.022    L196.126,88.7z M201.62,77.154l-5.615,0.064c0.041-2.28,0.398-4.609,1.052-6.925l3.352-0.037    C201.116,72.556,201.527,74.875,201.62,77.154z"/>
		<path fill="#FFFFFF" d="M300.228,109.413c0,0-7.326,7.508-7.327,7.507c-1.778,1.879-3.912,3.51-6.314,4.853l-1.441-1.408    c1.177-2.456,2.636-4.664,4.335-6.546l7.465-7.651l-3.458-3.371c0,0-7.371,7.556-7.374,7.56c-1.86,1.783-4.065,3.323-6.531,4.583    l-1.442-1.408c1.283-2.434,2.859-4.606,4.693-6.432c-0.001-0.001,7.321-7.512,7.321-7.512l-3.45-3.367l-7.644,7.837    c-2.69,2.78-4.814,6.316-6.21,10.339c0.083,0.083,5.563,5.429,5.874,5.732c0.661-0.225,1.306-0.477,1.939-0.735    c-0.243,0.64-0.479,1.291-0.686,1.958c0.312,0.303,5.791,5.648,5.874,5.729c3.988-1.496,7.471-3.707,10.186-6.464l7.643-7.837    L300.228,109.413z"/>
		<path fill="#FFFFFF" d="M106.174,261.812c-3.766,1.046-5.911,2.768-8.721,4.879l1.907,11.761c-0.832,0.529-1.695,1.022-2.59,1.475    l-3.212-4.271l1.43-1.076l-2.898-3.854l-4.877,3.667c0,0,8.046,10.699,8.393,11.163c3.944-1.179,6.224-3.001,9.205-5.243l0,0    l0.001-0.001l-2.085-11.63c0.725-0.456,1.476-0.883,2.255-1.273l3.24,4.307l-1.429,1.075l2.899,3.855l4.877-3.668    C114.568,272.976,106.709,262.524,106.174,261.812z"/>
		<polygon fill="#FFFFFF" points="157.887,305.041 156.481,309.12 161.462,310.836 155.465,328.234 160.025,329.807     166.021,312.407 171.001,314.124 172.408,310.045   "/>
		<path fill="#FFFFFF" d="M92.692,231.524c-0.209-0.983-3.12-14.772-3.12-14.772l-8.997,1.9l-0.359-1.697l-2.524,2.307    l-10.336,2.183c0,0,2.902,13.743,3.105,14.706c3.634-0.723,7.264-2.033,10.725-3.857    C85.107,232.923,88.082,232.498,92.692,231.524z M86.349,222.362l1.103,5.22c-1.693,0.238-3.282,0.333-4.94,0.239l-0.939-4.449    L86.349,222.362z M72.573,225.271l4.777-1.009l0.901,4.267c-1.514,0.704-3.054,1.311-4.607,1.813L72.573,225.271z"/>
		<polygon fill="#FFFFFF" points="149.699,305.975 151.845,302.233 138.75,294.723 134.175,302.699 132.615,301.805     132.656,305.349 127.453,314.42 140.549,321.931 142.696,318.188 133.783,313.077 136.211,308.843 141.72,312.002     143.867,308.259 138.357,305.098 140.787,300.864   "/>
		<path fill="#FFFFFF" d="M291.253,293.108l1.204,1.321l-4.017,3.656l-9.476-10.412l3.648-3.319c0.468,0.419,0.949,0.861,1.437,1.32    l3.565-3.244c-1.825-1.719-3.574-3.227-4.833-4.064c-0.45,0.411-10.285,9.361-10.285,9.361l15.28,16.793l11.148-10.145    l-4.105-4.513L291.253,293.108z"/>
		<polygon fill="#FFFFFF" points="231.954,308.893 227.3,310.16 233.267,332.07 244.532,329.002 243.398,324.838 236.785,326.64       "/>
		<path fill="#FFFFFF" d="M81.078,263.218l10.011-4.614c3.486-1.644,6.722-4.161,9.461-7.388c-0.049-0.108-3.885-8.452-4.066-8.846    c-4.066-0.021-7.929,0.74-11.344,2.196l-0.707-1.534l-1.877,2.698l-7.862,3.604l2.015,4.383l6.514-2.995l2.353,5.117l-6.514,2.997    L81.078,263.218z M93.899,247.07l1.4,3.046c-1.813,1.583-3.765,2.902-5.808,3.915l-2.346-5.101    C89.246,248.037,91.518,247.417,93.899,247.07z"/>
		<path fill="#FFFFFF" d="M193.917,313.221c-0.997-0.134-14.963-2.006-14.963-2.006l-1.222,9.113l-1.721-0.23l1.329,3.15    l-1.403,10.471c0,0,13.921,1.868,14.896,1.996c0.535-3.664,0.515-7.523-0.045-11.396    C192.697,320.835,193.292,317.892,193.917,313.221z M183.16,316.131l5.288,0.709c-0.342,1.673-0.785,3.203-1.429,4.733    l-4.508-0.604L183.16,316.131z M181.29,330.085l0.649-4.839l4.322,0.579c0.157,1.662,0.213,3.317,0.166,4.948L181.29,330.085z"/>
		<path fill="#FFFFFF" d="M312.528,216.811c-0.218,0.983-3.259,14.742-3.259,14.742l8.979,1.983l-0.374,1.694l3.251-1.06    l10.315,2.28c0,0,3.032-13.716,3.245-14.677c-3.608-0.842-7.456-1.147-11.361-0.915    C320.014,218.666,317.129,217.826,312.528,216.811z M314.523,227.773l1.149-5.211c1.64,0.484,3.126,1.053,4.6,1.822l-0.982,4.442    L314.523,227.773z M328.27,230.813l-4.768-1.055l0.942-4.259c1.669-0.014,3.322,0.068,4.944,0.252L328.27,230.813z"/>
		<path fill="#FFFFFF" d="M219.967,334.726l-1.082-10.97c-0.414-3.832-1.733-7.715-3.886-11.358    c-0.117,0.011-9.257,0.902-9.689,0.944c-1.35,3.836-1.895,7.735-1.638,11.439l-1.681,0.165l1.936,2.657l0.835,8.608l4.799-0.469    l-0.698-7.136l5.608-0.548l0.696,7.136L219.967,334.726z M208.907,317.325l3.334-0.326c0.903,2.23,1.511,4.506,1.8,6.769    l-5.589,0.547C208.296,322.038,208.453,319.688,208.907,317.325z"/>
		<polygon fill="#FFFFFF" points="291.515,267.682 288.629,271.547 306.823,285.132 313.81,275.777 310.352,273.194     306.249,278.688   "/>
		<polygon fill="#FFFFFF" points="250.629,301.652 246.295,303.768 256.259,324.171 266.751,319.05 264.858,315.172     258.698,318.179   "/>
		<path fill="#FFFFFF" d="M304.221,245.613l9.557,4.32c2.375,1.03,4.636,2.477,6.718,4.274l-1.462,3.233    c-2.725-0.374-5.306-1.114-7.646-2.213l-9.562-4.316l-1.983,4.394l9.975,4.507c3.534,1.579,7.581,2.366,11.841,2.305    c0.048-0.106,3.877-8.582,4.08-9.033c-2.771-3.235-6.038-5.753-9.557-7.36l-9.978-4.505L304.221,245.613z"/>
		<path fill="#FFFFFF" d="M132.062,289.928c-1.195-1.075-2.39-2.15-3.585-3.226c-2.2,2.169-5.757,5.101-8.964,6.973l-2.702-2.43    l7.479-8.31l-3.584-3.228l-7.479,8.311l-1.234-1.109l-0.652,3.205l-5.825,6.473l3.584,3.226l4.825-5.361l3.128,2.814    c-1.128,2.436-3,5.241-3.765,6.315c1.194,1.076,2.389,2.151,3.584,3.226c1.092-1.535,4.447-6.596,4.663-9.065    C125.085,296.026,129.497,292.456,132.062,289.928z"/>
	</g>
	<path fill="#FFFFFF" d="M301.439,201.003c0,55.476-44.965,100.449-100.439,100.449c-55.485,0-100.45-44.974-100.45-100.449   c0-55.478,44.965-100.45,100.45-100.45C256.475,100.553,301.439,145.525,301.439,201.003z"/>
	<g>
		<g>
			<g>
				<path fill="#E03A3E" d="M201.05,107.864c-30.756,0-58.037,14.81-75.121,37.696c2.498,0.718,7.216,2.065,13.018,3.74      l-0.026,0.018c9.181,2.703,39.638,11.635,45.331,13.452c16.627,5.335,20.997,7.426,25.683,12.438      c4.678,5.007,11.781,10.817,18.729,15.67c6.951,4.844,10.339,10.167,10.339,18.575c0,8.396-6.468,15.493-10.499,17.924      c0,0,1.454-4.038-0.486-5.81c-1.938-1.789-8.067-5.171-23.746-4.042c-15.657,1.133-36.663,8.726-50.871,16.315      c0,0,6.78-10.662,16.958-15.506c0,0-8.4,0-55.283,20.442c14.398,33.203,47.463,56.43,85.976,56.43      c51.729,0,93.667-41.939,93.667-93.671C294.717,149.803,252.778,107.864,201.05,107.864z M201.05,274.532      c-20.438,0-38.921-8.399-52.172-21.937c37.824-19.512,61.374-14.479,61.374-10.675c0,3.865-5.814,12.911-5.814,12.911      c30.841-4.36,53.302-22.932,53.302-47.958c0-25.052-23.427-37.157-29.403-40.867c-6.39-3.98-3.393-9.374-24.386-17.288      c-12.773-4.81-30.701-9.561-37.72-11.357c10.356-5.634,22.207-8.828,34.819-8.828c40.31,0,72.997,32.69,72.997,73.001      C274.047,241.857,241.359,274.532,201.05,274.532z"/>
				<path fill="#E03A3E" d="M200.24,177.155c0,0-5.335,0.479-10.827-2.267c-5.49-2.746-13.885-8.882-21.155-2.104      c0,0,6.137-0.794,5.653,0.811c-0.487,1.611-1.129,10.981,7.267,14.536C189.569,191.688,199.266,189.097,200.24,177.155z"/>
			</g>
		</g>
	</g>
</g>
</svg>