<?xml version="1.0" encoding="utf-8"?>
<!-- Generator: Adobe Illustrator 20.0.0, SVG Export Plug-In . SVG Version: 6.00 Build 0)  -->
<svg version="1.1" id="Layer_1" xmlns="http://www.w3.org/2000/svg" xmlns:xlink="http://www.w3.org/1999/xlink" x="0px" y="0px"
	 width="400px" height="400px" viewBox="0 0 400 400" style="enable-background:new 0 0 400 400;" xml:space="preserve">
<style type="text/css">
	.st0{fill:#FFFFFF;}
</style>
<g>
	<path d="M112.1,341.2c-0.6-0.5-1.7-1.3-3.3-1.8c1.9-1,3.2-2.6,3.9-4.6c0.5-1.6,0.5-3.6,0.5-4.3v-9.3c-0.1-2.5-0.4-5.4-2.3-7.6
		c-1.7-1.9-4.3-2.9-7.8-2.9l-12.5,0c-0.5,0-1,0.4-1,1v61.4c0,0.5,0.4,1,1,1h12.8c1.3,0,5.4,0,8.7-2.8c2.9-2.7,3.3-5.9,3.4-9.5v-10.5
		C115.4,347.8,115.4,343.9,112.1,341.2 M95.9,342.6h3.3c4.4,0.2,8.1,0.6,9.5,4.4c0.4,1.3,0.5,2.6,0.5,3.9v8.7c0,4.1-0.3,6.1-1.9,7.4
		c-1,0.7-2.1,1.1-5.1,1.2h-6.3V342.6z M107.1,329.8c0,1.9-0.1,5.5-4.2,6.7c-1.1,0.3-1.6,0.4-3.9,0.5h-3.2v-20.9h4.4l0.3,0
		c2.6,0.1,5.3,0.2,6.2,2.5c0.1,0.6,0.3,1.6,0.4,3.3v7.3C107.1,329.4,107.1,329.6,107.1,329.8"/>
	<path d="M136.5,343.4c0.6-0.1,0.9-0.3,1.3-0.5c3.3-1.3,5.6-3.7,6.5-7c0.4-1.4,0.4-3.7,0.4-4.1v-9.6c0-0.1,0-0.3,0-0.5
		c-0.1-1.8-0.2-6-3.7-8.8c-2.9-2.2-6-2.3-9.3-2.4h-11.9c-0.5,0-0.9,0.4-0.9,1v61.4c0,0.5,0.4,1,0.9,1h4.3c0.5,0,0.9-0.4,0.9-1v-29
		h5.1l11,29.3c0.1,0.4,0.5,0.6,0.9,0.6h4.5h0c0.5,0,1-0.4,1-1c0-0.2-0.1-0.4-0.2-0.5L136.5,343.4z M138.3,323.3v9.6c0,1.3,0,4-3.1,5
		c-0.6,0.2-1.7,0.5-3.3,0.5H125v-22.3h7.1c1.4,0,2.7,0.1,4,0.7C138.1,318,138.2,320.7,138.3,323.3"/>
	<path d="M170.4,312.2c-2.2-1.6-5-2.4-8.4-2.4l-0.3,0c-6,0-10.7,3-12.4,8c-0.8,2.3-0.9,5-1,6.5l0,0.1c0,0.3,0,0.5,0,0.7v0v34.6
		c0.1,3.4,0.2,7.3,2.9,10.8c3.1,3.7,8.2,4.1,10.3,4.1c7.5,0,10.6-4,11.6-5.8c1.7-2.7,1.9-5.4,2-8.5v-33.9
		C175.2,321.5,175.2,315.8,170.4,312.2 M154.5,324.1c0-3.5,1-6,3.1-7.4c1.2-0.8,2.6-1.2,4.2-1.2c2,0,3.3,0.6,3.7,0.9
		c1.5,0.8,2.1,1.9,2.4,2.4c1.2,2.2,1.4,5.1,1.4,9.9v29.9c-0.1,3.3-0.2,6.8-3.1,8.9c-1.1,0.9-2.6,1.3-4.2,1.3c-5.1,0-6.6-3.7-6.7-4.1
		c-0.5-1.4-0.6-3.2-0.6-6.7L154.5,324.1L154.5,324.1z"/>
	<path d="M200.9,312.2c-2.2-1.6-5-2.4-8.4-2.4l-0.3,0c-6,0-10.7,3-12.4,8c-0.8,2.3-0.9,5-1,6.5l0,0.1c0,0.3,0,0.5,0,0.7v0.1v34.6
		c0.1,3.4,0.2,7.3,2.9,10.8c3.1,3.7,8.2,4.1,10.3,4.1c7.5,0,10.6-4,11.6-5.8c1.7-2.7,1.9-5.4,2-8.5v-33.9
		C205.7,321.5,205.7,315.8,200.9,312.2 M185,324.1c0-3.6,1-6,3.1-7.4c1.2-0.8,2.6-1.1,4.2-1.1c2.1,0,3.4,0.7,3.7,0.9
		c1.5,0.8,2.1,1.9,2.4,2.4c1.2,2.2,1.4,5.1,1.4,9.9v29.9c-0.1,3.3-0.2,6.8-3.1,8.9c-1.1,0.9-2.6,1.3-4.2,1.3c-5.1,0-6.6-3.7-6.8-4.1
		c-0.5-1.4-0.6-3.2-0.6-6.7L185,324.1L185,324.1z"/>
	<path d="M222.4,335.6l12.9-24.1c0.2-0.3,0.2-0.7,0-0.9c-0.2-0.3-0.5-0.5-0.8-0.5h-4.8c-0.4,0-0.7,0.2-0.9,0.5l-13.5,26.5v-26.1
		c0-0.5-0.4-1-1-1H210c-0.5,0-1,0.4-1,1v61.4c0,0.5,0.4,1,1,1h4.2c0.5,0,1-0.4,1-1v-23.1l3.4-6.4l10.5,29.8c0.1,0.4,0.5,0.6,0.9,0.6
		h4.6h0c0.5,0,1-0.4,1-1c0-0.2-0.1-0.4-0.2-0.5L222.4,335.6z"/>
	<path d="M259.3,368.1h-15.1v-56.6c0-0.5-0.4-1-1-1H239c-0.5,0-1,0.4-1,1v61.4c0,0.5,0.4,0.9,1,0.9h20.3c0.5,0,1-0.4,1-0.9V369
		C260.2,368.5,259.8,368.1,259.3,368.1"/>
	<path d="M282.2,310.5h-4.7c-0.4,0-0.8,0.3-0.9,0.6l-8.8,26.2l-8.9-26.2c-0.1-0.4-0.5-0.6-0.9-0.6h-4.5c-0.3,0-0.6,0.1-0.8,0.4
		c-0.2,0.3-0.2,0.6-0.1,0.9l12,34.1v27c0,0.5,0.4,1,1,1h4.2c0.5,0,1-0.4,1-1v-27l12.5-34.1c0.1-0.3,0.1-0.6-0.1-0.9
		C282.8,310.6,282.5,310.5,282.2,310.5"/>
	<path d="M310.4,310.5h-4.2c-0.3,0-0.5,0.1-0.7,0.3c-0.2,0.2-0.3,0.4-0.3,0.7l0.3,44.8c0,1.2,0.1,2.3,0.1,3.6c0,0.7,0,1.4,0,2.1
		l-12.7-50.8c-0.1-0.4-0.5-0.7-0.9-0.7h-6.3c-0.5,0-1,0.4-1,1v61.4c0,0.5,0.4,1,1,1h4.1c0.3,0,0.5-0.1,0.7-0.3
		c0.2-0.2,0.3-0.4,0.3-0.7l-0.3-43.6v-5.8l12.3,49.7c0.1,0.4,0.5,0.7,0.9,0.7h6.5c0.5,0,1-0.4,1-1v-61.4
		C311.4,310.9,311,310.5,310.4,310.5"/>
	<path d="M332.4,61.9c0-2.8,0-4.4,0-4.4v-3.4l-3.1-1.6c-2.2-1.1-54.5-27.1-127.1-27.1h-3.4c-72.6,0-124.9,26-127.1,27.1l-3.1,1.6
		v3.4c0,0,0,1.6,0,4.2c-0.6,30.9,3.2,109.4,51.2,170.4c38.9,49.5,75.4,61,79.5,62.1l1.6,0.5l1.6-0.4c1.6-0.4,38.8-11.3,78.8-62.1
		C329.2,171.2,333,92.7,332.4,61.9"/>
	<path class="st0" d="M277.7,229.5c47-59.7,50.7-136.6,50.1-166.9c0-2.8,0-4.4,0-4.4V57l-1-0.5c-2.1-1.1-53.4-26.5-124.7-26.5h-3.4
		c-71.3,0-122.5,25.5-124.7,26.5l-1,0.5v1.1c0,0,0,1.6,0,4.2c-0.6,30.4,3.1,107.4,50.1,167.1c38,48.3,73.2,59.4,77.1,60.5l0.5,0.1
		l0.5-0.1C202.9,289.5,238.7,279,277.7,229.5 M200.9,286.4c-3-0.8-37.7-11.5-75-59c-49.2-62.5-49.4-144.3-49-163.6
		c0-2.7,0-4.2,0-4.2s0.1,0,0.2-0.1l0-0.2l1.1-0.5c2.6-1.2,8.4-3.7,16.9-6.8c21-7.7,58.5-18.4,104-18.4h3.3
		C247.5,33.6,285,44.3,306,52c8.5,3.1,14.4,5.6,17,6.8l1.1,0.5v0.2c0.1,0.1,0.2,0.1,0.2,0.1s0,1.5,0,4.2
		c0.4,19.3,0.2,101.1-49,163.6C237.8,274.9,203.7,285.6,200.9,286.4"/>
	<path class="st0" d="M142.7,50.3c-3.3,0.7-4.9,1-8.1,1.7c-0.6,0.1-1.1,0.7-1.1,1.3l0.7,59.8c0,4,0.1,7.6,0.3,10.9
		c-8.1-20.7-16.5-42.1-25.1-63.7c-0.3-0.7-1-1-1.7-0.8c-4.8,1.6-7.1,2.4-11.8,4.2c-0.5,0.2-0.9,0.7-0.9,1.3v82.2
		c0,0.5,0.2,0.9,0.6,1.1c0.2,0.2,0.5,0.2,0.8,0.2c0.2,0,0.3,0,0.5-0.1c2.9-1.1,4.4-1.6,7.4-2.7c0.6-0.2,0.9-0.7,0.9-1.3
		c-0.1-19.4-0.2-38.9-0.3-58.3c0-5.1-0.1-8-0.2-11.6c8.4,21.5,16.6,42.5,24.5,62.6c0.2,0.6,0.9,1,1.6,0.8c5-1.2,7.5-1.8,12.5-2.8
		c0.6-0.1,1.1-0.7,1.1-1.3V51.6c0-0.4-0.2-0.8-0.5-1.1C143.5,50.3,143.1,50.2,142.7,50.3 M197.2,44.4c-14.2,0.2-28.5,1.5-42.6,3.8
		c-0.7,0.1-1.2,0.7-1.2,1.3v82.2c0,0.4,0.2,0.8,0.5,1c0.2,0.2,0.6,0.3,0.9,0.3c0.1,0,0.1,0,0.2,0c13.9-2.2,28-3.5,42-3.7
		c0.7,0,1.3-0.6,1.3-1.4v-5.1c0-0.4-0.1-0.7-0.4-1c-0.3-0.3-0.6-0.4-1-0.4c-13.1,0.2-20.2,0.7-32.7,2.4V91.3
		c10.4-1.4,15.9-1.8,26.8-2.2c0.7,0,1.3-0.6,1.3-1.4v-5c0-0.4-0.2-0.7-0.4-1c-0.3-0.3-0.6-0.4-1-0.4c-10.7,0.4-16.4,0.9-26.6,2.2
		V54.6c12.8-1.7,19.5-2.1,32.8-2.3c0.7,0,1.3-0.6,1.3-1.4v-5.1c0-0.4-0.1-0.7-0.4-1C197.9,44.5,197.5,44.4,197.2,44.4 M256.3,49.1
		c-16.7-3.1-33.8-4.7-50.7-4.9c-0.4,0-0.7,0.1-1,0.4c-0.3,0.3-0.4,0.6-0.4,1v5.2c0,0.7,0.6,1.4,1.4,1.4c7.9,0.1,12,0.3,19.6,0.9
		v75.8c0,0.7,0.5,1.3,1.3,1.4c3.3,0.3,4.9,0.4,8.3,0.8c0.1,0,0.1,0,0.1,0c0.3,0,0.7-0.1,0.9-0.4c0.3-0.3,0.5-0.6,0.5-1V54.1
		c7.5,0.8,11.7,1.5,19.6,2.9c0.4,0.1,0.8,0,1.1-0.3c0.3-0.3,0.5-0.6,0.5-1.1v-5.2C257.4,49.8,256.9,49.2,256.3,49.1 M291.5,98.2
		C274,80.1,272,77.2,272,69.7c0-7.4,3.2-8.4,6.4-8.4c1.6,0,3.7,0.3,6,1C297,66,297,72.9,297,78v7.3c0,0.6,0.4,1.1,0.9,1.3
		c3.1,1,4.6,1.6,7.8,2.8c0.4,0.2,0.9,0.1,1.3-0.2c0.4-0.3,0.6-0.7,0.6-1.1V82c0-7.7,0-20.7-22.6-27.2c-15.8-4.5-23.9,0.3-23.9,14
		c0,11.4,7,18.2,18.6,29.5l2.3,2.3c13.7,13.5,16.5,17.9,16.5,26.4c0,3.1-0.5,5.2-1.4,6.5c-1,1.4-2.5,2-4.9,2c-1.8,0-4.1-0.4-6.9-1.2
		c-6-1.7-10.4-4.1-13-7c-3.2-3.6-3.2-6.6-3.2-12.6v-6.5c0-0.6-0.4-1.2-1.1-1.3c-3.4-0.8-5-1.1-8.2-1.7c-0.4-0.1-0.8,0-1.1,0.3
		c-0.3,0.3-0.5,0.7-0.5,1.1v11.5c0,10.8,8.9,19.1,25.6,23.9c4.7,1.4,8.8,2,12.2,2c13.1,0,13.1-10.6,13.1-15.1
		C309.2,117,303.1,110.2,291.5,98.2"/>
	<path class="st0" d="M251.7,195.7c0.9-1,1.7-2,2.2-3.1c4.3-8.3,0.5-17.6-1.2-20.8c-12-19.8-34.7-31.5-58.3-29.2
		C218.9,143.9,242.6,165.8,251.7,195.7 M171.7,171.4c5.9,2.5,13.6,6.6,21.8,11c12.9,6.9,26.3,14.1,35.3,16.4
		c8.1,2,14.7,1.8,19.3-0.5c0-0.1,0-0.2-0.1-0.3c-0.1-0.3-0.1-0.7-0.2-1c-3.9-16.5-24.6-52.6-60.3-52.6c-1.5,0-3,0.1-4.6,0.2
		c-13.8,4-25.2,12.5-32.9,23.5c1.3-0.4,3-0.8,5.3-0.8C159.9,167.4,165.3,168.8,171.7,171.4 M162.8,221.2c14.5,4.8,22.6,6.3,33.1,6.3
		c3.9,0,8.3-0.2,13.8-0.7c15.5-1.3,31.8-6.4,40.6-10.7c0-4.2-0.4-8.6-1.2-12.9c-2.6,1.6-5.5,2.3-9.2,2.3c-3.6,0-8-0.7-15.2-2.4
		c-8.4-2-20.5-9.2-31.2-15.5c-5.8-3.5-11.4-6.8-15.9-9c-17.4-8.6-27.3-7.4-29.9-6.8c-6.2,10.3-9.3,22.5-8.5,35
		C140.5,208.4,146.5,215.8,162.8,221.2 M254.5,213.8c0.2-0.1,0.3-0.2,0.4-0.3c5.1-3.6,6.5-9.4,6.7-10.3c0-4.9-0.6-9.8-1.9-14.7
		c0-0.2-0.1-0.4-0.2-0.6c-0.5,4.5-2.7,8.7-6.6,12.5C254,204.8,254.5,209.3,254.5,213.8 M256,217.1c-0.2,0.2-0.4,0.3-0.6,0.5
		c-0.3,0.2-0.7,0.5-1,0.7c-0.3,3.9-1,7.7-2.1,11.4c1.9-0.7,2.6,0.1,2.8,0.6c0,0.1,0,0.1,0.1,0.2c3.2-6.2,5.3-13,6.1-20
		C260.2,212.8,258.6,215.3,256,217.1 M253.6,232.3c-0.1-0.2-0.1-0.3-0.2-0.3c-0.2,0-0.6,0.1-1.5,0.6c-0.2,0.1-0.3,0.2-0.5,0.3
		c-0.1,0.1-0.3,0.2-0.4,0.3c-1.5,4-3.5,7.9-5.9,11.3c3.4-3.6,6.3-7.5,8.7-11.8h-0.1L253.6,232.3z M190.9,258.1
		c7-0.8,12.8-2.6,19.3-5.9c1-0.5,1.9-1,2.8-1.5c0.8-0.4,1.6-0.8,2.4-1.2c5.6-2.9,11.6-6.1,18.8-10c2.6-1.4,5.1-2.8,7.6-4.2l2.9-1.6
		c1.1-0.6,2.2-1.2,3.2-1.8c0.1-0.1,0.2-0.1,0.4-0.2c0.9-3.4,1.5-7.1,1.8-11c-7.1,3.6-17.8,6.7-33.5,9.9c-20.1,4-39.8,2.2-57.3-5.2
		c-11.8-5-17.4-11.9-19.7-15.6c0.3,2.7,0.8,5.4,1.5,8.1c3.9,15.3,13.3,27.8,25.6,35.9l-0.1-0.1l1.7,1c1.4,0.8,3.1,1.5,5.2,2.1
		c3.8,1.1,7.6,1.7,11.6,1.7C186.9,258.4,188.9,258.3,190.9,258.1 M246.6,236.4c-0.8,0.6-1.6,1.1-2.5,1.7c-2.3,1.6-4.6,3-6.9,4.4
		c-1.1,0.7-2.3,1.4-3.4,2.1c-8.2,5.1-18,10.7-28.5,13.9c-3.1,1-5.9,1.6-8.6,2.1c-2.5,0.4-4.9,0.6-7.3,0.6l-0.5,0
		c-3.1,0-6.1-0.3-9-0.8c11,3.9,23.2,4.7,35.4,1.7c7-1.7,13.4-4.6,19-8.3c5.4-4.2,9.8-10.3,12.6-17.6
		C246.8,236.2,246.7,236.3,246.6,236.4"/>
	<path class="st0" d="M224.6,215.5c0-4.5,0-11.1-5.3-16.2c0.6-1,1.1-2.1,1.4-3.3c0.9-2.7,1-5.6,0.9-7.5l0-12.3v-0.2
		c-0.1-4.6-0.8-9.4-4.6-13.6c-3.4-3.8-8.4-5.8-14.6-5.8l-16.6,0c-1.8,0-3.6,0.7-4.9,2c-1.3,1.3-2,3.1-2,4.9l0.2,80.6
		c0,2.4,1.2,4.6,3.3,5.9c1.1,0.7,2.4,1.1,3.8,1.1l16.9,0c6.1,0,11.2-1.8,15.2-5.2l0.1,0c5.6-5,6.2-10.9,6.3-16.6v-0.1L224.6,215.5z"
		/>
	<path d="M220.3,216c0-4.5,0-10-4.7-13.9c-1-0.8-2.2-1.5-3.5-2.1c2.2-1.5,3.7-3.5,4.5-6c0.7-2.3,0.7-5,0.7-6.1l0-12.8
		c-0.1-3.5-0.5-7.6-3.4-10.8c-2.5-2.8-6.4-4.3-11.3-4.2l-17.4,0c-0.5,0-1,0.2-1.4,0.6c-0.4,0.4-0.6,0.9-0.6,1.4l0.1,84.1
		c0,0.7,0.4,1.3,0.9,1.7c0.3,0.2,0.7,0.3,1.1,0.3l17.7,0c1.9,0,7.6,0,12.4-4.1c4.2-3.9,4.7-8.4,4.8-13.5L220.3,216z M208,237.4
		c-1.2,0.9-2.8,1.4-6.6,1.5c0,0-6.7,0-7.2,0c-0.6,0-0.8-0.4-0.8-0.9c0-4.9-0.1-31.9-0.1-32.1c0-0.2,0.1-0.6,0.6-0.6
		c0.5,0,3.3,0,3.3,0c3.5,0.2,7.2,0.4,9.6,2c1.4,0.8,2.3,2,2.9,3.6c0.5,1.6,0.6,3.4,0.6,5.1l0,11.9
		C210.4,233.2,210.1,235.8,208,237.4 M202.2,195.6c-1.4,0.4-2.1,0.5-5.2,0.6l-3.1,0c-0.5,0-0.7-0.2-0.7-0.6c0-0.2,0-25.9,0-25.9
		c0-0.4,0.2-0.7,0.6-0.7h4.8h0.4c2.3,0.1,4.8,0.2,6.5,1.2c0.8,0.5,1.2,1,1.5,1.8c0.2,0.8,0.4,2.1,0.6,4.4l0,10c0,0.2,0,0.4,0,0.8
		C207.4,189.7,207.3,194,202.2,195.6"/>
</g>
</svg>
