<?xml version="1.0" encoding="utf-8"?>
<!-- Generator: Adobe Illustrator 20.0.0, SVG Export Plug-In . SVG Version: 6.00 Build 0)  -->
<svg version="1.1" id="Layer_1" xmlns="http://www.w3.org/2000/svg" xmlns:xlink="http://www.w3.org/1999/xlink" x="0px" y="0px"
	 width="400px" height="400px" viewBox="0 0 400 400" style="enable-background:new 0 0 400 400;" xml:space="preserve">
<style type="text/css">
	.st0{fill:#FFFFFF;}
	.st1{fill:none;stroke:#FFFFFF;stroke-width:1.9385;}
	.st2{fill:#008248;}
	.st3{fill:none;stroke:#008248;stroke-width:0.4839;}
	.st4{fill:#A63732;}
	.st5{fill:none;stroke:#A63732;stroke-width:0.4839;}
	.st6{fill:#BA9653;}
	.st7{fill:none;stroke:#BA9653;stroke-width:0.4839;}
	.st8{fill:#F9B282;}
	.st9{fill:none;stroke:#F9B282;stroke-width:0.4839;stroke-linecap:round;}
	.st10{fill:none;stroke:#F9B282;stroke-width:0.4839;}
	.st11{fill:none;stroke:#00A55C;stroke-width:0.4839;}
	.st12{fill:#008348;}
</style>
<g>
	<path class="st0" d="M137,362.3c3.1,3.5,9,8.8,13.3,10.7c4.3,1.9,7.2,2.5,11.1,2.1c3.1-0.3,2.5,1,0,1.4s-8.2,0.4-11.9-1.6
		s-9.7-5.7-13.4-11.1C135.2,362.5,136.1,361.2,137,362.3"/>
	<path class="st0" d="M359.5,189.2c0-42.9-16.7-83.3-47.1-113.7c-26.2-26.2-59.9-42.3-96.3-46.1c-0.8-0.8-1.8-1.6-2.9-2.3
		c-12.9-8.3-23.6-2.1-31.1,1.5c-0.5,0.3-1.2,0.6-1.9,0.9c-14,1.6-27.5,5-40.2,10c-1.5-2.2-3.2-4.4-5.2-6.3c-7.8-7.8-18.1-12-29.1-12
		c-22.7,0-41.1,18.4-41.1,41.1c0,9.5,3.2,18.5,9.1,25.8C51.5,115.7,38,150.9,38,189.2c0,42.9,16.7,83.3,47.1,113.7
		c14.8,14.8,32.1,26.4,50.8,34.4c-1,8.5,0.3,14.3,1.9,16.6c-2.4,2-3.4,3.2-3.7,5.5c-3.7,5.1,5.3,11.6,9.1,14.4
		c7.7,5.9,11.7,4.9,17.6,4.6c7.4-0.3,14.3-8.9,18.3-14.5c8-1.1,9.4,0.1,9.7,1.1c2.5-0.4,6-1,10.7-3c10.7-4.5,7.7-10.1,6.6-11.1
		c-0.3-0.3-0.5-0.6-0.8-1.1c25.5-1,49.9-7.9,71.7-20.1c0.8,0.9,1.6,1.8,2.3,3c2.4,3.5,3.6,14.8,4.1,20.6c0.5,5.8,1.5,9.8,4.3,19
		c2.9,9.2,4,2.5,4.1,0s0.6-11.4,0.2-17.9s-0.5-15.8,0.7-19.8s-1-5-1.6-5.7s0-1-1.6-6.1c-0.1-0.3-0.2-0.6-0.2-0.9
		c8.2-5.6,15.9-12,23.1-19.2C342.8,272.5,359.5,232.1,359.5,189.2"/>
	<path class="st1" d="M359.5,189.2c0-42.9-16.7-83.3-47.1-113.7c-26.2-26.2-59.9-42.3-96.3-46.1c-0.8-0.8-1.8-1.6-2.9-2.3
		c-12.9-8.3-23.6-2.1-31.1,1.5c-0.5,0.3-1.2,0.6-1.9,0.9c-14,1.6-27.5,5-40.2,10c-1.5-2.2-3.2-4.4-5.2-6.3c-7.8-7.8-18.1-12-29.1-12
		c-22.7,0-41.1,18.4-41.1,41.1c0,9.5,3.2,18.5,9.1,25.8C51.5,115.7,38,150.9,38,189.2c0,42.9,16.7,83.3,47.1,113.7
		c14.8,14.8,32.1,26.4,50.8,34.4c-1,8.5,0.3,14.3,1.9,16.6c-2.4,2-3.4,3.2-3.7,5.5c-3.7,5.1,5.3,11.6,9.1,14.4
		c7.7,5.9,11.7,4.9,17.6,4.6c7.4-0.3,14.3-8.9,18.3-14.5c8-1.1,9.4,0.1,9.7,1.1c2.5-0.4,6-1,10.7-3c10.7-4.5,7.7-10.1,6.6-11.1
		c-0.3-0.3-0.5-0.6-0.8-1.1c25.5-1,49.9-7.9,71.7-20.1c0.8,0.9,1.6,1.8,2.3,3c2.4,3.5,3.6,14.8,4.1,20.6c0.5,5.8,1.5,9.8,4.3,19
		c2.9,9.2,4,2.5,4.1,0s0.6-11.4,0.2-17.9s-0.5-15.8,0.7-19.8s-1-5-1.6-5.7s0-1-1.6-6.1c-0.1-0.3-0.2-0.6-0.2-0.9
		c8.2-5.6,15.9-12,23.1-19.2C342.8,272.5,359.5,232.1,359.5,189.2z"/>
	<path d="M359.5,189.2c0-42.9-16.7-83.3-47.1-113.7c-26.2-26.2-59.9-42.3-96.3-46.1c-0.8-0.8-1.8-1.6-2.9-2.3
		c-12.9-8.3-23.6-2.1-31.1,1.5c-0.5,0.3-1.2,0.6-1.9,0.9c-14,1.6-27.5,5-40.2,10c-1.5-2.2-3.2-4.4-5.2-6.3c-7.8-7.8-18.1-12-29.1-12
		c-22.7,0-41.1,18.4-41.1,41.1c0,9.5,3.2,18.5,9.1,25.8C51.5,115.7,38,150.9,38,189.2c0,42.9,16.7,83.3,47.1,113.7
		c14.8,14.8,32.1,26.4,50.8,34.4c-1,8.5,0.3,14.3,1.9,16.6c-2.4,2-3.4,3.2-3.7,5.5c-3.7,5.1,5.3,11.6,9.1,14.4
		c7.7,5.9,11.7,4.9,17.6,4.6c7.4-0.3,14.3-8.9,18.3-14.5c8-1.1,9.4,0.1,9.7,1.1c2.5-0.4,6-1,10.7-3c10.7-4.5,7.7-10.1,6.6-11.1
		c-0.3-0.3-0.5-0.6-0.8-1.1c25.5-1,49.9-7.9,71.7-20.1c0.8,0.9,1.6,1.8,2.3,3c2.4,3.5,3.6,14.8,4.1,20.6c0.5,5.8,1.5,9.8,4.3,19
		c2.9,9.2,4,2.5,4.1,0s0.6-11.4,0.2-17.9s-0.5-15.8,0.7-19.8s-1-5-1.6-5.7s0-1-1.6-6.1c-0.1-0.3-0.2-0.6-0.2-0.9
		c8.2-5.6,15.9-12,23.1-19.2C342.8,272.5,359.5,232.1,359.5,189.2"/>
	<path class="st2" d="M160.7,339.2c6-0.3,14.3-2.1,18.1-3.7c0.5,0.1,1.3,0.6,2.6,1.1c0.5-4-2.1-12.2-3.5-16c-0.9-2.5-1.9-4.2-3-6.8
		c-3.4-0.6-7.5-2.4-10.5-3.7c0,2.4,0.4,8.5,0.9,12.6c-1.2,0.1-3,0.2-5.1,0.2C160.5,327.4,161,335.4,160.7,339.2"/>
	<path class="st3" d="M160.7,339.2c6-0.3,14.3-2.1,18.1-3.7c0.5,0.1,1.3,0.6,2.6,1.1c0.5-4-2.1-12.2-3.5-16c-0.9-2.5-1.9-4.2-3-6.8
		c-3.4-0.6-7.5-2.4-10.5-3.7c0,2.4,0.4,8.5,0.9,12.6c-1.2,0.1-3,0.2-5.1,0.2C160.5,327.4,161,335.4,160.7,339.2z"/>
	<path class="st2" d="M273.2,326c-1.1-1.1,1.4-4.6,2.5-11.1s1.2-17.3-3.5-23.4c-2.3-3-3.4-4.8-3.8-6.2
		c-14.7,10.7-31.6,17.8-49.5,20.9c-0.2,0.4-0.4,0.7-0.6,1c-2.6,3.4-7.7,8.2-11.4,10.2s-8.1,3.5-10.4,4.2c-0.5,4-1.1,12.8-0.1,15.9
		c0.4,1.1,5,3.9,6.6,6.8c0.2,0.3,0.3,0.6,0.5,0.9c25.4-0.7,49.2-7.5,70.2-19C273.4,326.2,273.3,326.1,273.2,326"/>
	<path class="st3" d="M273.2,326c-1.1-1.1,1.4-4.6,2.5-11.1s1.2-17.3-3.5-23.4c-2.3-3-3.4-4.8-3.8-6.2
		c-14.7,10.7-31.6,17.8-49.5,20.9c-0.2,0.4-0.4,0.7-0.6,1c-2.6,3.4-7.7,8.2-11.4,10.2s-8.1,3.5-10.4,4.2c-0.5,4-1.1,12.8-0.1,15.9
		c0.4,1.1,5,3.9,6.6,6.8c0.2,0.3,0.3,0.6,0.5,0.9c25.4-0.7,49.2-7.5,70.2-19C273.4,326.2,273.3,326.1,273.2,326z"/>
	<path class="st2" d="M309.2,78.7c-24.5-24.5-55.7-39.8-89.5-44.3c2.7,5.4,3.1,11.5,3.4,15.4c4.8-2.1,8.6-3.2,10.6-6.5
		c2-3.2,4.7-2.6,6.5-0.2c1.7,2.4,1.7,5.3-2.9,8.2c-4.6,2.9-8,4.2-9,4.7s-0.1,1.4,1,3.2c1.1,1.9,4,6.5,4.5,16.2c0,0.1,0,0.2,0,0.3
		c18.3,5.6,35,15.6,48.9,29.5c22.4,22.4,34.8,52.3,34.8,84c0,18.2-4.1,35.8-11.8,51.7c1,0.5,2.4,4.1,2.9,8.9c0.2,2.5,0.1,5.2-0.6,7
		c-0.7,1.7-6.6,10.5-9.6,13.2c-1.1,1-3.7,0.9-4.8-0.7c-1.1-1.6-1.2-0.7-2.1,0.1c-0.9,0.9-3.8,5.2-4.6,6.3c-0.8,1.1-3.2,2.2-1.6,6.7
		s3.5,7.8,2.9,10.3s-0.9,3.2,2.5,6.1s3.2,6.3,1.7,8.6c-0.9,1.4-2.4,5.1-3,9c39.7-28.3,65.6-74.8,65.6-127.2
		C354.9,147.5,338.7,108.2,309.2,78.7"/>
	<path class="st3" d="M309.2,78.7c-24.5-24.5-55.7-39.8-89.5-44.3c2.7,5.4,3.1,11.5,3.4,15.4c4.8-2.1,8.6-3.2,10.6-6.5
		c2-3.2,4.7-2.6,6.5-0.2c1.7,2.4,1.7,5.3-2.9,8.2c-4.6,2.9-8,4.2-9,4.7s-0.1,1.4,1,3.2c1.1,1.9,4,6.5,4.5,16.2c0,0.1,0,0.2,0,0.3
		c18.3,5.6,35,15.6,48.9,29.5c22.4,22.4,34.8,52.3,34.8,84c0,18.2-4.1,35.8-11.8,51.7c1,0.5,2.4,4.1,2.9,8.9c0.2,2.5,0.1,5.2-0.6,7
		c-0.7,1.7-6.6,10.5-9.6,13.2c-1.1,1-3.7,0.9-4.8-0.7c-1.1-1.6-1.2-0.7-2.1,0.1c-0.9,0.9-3.8,5.2-4.6,6.3c-0.8,1.1-3.2,2.2-1.6,6.7
		s3.5,7.8,2.9,10.3s-0.9,3.2,2.5,6.1s3.2,6.3,1.7,8.6c-0.9,1.4-2.4,5.1-3,9c39.7-28.3,65.6-74.8,65.6-127.2
		C354.9,147.5,338.7,108.2,309.2,78.7z"/>
	<path class="st2" d="M129.8,304.5c-0.4-4.2-1.1-11.8,1.9-17.2c-6-4.1-11.7-8.8-16.9-14.1c-22.4-22.4-34.8-52.3-34.8-84
		c0-34,14.3-64.6,37.3-86.3c0.2-0.5,0.5-0.9,0.8-1.3c-3.9,1.2-8,1.8-12.1,1.8c-10.9,0-21.2-4.2-29-12
		c-22.3,27.6-34.4,61.8-34.4,97.8c0,41.7,16.2,80.9,45.7,110.4c14.1,14.1,30.5,25.2,48.3,32.9c0.7-3.3,1.7-7,3.2-10.9
		c1.4-3.6-0.7-11.9-4.2-16.3C133.8,304.9,131.4,304.6,129.8,304.5"/>
	<path class="st3" d="M129.8,304.5c-0.4-4.2-1.1-11.8,1.9-17.2c-6-4.1-11.7-8.8-16.9-14.1c-22.4-22.4-34.8-52.3-34.8-84
		c0-34,14.3-64.6,37.3-86.3c0.2-0.5,0.5-0.9,0.8-1.3c-3.9,1.2-8,1.8-12.1,1.8c-10.9,0-21.2-4.2-29-12
		c-22.3,27.6-34.4,61.8-34.4,97.8c0,41.7,16.2,80.9,45.7,110.4c14.1,14.1,30.5,25.2,48.3,32.9c0.7-3.3,1.7-7,3.2-10.9
		c1.4-3.6-0.7-11.9-4.2-16.3C133.8,304.9,131.4,304.6,129.8,304.5z"/>
	<path class="st2" d="M171.2,35.4c-9.9,1.7-19.5,4.4-28.7,8c3,5.8,4.6,12.2,4.6,18.9c0,8.9-2.8,17.3-7.9,24.3
		c8.6-5,17.9-9,27.6-11.7c0.6-0.6,1.3-1.2,1.9-1.8c-3.6-6-8.5-15.5-4.2-28.5C165.7,40.9,168.3,37.9,171.2,35.4"/>
	<path class="st3" d="M171.2,35.4c-9.9,1.7-19.5,4.4-28.7,8c3,5.8,4.6,12.2,4.6,18.9c0,8.9-2.8,17.3-7.9,24.3
		c8.6-5,17.9-9,27.6-11.7c0.6-0.6,1.3-1.2,1.9-1.8c-3.6-6-8.5-15.5-4.2-28.5C165.7,40.9,168.3,37.9,171.2,35.4z"/>
	<path class="st0" d="M233.7,82.5c3.5,1.7,7.4,5.5,5.8,12.5c-0.6,2.9-3,5.6-3.2,6.7c-0.4,1.9-4.3,5-5.5,7.5s-1.4,4.6-1.1,5.6l0,0
		c2,1.9,6.5,4.4,8.9,5.2c1.9,0.7,1.8,1.2,1,2.5c1.4,0.1,2.1,1,3.4,2.5c1.4,1.6,5,0.6,7.2-0.5s5.1-1.5,7.3,1.2
		c2.2,2.7,5.6,7.8,7.2,12.5s3.4,8.6,3.8,9.3c0.5,0.7-1.7,14.4-2.4,19.9c-0.6,5.5-1.1,7.8-1.2,8.7s3.5-3.1,3.6,1.6
		c0.1,3.8,1.9,15.8,3.9,24.8c0.5,2.3,1,4.3,1.6,6c1.5,0.2,2.7,3.2,3.6,7.8s2.7,7.5,2.9,9.7c0.1,2.2,0.7,2.6,1.5,3
		c0.7,0.4,0.5,1.5-1.7,4.1c0.5,0.4,1.2,1.1,1.7,1.6c0.6-0.6,2.4-2.6,2.4-2.6s6.8,2.7,8.3,3.2s3.3-3.2,7.7-1.2
		c1.2,0.5,2.6,2.2,3.5,3.9c7-14.9,10.9-31.5,10.9-49c0-31-12.1-60.1-34-82c-13.4-13.4-29.4-23.1-47-28.6
		C233.8,80.3,233.7,81.9,233.7,82.5"/>
	<path class="st0" d="M269.6,277.9c-1.7-0.9-2.9,0.4-3.7-6.5c-0.2-2-1.9-4.6-3.1-5.8c-1.2-1.2-1.4-3.6-0.7-5.6c1-3.1,1.2-6,1.1-8.4
		c-0.1-2.5,0.4-5.6,3.8-7.1c-1.2-1.4-1.9-3.1-2.2-4.5c-5.1-1.7-6.1-1.8-7.1-4.3c-1.7-4.1-2.8-10.2-3.3-13.5
		c-0.3-1.6-0.4-3.1-0.5-4.5c-1.6-3.1-5.3-9.9-8.1-15.1c-1-1.9-2-3.6-2.6-4.8c-2.5-4.3,0-10.1,1.2-13.4c1.2-3.4,2.2-6.3,1.1-9.7
		c-1.1-3.4-1.1-4.1-1.4-5.5c-0.2-1.4-1.4-3.1-2.9,1.6c-1.5,4.7-4.3,11.7-6,18.9c-0.9,4.1-1.6,8.5-1.3,12.9c0.2,3.3,0.8,6.5,2.2,9.4
		c3.2,6.7,7.1,12.9,6.6,16.6c-0.5,3.7-1.3,3.9-1.4,4.5c-0.6,7.2-3.7,21-5.3,25c-1.6,4-7.9,18.4-9.3,24.5c-1.1,4.7-3.9,14.6-6.4,20.6
		c18.6-3.5,35.6-11.5,50-22.7C270.7,279.4,270.6,278.4,269.6,277.9"/>
	<path class="st0" d="M131.5,114.9c1.4,1.8,3.2,3.4,5.5,4.6c6.1,3.1,7.3,5.3,7.3,10.7c0,5.3,1,16.3,2.7,18.1
		c1.1-1.1,2.4-2.7,2.6-3.2c1.7,3.2,5.2,9.2,10.8,12.9c0.4,0.2,0.2,1.6,1.1,1.9c1.9,0.5,13.9,2.4,14.3,4.8c2.5-2.5,6.5-8.7,7.2-10.8
		s5.1-8.8,8.3-12.5c0-1.5,0-2.4,0.1-2.7c-0.9,0.7-2.2,2.6-4.2,3.5s-8.9,3.9-13.9,6.3c-1.7,0.9-4.8,1.9-6.1-7.2
		c-1.2-9.1,0-13.8,0.9-15.9s2.5-4,5.6-3.1s8.1,2.7,9.4,2.7c0.2-1,1.1-2.9-2.2-3.2c-2.4-0.3-8.6-2-12.1-6.9c-1.4-1.9-2.4-4.4-2.5-7.4
		c-7.1,1.1-23.4,3.2-27,4.1s-6.7,1.6-7.8-6.6c-0.5-3.5-1.4-8.3,1.1-6.6c2-1.5,4.7-3.2,9.6-2.5c0.9,0.1,2,0.9,2.3,1.6
		c0.3,1.2-0.2,3.2-0.8,5c-1.1,3.3-3.2,5.7,3.6,4.2c7.1-1.6,16.1-3,18.4-3.5c0.3-2.4,2.3-6.2,4.7-8.9c2.4-2.7,2.7-5,2.9-5.8
		c0.1-0.9-0.7-1.1-1.9,0c-1.4,1.2-5.5,3.7-9.3,2.7c-1.5-0.4-3.4-3.2-4.3-4.8c0.8-1.7,2.9-4.7,5.4-7.6C150,83,137.6,89.7,126.6,98.4
		c-0.1,1.4,0.1,4.6,1,8.1C128.2,108.8,129.3,112,131.5,114.9"/>
	<path class="st0" d="M140.1,284.6c5.1-2,9.1-1.9,13,3.4c1.1,1.5,2,5.8,11.6,2c-5.1-6.1-8.1-13.3-10.9-23
		c-4.4-15.3-14.4-32.7-10.7-40.6c-2.1-2-4.6-9.7-7.2-8.8c-1.8,0.6-4.2,0.6-2.2-5.2c0.9-2.6,2.4-5.8,5.2-9.6
		c3.4-4.7,8.8-10.3,17.5-17c0.7-0.6,0.9-1.1,0.4-1.6c-0.9-0.9-1.7-1.9-2.6-2.4c-0.9-0.5-1.7-0.3-2.5,0.5c-0.7,0.7-2,1.6-2.7,2.1
		s-6.7-5.3-9.8-9.6c-3.1-4.2-6.3-5.6-7.3-6.1c1.2-1.4,4-4.3,3-4c-1.9,0.6-5.1,1-8.5-2.5c-4.1-4.3-2.5-6.6-3.4-7.2
		c-0.9-0.6-5.3,0.4-8.7-4.8c-3.4-5.2-4.7-7.5-2-11.2c1.4-1.9,1.9-2.7,1.5-5.1c-0.4-2.4,0-3.9,3.1-6.8c3.1-3,5-5.7,6.3-5.5
		c1.1,0.2-2.1-3.8-4-6.7c-0.5-0.8-0.9-1.5-1.1-2.1c-0.5-1.2-1.3-3.3-1.5-5.5c-21.8,21.9-33.9,51-33.9,81.9c0,31,12.1,60.1,34,82
		c5.1,5.1,10.7,9.7,16.5,13.8C135.8,282.2,138.8,283.3,140.1,284.6"/>
	<path class="st4" d="M74.1,39.6C84.3,42.2,91.9,50.4,95.3,55c0.9,1.2,1.7,1,2.1,0.1c0.8-1.8,2.2-7.8,2.2-12.4
		c0-10.4,1.4-14.6,4-19.4C91.5,24,80.8,30.2,74.1,39.6"/>
	<path class="st5" d="M74.1,39.6C84.3,42.2,91.9,50.4,95.3,55c0.9,1.2,1.7,1,2.1,0.1c0.8-1.8,2.2-7.8,2.2-12.4
		c0-10.4,1.4-14.6,4-19.4C91.5,24,80.8,30.2,74.1,39.6z"/>
	<path class="st4" d="M67.9,71.6c19.2,1.7,25.1-9,26.4-10.6c1.2-1.6-0.2-2.6-0.9-3.5c-3.3-4.6-10.7-12.8-20.9-15.4
		c-3.6,5.9-5.7,12.8-5.7,20.2C66.8,65.5,67.2,68.6,67.9,71.6"/>
	<path class="st5" d="M67.9,71.6c19.2,1.7,25.1-9,26.4-10.6c1.2-1.6-0.2-2.6-0.9-3.5c-3.3-4.6-10.7-12.8-20.9-15.4
		c-3.6,5.9-5.7,12.8-5.7,20.2C66.8,65.5,67.2,68.6,67.9,71.6z"/>
	<path class="st4" d="M143.9,70.8c-8.1-3.4-17.7-0.3-24.5,5.7s-10.3,10.5-12.7,24.7c-0.3,0-0.6,0-0.9,0c-10.1,0-19.3-3.9-26.2-10.2
		c11.7-3,21.5-8.3,32.6-18.8c11.1-10.4,16.5-22.6,18-28.3s-0.6-2.4-1.7,0.2c-1.7,4-7.5,14.9-18.8,25.5s-20,15.8-31.8,19.8
		c-3.9-4-7-9-8.9-14.4c4,0.2,16.5-1.2,22.8-6.3c8.2-6.8,9.2-14.8,10.3-26.2c1.1-11.4,2.8-14.8,5.5-19.2c20.7,0.9,37.2,18,37.2,38.9
		C144.8,65.2,144.5,68,143.9,70.8"/>
	<path class="st5" d="M143.9,70.8c-8.1-3.4-17.7-0.3-24.5,5.7s-10.3,10.5-12.7,24.7c-0.3,0-0.6,0-0.9,0c-10.1,0-19.3-3.9-26.2-10.2
		c11.7-3,21.5-8.3,32.6-18.8c11.1-10.4,16.5-22.6,18-28.3s-0.6-2.4-1.7,0.2c-1.7,4-7.5,14.9-18.8,25.5s-20,15.8-31.8,19.8
		c-3.9-4-7-9-8.9-14.4c4,0.2,16.5-1.2,22.8-6.3c8.2-6.8,9.2-14.8,10.3-26.2c1.1-11.4,2.8-14.8,5.5-19.2c20.7,0.9,37.2,18,37.2,38.9
		C144.8,65.2,144.5,68,143.9,70.8z"/>
	<path class="st4" d="M142.8,74.7c-1.9-2.6-8.5-3.9-19.1,2.7c-1,0.6-1.7,1.1-0.5,2.2c2.2,2.2,5.6,6.5,8,12.2
		C136.4,87.3,140.5,81.4,142.8,74.7"/>
	<path class="st5" d="M142.8,74.7c-1.9-2.6-8.5-3.9-19.1,2.7c-1,0.6-1.7,1.1-0.5,2.2c2.2,2.2,5.6,6.5,8,12.2
		C136.4,87.3,140.5,81.4,142.8,74.7z"/>
	<path class="st4" d="M128.1,94.3c-2.2-5.5-4.1-9.4-6.2-12.2c-1.1-1.5-1.4-2.1-3.5-0.3c-5.9,5.2-8.1,13-9.4,19.3
		C116,100.5,122.6,98.1,128.1,94.3"/>
	<path class="st5" d="M128.1,94.3c-2.2-5.5-4.1-9.4-6.2-12.2c-1.1-1.5-1.4-2.1-3.5-0.3c-5.9,5.2-8.1,13-9.4,19.3
		C116,100.5,122.6,98.1,128.1,94.3z"/>
	<path class="st6" d="M176,338.7c0.8-0.4,1.9-0.9,2.4-0.5s3.5,2.5,5.3,4.1c1.9,1.6,2.5,2.1,1,3s-2.9,1.7-2.6,1
		c0.2-0.7,0.6-1.9-0.4-2.9s-3.4-2.9-4.5-3.7C176.6,339.1,176,338.7,176,338.7"/>
	<path class="st7" d="M176,338.7c0.8-0.4,1.9-0.9,2.4-0.5s3.5,2.5,5.3,4.1c1.9,1.6,2.5,2.1,1,3s-2.9,1.7-2.6,1
		c0.2-0.7,0.6-1.9-0.4-2.9s-3.4-2.9-4.5-3.7C176.6,339.1,176,338.7,176,338.7z"/>
	<path class="st6" d="M168.9,340.7c-0.6,0.6-0.7,1.5,0,2.2s4.9,4.2,5.6,4.9c0.7,0.7,1.7,0.9,2.8,0.7c1.1-0.2-1.3,1.4-2.2,1.6
		s-2,0.2-3-0.7c-1-0.9-6.6-6.2-7.7-7.3c-1.1-1.1,0.3-1.1,1.3-1.2S167.6,340.8,168.9,340.7"/>
	<path class="st7" d="M168.9,340.7c-0.6,0.6-0.7,1.5,0,2.2s4.9,4.2,5.6,4.9c0.7,0.7,1.7,0.9,2.8,0.7c1.1-0.2-1.3,1.4-2.2,1.6
		s-2,0.2-3-0.7c-1-0.9-6.6-6.2-7.7-7.3c-1.1-1.1,0.3-1.1,1.3-1.2S167.6,340.8,168.9,340.7z"/>
	<path class="st6" d="M162,308.9c0.4,1.1,0.5,2.2-1.2,1.9c-1.7-0.2-9.1-0.9-11.2-0.9c-0.5,0-0.3-1.2-1.1-0.7
		c-0.7,0.5-0.4,1.6-0.4,2.9c0,1.2-0.1,2-0.1,2.9c0.1,1.3,0.9,3.1,4.2,3.3c3.4,0.2,6.5-0.2,7.5-0.9c1-0.7-0.1-1.8-1-1.8
		s-6.5,0.4-7.7,0s-1.9-1.8-1.1-2.4c1-0.7,2.9,0.2,4.8,0.2s4-0.5,4.5-0.2s1.2,0.2,1.2,2.5c0,0.5,1.2,0.7,1.7,0.7
		c0.6,0,0.8,0.9,0.7,2.2c-0.1,1.2,0.1,1.5-2.2,1.5c-2.2,0-11.9-0.1-13.3-0.1c-0.6,0-0.6-0.4-0.7-1.6c-0.1-1.1-0.4-8.9-0.6-9.5
		c-0.1-0.6,1.5-0.7,2.8-0.4c1.3,0.2,2.9,0.5,5,0.6s5.3,0.4,5.3,0.4s1.6,0.2,1.8-0.3C161.4,308.7,161.9,308.5,162,308.9"/>
	<path class="st7" d="M162,308.9c0.4,1.1,0.5,2.2-1.2,1.9c-1.7-0.2-9.1-0.9-11.2-0.9c-0.5,0-0.3-1.2-1.1-0.7
		c-0.7,0.5-0.4,1.6-0.4,2.9c0,1.2-0.1,2-0.1,2.9c0.1,1.3,0.9,3.1,4.2,3.3c3.4,0.2,6.5-0.2,7.5-0.9c1-0.7-0.1-1.8-1-1.8
		s-6.5,0.4-7.7,0s-1.9-1.8-1.1-2.4c1-0.7,2.9,0.2,4.8,0.2s4-0.5,4.5-0.2s1.2,0.2,1.2,2.5c0,0.5,1.2,0.7,1.7,0.7
		c0.6,0,0.8,0.9,0.7,2.2c-0.1,1.2,0.1,1.5-2.2,1.5c-2.2,0-11.9-0.1-13.3-0.1c-0.6,0-0.6-0.4-0.7-1.6c-0.1-1.1-0.4-8.9-0.6-9.5
		c-0.1-0.6,1.5-0.7,2.8-0.4c1.3,0.2,2.9,0.5,5,0.6s5.3,0.4,5.3,0.4s1.6,0.2,1.8-0.3C161.4,308.7,161.9,308.5,162,308.9z"/>
	<path class="st8" d="M117.4,137.9c-1.6-0.5-2.9,1.4-3.6,2.9s-1.6,3.1,0.7,6.5c2.4,3.4,3.8,5.4,7.9,5.1c2-0.1,3.7-1.6,4.4-2.5
		c0.6-0.9,0.7,0.6-0.2,2.1c-1,1.5-1.7,5,0.1,7.3c1.9,2.4,5.7,4.3,10.8,1.4c5.1-3,7.2-6.6,8.1-8.2c0.9-1.6,0.9-2.4,0-3.4
		s-3.7-5.7-4.3-15c-0.4-5.6,0.6-9.2-2.9-11.2S127,116.2,126,107c-0.4-3.5-0.1-8.8-3.6-6c-3.5,2.9-3.5,4.8-3.8,7
		c-0.4,2.1,1.4,5,2.9,7s3.2,6.3,4.6,7.5c1.4,1.1,2.2,2,3.4,2.1c1.1,0.1,5.6,0.1,6.7,0.5c1.1,0.4,1.7,1.7-1,1.7s-7,0.7-8.8,1
		c-1.9,0.2-3.6,0.4-4.5,4.1c-0.9,3.7-2.1,8.1-2.2,9.4c-0.1,1.4-0.9,2.1-0.9,2.9c0,0.7,1.5,4.3,4.8,0.7c3.4-3.6,4.7-7.2,5.3-8.9
		c0.6-1.7,1.4-1.5,0.7,1.2c-0.6,2.7-0.8,9.6,0.5,11.9c1.4,2.5,4.2,5.1,7.8,3.4c0.7-0.4,2-1,3-0.9s-0.2,1.9-1.1,2.6
		c-0.9,0.7-3.7,3.9-8.8-0.6c-1.2-1.1-3-3.6-3.4-6.7c-0.1-1-1.5-1.4-2.1-0.5s-4,4-6.3,1.7c-2.4-2.2-3.3-3.5-2-8.2
		C117.5,139,118,138.1,117.4,137.9"/>
	<path class="st9" d="M117.4,137.9c-1.6-0.5-2.9,1.4-3.6,2.9s-1.6,3.1,0.7,6.5c2.4,3.4,3.8,5.4,7.9,5.1c2-0.1,3.7-1.6,4.4-2.5
		c0.6-0.9,0.7,0.6-0.2,2.1c-1,1.5-1.7,5,0.1,7.3c1.9,2.4,5.7,4.3,10.8,1.4c5.1-3,7.2-6.6,8.1-8.2c0.9-1.6,0.9-2.4,0-3.4
		s-3.7-5.7-4.3-15c-0.4-5.6,0.6-9.2-2.9-11.2S127,116.2,126,107c-0.4-3.5-0.1-8.8-3.6-6c-3.5,2.9-3.5,4.8-3.8,7
		c-0.4,2.1,1.4,5,2.9,7s3.2,6.3,4.6,7.5c1.4,1.1,2.2,2,3.4,2.1c1.1,0.1,5.6,0.1,6.7,0.5c1.1,0.4,1.7,1.7-1,1.7s-7,0.7-8.8,1
		c-1.9,0.2-3.6,0.4-4.5,4.1c-0.9,3.7-2.1,8.1-2.2,9.4c-0.1,1.4-0.9,2.1-0.9,2.9c0,0.7,1.5,4.3,4.8,0.7c3.4-3.6,4.7-7.2,5.3-8.9
		c0.6-1.7,1.4-1.5,0.7,1.2c-0.6,2.7-0.8,9.6,0.5,11.9c1.4,2.5,4.2,5.1,7.8,3.4c0.7-0.4,2-1,3-0.9s-0.2,1.9-1.1,2.6
		c-0.9,0.7-3.7,3.9-8.8-0.6c-1.2-1.1-3-3.6-3.4-6.7c-0.1-1-1.5-1.4-2.1-0.5s-4,4-6.3,1.7c-2.4-2.2-3.3-3.5-2-8.2
		C117.5,139,118,138.1,117.4,137.9z"/>
	<path class="st8" d="M119.9,130.9c-0.5,1.6-1,3.7-1.2,4.5c-0.2,0.7-1.4,2.4-2.4,0.2c-1-2.1-0.9-3.8,0.6-5.3c0.5-0.5,1.2-1.5,1.7-1
		C119.1,129.8,120,130.6,119.9,130.9"/>
	<path class="st9" d="M119.9,130.9c-0.5,1.6-1,3.7-1.2,4.5c-0.2,0.7-1.4,2.4-2.4,0.2c-1-2.1-0.9-3.8,0.6-5.3c0.5-0.5,1.2-1.5,1.7-1
		C119.1,129.8,120,130.6,119.9,130.9z"/>
	<path class="st8" d="M125.5,125.2c-1,0.5-3.2,0.5-4,2.2c-0.5,1.1-2.5-0.1-1.5-1.5s1.7-1.2,2.4-1.6c0.6-0.4,0.9-1.5,2.1-0.9
		C125.7,124.1,125.9,125,125.5,125.2"/>
	<path class="st9" d="M125.5,125.2c-1,0.5-3.2,0.5-4,2.2c-0.5,1.1-2.5-0.1-1.5-1.5s1.7-1.2,2.4-1.6c0.6-0.4,0.9-1.5,2.1-0.9
		C125.7,124.1,125.9,125,125.5,125.2z"/>
	<path class="st8" d="M207.3,63.7c-3.5,0.4-6.7,2.5-9.9,4.7c-3.2,2.2-14.9,12.1-17.6,14c2.9,1.5,3.6,4.5,2.6,9.4
		c-0.2,1.1,0,1.5,0.7,0.7c0.7-0.7,4.2-4.5,4.1-7.5c-0.1-3-1.5-4.7-1.7-5.1s1-1.9,2.4,1.2s1,7.5-3.1,12.3s-7.3,4.7-9.1,5.6
		c-1.7,0.9-3.5,2.2-1.9,4.8c1.6,2.6,4.7,1.6,6,0.7c1.2-0.9,3-1.9,7-1.5s5.3-2.2,2.6-4.8c-0.9-0.9-3.1-2.9-0.4-2.9
		c1.6,0,3.6,3.6,4.7,4.6c1.1,1,3.6,1.4,7,1.6s8.6,1.5,8.6,4.7c0,2-1.1,2.6-2.5,1c-0.6-0.6-1.4,0.4-2,1c-2.1,2.1-7.5,7.8-11.4,8.8
		s-5.3-0.1-10.4-2.9c-5.1-2.7-9.8-5.5-11.2-6.3c-1.4-0.9-4.2-2.9-2.9,1.1c1.4,4,4.7,8.1,11.4,10.3c6.7,2.2,7.7,3,9.2,3.7
		s0.6,1.5-1.4,1.2c-1.7-0.2-3.6-1.7-2.1,1.6c1.5,3.3,3.7,7,10.6,6.1c6.8-0.9,7-2.3,11.3-9.4c0.7-1.2,1.5-0.4,1,2.9
		c3.4-1.6,5.2-2.1,7.2-2.6s7.2-2.2,10.6-8.6c1.7-3.2,2.7-4.3,2.4-7.7c-0.1-1.2,1.7-3.7,3.6-5.5c1.9-1.7,7-8.3,4.3-13
		c-2.6-4.7-7-2.4-9.1,1.1s-4.5,7.3-4.6,13.3c-1.5-0.5-3,0-3.7,1.2c-0.4,0.6-5.8-0.1-7.7,0.4s-2.5-0.6-0.5-3.2s9-12.1,8.6-19.1
		c-0.1-2.1,0.2-2.5,0.5-4.1c0.4-2.1,0.6-2.1-1.9-3.5c-1.7-0.9-1.8-3.5-2-5.5c-0.3-2.1-0.7-2.1-3.1-1.6
		C211.6,67.7,208.7,66,207.3,63.7"/>
	<path class="st10" d="M207.3,63.7c-3.5,0.4-6.7,2.5-9.9,4.7c-3.2,2.2-14.9,12.1-17.6,14c2.9,1.5,3.6,4.5,2.6,9.4
		c-0.2,1.1,0,1.5,0.7,0.7c0.7-0.7,4.2-4.5,4.1-7.5c-0.1-3-1.5-4.7-1.7-5.1s1-1.9,2.4,1.2s1,7.5-3.1,12.3s-7.3,4.7-9.1,5.6
		c-1.7,0.9-3.5,2.2-1.9,4.8c1.6,2.6,4.7,1.6,6,0.7c1.2-0.9,3-1.9,7-1.5s5.3-2.2,2.6-4.8c-0.9-0.9-3.1-2.9-0.4-2.9
		c1.6,0,3.6,3.6,4.7,4.6c1.1,1,3.6,1.4,7,1.6s8.6,1.5,8.6,4.7c0,2-1.1,2.6-2.5,1c-0.6-0.6-1.4,0.4-2,1c-2.1,2.1-7.5,7.8-11.4,8.8
		s-5.3-0.1-10.4-2.9c-5.1-2.7-9.8-5.5-11.2-6.3c-1.4-0.9-4.2-2.9-2.9,1.1c1.4,4,4.7,8.1,11.4,10.3c6.7,2.2,7.7,3,9.2,3.7
		s0.6,1.5-1.4,1.2c-1.7-0.2-3.6-1.7-2.1,1.6c1.5,3.3,3.7,7,10.6,6.1c6.8-0.9,7-2.3,11.3-9.4c0.7-1.2,1.5-0.4,1,2.9
		c3.4-1.6,5.2-2.1,7.2-2.6s7.2-2.2,10.6-8.6c1.7-3.2,2.7-4.3,2.4-7.7c-0.1-1.2,1.7-3.7,3.6-5.5c1.9-1.7,7-8.3,4.3-13
		c-2.6-4.7-7-2.4-9.1,1.1s-4.5,7.3-4.6,13.3c-1.5-0.5-3,0-3.7,1.2c-0.4,0.6-5.8-0.1-7.7,0.4s-2.5-0.6-0.5-3.2s9-12.1,8.6-19.1
		c-0.1-2.1,0.2-2.5,0.5-4.1c0.4-2.1,0.6-2.1-1.9-3.5c-1.7-0.9-1.8-3.5-2-5.5c-0.3-2.1-0.7-2.1-3.1-1.6
		C211.6,67.7,208.7,66,207.3,63.7z"/>
	<path class="st8" d="M192.8,102.6c-0.7,1.6-2.6,3-6.9,2.5c-2.2-0.2-4.3-0.3-4.7,1.4c-0.2,1.2-1.2,1.1-2.6,1.1c-1.4-0.1-3-0.4-3,0.1
		c-0.1,0.5,6.1,4.2,8.1,5.1s5,3.2,7.5,2.9c3.2-0.3,6-1.9,10.8-7c2-2.1,3.5-3.2,1.7-4c-1.3-0.6-2.6-0.7-4.2-0.7
		C197.8,104,194.2,103.7,192.8,102.6"/>
	<path class="st10" d="M192.8,102.6c-0.7,1.6-2.6,3-6.9,2.5c-2.2-0.2-4.3-0.3-4.7,1.4c-0.2,1.2-1.2,1.1-2.6,1.1
		c-1.4-0.1-3-0.4-3,0.1c-0.1,0.5,6.1,4.2,8.1,5.1s5,3.2,7.5,2.9c3.2-0.3,6-1.9,10.8-7c2-2.1,3.5-3.2,1.7-4c-1.3-0.6-2.6-0.7-4.2-0.7
		C197.8,104,194.2,103.7,192.8,102.6z"/>
	<path class="st8" d="M169.6,102.7c-1.7-0.1-1.9-1.3-0.7-3.2c1.1-1.9,2.2-3.6,3.7-4.7c0.2,0.8,0.7,1.8,1.5,2.2c-1,1.1-2.3,2.4-2.1,5
		L169.6,102.7z"/>
	<path class="st10" d="M169.6,102.7c-1.7-0.1-1.9-1.3-0.7-3.2c1.1-1.9,2.2-3.6,3.7-4.7c0.2,0.8,0.7,1.8,1.5,2.2
		c-1,1.1-2.3,2.4-2.1,5L169.6,102.7z"/>
	<path d="M197.5,84.3c0.3-1.7,0.1-3.2-2.5-1.1c-2.4-1.7-4.5-3.8-5.2-4.3s-1.1-1.2-0.2-2.1c0.9-0.9,2.4,0.7,2.1-1.9
		c-0.1-0.9,1.9-0.3,2.4-0.6c0.5-0.2-0.2-1.5,2.1-0.9c0.7,0.2,0.4-1.2,1.9-1s2.2,0.8,2.5-0.4c0.3-1.2,0.7-1.9,2.5-0.7
		c1.3,0.8,1.8,0.3,1.9-0.3c0.1-0.6,1.3-0.2,2.4,0.4c1.1,0.6,3.7,1.9,6.8,5.5c0.7,0.9,1.1,1.8,0.6,1.9s-1.1,0-1.2,1
		c-0.1,1-0.6,1.9-1.2,0.7c-0.6-1.1-0.7,0.2-1.1-1c-0.4-1.2-1,0.4-1.3-0.4c-0.4-1-0.8,0.2-1.2-0.7c-0.2-0.4-1.4,0.6-1.7-0.1
		c-0.4-0.7-1.2,0.7-1.8-0.1c-0.6-0.8-0.6,0.9-1.6,0.5s-0.6,0.9-1.6,0.5s-0.7,1.2-1.6,1c-0.9-0.2-0.9,0.2-1.1,1.2
		c-0.2,1.1-0.6,5.2-0.6,6.1s2.1,0.7,5.2,0.3c3.1-0.4,8.6-2.2,11.4-4.5c1.1-0.9,2.1-0.9,2.3-0.6s-0.3,1.3-1.1,2s-2.9,2.9-7.7,3.8
		s-8.8,1.7-9.6,1.5s0.3,1.2,1.7,0.9c0.8-0.2,2.4,2.8,5,2.8c2.1,0,5.3-2.4,6.1-3c0.9-0.7,4-2.1,1.9,0s-4.3,4.4-6.6,4.5
		c-2.2,0.1-5.7-0.7-8-2.3c-2.4-1.6-3.2-2.5-2.8-5C197.3,85.5,197.4,85,197.5,84.3"/>
	<path class="st10" d="M197.5,84.3c0.3-1.7,0.1-3.2-2.5-1.1c-2.4-1.7-4.5-3.8-5.2-4.3s-1.1-1.2-0.2-2.1c0.9-0.9,2.4,0.7,2.1-1.9
		c-0.1-0.9,1.9-0.3,2.4-0.6c0.5-0.2-0.2-1.5,2.1-0.9c0.7,0.2,0.4-1.2,1.9-1s2.2,0.8,2.5-0.4c0.3-1.2,0.7-1.9,2.5-0.7
		c1.3,0.8,1.8,0.3,1.9-0.3c0.1-0.6,1.3-0.2,2.4,0.4c1.1,0.6,3.7,1.9,6.8,5.5c0.7,0.9,1.1,1.8,0.6,1.9s-1.1,0-1.2,1
		c-0.1,1-0.6,1.9-1.2,0.7c-0.6-1.1-0.7,0.2-1.1-1c-0.4-1.2-1,0.4-1.3-0.4c-0.4-1-0.8,0.2-1.2-0.7c-0.2-0.4-1.4,0.6-1.7-0.1
		c-0.4-0.7-1.2,0.7-1.8-0.1c-0.6-0.8-0.6,0.9-1.6,0.5s-0.6,0.9-1.6,0.5s-0.7,1.2-1.6,1c-0.9-0.2-0.9,0.2-1.1,1.2
		c-0.2,1.1-0.6,5.2-0.6,6.1s2.1,0.7,5.2,0.3c3.1-0.4,8.6-2.2,11.4-4.5c1.1-0.9,2.1-0.9,2.3-0.6s-0.3,1.3-1.1,2s-2.9,2.9-7.7,3.8
		s-8.8,1.7-9.6,1.5s0.3,1.2,1.7,0.9c0.8-0.2,2.4,2.8,5,2.8c2.1,0,5.3-2.4,6.1-3c0.9-0.7,4-2.1,1.9,0s-4.3,4.4-6.6,4.5
		c-2.2,0.1-5.7-0.7-8-2.3c-2.4-1.6-3.2-2.5-2.8-5C197.3,85.5,197.4,85,197.5,84.3z"/>
	<path d="M233.7,92.2c-1.4,1-2.2,1.4-2.4,3.1c-0.1,1.7-0.5,4.7-1.1,5c-0.8,0.3-0.7-1.6-1-1c-0.4,0.9-1.4,0.5-1.7-0.3
		c-0.1-0.3-3.2-0.3-0.8-3.9c2.3-3.3,4-5,5.6-5.7C233.9,88.6,236.6,90.1,233.7,92.2"/>
	<path class="st10" d="M233.7,92.2c-1.4,1-2.2,1.4-2.4,3.1c-0.1,1.7-0.5,4.7-1.1,5c-0.8,0.3-0.7-1.6-1-1c-0.4,0.9-1.4,0.5-1.7-0.3
		c-0.1-0.3-3.2-0.3-0.8-3.9c2.3-3.3,4-5,5.6-5.7C233.9,88.6,236.6,90.1,233.7,92.2z"/>
	<path class="st8" d="M294.5,239.8c-0.6-1.5,0.4-3.9,3.5-2.2s5.5,3.2,3.2,10.1c-2.2,6.8-3.9,10.8-4.7,13.7c-0.9,2.9-4.2,6.5-3.1,1.6
		c1.1-4.8,1.7-10.7,1.2-13.7c-0.9-5.5,0.9-5.1,0.3-7.6C294.8,240.9,294.7,240.4,294.5,239.8"/>
	<path class="st9" d="M294.5,239.8c-0.6-1.5,0.4-3.9,3.5-2.2s5.5,3.2,3.2,10.1c-2.2,6.8-3.9,10.8-4.7,13.7c-0.9,2.9-4.2,6.5-3.1,1.6
		c1.1-4.8,1.7-10.7,1.2-13.7c-0.9-5.5,0.9-5.1,0.3-7.6C294.8,240.9,294.7,240.4,294.5,239.8z"/>
	<path class="st8" d="M306.2,245.7c0.9,2.7,1.9,8.8,0.4,11.3s-6.1,9.3-7.8,11.1c-1.7,1.7-3.1,1-2-0.9s2.6-4.4,2.6-5.2
		c0-0.9-0.1-1.9,1.4-4.7c1.5-2.9,4.1-12.4,4.3-13.2C305.3,243.4,306,245,306.2,245.7"/>
	<path class="st9" d="M306.2,245.7c0.9,2.7,1.9,8.8,0.4,11.3s-6.1,9.3-7.8,11.1c-1.7,1.7-3.1,1-2-0.9s2.6-4.4,2.6-5.2
		c0-0.9-0.1-1.9,1.4-4.7c1.5-2.9,4.1-12.4,4.3-13.2C305.3,243.4,306,245,306.2,245.7z"/>
	<path class="st8" d="M274.2,268.7c-0.7-2.2-1.1-5.5-2.4-7.3c1-2.7,4.3-10.1,9.8-12.3c0.6-0.2,1-0.9,0.7-1.4
		c-0.2-0.5,0.7-0.9,1.2,0.9c0.5,1.7,1.4,6.7,1.4,6.7c0.2,1.1-0.2,2-0.5,3.5s-0.9,4.8-0.5,6.6c0.4,1.7,1,3,4.5,2.2
		c1.7-0.4,1.6-0.9,2.1-2.4s1.9-5.7,2.4-8.1s0.1-8.1-0.4-9.6s0.2-6.5-0.2-7.5c-0.4-1-0.6-2.5-3.7-3.5s-4-1.2-6.1,0.9
		c-2.1,2.1-2.9,3-3.8,4c-1,1-3.5,0.1-1.4-1.9s4.1-4,4.7-4.6l-0.6-1.6h-1.1c-3.4,3.4-7.8,5.3-10.8,6c-1.1,0.2-3.2,0.4-1.7,2.4
		c0.4,0.5,0.5,1.9,1.4,1.4s2.2-2.7,3.5-1.7c1.2,1-0.2,3.4-1.7,4.5s-3.1,2.2-4.2,2.9c-1.1,0.6-1.7,1.2-1.6,3.2s0.2,5.6-0.9,8.3
		c-1.1,2.7-0.5,3.5,0.5,5.3c1,1.9,2.6,3.5,3.1,6.5s0.7,3.7,2.7,3.5s2.7-1.1,3.5-2.4L274.2,268.7z"/>
	<path class="st9" d="M274.2,268.7c-0.7-2.2-1.1-5.5-2.4-7.3c1-2.7,4.3-10.1,9.8-12.3c0.6-0.2,1-0.9,0.7-1.4
		c-0.2-0.5,0.7-0.9,1.2,0.9c0.5,1.7,1.4,6.7,1.4,6.7c0.2,1.1-0.2,2-0.5,3.5s-0.9,4.8-0.5,6.6c0.4,1.7,1,3,4.5,2.2
		c1.7-0.4,1.6-0.9,2.1-2.4s1.9-5.7,2.4-8.1s0.1-8.1-0.4-9.6s0.2-6.5-0.2-7.5c-0.4-1-0.6-2.5-3.7-3.5s-4-1.2-6.1,0.9
		c-2.1,2.1-2.9,3-3.8,4c-1,1-3.5,0.1-1.4-1.9s4.1-4,4.7-4.6l-0.6-1.6h-1.1c-3.4,3.4-7.8,5.3-10.8,6c-1.1,0.2-3.2,0.4-1.7,2.4
		c0.4,0.5,0.5,1.9,1.4,1.4s2.2-2.7,3.5-1.7c1.2,1-0.2,3.4-1.7,4.5s-3.1,2.2-4.2,2.9c-1.1,0.6-1.7,1.2-1.6,3.2s0.2,5.6-0.9,8.3
		c-1.1,2.7-0.5,3.5,0.5,5.3c1,1.9,2.6,3.5,3.1,6.5s0.7,3.7,2.7,3.5s2.7-1.1,3.5-2.4L274.2,268.7z"/>
	<path class="st4" d="M274.9,274.4c-0.9,1.5-2.4,3.9-2.4,6s-2.1,4.3-1.9,5.3s3,3.6,4.6,6.3c1.6,2.7,3.7,6.8,3.7,13.7
		c0,6.8-2.2,16.2-2.5,17.4c-0.2,1.2-0.9,2.2,1,4c1.9,1.7,4.8,5,6,12.3c1.1,7.3,1.9,11.2,2.4,11.6s0.4,1,0.4,2.4s1.2,9.2,2.1,10.7
		s0.7-8.4,0.6-11.3s0.1-16.5,0.6-18.5s1-4.2-0.7-6.7s-4.7-6.8-2.5-14s5.8-7.1,4.7-9.9s-3.1-4.8-4.6-6.5c-1.5-1.6-0.3-5.5-0.4-7.1
		c-0.1-3-2.5-3.5-2.7-6.8c-0.3-3.4-0.5-6.1,2-9.4c2.5-3.4-0.9-3.2-2-5.3c-1.1-2.1-1.7-4.9-0.7-9.3c0.5-2.2,0.2-2.9-0.4-3.1
		s-3.2-0.7-3.2-0.7l-3.8,7.7c0.6,1.5,0.9,3.7,0.9,5.2L274.9,274.4z"/>
	<path class="st5" d="M274.9,274.4c-0.9,1.5-2.4,3.9-2.4,6s-2.1,4.3-1.9,5.3s3,3.6,4.6,6.3c1.6,2.7,3.7,6.8,3.7,13.7
		c0,6.8-2.2,16.2-2.5,17.4c-0.2,1.2-0.9,2.2,1,4c1.9,1.7,4.8,5,6,12.3c1.1,7.3,1.9,11.2,2.4,11.6s0.4,1,0.4,2.4s1.2,9.2,2.1,10.7
		s0.7-8.4,0.6-11.3s0.1-16.5,0.6-18.5s1-4.2-0.7-6.7s-4.7-6.8-2.5-14s5.8-7.1,4.7-9.9s-3.1-4.8-4.6-6.5c-1.5-1.6-0.3-5.5-0.4-7.1
		c-0.1-3-2.5-3.5-2.7-6.8c-0.3-3.4-0.5-6.1,2-9.4c2.5-3.4-0.9-3.2-2-5.3c-1.1-2.1-1.7-4.9-0.7-9.3c0.5-2.2,0.2-2.9-0.4-3.1
		s-3.2-0.7-3.2-0.7l-3.8,7.7c0.6,1.5,0.9,3.7,0.9,5.2L274.9,274.4z"/>
	<path class="st0" d="M239,123.2c-3.1,4.1-7.8,14.4-10.1,20.9c-2.2,6.5-7.3,21.9-3.7,32.1s10.7,3.7,12.3-0.1
		c1.6-3.9,4.1-10.4,4.9-12.2c0.7-1.7,1.1-2.7,2.5,1.4c1.4,4.1,3.4,13.9,3.4,14.8c0,0.9-1.4,3.4-2.9,7.2c-1.5,3.9-2.4,6.6-0.9,8.9
		c1.5,2.4,7.3,12.4,9.2,16.8c1.1,2.6,2.1,3.1,5.1,2.4c3-0.7,10.2-3.2,12.3-4.2c2.1-1,1.1-2.7,0.5-4.8c-0.9-3.2-4.7-21.1-4.7-23.5
		s0.6-5.5-2.5-2c-1.1,1.2-2.6,0-2.2-1.7s4.1-26,4.3-28.9c-2.1-4.6-8.3-19.1-10.1-21.7c-1.7-2.6-2.4-2.7-5-1.4
		c-2.6,1.4-8.4,3.5-10.6-1.5c-0.4-0.9-1-2.9,0.5-3.1l-1.1-0.4C240.2,122,239.4,122.7,239,123.2"/>
	<path class="st0" d="M271.6,212.6c-2.3,1.3-10.2,4.7-13.4,5.2c-3.3,0.5-2.5,1.4-1.9,3.9s2.5,9.9,3.5,12.6c1,2.6,2.4,2.6,5,2.5
		c4-0.1,10.7-1.9,15.5-6.3c-1.4-1.6-3.8-9.4-4.5-12.7C275,214.2,275,210.6,271.6,212.6"/>
	<path class="st0" d="M200.4,140.9c-0.2,0.5-1.1,2-3.1,2s-3.6-0.6-4.9,1.1c-1.2,1.7-8.1,10.1-9.6,15.2c1.5,3.1,3.5,8.7,5,12.7
		c4.8-4.1,20.3-19.2,23.2-22.1c1.1-1.1,1.2-2.1-0.4-3.2c-1.6-1.1-7.6-4.9-8.6-5.5C201.1,140.4,200.6,140.4,200.4,140.9"/>
	<path class="st0" d="M161.2,162.7c-1,3.8-2.9,10.6-6,15.8c1.2,2,2.2,3.7,3.7,4.4c3.5-2.5,10.1-8.6,11.9-10.8
		c1.9-2.2,4.2-5.6,4.2-6.3s-0.9-1-2-0.7c-1.1,0.2-5.7-1.6-10.2-2.5C161.7,162.2,161.4,162.2,161.2,162.7"/>
	<path class="st0" d="M158.5,159c-1.4-0.3-6.1-5.3-7.7-8.1c-1.6-2.7-1.9-2.5-2.5-0.5s-3,6.3-4.6,8.4c-1.6,2.1-5.8,7.6-7,8.8
		c-1.1,1.2,0,1.7,1,2.7s6.1,7.2,7.2,8.6c1.1,1.4,2.4,3.9,5.3,1.1c3-2.7,6.6-7.7,8.2-12.8c1.6-5.1,1.7-7.8,3.1-7.5l0.1-1.1l-0.4-0.6
		l-0.7-0.6c0.2,0.4,0.2,0.8-0.1,1.3C160.1,159.4,159.1,159.1,158.5,159"/>
	<path class="st0" d="M234.5,44.7c-3.4,4-10.1,7.5-21.4,10.3S191,65.8,186.5,69.7c-4.6,3.9-16.2,13.3-21.7,15.7
		c-1.5,0.6-4.7,2.7-0.6,3.2c3,0.4,5.1-1.4,11.6-6.1s11.5-8.1,16.4-12.9c4.6-4.5,12.9-8.7,21.9-11.2s20.7-6.4,24.1-10.1
		c1.6-1.7,1.7-2.6,0.2-4.1C236.8,42.7,235.9,43.1,234.5,44.7"/>
	<path class="st0" d="M177.5,83.8c-1,0.5-1.4,1.1-2.5,4.7s-1,5.7-0.1,6.6c0.7,0.6,1.7,0.7,2.2,0.7c0.4,0,0.7,0.1,0.7-0.9
		c-0.1-1.1-0.1-5.6,3.2-7.6c0.6-0.4-0.1-3-2.3-2.6C178,84.8,178.8,83.1,177.5,83.8"/>
	<path class="st0" d="M139.1,98c1.7,0,2.9,0,2.7,2c-0.1,2-1,4.7-1.1,6.6s-0.1,2.6,1,2.6s-1.6,1.1-3.1,1.4c-1.5,0.2-3.8,1.1-5-5.2
		c-0.4-2-0.2-5.1-0.5-5.8C134.8,98.7,137,98,139.1,98"/>
	<path class="st0" d="M172.1,103.3c0.5,2.5,1.1,2.5,0.6,2.8c-0.5,0.4-1-0.9-3-0.6c-1.9,0.3-17.6,2.7-18.7,2.9
		c-3.5,0.4-3.7-0.2-0.4-0.9c3.2-0.7,15-2.8,18.6-3.5L172.1,103.3z"/>
	<path class="st0" d="M153.3,293.3c1.6,1,5.5,2.1,12.1-0.6s13.9-0.9,15,3.8c1.1,4.7,1.2,10.8-0.9,13.4c-1.7,2.2-3.4,2-5.3,1.4
		c-3.6-1.1-11.9-5-14.3-6.1c-2.4-1.1-6.3-2.4-9.2-2.4c-1.1-2.4-1-6.5-0.2-8c0.7-1.5,0.7-3,1.4-2.6
		C152.4,292.7,153.3,293.3,153.3,293.3"/>
	<path class="st0" d="M179.4,315.3c1.6,0,4.5,0.7,5.5,3.6c0.7,2.4,5.6,3,7.7,2.9c2.1-0.1,1.7,1,1.6,2.2c-0.1,1.2-0.5,5-0.5,6.5
		s0.4,6.7,0.6,7.7c0.3,1-0.6,1.5-1.7,2c-1.1,0.5-5.2,1.7-7.8-0.1c-1.4-1-3-2.4-1.4-2.5s-2-14.2-3-16.6
		C179.4,318.4,176.5,315.3,179.4,315.3"/>
	<path class="st0" d="M136.6,286c0.7,0.2,1,0.9,1.5,1.7c0.5,0.9,0.7,1.6-0.1,2.5c-1.4,1.5-3,8.3-2.7,13.2c-0.9-0.2-2.7-0.6-3.7-0.4
		c-0.4-2.7-0.1-11.3,1.1-14C133.9,286.2,135.1,285.5,136.6,286"/>
	<path class="st0" d="M136.9,361.8c3.1,3.5,8.9,8.8,13.3,10.7c4.3,1.9,7.2,2.5,11.1,2.1c3.1-0.3,2.5,1,0,1.4s-8.2,0.4-11.9-1.6
		s-9.6-5.7-13.4-11.1C135,362,135.9,360.7,136.9,361.8"/>
	<path class="st0" d="M201.6,353.1c-2.5,1.2-7.2,3.5-11.7,4.6c0.5,2.2,0.6,3.2,0.6,3.8c2.7,0,8-1.9,12.3-4.6c1-0.6,1.4-1.4,1-2.2
		C203.5,353.8,203,352.4,201.6,353.1"/>
	<path class="st0" d="M172.2,342.9c-0.6-0.6,2.9-1.4,3.7-1.4c0.9,0.6,2.5,2,3.1,2.5c0.4,0.4,0.2,0.6-0.2,0.9
		c-0.4,0.2-2.5,0.8-3.5,0.9C174,344.8,172.5,343.2,172.2,342.9"/>
	<path class="st0" d="M178.8,291.2c-1-0.7-0.9-1.1-0.4-1.9c0.5-0.7,1-1.2,1.5-1.5c0.5-0.2,1.2-0.4,2.1,0.9c0.9,1.2,5.6,9.1,6.6,11.2
		s2.2,0.7,1.7-0.5s-1.5-3.4-1.9-4c1.4-4.2,2.7-10.7,2.7-14.9c0-4.2-1-8.4-1.7-9.9c3.4,0.1,10.7,0,13.5-0.9c2.9-0.9,0.5-1.1-0.6-1
		s-9.2,0.1-15-0.6c-10.2-1.2-20.2-7-23.4-10.9c-0.5-0.6-3.5-0.4-1,1.6s8.8,7.9,18.1,9.6c2.1,0.4,5.5,1,6,8.7s-0.2,12.7-0.2,13.4
		c0,0.7-0.5,1-1.1,0.1s-2.7-3.7-3.9-4.3c-1.1-0.6-1.9-0.5-2.9,0.2s-2.5,2.2-3.1,3L178.8,291.2z"/>
	<path class="st0" d="M158.7,315.5c-0.9,0-6.5,0.4-7.7,0s-1.9-1.8-1.1-2.4c1-0.7,2.9,0.2,4.8,0.2c1.9,0,4-0.5,4.5-0.2
		s1.2,0.2,1.2,2.5L158.7,315.5z"/>
	<path class="st0" d="M145.2,349.6c-1.6-1-3.5-5.6-3.9-14.8c-0.1-3.1,1.1-8.3,2.1-10.8s-0.6-1.5-1-0.6s-1.6,4.3-2,7
		c-0.4,2.6-1,6.5,0,12.1s1.5,7.3,1.7,8.3L145.2,349.6z"/>
	<path class="st6" d="M196.1,44.5c0.2-0.6,0.4-1.3,0.7-1.8c-0.9,0.5-1.8,0.9-2.6,1.4C194.7,44.8,195.5,46.1,196.1,44.5"/>
	<path class="st7" d="M196.1,44.5c0.2-0.6,0.4-1.3,0.7-1.8c-0.9,0.5-1.8,0.9-2.6,1.4C194.7,44.8,195.5,46.1,196.1,44.5z"/>
	<path class="st6" d="M218.5,45.7c-0.4-1.3-1.6,0.7-3.1,2.6c-1.6,1.9-3.8,0.7-4-0.2s-0.7-2-2.1-3.8c-1.4-1.8,1.3-4.3,2.4-4.6
		c1.1-0.3,2.5-0.6,2.9-0.9c0.3-0.3-0.2-2.1-0.5-3.5c-4.5,1.3-9.9,3.6-14.7,6c1.5,0.6,1,3.4,0.9,3.8c-0.2,0.4-0.7,2.9,0.4,1.4
		c1.1-1.5,1.6-2,2.7-2.4c1.2-0.4,2.5-0.3,2.5,1.4c0.1,1.7-0.7,1.6-1,2.7c-0.2,1.1,0,1.1,0.6,1.3s0.9,1,0.5,2.2s-2.3,1.3-4,1.1
		s-1.9,0.1-1.3,0.6c0.5,0.5,1.1,1.4,1.3,2.5c4.1-2,8.9-3.6,16.5-5.1C218.7,49.4,218.8,46.8,218.5,45.7"/>
	<path class="st7" d="M218.5,45.7c-0.4-1.3-1.6,0.7-3.1,2.6c-1.6,1.9-3.8,0.7-4-0.2s-0.7-2-2.1-3.8c-1.4-1.8,1.3-4.3,2.4-4.6
		c1.1-0.3,2.5-0.6,2.9-0.9c0.3-0.3-0.2-2.1-0.5-3.5c-4.5,1.3-9.9,3.6-14.7,6c1.5,0.6,1,3.4,0.9,3.8c-0.2,0.4-0.7,2.9,0.4,1.4
		c1.1-1.5,1.6-2,2.7-2.4c1.2-0.4,2.5-0.3,2.5,1.4c0.1,1.7-0.7,1.6-1,2.7c-0.2,1.1,0,1.1,0.6,1.3s0.9,1,0.5,2.2s-2.3,1.3-4,1.1
		s-1.9,0.1-1.3,0.6c0.5,0.5,1.1,1.4,1.3,2.5c4.1-2,8.9-3.6,16.5-5.1C218.7,49.4,218.8,46.8,218.5,45.7z"/>
	<path class="st6" d="M179.2,70.2c-0.6-1.1-1.4-1.3-1.7-0.4s-0.9,3.8-2.9,4.6c-0.6,0.3-1.1,0.4-1.5,0.5c0.7,0.7,1.4,1.4,2.3,2
		c1.5-1.6,2.9-3.1,4.3-4.4C179.8,71.8,179.6,71,179.2,70.2"/>
	<path class="st7" d="M179.2,70.2c-0.6-1.1-1.4-1.3-1.7-0.4s-0.9,3.8-2.9,4.6c-0.6,0.3-1.1,0.4-1.5,0.5c0.7,0.7,1.4,1.4,2.3,2
		c1.5-1.6,2.9-3.1,4.3-4.4C179.8,71.8,179.6,71,179.2,70.2z"/>
	<path class="st6" d="M197.8,55.4c-0.7-0.2-1.2,0.8-1.7,1.5c-0.4,0.7-1.4,2-3,1.8s-2-0.7-2.4-2.1c-0.4-1.4-1.4-1.8-2.6-1.8
		c-1.2,0-2-1.4-0.7-2.9c1.2-1.5,2.5-0.8,3.5-0.8s1.5-1.1,0.7-1.6c-0.6-0.4-1.8-1.7-2-2.7c-3.5,2.3-8.6,5.9-13.1,9.9
		c0.8,0.1,1.7,0.3,2.2,0.5c0.6,0.2,1.6,1,1.4,2.1c-0.1,1.1,0.2,1.4,0.9,0.6c0.7-0.7-0.1-3,2.2-3.9s2.6,0.9,2.5,2
		c-0.1,1.2,0,2.3,1.2,2.8s2.5,2.4-0.1,3.5c-2.6,1.1-4,1.4-5.1,1.7s-0.8,1.4,0.1,2c0.5,0.4,0.9,0.8,1.2,1.1c3.3-3,6.4-5.5,9.9-7.9
		c1.9-1.3,3.7-2.5,5.5-3.5C198.7,56.8,198.8,55.8,197.8,55.4"/>
	<path class="st7" d="M197.8,55.4c-0.7-0.2-1.2,0.8-1.7,1.5c-0.4,0.7-1.4,2-3,1.8s-2-0.7-2.4-2.1c-0.4-1.4-1.4-1.8-2.6-1.8
		c-1.2,0-2-1.4-0.7-2.9c1.2-1.5,2.5-0.8,3.5-0.8s1.5-1.1,0.7-1.6c-0.6-0.4-1.8-1.7-2-2.7c-3.5,2.3-8.6,5.9-13.1,9.9
		c0.8,0.1,1.7,0.3,2.2,0.5c0.6,0.2,1.6,1,1.4,2.1c-0.1,1.1,0.2,1.4,0.9,0.6c0.7-0.7-0.1-3,2.2-3.9s2.6,0.9,2.5,2
		c-0.1,1.2,0,2.3,1.2,2.8s2.5,2.4-0.1,3.5c-2.6,1.1-4,1.4-5.1,1.7s-0.8,1.4,0.1,2c0.5,0.4,0.9,0.8,1.2,1.1c3.3-3,6.4-5.5,9.9-7.9
		c1.9-1.3,3.7-2.5,5.5-3.5C198.7,56.8,198.8,55.8,197.8,55.4z"/>
	<path class="st6" d="M173.5,67c0.1-1.2-0.9-1.7-1.5-1.9c-0.5-0.1-1.3-1-1.7-1.8c-0.6,0.8-1.2,1.6-1.6,2.5c0.3,0.8,0.5,1.6,0.8,2.3
		C171,68.1,173.4,68,173.5,67"/>
	<path class="st7" d="M173.5,67c0.1-1.2-0.9-1.7-1.5-1.9c-0.5-0.1-1.3-1-1.7-1.8c-0.6,0.8-1.2,1.6-1.6,2.5c0.3,0.8,0.5,1.6,0.8,2.3
		C171,68.1,173.4,68,173.5,67z"/>
	<path class="st6" d="M226,125c-4.1-0.3-8.9,0.6-13.5,2.3c0.8,0.5,1.7,1.6,3.3,1c2.4-0.8,3.2,1.7,2.1,2.4c-1.1,0.7-1.5,2.4,0.6,1.1
		c2.1-1.3,4,0.6,3.1,1.9c-0.9,1.4-2,0.3-1.7,2.2c0.2,1.9-0.2,3.7-1.9,4s-2.1-2.3-2.9-2.1c-0.8,0.2,0.2,4.6-0.2,4.7
		c-1.2,0.2-2.4,1.3-3,1.9c0.1,0,0.1,0.1,0.1,0.1c6.8,4.9,8.6,2.2,9.6-0.1c1-2.4,3.2-9.4,3.9-13C225.7,129.2,226.2,127,226,125"/>
	<path class="st7" d="M226,125c-4.1-0.3-8.9,0.6-13.5,2.3c0.8,0.5,1.7,1.6,3.3,1c2.4-0.8,3.2,1.7,2.1,2.4c-1.1,0.7-1.5,2.4,0.6,1.1
		c2.1-1.3,4,0.6,3.1,1.9c-0.9,1.4-2,0.3-1.7,2.2c0.2,1.9-0.2,3.7-1.9,4s-2.1-2.3-2.9-2.1c-0.8,0.2,0.2,4.6-0.2,4.7
		c-1.2,0.2-2.4,1.3-3,1.9c0.1,0,0.1,0.1,0.1,0.1c6.8,4.9,8.6,2.2,9.6-0.1c1-2.4,3.2-9.4,3.9-13C225.7,129.2,226.2,127,226,125z"/>
	<path class="st6" d="M211.1,138.5c0.4-0.9-0.6-1.7-1.7-1.1c-1.1,0.7-2.6,1.7-3.7-0.1c-1.1-1.8,1.2-2,1.3-2.9s-0.7-1-0.3-2.4
		s2-1,3.1-0.3c1.3,0.9,0.9-1.2,0.7-2c-0.1-0.6-0.2-1.2-0.1-1.7c-1.3,0.6-2.7,1.3-3.9,2.1c-6.4,3.9-6.6,7.2-5.1,8.5
		c1.3,1.1,4.1,1.6,8.7,4.7C210.2,141.7,210.8,139.2,211.1,138.5"/>
	<path class="st7" d="M211.1,138.5c0.4-0.9-0.6-1.7-1.7-1.1c-1.1,0.7-2.6,1.7-3.7-0.1c-1.1-1.8,1.2-2,1.3-2.9s-0.7-1-0.3-2.4
		s2-1,3.1-0.3c1.3,0.9,0.9-1.2,0.7-2c-0.1-0.6-0.2-1.2-0.1-1.7c-1.3,0.6-2.7,1.3-3.9,2.1c-6.4,3.9-6.6,7.2-5.1,8.5
		c1.3,1.1,4.1,1.6,8.7,4.7C210.2,141.7,210.8,139.2,211.1,138.5z"/>
	<path class="st6" d="M190.8,134.8c-2.6-1.3-5.2-4.2-7-7.6c0,0,0.1-0.5-0.6-0.5c-0.7,0-3.5-0.2-8.1-1.9c-4.6-1.6-5.2-0.6-5.8,1.4
		c-0.6,2-1.1,5.6-1.2,11.6c-0.1,6,2.5,9.7,4.1,9.1c0.8-0.3,2.8-1.3,5-2.4c0-1.2,0.1-3.2,0.2-4.2c0.2-1.4-1.3-0.9-1.9-0.1
		c-0.6,0.7-1.8,2-2.9,1.8c-1.1-0.2-1.9-2.2-1.7-4c0.2-1.9-2-2.6-0.6-5.1s2.5,0.6,3.7,0.4c1.2-0.2,0.6-0.9,0-2.8
		c-0.6-1.9,1.8-2.5,3.2-1.1c0.9,0.9,1.4-1.1,2.7-0.8c1.4,0.3,2.2,1.2,1.4,2.6c-0.6,1.1-1.1,3.5,0.1,2.2c1.2-1.3,2.4-2.1,3.5-1.2
		c1.1,0.9,0.4,2.7,0.1,3.6c-0.3,0.9,2,2.1,0.4,3.2c-1.6,1.1-3.4-0.8-4.3-0.6c-0.9,0.2-1.1,1.4,0.1,2.2c0.8,0.6,1.7,1,2.3,1.3
		c2.6-0.9,5.6-2.6,6.6-3.2l1.6,0.1C191.7,136.5,191.5,135.2,190.8,134.8"/>
	<path class="st7" d="M190.8,134.8c-2.6-1.3-5.2-4.2-7-7.6c0,0,0.1-0.5-0.6-0.5c-0.7,0-3.5-0.2-8.1-1.9c-4.6-1.6-5.2-0.6-5.8,1.4
		c-0.6,2-1.1,5.6-1.2,11.6c-0.1,6,2.5,9.7,4.1,9.1c0.8-0.3,2.8-1.3,5-2.4c0-1.2,0.1-3.2,0.2-4.2c0.2-1.4-1.3-0.9-1.9-0.1
		c-0.6,0.7-1.8,2-2.9,1.8c-1.1-0.2-1.9-2.2-1.7-4c0.2-1.9-2-2.6-0.6-5.1s2.5,0.6,3.7,0.4c1.2-0.2,0.6-0.9,0-2.8
		c-0.6-1.9,1.8-2.5,3.2-1.1c0.9,0.9,1.4-1.1,2.7-0.8c1.4,0.3,2.2,1.2,1.4,2.6c-0.6,1.1-1.1,3.5,0.1,2.2c1.2-1.3,2.4-2.1,3.5-1.2
		c1.1,0.9,0.4,2.7,0.1,3.6c-0.3,0.9,2,2.1,0.4,3.2c-1.6,1.1-3.4-0.8-4.3-0.6c-0.9,0.2-1.1,1.4,0.1,2.2c0.8,0.6,1.7,1,2.3,1.3
		c2.6-0.9,5.6-2.6,6.6-3.2l1.6,0.1C191.7,136.5,191.5,135.2,190.8,134.8z"/>
	<path class="st6" d="M181.6,162.1c-1-2.2-1.3-0.5-4.1,3.8c-1.4,2.2-4.9,6.3-9.3,10.9c3.1,0.6,9.6,2.2,5.7,5.5
		c-4.2,3.5-2.4,3.2-0.5,3s5,0.9,2.6,5.1c-2.4,4.2-4,7.2-6.2,8.6c-2.2,1.4-5.5,1.2-6.2-2s-2.9,0-3,2.1s-0.4,5.7-0.1,7l-4.7-0.2
		c-0.1-2-0.1-6,0.2-7.8c0.4-1.9,0.3-4.1-2.6-3.2c-1.9,0.6-3.1,0.1-3.8-0.3c-5.6,4.9-8.4,8.4-10.2,11.4c1.4,1.3,3.7,2.2,6.1,1.2
		c2.7-1.1,7.2,0.2,4.5,4.5c-2.7,4.2-2.6,6.3,0.1,3.7c2.7-2.6,7.1-7.1,8.5-2.4c0.9,3.1-2,4.1-1.9,6.6s2.6,5-0.9,8s-5-2.1-7.3-1.4
		c-1.4,0.4-1.7,1.8-1.6,2.9c3.1,4.4,7.6,10.6,9.2,13.2c2.5,4.1,2.5,9.1,3.5,8.3c1-0.7,3.4-3,4.1-3.6c0.7-0.6,1.5-1.4,1.1-2.7
		c-0.4-1.4-1.8-8.7-1.4-13.8c0.5-5.8,3.2-12.2,5.2-15.9c1.9-3.5,7.7-14.8,9.1-17.8c1.4-3,3.9-6.5,4.5-9.2s3-9.1,4-12.1
		C185.8,173,184.2,168,181.6,162.1"/>
	<path class="st7" d="M181.6,162.1c-1-2.2-1.3-0.5-4.1,3.8c-1.4,2.2-4.9,6.3-9.3,10.9c3.1,0.6,9.6,2.2,5.7,5.5
		c-4.2,3.5-2.4,3.2-0.5,3s5,0.9,2.6,5.1c-2.4,4.2-4,7.2-6.2,8.6c-2.2,1.4-5.5,1.2-6.2-2s-2.9,0-3,2.1s-0.4,5.7-0.1,7l-4.7-0.2
		c-0.1-2-0.1-6,0.2-7.8c0.4-1.9,0.3-4.1-2.6-3.2c-1.9,0.6-3.1,0.1-3.8-0.3c-5.6,4.9-8.4,8.4-10.2,11.4c1.4,1.3,3.7,2.2,6.1,1.2
		c2.7-1.1,7.2,0.2,4.5,4.5c-2.7,4.2-2.6,6.3,0.1,3.7c2.7-2.6,7.1-7.1,8.5-2.4c0.9,3.1-2,4.1-1.9,6.6s2.6,5-0.9,8s-5-2.1-7.3-1.4
		c-1.4,0.4-1.7,1.8-1.6,2.9c3.1,4.4,7.6,10.6,9.2,13.2c2.5,4.1,2.5,9.1,3.5,8.3c1-0.7,3.4-3,4.1-3.6c0.7-0.6,1.5-1.4,1.1-2.7
		c-0.4-1.4-1.8-8.7-1.4-13.8c0.5-5.8,3.2-12.2,5.2-15.9c1.9-3.5,7.7-14.8,9.1-17.8c1.4-3,3.9-6.5,4.5-9.2s3-9.1,4-12.1
		C185.8,173,184.2,168,181.6,162.1z"/>
	<path class="st6" d="M235.8,217.3c-3.2-5.3-3.9-7.5-4.3-12.9c-0.3-3.4,0-7.9,0.5-12.2c-1-0.1-2.2,0.1-2.3,1.6
		c-0.1,2.4-1.2,5.7-2,7.5c-0.7,1.7-3.2,1.6-4.7,1.7c-1.5,0.1-1.5-0.9-0.5-3.1c1-2.2,1.4-3.2,1.1-5.2c-0.3-2-1.2-0.2-2.1,1.5
		c-0.9,1.7-3.4,5.2-6.2,4.8c-2.9-0.4-2.1-4.7-1.9-6.2c0.2-1.5-0.6-1.7-1.7-2c-1.1-0.2-3.4-0.7-2.1-4.4c1.2-3.6,2.6-3.2,4.3-2.6
		c1.7,0.6,2-0.5,0.4-1.1s-3.4-2-3.2-3.7c0.3-4.6,3.2-4.2,5.5-3.7c1.9,0.4,4.4-0.7,6.1-2.5c0-0.1-0.1-0.2-0.1-0.3
		c-3.3-12.6,3-28.2,4.7-32.5c1.7-4.4,8.4-16.6,10.8-20.3c-1.2-0.6-4.5-2.3-6.3-3.2c-1.8-0.9-2.8-1.4-3.3-0.7c-0.5,0.7-1.1,1.1-2,2.3
		c-1.7,2.5-0.2,2.1,0.2,2.1c0.5,0,2.6,2.7,3,3.4c0.4,0.6,0,1.1-0.9,3.1c-1.1,2.6-1.9,8.6-2.9,12.2c-3,10.9-7.7,9.8-9.8,8.4
		c-2.1-1.4-2.7,0.7-4.9,3.7c-0.5,0.7-1.8,2.1-3.4,3.7c2,0.9,4.8,3.5,1.5,6.1c-3.9,3-4.6,4.6-2.7,4.2c1.9-0.4,3.7-3.2,5.8-1.2
		s-0.7,4.2-1.9,4.9c-1.1,0.6-3.4,1.7-2.7,4.1c0.6,2.4,1,5.6-2.1,6.3s-4.3-0.6-5.2-2.2c-0.9-1.6-1.7-0.5-2.1,1.5
		c-0.4,2-0.6,3.5-0.6,4.2s-2.2-0.4-3.2-1.4s-2.2,1.7-3.4,0.4c-1.1-1.4,1.4-5.6,2.2-7.1c0.8-1.4,0.5-3.4-4.5-1.1
		c-1.6,2.7-2.9,6.6-4.9,12.6c-2.7,8.3-8.9,19.7-11.5,23.8c-6.7,10.8-7.9,20.9-6.9,27.3c1,6.3,1.9,5.8,3.2,5.8c1.4,0,4.7,4.2,7,6.8
		c2.2,2.6,3.1,1.5,4.2,0.6c3.6-2.8,10.8-7.5,21-12.3c4.3-2.1,10.1-4.3,15.8-6.1c0.1-2.3,0.7-5.2,0.9-6.2c0.2-1.2-1-1.6-2.2,0
		s-4.6,5.6-6.8,4.6s-4.1-3.5-2.9-5.6c1.2-2.1-0.5-2.7-1.4-3.8s-0.9-5.5,1.9-5.8c2.7-0.4,3.6,2,5.5,2.6s3.4,0.5,1-2.1
		s-5.2-1.6-3.7-5.2c1.5-3.6,3.6-3.4,6.1-2.6c2.5,0.7,3.7-0.6,5.3-1.7c1.6-1.1,4.8-2.6,7.1,0c2.2,2.6-1.6,5-2.5,5.8
		c-1.7,1.7-2,4.8-0.1,3s5-8.6,7.2-3c1.2,3.2-1.1,4.5-0.7,6.5c0.4,2,3.7,4.7,1,7.2s-6.6,0.4-8.2-1.1c-1.6-1.5-3.4-2.2-2.6,0.5
		c0.6,2,0.8,4.1,0.8,5.4c5.4-1.5,10.2-2.4,12.6-2.2c3.5,0.3,6.2,1.4,6.1-1.9C240.7,224.9,239,222.6,235.8,217.3"/>
	<path class="st7" d="M235.8,217.3c-3.2-5.3-3.9-7.5-4.3-12.9c-0.3-3.4,0-7.9,0.5-12.2c-1-0.1-2.2,0.1-2.3,1.6
		c-0.1,2.4-1.2,5.7-2,7.5c-0.7,1.7-3.2,1.6-4.7,1.7c-1.5,0.1-1.5-0.9-0.5-3.1c1-2.2,1.4-3.2,1.1-5.2c-0.3-2-1.2-0.2-2.1,1.5
		c-0.9,1.7-3.4,5.2-6.2,4.8c-2.9-0.4-2.1-4.7-1.9-6.2c0.2-1.5-0.6-1.7-1.7-2c-1.1-0.2-3.4-0.7-2.1-4.4c1.2-3.6,2.6-3.2,4.3-2.6
		c1.7,0.6,2-0.5,0.4-1.1s-3.4-2-3.2-3.7c0.3-4.6,3.2-4.2,5.5-3.7c1.9,0.4,4.4-0.7,6.1-2.5c0-0.1-0.1-0.2-0.1-0.3
		c-3.3-12.6,3-28.2,4.7-32.5c1.7-4.4,8.4-16.6,10.8-20.3c-1.2-0.6-4.5-2.3-6.3-3.2c-1.8-0.9-2.8-1.4-3.3-0.7c-0.5,0.7-1.1,1.1-2,2.3
		c-1.7,2.5-0.2,2.1,0.2,2.1c0.5,0,2.6,2.7,3,3.4c0.4,0.6,0,1.1-0.9,3.1c-1.1,2.6-1.9,8.6-2.9,12.2c-3,10.9-7.7,9.8-9.8,8.4
		c-2.1-1.4-2.7,0.7-4.9,3.7c-0.5,0.7-1.8,2.1-3.4,3.7c2,0.9,4.8,3.5,1.5,6.1c-3.9,3-4.6,4.6-2.7,4.2c1.9-0.4,3.7-3.2,5.8-1.2
		s-0.7,4.2-1.9,4.9c-1.1,0.6-3.4,1.7-2.7,4.1c0.6,2.4,1,5.6-2.1,6.3s-4.3-0.6-5.2-2.2c-0.9-1.6-1.7-0.5-2.1,1.5
		c-0.4,2-0.6,3.5-0.6,4.2s-2.2-0.4-3.2-1.4s-2.2,1.7-3.4,0.4c-1.1-1.4,1.4-5.6,2.2-7.1c0.8-1.4,0.5-3.4-4.5-1.1
		c-1.6,2.7-2.9,6.6-4.9,12.6c-2.7,8.3-8.9,19.7-11.5,23.8c-6.7,10.8-7.9,20.9-6.9,27.3c1,6.3,1.9,5.8,3.2,5.8c1.4,0,4.7,4.2,7,6.8
		c2.2,2.6,3.1,1.5,4.2,0.6c3.6-2.8,10.8-7.5,21-12.3c4.3-2.1,10.1-4.3,15.8-6.1c0.1-2.3,0.7-5.2,0.9-6.2c0.2-1.2-1-1.6-2.2,0
		s-4.6,5.6-6.8,4.6s-4.1-3.5-2.9-5.6c1.2-2.1-0.5-2.7-1.4-3.8s-0.9-5.5,1.9-5.8c2.7-0.4,3.6,2,5.5,2.6s3.4,0.5,1-2.1
		s-5.2-1.6-3.7-5.2c1.5-3.6,3.6-3.4,6.1-2.6c2.5,0.7,3.7-0.6,5.3-1.7c1.6-1.1,4.8-2.6,7.1,0c2.2,2.6-1.6,5-2.5,5.8
		c-1.7,1.7-2,4.8-0.1,3s5-8.6,7.2-3c1.2,3.2-1.1,4.5-0.7,6.5c0.4,2,3.7,4.7,1,7.2s-6.6,0.4-8.2-1.1c-1.6-1.5-3.4-2.2-2.6,0.5
		c0.6,2,0.8,4.1,0.8,5.4c5.4-1.5,10.2-2.4,12.6-2.2c3.5,0.3,6.2,1.4,6.1-1.9C240.7,224.9,239,222.6,235.8,217.3z"/>
	<path class="st6" d="M191.7,239.5c-3,0.9-3.5-0.5-5.5-1.2s-2.1,1-0.7,3.1c1.4,2.1,2.9,4.1,1.2,4.1c-1.6,0-2.9,0.2-3.1,1.5
		s-2.9-0.2-3.5-2.9c-0.6-2.6-1.2-7.6-2.6-5.1c-1.4,2.5-2.6,6.6-6.1,4.7c-3.5-1.9-1.1-4.3-2.9-6.1c-1.7-1.7-3.4-4-1.6-7.1
		c1.7-3.1,3.2-0.5,4.9-0.5c1.6,0,1.9-1.5,0.4-2.6s-3.4-6.5,3.5-6.1c2.6,0.1,5.5-0.7,7.7-2.4c2.2-1.6,8.1-0.7,5.7,3.4s-1.6,5-0.2,3.5
		c1.4-1.5,3.1-4.2,5.7-3.5c2.6,0.7,1.5,2.7-0.1,5c-1.6,2.2-0.6,3.7,0.6,4.6C196.3,232.8,198.6,237.5,191.7,239.5"/>
	<path class="st7" d="M191.7,239.5c-3,0.9-3.5-0.5-5.5-1.2s-2.1,1-0.7,3.1c1.4,2.1,2.9,4.1,1.2,4.1c-1.6,0-2.9,0.2-3.1,1.5
		s-2.9-0.2-3.5-2.9c-0.6-2.6-1.2-7.6-2.6-5.1c-1.4,2.5-2.6,6.6-6.1,4.7c-3.5-1.9-1.1-4.3-2.9-6.1c-1.7-1.7-3.4-4-1.6-7.1
		c1.7-3.1,3.2-0.5,4.9-0.5c1.6,0,1.9-1.5,0.4-2.6s-3.4-6.5,3.5-6.1c2.6,0.1,5.5-0.7,7.7-2.4c2.2-1.6,8.1-0.7,5.7,3.4s-1.6,5-0.2,3.5
		c1.4-1.5,3.1-4.2,5.7-3.5c2.6,0.7,1.5,2.7-0.1,5c-1.6,2.2-0.6,3.7,0.6,4.6C196.3,232.8,198.6,237.5,191.7,239.5z"/>
	<path class="st6" d="M204.3,210.2c-2.2,0.1-5-0.5-5-0.5c-0.2,2.4-2.5,5.7-4.8,9.2c-0.2,0.4-1.6,0.4-2.2-0.1c-0.6-0.5-2.4-1.4-1-2.9
		s3.6-4.6,3.2-6c-0.4-1.4-1.4-2.6-2.9-0.7c-1.5,1.9-3.9,5.7-6.5,5.8s-5.2-2.2-4-4.6c1.2-2.4,1.6-3.6-0.1-5.7
		c-1.7-2.1-1.1-4.8,2.6-6.5c1.1-0.5,3.1,0,4.5,1.1s2.1,0,0.2-1.1c-1.9-1.1-3.4-2.5-3.6-5c-0.2-2.4,1.2-4.8,4.5-3.5
		c3.2,1.4,5.2,0.2,6.6-0.9c1.4-1.1,7.2-2.5,6.3,2.6c-0.6,3.7-2.4,3.8-2.9,5.8s1,0.7,1.9-0.7c0.9-1.5,2.9-7.6,7-3
		c1,1.1,0.6,3-0.6,5.1c-1.2,2.1-0.2,3.4,0.5,4.5C208.8,204.4,210.5,209.9,204.3,210.2"/>
	<path class="st7" d="M204.3,210.2c-2.2,0.1-5-0.5-5-0.5c-0.2,2.4-2.5,5.7-4.8,9.2c-0.2,0.4-1.6,0.4-2.2-0.1c-0.6-0.5-2.4-1.4-1-2.9
		s3.6-4.6,3.2-6c-0.4-1.4-1.4-2.6-2.9-0.7c-1.5,1.9-3.9,5.7-6.5,5.8s-5.2-2.2-4-4.6c1.2-2.4,1.6-3.6-0.1-5.7
		c-1.7-2.1-1.1-4.8,2.6-6.5c1.1-0.5,3.1,0,4.5,1.1s2.1,0,0.2-1.1c-1.9-1.1-3.4-2.5-3.6-5c-0.2-2.4,1.2-4.8,4.5-3.5
		c3.2,1.4,5.2,0.2,6.6-0.9c1.4-1.1,7.2-2.5,6.3,2.6c-0.6,3.7-2.4,3.8-2.9,5.8s1,0.7,1.9-0.7c0.9-1.5,2.9-7.6,7-3
		c1,1.1,0.6,3-0.6,5.1c-1.2,2.1-0.2,3.4,0.5,4.5C208.8,204.4,210.5,209.9,204.3,210.2z"/>
	<path class="st2" d="M202,52.9c1.7,0.2,3.5,0.1,4-1.1c0.4-1.2,0.1-1.9-0.5-2.2c-0.6-0.2-0.8-0.2-0.6-1.3s1.1-1,1-2.7
		s-1.4-1.8-2.5-1.4c-1.2,0.4-1.6,0.9-2.7,2.4c-1.1,1.5-0.6-1-0.4-1.4c0.2-0.4,0.6-3.3-0.9-3.8c-0.9,0.4-1.7,0.9-2.5,1.3
		c-0.3,0.5-0.5,1.2-0.7,1.8c-0.6,1.6-1.4,0.4-1.9-0.4l0,0c-1.7,0.9-3.1,1.8-4.2,2.5c-0.1,0.1-0.3,0.2-0.4,0.2c0.1,1,1.3,2.2,2,2.7
		c0.8,0.6,0.3,1.6-0.7,1.6s-2.2-0.7-3.5,0.8c-1.2,1.5-0.4,2.9,0.7,2.9c1.2,0,2.2,0.4,2.6,1.8c0.4,1.4,0.8,1.9,2.4,2.1
		c1.6,0.2,2.5-1.1,3-1.8c0.4-0.7,1-1.8,1.7-1.6c1,0.4,0.9,1.4,0.6,2.6c1.2-0.7,2.4-1.3,3.6-2c-0.2-1-0.8-2-1.3-2.5
		C200.2,53,200.4,52.7,202,52.9"/>
	<path class="st11" d="M202,52.9c1.7,0.2,3.5,0.1,4-1.1c0.4-1.2,0.1-1.9-0.5-2.2c-0.6-0.2-0.8-0.2-0.6-1.3s1.1-1,1-2.7
		s-1.4-1.8-2.5-1.4c-1.2,0.4-1.6,0.9-2.7,2.4c-1.1,1.5-0.6-1-0.4-1.4c0.2-0.4,0.6-3.3-0.9-3.8c-0.9,0.4-1.7,0.9-2.5,1.3
		c-0.3,0.5-0.5,1.2-0.7,1.8c-0.6,1.6-1.4,0.4-1.9-0.4l0,0c-1.7,0.9-3.1,1.8-4.2,2.5c-0.1,0.1-0.3,0.2-0.4,0.2c0.1,1,1.3,2.2,2,2.7
		c0.8,0.6,0.3,1.6-0.7,1.6s-2.2-0.7-3.5,0.8c-1.2,1.5-0.4,2.9,0.7,2.9c1.2,0,2.2,0.4,2.6,1.8c0.4,1.4,0.8,1.9,2.4,2.1
		c1.6,0.2,2.5-1.1,3-1.8c0.4-0.7,1-1.8,1.7-1.6c1,0.4,0.9,1.4,0.6,2.6c1.2-0.7,2.4-1.3,3.6-2c-0.2-1-0.8-2-1.3-2.5
		C200.2,53,200.4,52.7,202,52.9z"/>
	<path class="st2" d="M215.9,34.9c-0.6,0.1-1.2,0.3-1.8,0.5c0.3,1.4,0.9,3.2,0.6,3.5c-0.4,0.3-1.8,0.6-2.9,0.9
		c-1.1,0.3-3.8,2.8-2.4,4.6c1.4,1.8,1.8,2.9,2.1,3.8c0.2,0.9,2.5,2.1,4,0.2c1.6-1.9,2.7-3.9,3.1-2.6c0.3,1.1,0.2,3.7,0,5.2
		c0.3-0.1,0.6-0.1,1-0.2C220.1,43.7,218.4,38.7,215.9,34.9"/>
	<path class="st11" d="M215.9,34.9c-0.6,0.1-1.2,0.3-1.8,0.5c0.3,1.4,0.9,3.2,0.6,3.5c-0.4,0.3-1.8,0.6-2.9,0.9
		c-1.1,0.3-3.8,2.8-2.4,4.6c1.4,1.8,1.8,2.9,2.1,3.8c0.2,0.9,2.5,2.1,4,0.2c1.6-1.9,2.7-3.9,3.1-2.6c0.3,1.1,0.2,3.7,0,5.2
		c0.3-0.1,0.6-0.1,1-0.2C220.1,43.7,218.4,38.7,215.9,34.9z"/>
	<path class="st2" d="M181.8,68.3c-0.9-0.7-1.1-1.7-0.1-2.1c1.1-0.3,2.5-0.6,5.1-1.7s1.2-3,0.1-3.5c-1.2-0.5-1.3-1.6-1.2-2.8
		s-0.2-2.9-2.5-2s-1.5,3.1-2.2,3.9c-0.7,0.7-1.1,0.5-0.9-0.6c0.1-1.1-0.9-1.9-1.4-2.1c-0.4-0.2-1.4-0.4-2.2-0.5
		c-2.4,2.1-4.6,4.4-6.2,6.6c0.4,0.8,1.2,1.6,1.7,1.8c0.6,0.2,1.6,0.6,1.5,1.9c0,1.1-2.4,1.1-4,1.2c1.1,3,2.2,5.1,3.8,6.8
		c0.4-0.1,0.8-0.3,1.4-0.5c1.9-0.8,2.5-3.7,2.9-4.6c0.3-0.9,1.1-0.7,1.7,0.4c0.4,0.8,0.5,1.5,0.6,2.2c1.1-1.1,2.2-2.1,3.2-3.1
		C182.7,69.1,182.3,68.7,181.8,68.3"/>
	<path class="st11" d="M181.8,68.3c-0.9-0.7-1.1-1.7-0.1-2.1c1.1-0.3,2.5-0.6,5.1-1.7s1.2-3,0.1-3.5c-1.2-0.5-1.3-1.6-1.2-2.8
		s-0.2-2.9-2.5-2s-1.5,3.1-2.2,3.9c-0.7,0.7-1.1,0.5-0.9-0.6c0.1-1.1-0.9-1.9-1.4-2.1c-0.4-0.2-1.4-0.4-2.2-0.5
		c-2.4,2.1-4.6,4.4-6.2,6.6c0.4,0.8,1.2,1.6,1.7,1.8c0.6,0.2,1.6,0.6,1.5,1.9c0,1.1-2.4,1.1-4,1.2c1.1,3,2.2,5.1,3.8,6.8
		c0.4-0.1,0.8-0.3,1.4-0.5c1.9-0.8,2.5-3.7,2.9-4.6c0.3-0.9,1.1-0.7,1.7,0.4c0.4,0.8,0.5,1.5,0.6,2.2c1.1-1.1,2.2-2.1,3.2-3.1
		C182.7,69.1,182.3,68.7,181.8,68.3z"/>
	<path class="st2" d="M214.8,142.5c0.4-0.1-0.6-4.5,0.2-4.7s1.2,2.4,2.9,2.1c1.7-0.3,2.2-2,1.9-4c-0.2-1.9,0.9-0.9,1.7-2.2
		c0.9-1.4-1-3.2-3.1-1.9s-1.7-0.4-0.6-1.1c1.1-0.7,0.3-3.2-2.1-2.4c-1.7,0.6-2.6-0.5-3.4-1c-0.6,0.2-1.3,0.5-1.9,0.8
		c-0.1,0.5,0,1.1,0.1,1.7c0.2,0.8,0.6,2.9-0.7,2c-1.1-0.8-2.7-1.2-3.1,0.3c-0.4,1.4,0.4,1.6,0.3,2.4c-0.1,0.9-2.4,1.1-1.3,2.9
		c1.1,1.8,2.6,0.8,3.7,0.1c1.1-0.7,2,0.1,1.7,1.1c-0.3,0.7-0.9,3.2-0.9,4.8c0.5,0.3,1,0.7,1.6,1.1
		C212.4,143.7,213.5,142.7,214.8,142.5"/>
	<path class="st11" d="M214.8,142.5c0.4-0.1-0.6-4.5,0.2-4.7s1.2,2.4,2.9,2.1c1.7-0.3,2.2-2,1.9-4c-0.2-1.9,0.9-0.9,1.7-2.2
		c0.9-1.4-1-3.2-3.1-1.9s-1.7-0.4-0.6-1.1c1.1-0.7,0.3-3.2-2.1-2.4c-1.7,0.6-2.6-0.5-3.4-1c-0.6,0.2-1.3,0.5-1.9,0.8
		c-0.1,0.5,0,1.1,0.1,1.7c0.2,0.8,0.6,2.9-0.7,2c-1.1-0.8-2.7-1.2-3.1,0.3c-0.4,1.4,0.4,1.6,0.3,2.4c-0.1,0.9-2.4,1.1-1.3,2.9
		c1.1,1.8,2.6,0.8,3.7,0.1c1.1-0.7,2,0.1,1.7,1.1c-0.3,0.7-0.9,3.2-0.9,4.8c0.5,0.3,1,0.7,1.6,1.1
		C212.4,143.7,213.5,142.7,214.8,142.5z"/>
	<path class="st2" d="M180.9,138.2c0.9-0.2,2.7,1.7,4.3,0.6c1.6-1.1-0.7-2.2-0.4-3.2c0.3-0.9,1.1-2.7-0.1-3.6
		c-1.1-0.9-2.3-0.1-3.5,1.2s-0.8-1.2-0.1-2.2c0.8-1.4,0-2.3-1.4-2.5s-1.8,1.7-2.7,0.8c-1.5-1.4-3.8-0.8-3.2,1.1
		c0.6,1.9,1.2,2.5,0,2.8c-1.2,0.2-2.3-2.9-3.7-0.4s0.8,3.2,0.6,5.1c-0.2,1.9,0.6,3.9,1.7,4c1.1,0.2,2.3-1.1,2.9-1.8
		c0.6-0.7,2.1-1.3,1.9,0.1c-0.1,1-0.2,3-0.2,4.2c2.3-1.1,4.7-2.3,6.1-2.7c0.1,0,0.1,0,0.2-0.1c-0.6-0.2-1.5-0.7-2.3-1.2
		C179.8,139.6,180,138.4,180.9,138.2"/>
	<path class="st11" d="M180.9,138.2c0.9-0.2,2.7,1.7,4.3,0.6c1.6-1.1-0.7-2.2-0.4-3.2c0.3-0.9,1.1-2.7-0.1-3.6
		c-1.1-0.9-2.3-0.1-3.5,1.2s-0.8-1.2-0.1-2.2c0.8-1.4,0-2.3-1.4-2.5s-1.8,1.7-2.7,0.8c-1.5-1.4-3.8-0.8-3.2,1.1
		c0.6,1.9,1.2,2.5,0,2.8c-1.2,0.2-2.3-2.9-3.7-0.4s0.8,3.2,0.6,5.1c-0.2,1.9,0.6,3.9,1.7,4c1.1,0.2,2.3-1.1,2.9-1.8
		c0.6-0.7,2.1-1.3,1.9,0.1c-0.1,1-0.2,3-0.2,4.2c2.3-1.1,4.7-2.3,6.1-2.7c0.1,0,0.1,0,0.2-0.1c-0.6-0.2-1.5-0.7-2.3-1.2
		C179.8,139.6,180,138.4,180.9,138.2z"/>
	<path class="st2" d="M153.4,194.8c2.9-0.9,3,1.4,2.6,3.2c-0.4,1.9-0.4,5.8-0.2,7.8l4.7,0.2c-0.2-1.2,0-4.8,0.1-7
		c0.1-2.1,2.2-5.3,3-2.1c0.7,3.2,4,3.4,6.2,2s3.9-4.3,6.2-8.6c2.4-4.2-0.7-5.3-2.6-5.1c-1.9,0.2-3.7,0.5,0.5-3
		c3.9-3.2-2.7-4.9-5.7-5.5c-5,5.3-11.2,11.2-16.6,15.9c-0.7,0.6-1.4,1.2-2,1.7C150.2,194.9,151.5,195.4,153.4,194.8"/>
	<path class="st11" d="M153.4,194.8c2.9-0.9,3,1.4,2.6,3.2c-0.4,1.9-0.4,5.8-0.2,7.8l4.7,0.2c-0.2-1.2,0-4.8,0.1-7
		c0.1-2.1,2.2-5.3,3-2.1c0.7,3.2,4,3.4,6.2,2s3.9-4.3,6.2-8.6c2.4-4.2-0.7-5.3-2.6-5.1c-1.9,0.2-3.7,0.5,0.5-3
		c3.9-3.2-2.7-4.9-5.7-5.5c-5,5.3-11.2,11.2-16.6,15.9c-0.7,0.6-1.4,1.2-2,1.7C150.2,194.9,151.5,195.4,153.4,194.8z"/>
	<path class="st2" d="M148.4,226.1c2.4-0.7,3.9,4.4,7.3,1.4c3.5-3,1-5.5,0.9-8s2.7-3.5,1.9-6.6c-1.3-4.7-5.7-0.2-8.4,2.4
		c-2.7,2.6-2.9,0.5-0.1-3.7c2.7-4.2-1.7-5.6-4.5-4.5c-2.4,1-4.7,0-6.1-1.2c-1,1.7-1.8,3.2-2.6,4.8c-2.4,4.9-0.7,5,1,5s5.5,7.3,6,8.7
		c0.2,0.5,1.5,2.3,3.1,4.7C146.8,227.9,147,226.6,148.4,226.1"/>
	<path class="st11" d="M148.4,226.1c2.4-0.7,3.9,4.4,7.3,1.4c3.5-3,1-5.5,0.9-8s2.7-3.5,1.9-6.6c-1.3-4.7-5.7-0.2-8.4,2.4
		c-2.7,2.6-2.9,0.5-0.1-3.7c2.7-4.2-1.7-5.6-4.5-4.5c-2.4,1-4.7,0-6.1-1.2c-1,1.7-1.8,3.2-2.6,4.8c-2.4,4.9-0.7,5,1,5s5.5,7.3,6,8.7
		c0.2,0.5,1.5,2.3,3.1,4.7C146.8,227.9,147,226.6,148.4,226.1z"/>
	<path class="st2" d="M184.8,193.3c-0.2-2.4,1.2-4.8,4.5-3.5c3.2,1.4,5.2,0.2,6.6-0.9c1.4-1.1,7.2-2.5,6.3,2.6
		c-0.6,3.7-2.4,3.9-2.9,5.8c-0.5,2,1,0.7,1.9-0.7c0.9-1.5,2.9-7.6,7-3c1,1.1,0.6,3-0.6,5.1c-1.2,2.1-0.2,3.4,0.5,4.5s2.5,6.6-3.7,7
		c-2.2,0.1-5-0.5-5-0.5c-0.2,2.4-2.5,5.7-4.8,9.2c-0.2,0.4-1.6,0.4-2.2-0.1c-0.6-0.5-2.4-1.4-1-2.9s3.6-4.6,3.2-6
		c-0.4-1.4-1.4-2.6-2.9-0.7c-1.5,1.9-3.9,5.7-6.5,5.8s-5.2-2.2-4-4.6c1.2-2.4,1.6-3.6-0.1-5.7c-1.7-2.1-1.1-4.8,2.6-6.5
		c1.1-0.5,3.1,0,4.5,1.1s2.1,0,0.2-1.1C186.6,197.2,185.1,195.8,184.8,193.3"/>
	<path class="st11" d="M184.8,193.3c-0.2-2.4,1.2-4.8,4.5-3.5c3.2,1.4,5.2,0.2,6.6-0.9c1.4-1.1,7.2-2.5,6.3,2.6
		c-0.6,3.7-2.4,3.9-2.9,5.8c-0.5,2,1,0.7,1.9-0.7c0.9-1.5,2.9-7.6,7-3c1,1.1,0.6,3-0.6,5.1c-1.2,2.1-0.2,3.4,0.5,4.5s2.5,6.6-3.7,7
		c-2.2,0.1-5-0.5-5-0.5c-0.2,2.4-2.5,5.7-4.8,9.2c-0.2,0.4-1.6,0.4-2.2-0.1c-0.6-0.5-2.4-1.4-1-2.9s3.6-4.6,3.2-6
		c-0.4-1.4-1.4-2.6-2.9-0.7c-1.5,1.9-3.9,5.7-6.5,5.8s-5.2-2.2-4-4.6c1.2-2.4,1.6-3.6-0.1-5.7c-1.7-2.1-1.1-4.8,2.6-6.5
		c1.1-0.5,3.1,0,4.5,1.1s2.1,0,0.2-1.1C186.6,197.2,185.1,195.8,184.8,193.3z"/>
	<path class="st2" d="M216.4,177.1c-2.2-0.5-5.1-0.9-5.5,3.7c-0.1,1.7,1.6,3.1,3.2,3.7c1.6,0.6,1.4,1.7-0.4,1.1
		c-1.7-0.6-3.1-1-4.3,2.6s1,4.1,2.1,4.3s2,0.5,1.7,2c-0.2,1.5-1,5.8,1.9,6.2s5.3-3.1,6.2-4.8s1.9-3.5,2.1-1.5c0.3,2-0.1,3-1.1,5.2
		s-1,3.2,0.5,3.1c1.5-0.1,4,0,4.7-1.7s1.9-5.1,2-7.5c0.1-1.5,1.4-1.6,2.3-1.6c0.3-2.5,0.7-5,1-7.1c-4.9,0.7-9-5.2-10.5-10.4
		C220.8,176.4,218.3,177.6,216.4,177.1"/>
	<path class="st11" d="M216.4,177.1c-2.2-0.5-5.1-0.9-5.5,3.7c-0.1,1.7,1.6,3.1,3.2,3.7c1.6,0.6,1.4,1.7-0.4,1.1
		c-1.7-0.6-3.1-1-4.3,2.6s1,4.1,2.1,4.3s2,0.5,1.7,2c-0.2,1.5-1,5.8,1.9,6.2s5.3-3.1,6.2-4.8s1.9-3.5,2.1-1.5c0.3,2-0.1,3-1.1,5.2
		s-1,3.2,0.5,3.1c1.5-0.1,4,0,4.7-1.7s1.9-5.1,2-7.5c0.1-1.5,1.4-1.6,2.3-1.6c0.3-2.5,0.7-5,1-7.1c-4.9,0.7-9-5.2-10.5-10.4
		C220.8,176.4,218.3,177.6,216.4,177.1z"/>
	<path class="st2" d="M193.2,176.3c-0.9,1.5-3.4,5.7-2.2,7.1c1.1,1.4,2.4-1.4,3.4-0.4s3.2,2.1,3.2,1.4s0.2-2.2,0.6-4.2
		c0.4-2,1.2-3.1,2.1-1.5c0.9,1.6,2.1,3,5.2,2.2c3.1-0.7,2.7-4,2.1-6.3c-0.6-2.4,1.6-3.5,2.7-4.1c1.1-0.6,4-2.9,1.9-4.8
		c-2.1-2-4,0.9-5.8,1.2c-1.9,0.4-1.1-1.2,2.7-4.2c3.3-2.6,0.5-5.1-1.5-6c-5.3,5.4-14.8,14.1-16.9,16.1c-0.7,0.7-1.4,1.6-2,2.6
		C193.7,172.9,194,174.9,193.2,176.3"/>
	<path class="st11" d="M193.2,176.3c-0.9,1.5-3.4,5.7-2.2,7.1c1.1,1.4,2.4-1.4,3.4-0.4s3.2,2.1,3.2,1.4s0.2-2.2,0.6-4.2
		c0.4-2,1.2-3.1,2.1-1.5c0.9,1.6,2.1,3,5.2,2.2c3.1-0.7,2.7-4,2.1-6.3c-0.6-2.4,1.6-3.5,2.7-4.1c1.1-0.6,4-2.9,1.9-4.8
		c-2.1-2-4,0.9-5.8,1.2c-1.9,0.4-1.1-1.2,2.7-4.2c3.3-2.6,0.5-5.1-1.5-6c-5.3,5.4-14.8,14.1-16.9,16.1c-0.7,0.7-1.4,1.6-2,2.6
		C193.7,172.9,194,174.9,193.2,176.3z"/>
	<path class="st2" d="M224,226.2c1.6,1.5,5.5,3.6,8.2,1.1s-0.6-5.2-1-7.2s2-3.2,0.7-6.5c-2.2-5.6-5.3,1.1-7.2,3s-1.6-1.3,0.1-3
		c0.9-0.9,4.7-3.2,2.5-5.8s-5.5-1.1-7.1,0s-2.9,2.5-5.3,1.7c-2.5-0.7-4.6-1-6.1,2.6s1.4,2.6,3.7,5.2c2.4,2.6,0.9,2.7-1,2.1
		c-1.9-0.6-2.7-3-5.5-2.6c-2.7,0.4-2.7,4.7-1.9,5.8c0.9,1.1,2.6,1.7,1.4,3.9c-1.2,2.1,0.6,4.6,2.9,5.6c2.2,1,5.6-3,6.8-4.6
		s2.5-1.2,2.2,0c-0.2,1.1-0.8,3.9-0.9,6.2c1.9-0.6,3.8-1.2,5.6-1.7c0-1.3-0.3-3.4-0.8-5.4C220.6,224,222.4,224.7,224,226.2"/>
	<path class="st11" d="M224,226.2c1.6,1.5,5.5,3.6,8.2,1.1s-0.6-5.2-1-7.2s2-3.2,0.7-6.5c-2.2-5.6-5.3,1.1-7.2,3s-1.6-1.3,0.1-3
		c0.9-0.9,4.7-3.2,2.5-5.8s-5.5-1.1-7.1,0s-2.9,2.5-5.3,1.7c-2.5-0.7-4.6-1-6.1,2.6s1.4,2.6,3.7,5.2c2.4,2.6,0.9,2.7-1,2.1
		c-1.9-0.6-2.7-3-5.5-2.6c-2.7,0.4-2.7,4.7-1.9,5.8c0.9,1.1,2.6,1.7,1.4,3.9c-1.2,2.1,0.6,4.6,2.9,5.6c2.2,1,5.6-3,6.8-4.6
		s2.5-1.2,2.2,0c-0.2,1.1-0.8,3.9-0.9,6.2c1.9-0.6,3.8-1.2,5.6-1.7c0-1.3-0.3-3.4-0.8-5.4C220.6,224,222.4,224.7,224,226.2z"/>
	<path class="st2" d="M175.6,221.4c2.6,0.1,5.5-0.7,7.7-2.4c2.2-1.6,8.1-0.7,5.7,3.4c-2.4,4.1-1.6,5-0.2,3.5
		c1.4-1.5,3.1-4.2,5.7-3.5c2.6,0.7,1.5,2.7-0.1,5c-1.6,2.2-0.6,3.7,0.6,4.6c1.2,0.9,3.5,5.6-3.4,7.6c-3,0.9-3.5-0.5-5.5-1.2
		s-2.1,1-0.7,3.1c1.4,2.1,2.9,4.1,1.2,4.1c-1.6,0-2.9,0.3-3.1,1.5c-0.2,1.2-2.9-0.2-3.5-2.9c-0.6-2.6-1.2-7.6-2.6-5.1
		c-1.4,2.5-2.6,6.6-6.1,4.7c-3.5-1.9-1.1-4.3-2.9-6.1c-1.7-1.7-3.4-4-1.6-7.1c1.7-3.1,3.2-0.5,4.8-0.5s1.9-1.5,0.4-2.6
		C170.7,226.3,168.8,221,175.6,221.4"/>
	<path class="st11" d="M175.6,221.4c2.6,0.1,5.5-0.7,7.7-2.4c2.2-1.6,8.1-0.7,5.7,3.4c-2.4,4.1-1.6,5-0.2,3.5
		c1.4-1.5,3.1-4.2,5.7-3.5c2.6,0.7,1.5,2.7-0.1,5c-1.6,2.2-0.6,3.7,0.6,4.6c1.2,0.9,3.5,5.6-3.4,7.6c-3,0.9-3.5-0.5-5.5-1.2
		s-2.1,1-0.7,3.1c1.4,2.1,2.9,4.1,1.2,4.1c-1.6,0-2.9,0.3-3.1,1.5c-0.2,1.2-2.9-0.2-3.5-2.9c-0.6-2.6-1.2-7.6-2.6-5.1
		c-1.4,2.5-2.6,6.6-6.1,4.7c-3.5-1.9-1.1-4.3-2.9-6.1c-1.7-1.7-3.4-4-1.6-7.1c1.7-3.1,3.2-0.5,4.8-0.5s1.9-1.5,0.4-2.6
		C170.7,226.3,168.8,221,175.6,221.4z"/>
	<path class="st6" d="M200.2,134.4c-0.7,2-1.7,4.5-2.2,5.7s-2.8,0.8-2.6-0.1c0.4-1.9-2.3-0.6-2-2.1c0.2-1.2-0.2-3.2,1.1-3.2
		C195.9,134.7,198.5,134.4,200.2,134.4"/>
	<path class="st7" d="M200.2,134.4c-0.7,2-1.7,4.5-2.2,5.7s-2.8,0.8-2.6-0.1c0.4-1.9-2.3-0.6-2-2.1c0.2-1.2-0.2-3.2,1.1-3.2
		C195.9,134.7,198.5,134.4,200.2,134.4z"/>
	<path class="st6" d="M196.1,44.5c0.2-0.6,0.4-1.3,0.7-1.8c-0.9,0.5-1.8,0.9-2.6,1.4C194.7,44.8,195.5,46.1,196.1,44.5"/>
	<path class="st6" d="M218.5,45.7c-0.4-1.3-1.6,0.7-3.1,2.6c-1.6,1.9-3.8,0.7-4-0.2s-0.7-2-2.1-3.8c-1.4-1.8,1.3-4.3,2.4-4.6
		c1.1-0.3,2.5-0.6,2.9-0.9c0.3-0.3-0.2-2.1-0.5-3.5c-4.5,1.3-9.9,3.6-14.7,6c1.5,0.6,1,3.4,0.9,3.8c-0.2,0.4-0.7,2.9,0.4,1.4
		c1.1-1.5,1.6-2,2.7-2.4c1.2-0.4,2.5-0.3,2.5,1.4c0.1,1.7-0.7,1.6-1,2.7c-0.2,1.1,0,1.1,0.6,1.3s0.9,1,0.5,2.2s-2.3,1.3-4,1.1
		s-1.9,0.1-1.3,0.6c0.5,0.5,1.1,1.4,1.3,2.5c4.1-2,8.9-3.6,16.5-5.1C218.7,49.4,218.8,46.8,218.5,45.7"/>
	<path class="st6" d="M179.2,70.2c-0.6-1.1-1.4-1.3-1.7-0.4s-0.9,3.8-2.9,4.6c-0.6,0.3-1.1,0.4-1.5,0.5c0.7,0.7,1.4,1.4,2.3,2
		c1.5-1.6,2.9-3.1,4.3-4.4C179.8,71.8,179.6,71,179.2,70.2"/>
	<path class="st6" d="M197.8,55.4c-0.7-0.2-1.2,0.8-1.7,1.5c-0.4,0.7-1.4,2-3,1.8s-2-0.7-2.4-2.1c-0.4-1.4-1.4-1.8-2.6-1.8
		c-1.2,0-2-1.4-0.7-2.9c1.2-1.5,2.5-0.8,3.5-0.8s1.5-1.1,0.7-1.6c-0.6-0.4-1.8-1.7-2-2.7c-3.5,2.3-8.6,5.9-13.1,9.9
		c0.8,0.1,1.7,0.3,2.2,0.5c0.6,0.2,1.6,1,1.4,2.1c-0.1,1.1,0.2,1.4,0.9,0.6c0.7-0.7-0.1-3,2.2-3.9s2.6,0.9,2.5,2
		c-0.1,1.2,0,2.3,1.2,2.8s2.5,2.4-0.1,3.5c-2.6,1.1-4,1.4-5.1,1.7s-0.8,1.4,0.1,2c0.5,0.4,0.9,0.8,1.2,1.1c3.3-3,6.4-5.5,9.9-7.9
		c1.9-1.3,3.7-2.5,5.5-3.5C198.7,56.8,198.8,55.8,197.8,55.4"/>
	<path class="st6" d="M173.5,67c0.1-1.2-0.9-1.7-1.5-1.9c-0.5-0.1-1.3-1-1.7-1.8c-0.6,0.8-1.2,1.6-1.6,2.5c0.3,0.8,0.5,1.6,0.8,2.3
		C171,68.1,173.4,68,173.5,67"/>
	<path class="st6" d="M226,125c-4.1-0.3-8.9,0.6-13.5,2.3c0.8,0.5,1.7,1.6,3.3,1c2.4-0.8,3.2,1.7,2.1,2.4c-1.1,0.7-1.5,2.4,0.6,1.1
		c2.1-1.3,4,0.6,3.1,1.9c-0.9,1.4-2,0.3-1.7,2.2c0.2,1.9-0.2,3.7-1.9,4s-2.1-2.3-2.9-2.1c-0.8,0.2,0.2,4.6-0.2,4.7
		c-1.2,0.2-2.4,1.3-3,1.9c0.1,0,0.1,0.1,0.1,0.1c6.8,4.9,8.6,2.2,9.6-0.1c1-2.4,3.2-9.4,3.9-13C225.7,129.2,226.2,127,226,125"/>
	<path class="st6" d="M211.1,138.5c0.4-0.9-0.6-1.7-1.7-1.1c-1.1,0.7-2.6,1.7-3.7-0.1c-1.1-1.8,1.2-2,1.3-2.9s-0.7-1-0.3-2.4
		s2-1,3.1-0.3c1.3,0.9,0.9-1.2,0.7-2c-0.1-0.6-0.2-1.2-0.1-1.7c-1.3,0.6-2.7,1.3-3.9,2.1c-6.4,3.9-6.6,7.2-5.1,8.5
		c1.3,1.1,4.1,1.6,8.7,4.7C210.2,141.7,210.8,139.2,211.1,138.5"/>
	<path class="st6" d="M190.8,134.8c-2.6-1.3-5.2-4.2-7-7.6c0,0,0.1-0.5-0.6-0.5c-0.7,0-3.5-0.2-8.1-1.9c-4.6-1.6-5.2-0.6-5.8,1.4
		c-0.6,2-1.1,5.6-1.2,11.6c-0.1,6,2.5,9.7,4.1,9.1c0.8-0.3,2.8-1.3,5-2.4c0-1.2,0.1-3.2,0.2-4.2c0.2-1.4-1.3-0.9-1.9-0.1
		c-0.6,0.7-1.8,2-2.9,1.8c-1.1-0.2-1.9-2.2-1.7-4c0.2-1.9-2-2.6-0.6-5.1s2.5,0.6,3.7,0.4c1.2-0.2,0.6-0.9,0-2.8
		c-0.6-1.9,1.8-2.5,3.2-1.1c0.9,0.9,1.4-1.1,2.7-0.8c1.4,0.3,2.2,1.2,1.4,2.6c-0.6,1.1-1.1,3.5,0.1,2.2c1.2-1.3,2.4-2.1,3.5-1.2
		c1.1,0.9,0.4,2.7,0.1,3.6c-0.3,0.9,2,2.1,0.4,3.2c-1.6,1.1-3.4-0.8-4.3-0.6c-0.9,0.2-1.1,1.4,0.1,2.2c0.8,0.6,1.7,1,2.3,1.3
		c2.6-0.9,5.6-2.6,6.6-3.2l1.6,0.1C191.7,136.5,191.5,135.2,190.8,134.8"/>
	<path class="st6" d="M181.6,162.1c-1-2.2-1.3-0.5-4.1,3.8c-1.4,2.2-4.9,6.3-9.3,10.9c3.1,0.6,9.6,2.2,5.7,5.5
		c-4.2,3.5-2.4,3.2-0.5,3s5,0.9,2.6,5.1c-2.4,4.2-4,7.2-6.2,8.6c-2.2,1.4-5.5,1.2-6.2-2s-2.9,0-3,2.1s-0.4,5.7-0.1,7l-4.7-0.2
		c-0.1-2-0.1-6,0.2-7.8c0.4-1.9,0.3-4.1-2.6-3.2c-1.9,0.6-3.1,0.1-3.8-0.3c-5.6,4.9-8.4,8.4-10.2,11.4c1.4,1.3,3.7,2.2,6.1,1.2
		c2.7-1.1,7.2,0.2,4.5,4.5c-2.7,4.2-2.6,6.3,0.1,3.7c2.7-2.6,7.1-7.1,8.5-2.4c0.9,3.1-2,4.1-1.9,6.6s2.6,5-0.9,8s-5-2.1-7.3-1.4
		c-1.4,0.4-1.7,1.8-1.6,2.9c3.1,4.4,7.6,10.6,9.2,13.2c2.5,4.1,2.5,9.1,3.5,8.3c1-0.7,3.4-3,4.1-3.6c0.7-0.6,1.5-1.4,1.1-2.7
		c-0.4-1.4-1.8-8.7-1.4-13.8c0.5-5.8,3.2-12.2,5.2-15.9c1.9-3.5,7.7-14.8,9.1-17.8c1.4-3,3.9-6.5,4.5-9.2s3-9.1,4-12.1
		C185.8,173,184.2,168,181.6,162.1"/>
	<path class="st6" d="M235.8,217.3c-3.2-5.3-3.9-7.5-4.3-12.9c-0.3-3.4,0-7.9,0.5-12.2c-1-0.1-2.2,0.1-2.3,1.6
		c-0.1,2.4-1.2,5.7-2,7.5c-0.7,1.7-3.2,1.6-4.7,1.7c-1.5,0.1-1.5-0.9-0.5-3.1c1-2.2,1.4-3.2,1.1-5.2c-0.3-2-1.2-0.2-2.1,1.5
		c-0.9,1.7-3.4,5.2-6.2,4.8c-2.9-0.4-2.1-4.7-1.9-6.2c0.2-1.5-0.6-1.7-1.7-2c-1.1-0.2-3.4-0.7-2.1-4.4c1.2-3.6,2.6-3.2,4.3-2.6
		c1.7,0.6,2-0.5,0.4-1.1s-3.4-2-3.2-3.7c0.3-4.6,3.2-4.2,5.5-3.7c1.9,0.4,4.4-0.7,6.1-2.5c0-0.1-0.1-0.2-0.1-0.3
		c-3.3-12.6,3-28.2,4.7-32.5c1.7-4.4,8.4-16.6,10.8-20.3c-1.2-0.6-4.5-2.3-6.3-3.2c-1.8-0.9-2.8-1.4-3.3-0.7c-0.5,0.7-1.1,1.1-2,2.3
		c-1.7,2.5-0.2,2.1,0.2,2.1c0.5,0,2.6,2.7,3,3.4c0.4,0.6,0,1.1-0.9,3.1c-1.1,2.6-1.9,8.6-2.9,12.2c-3,10.9-7.7,9.8-9.8,8.4
		c-2.1-1.4-2.7,0.7-4.9,3.7c-0.5,0.7-1.8,2.1-3.4,3.7c2,0.9,4.8,3.5,1.5,6.1c-3.9,3-4.6,4.6-2.7,4.2c1.9-0.4,3.7-3.2,5.8-1.2
		s-0.7,4.2-1.9,4.9c-1.1,0.6-3.4,1.7-2.7,4.1c0.6,2.4,1,5.6-2.1,6.3s-4.3-0.6-5.2-2.2c-0.9-1.6-1.7-0.5-2.1,1.5
		c-0.4,2-0.6,3.5-0.6,4.2s-2.2-0.4-3.2-1.4s-2.2,1.7-3.4,0.4c-1.1-1.4,1.4-5.6,2.2-7.1c0.8-1.4,0.5-3.4-4.5-1.1
		c-1.6,2.7-2.9,6.6-4.9,12.6c-2.7,8.3-8.9,19.7-11.5,23.8c-6.7,10.8-7.9,20.9-6.9,27.3c1,6.3,1.9,5.8,3.2,5.8c1.4,0,4.7,4.2,7,6.8
		c2.2,2.6,3.1,1.5,4.2,0.6c3.6-2.8,10.8-7.5,21-12.3c4.3-2.1,10.1-4.3,15.8-6.1c0.1-2.3,0.7-5.2,0.9-6.2c0.2-1.2-1-1.6-2.2,0
		s-4.6,5.6-6.8,4.6s-4.1-3.5-2.9-5.6c1.2-2.1-0.5-2.7-1.4-3.8s-0.9-5.5,1.9-5.8c2.7-0.4,3.6,2,5.5,2.6s3.4,0.5,1-2.1
		s-5.2-1.6-3.7-5.2c1.5-3.6,3.6-3.4,6.1-2.6c2.5,0.7,3.7-0.6,5.3-1.7c1.6-1.1,4.8-2.6,7.1,0c2.2,2.6-1.6,5-2.5,5.8
		c-1.7,1.7-2,4.8-0.1,3s5-8.6,7.2-3c1.2,3.2-1.1,4.5-0.7,6.5c0.4,2,3.7,4.7,1,7.2s-6.6,0.4-8.2-1.1c-1.6-1.5-3.4-2.2-2.6,0.5
		c0.6,2,0.8,4.1,0.8,5.4c5.4-1.5,10.2-2.4,12.6-2.2c3.5,0.3,6.2,1.4,6.1-1.9C240.7,224.9,239,222.6,235.8,217.3"/>
	<path class="st12" d="M191.7,239.5c-3,0.9-3.5-0.5-5.5-1.2s-2.1,1-0.7,3.1c1.4,2.1,2.9,4.1,1.2,4.1c-1.6,0-2.9,0.2-3.1,1.5
		s-2.9-0.2-3.5-2.9c-0.6-2.6-1.2-7.6-2.6-5.1c-1.4,2.5-2.6,6.6-6.1,4.7c-3.5-1.9-1.1-4.3-2.9-6.1c-1.7-1.7-3.4-4-1.6-7.1
		c1.7-3.1,3.2-0.5,4.9-0.5c1.6,0,1.9-1.5,0.4-2.6s-3.4-6.5,3.5-6.1c2.6,0.1,5.5-0.7,7.7-2.4c2.2-1.6,8.1-0.7,5.7,3.4s-1.6,5-0.2,3.5
		c1.4-1.5,3.1-4.2,5.7-3.5c2.6,0.7,1.5,2.7-0.1,5c-1.6,2.2-0.6,3.7,0.6,4.6C196.3,232.8,198.6,237.5,191.7,239.5"/>
	<path class="st12" d="M204.3,210.2c-2.2,0.1-5-0.5-5-0.5c-0.2,2.4-2.5,5.7-4.8,9.2c-0.2,0.4-1.6,0.4-2.2-0.1
		c-0.6-0.5-2.4-1.4-1-2.9s3.6-4.6,3.2-6c-0.4-1.4-1.4-2.6-2.9-0.7c-1.5,1.9-3.9,5.7-6.5,5.8s-5.2-2.2-4-4.6c1.2-2.4,1.6-3.6-0.1-5.7
		c-1.7-2.1-1.1-4.8,2.6-6.5c1.1-0.5,3.1,0,4.5,1.1s2.1,0,0.2-1.1c-1.9-1.1-3.4-2.5-3.6-5c-0.2-2.4,1.2-4.8,4.5-3.5
		c3.2,1.4,5.2,0.2,6.6-0.9c1.4-1.1,7.2-2.5,6.3,2.6c-0.6,3.7-2.4,3.8-2.9,5.8s1,0.7,1.9-0.7c0.9-1.5,2.9-7.6,7-3
		c1,1.1,0.6,3-0.6,5.1c-1.2,2.1-0.2,3.4,0.5,4.5C208.8,204.4,210.5,209.9,204.3,210.2"/>
	<polygon class="st0" points="306.8,111.4 310.6,108.7 318.8,120.9 323.7,117.5 315.2,105.5 318.9,102.9 327.9,115.5 332.8,112.1
		319.4,93.4 297.4,109 309.5,126.2 314.4,122.8 	"/>
	<polygon class="st0" points="322.7,153.8 329.9,150.5 325,139.7 341.8,132.7 338.8,125.9 315,136.3 	"/>
	<polygon class="st0" points="327,165.2 327.8,171.8 343.8,170 344.4,176.9 351.5,176.4 349.6,153.1 342.4,153.6 343,163.3 	"/>
	<polygon class="st0" points="327.8,187.9 327.9,195.8 351.4,195.7 351.3,187.8 	"/>
	<path class="st0" d="M338.9,207c-3.9-0.8-8.6-0.1-11.9,2.4c-2.9,2.2-4.3,4.5-5.1,8.5c-0.5,2.6-0.1,5.9,0.8,8.9l6.2-2.1
		c-0.6-1.4-0.9-3.6-0.2-5.8c1.3-4.2,4.7-6.2,8.9-5.5c4.5,0.7,7,4.8,6.2,9.6c-0.3,1.9-1.3,3.6-3.5,5l3.8,4.6c3.1-1.9,5.5-5.7,6-8.3
		c0.9-4.5-0.2-7.6-2.3-11.2C345.9,209.5,342.5,207.7,338.9,207"/>
	<path class="st0" d="M334.6,239.8c-3.3-0.8-7.8,2.8-9.9,4.8c-1.2,1.2-5.6,5.6-7.6,4.9c-1.8-0.6-1.2-3.3-0.6-5.1
		c0.9-2.6,2.2-4.8,4.3-6.2l-3.9-1.7c-1.9,1.6-4,4.1-4.9,6.7c-1,3-1.4,6.4-1,8.6c0.5,2.8,1.5,4.7,4.7,4.4c2.5-0.2,8.7-4.3,12.3-7.6
		c1.8-1.7,3.4-1.9,4.2-1.5c1.3,0.7,1.2,3,0.8,4.4c-0.6,1.9-1.5,4.7-3,5.8l5.3,3.6c2.2-2.2,3.3-5.5,3.9-8.5
		C340.7,244.8,336.7,240.3,334.6,239.8"/>
	<path class="st0" d="M305.1,83.8c-0.5-3.6-2.5-7.8-4.5-9.6c-3.2-2.7-6.9-3.5-10.9-3s-7.8,3.1-9.9,6.1c-2.3,3.3-3.6,7.8-2.7,11.8
		c0.8,3.6,2.3,5.7,5.7,8.1c2.1,1.5,5.4,2.5,8.4,3l0.7-6.5c-1.6,0-3.6-0.7-5.4-2.2c-3.4-2.9-3.5-7.5-1.4-10.4
		c2.7-3.7,7.3-4.4,11.4-1.7c1.6,1.1,2.3,2.8,2.6,5.4L305.1,83.8z"/>
	<path class="st0" d="M64.7,219.2c0.2-1.8,0.1-5,2-5.4s3.1,1.4,3.5,3.3c0.6,2.7,1.3,4.8,0.2,7.1l5-0.5c0.8-2.3,0.6-5.4,0-8.1
		c-0.7-3.1-1.6-5.2-3.9-7.2c-2.2-1.9-3.8-2.4-7-1.8c-1.9,0.4-5.4,3.9-5.5,10.8c0,1.3-0.3,3.8-1.5,3.9c-1.5,0.1-2.6-1.7-2.9-3.2
		c-0.4-1.9,0.1-6.2,0.9-7.8h-5.2c-0.8,3-1.1,7.2-0.4,10.2c1.4,6.8,5.5,9,8.8,8.6C62.3,228.6,64.2,224.9,64.7,219.2"/>
	<polygon class="st0" points="54.2,190.7 72.8,190.5 72.7,184.7 54.1,184.9 54.1,177 48.1,177.1 48.4,199.2 54.3,199.1 	"/>
	<polygon class="st0" points="87.7,132.5 73.4,124.2 73.5,124.2 92.4,123.9 96.9,116.9 73.6,103.4 70,108.9 86,118.9 64.2,119.5
		61.2,125.4 84.2,138.7 	"/>
	<path class="st0" d="M64.5,167.9c7.9,0,14.4-6.4,14.4-14.4c0-7.9-6.4-14.4-14.4-14.4c-7.9,0-14.4,6.4-14.4,14.4
		C50.2,161.5,56.6,167.9,64.5,167.9 M64.5,146.1c4.1,0,7.5,3.3,7.5,7.5c0,4.1-3.4,7.5-7.5,7.5s-7.5-3.3-7.5-7.5
		C57.1,149.4,60.4,146.1,64.5,146.1"/>
	<path class="st0" d="M88.2,248c0-7.9-6.4-14.4-14.4-14.4c-7.9,0-14.4,6.4-14.4,14.4s6.4,14.4,14.4,14.4
		C81.7,262.4,88.2,255.9,88.2,248 M73.8,255.5c-4.1,0-7.5-3.4-7.5-7.5s3.4-7.5,7.5-7.5s7.5,3.3,7.5,7.5
		C81.3,252.1,77.9,255.5,73.8,255.5"/>
	<path class="st0" d="M91.1,264.4c-2.2,2-3.3,6.6-1.2,9.7c-2.3-1.1-6.8-1.5-8.9,0.3c-5.2,4.5,1.1,11,6.2,16.1l7.2,7.1l19.1-15.8
		l-7.7-9C103,269.5,95.5,260.5,91.1,264.4 M91.9,289.5c-1.9-2.3-7.6-6.7-5.1-9c2.3-2.2,8,4.7,8.7,5.6L91.9,289.5z M100.8,281.5
		l-0.5-0.6c-1.6-1.9-6.9-7.6-4.7-9.6c2-1.9,7.1,4.6,8.5,6.3l0.6,0.7L100.8,281.5z"/>
</g>
</svg>
