<?xml version="1.0" encoding="utf-8"?>
<!-- Generator: Adobe Illustrator 20.0.0, SVG Export Plug-In . SVG Version: 6.00 Build 0)  -->
<svg version="1.1" id="Layer_1" xmlns="http://www.w3.org/2000/svg" xmlns:xlink="http://www.w3.org/1999/xlink" x="0px" y="0px"
	 width="400px" height="400px" viewBox="0 0 400 400" style="enable-background:new 0 0 400 400;" xml:space="preserve">
<style type="text/css">
	.st0{fill:#1D1160;}
	.st1{fill:#00788C;}
	.st2{fill:#FFFFFF;}
	.st3{fill:#A1A1A4;}
</style>
<g>
	<path class="st0" d="M104.2,190.3H77.7V219l-15.9,7.7l15.9,8.4v25.4l17.6,10.8c6.4-0.9,14.6-2,24.3-2.9l67.7,39l12.4,56.7
		c0-0.2,12.6-56.7,12.6-56.7l67.7-39c9.5,1.1,17.9,2,24.3,2.9l17.4-10.8v-25.4l15.9-8.2l-15.9-7.9v-28.7h-26.5c0,0,4.2-4,9.3-12.8
		c2.2-3.7,4.2-8.4,6.6-13.7c19.2-5.7,33.3-18.1,39.5-30c16.5-30,28.9-67,28.9-67s-7.1,3.5-15.7,7.7c6.8-21.2,11.2-39.3,11.2-39.3
		s-75.9,50.3-135.2,97.5l-5.1-3.1c0-0.4,0.2-4.6,0.2-5.1c0,0,0.7-4.9-8.2-7.9c-0.7-0.2-1.1-0.4-1.5-0.4c4.2-3.3,11-8.2,15.7-11.5
		c7.7-5.3,6.8-11.2,6.8-11.2l-28.2,21c-21.6-7.1-39.7,0-39.7,0l-28.2-21c0,0-0.9,5.7,6.8,11.2c4.9,3.3,11.7,8.2,15.9,11.5
		c-0.4,0.2-1.1,0.4-1.5,0.4c-8.8,3.1-8.2,7.9-8.2,7.9c0,0.4,0.2,4.6,0.2,5.1l-5.1,2.6C100.4,85.1,24.6,34.9,24.6,34.9
		s4.2,18.1,11.2,39.3c-9.3-4.4-15.7-7.7-15.7-7.7s12.3,37.1,28.7,67c6,12.1,20.3,24.3,39.5,30c0,0,3.3,7.5,6,12.8
		C97.8,183.1,104.2,190.3,104.2,190.3z"/>
	<g>
		<path class="st1" d="M231.4,147.3c-0.2,0.9-0.7,1.8-0.9,2.4c26.7-17.4,73-47.6,125-81.4c0,0,0,1.1,4.6-12.4
			C305.5,89.3,256.8,126.8,231.4,147.3z"/>
		<path class="st1" d="M167.9,147.3c-25.1-20.5-73.9-58-129-91.3c4.4,13.2,4.6,12.4,4.6,12.4c52,33.5,98.6,64,125.3,81.4
			C168.3,149.1,168.1,148.2,167.9,147.3z"/>
		<path class="st1" d="M199.7,174.2c-4.4-1.8-15.9-7.5-22.7-22.3c5.5,4.9,12.8,6.4,18.7,0.9c-7.1-3.1-7.9-15.7-9.3-19
			c-2.9-6.6-7.1-10.1-10.6-11.5c1.8-0.7,3.3-1.1,4.6-1.5c3.3,1.8,8.8,5.7,10.6,14.1c0,0,0.7-9.3-4-15.9c9-2.2,18.1-2,25.4,0
			c-4.6,6.6-4,15.9-4,15.9c1.8-8.2,7.3-12.4,10.6-14.1c1.5,0.4,3.1,1.1,4.6,1.5c-3.5,1.5-7.7,4.6-10.6,11.5
			c-1.3,3.3-2.2,15.9-9.3,19C205.6,162.1,203.6,171.2,199.7,174.2z M119.6,191.9c0,0-13-9.3-20.5-26.5l5.1,1.5c17,4.4,49.6,9,49.6,9
			c-15.7,0.4-29.1,1.5-36.6,2.4c-1.5-2-3.5-4.4-4.2-6.2c0,0,0.7,6,2,9.7l0,0C117,187.3,119.6,191.9,119.6,191.9z"/>
		<path class="st1" d="M284.1,181.7L284.1,181.7c1.3-3.8,2-9.7,2-9.7c-0.7,2-2.6,4.2-4.2,6.2c-7.5-0.9-21-2.2-36.6-2.4
			c0,0,32.4-4.4,49.6-9l5.1-1.5c-7.3,17-20.5,26.5-20.5,26.5C279.9,191.9,282.4,187.3,284.1,181.7z"/>
		<path class="st1" d="M159.1,272.6L126,253.4c-2.4,0.2-4.6,0.4-6.8,0.7l46.1,26.7C162.8,278.1,160.8,275.5,159.1,272.6z"/>
		<path class="st1" d="M240.2,272.6l33.1-19.2c2.4,0.2,4.6,0.4,6.8,0.7l-46.1,26.7C236.7,278.1,238.7,275.5,240.2,272.6z"/>
		<g>
			<path class="st1" d="M184.9,277.2c-14.6-3.3-20.7-10.4-20.7-10.4c3.1,6,7.5,11.5,13,15C177.4,281.9,183.6,279.9,184.9,277.2z"/>
			<path class="st1" d="M176.1,261.4c-1.1-1.1-2.2-2.2-3.3-3.3c-4.6,1.8-7.3,3.5-8.8,4.6c3.3,3.1,9.5,7.1,20.5,9.5
				C183.3,268.9,179.8,265.3,176.1,261.4z"/>
			<path class="st1" d="M199.4,296c-4.9,0-8.4,2-9.5,2.4c-1.3-2.4-2.6-4.4-4-6.6c4.2,0.4,7.7-0.2,7.7-0.2c-1.8-0.7-6.2-2.2-12.4-6
				l0,0c0.4-0.2,1.1-0.4,1.5-0.7l0,0c1.5-0.9,3.3-1.8,4.2-3.1c1.5-1.5,2.6-3.5,2.6-5.7c0-7.3-4.9-9.7-10.4-15
				c-1.1-1.1-2.4-2.2-3.5-3.5c4.9-1.3,11.9-2.4,21.2-2.6l2.2,30.7h0.2l2.4-30.7c9.3,0.2,16.1,1.3,21.2,2.6c-1.3,1.1-2.4,2.4-3.5,3.5
				c-5.5,5.3-10.4,7.9-10.4,15c0,2.4,1.1,4.2,2.6,5.7c1.3,1.3,2.9,2.4,4.2,3.1l0,0c0.4,0.2,1.1,0.4,1.5,0.7l0,0
				c-6,4-10.6,5.3-12.4,6c0,0,3.7,0.9,7.7,0.2c-1.3,2.2-2.9,4.2-4,6.6C207.8,298,204.5,296,199.4,296L199.4,296L199.4,296z"/>
			<path class="st1" d="M222.2,281.9c5.5-4,10.1-9,13-15c0,0-6,7.3-20.7,10.4C215.8,279.9,222.2,281.9,222.2,281.9z"/>
			<path class="st1" d="M214.7,272.4c11.2-2.4,17.2-6.4,20.5-9.5c-1.3-1.3-4.2-3.1-8.8-4.6c-1.1,1.1-2.2,2.2-3.3,3.3
				C219.5,265.3,216,268.9,214.7,272.4z"/>
		</g>
	</g>
	<g>
		<path class="st2" d="M189.7,153.5c0,0-5.3-3.5-6.2-11.2C183.6,142.3,176.5,154.2,189.7,153.5z"/>
		<path class="st2" d="M210,153.5c0,0,5.3-3.5,6.2-11.2C216.2,142.3,223,154.2,210,153.5z"/>
		<path class="st2" d="M206.1,307.2c-0.9-1.1-2.4-2.2-6.6-2.2s-5.3,1.1-6.6,2l6.8,27.3L206.1,307.2z"/>
		<path class="st2" d="M251.7,187.5v9.9h-3.5v-9.9h-2.9v-3.1h8.8v2.9L251.7,187.5L251.7,187.5z"/>
		<path class="st2" d="M236.1,187.5v9.9h-3.5v-9.9h-2.9v-3.1h9v2.9L236.1,187.5L236.1,187.5z"/>
		<path class="st2" d="M188.9,193h1.3v-6.8l-1.5-1.5H180v12.8h3.3V193h2.4l2,4.4h3.3L188.9,193z M187.1,189.9h-3.8v-2.6h3.8V189.9z"
			/>
		<polygon class="st2" points="271.1,187.5 271.1,184.4 261.6,184.4 261.6,197.4 271.1,197.4 271.1,194.5 264.7,194.5 264.7,192.5
			271.1,192.5 271.1,189.5 264.7,189.5 264.7,187.5 		"/>
		<polygon class="st2" points="201.4,194.5 201.4,184.4 198.1,184.4 198.1,197.4 206.1,197.4 206.1,194.5 		"/>
		<path class="st2" d="M221.1,184.4h-8.6v11.5l1.5,1.5h8.6v-11.5L221.1,184.4z M219.3,194.5h-3.7v-7.1h3.7V194.5z"/>
		<path class="st2" d="M172.5,197.4v-11.5l-1.5-1.5h-8.6v12.8h3.3V193h3.8v4.2h3.1L172.5,197.4L172.5,197.4z M165.7,190.3v-3.1h3.8
			v3.1H165.7z"/>
		<polygon class="st2" points="152.2,184.4 152.2,190.3 148.5,190.3 148.5,184.4 145.4,184.4 145.4,197.4 148.5,197.4 148.5,193.2
			152.2,193.2 152.2,197.4 155.3,197.4 155.3,184.4 		"/>
		<path class="st2" d="M345,93.3c6.2-14.6,11-25.1,11-25.1c-52,33.7-98.4,64-125,81.4c-1.1,2.9-2.2,5.3-3.5,7.7l105-57.1l-81.8,59.1
			l4-0.7l43.2-4.2c0,0,29.3-2.9,45.7-24.7c7.7-11.9,20.7-46.1,20.7-46.1L345,93.3z"/>
		<g>
			<path class="st2" d="M94.5,230.3l10.1-4.2v22.7c2.9-0.4,5.7-0.9,8.8-1.1v-50.3h-8.8v18.1l-10.1,4.2v-22.3h-8.8v26
				c0,0-7.3,3.5-7.3,3.7l7.3,3.8v21.2c2.9-0.4,5.7-1.1,8.8-1.5V230.3z"/>
			<path class="st2" d="M163.5,230c2.2,0,4.2-0.2,6.6-0.2c1.8,4.2,3.3,9,4.9,13.2c3.1,0,5.7-0.2,8.8-0.2c-1.8-4.2-3.3-9-4.9-13.2
				c1.1,0,2.2,0,3.5,0v-20.7l-4-4h-27.1l3.5,4.2v34.8c3.1-0.2,5.7-0.2,8.8-0.4V230H163.5z M163.5,213.3h10.1c0,2.4,0,5.5,0,7.9
				c-3.5,0-6.6,0-10.1,0.2V213.3z"/>
			<path class="st2" d="M198.1,213.3h10.1v29.6c3.1,0,6.2,0,9.3,0.2v-33.7l-4.2-4.2h-27.6l3.5,4.2v33.7c3.1,0,6,0,9,0
				C198.1,242.8,198.1,213.3,198.1,213.3z"/>
			<path class="st2" d="M250.8,235.8c-5.7-0.2-11.5-0.7-17.2-0.9c0-2.2,0-4.2,0-6.2c5.7,0.2,11.5,0.4,17.2,0.7v-8.8
				c-5.7-0.2-11.5-0.2-17.2-0.4c0-1.8,0-4.4,0-6.6h17.2v-8.2h-29.8l3.3,4.2v34c9,0.2,18.1,0.7,26.7,1.3v-9H250.8z"/>
			<path class="st2" d="M273.3,213.3h7.7v-8.2c-8.4,0-16.8,0-25.1,0v8.2h7.7v32c3.3,0.2,6.4,0.4,9.7,0.9V213.3z"/>
			<path class="st2" d="M148.1,209.3l-4.2-4.2h-27.1l3.3,4v33.1l3.5,4.2c7.7-0.9,16.1-1.5,24.5-2V209.3z M139,236.2
				c-3.5,0.2-6.6,0.4-10.1,0.7v-23.6H139V236.2z"/>
			<path class="st2" d="M313,230.5c2.9-1.3,5.5-2.6,8.2-4c-8.8-4.2-17.6-7.7-26.7-11.2v-10.1h9.5v3.7h9v-11.7h-30.4l3.5,4v21
				l18.3,7.9v11.7c0,0-4.2-0.4-9.5-1.3v-3.7l-8.8-1.1v11.9c9.7,1.1,18.7,2.4,27.1,4C313,245,313,235.3,313,230.5z"/>
		</g>
		<g>
			<polygon class="st2" points="135,193.2 135,194.5 132,194.5 132,187.5 135,187.5 135,188.4 138.1,188.4 138.1,184.4 128.6,184.4
				128.6,195.9 130.2,197.4 138.1,197.4 138.1,193.2 			"/>
		</g>
		<path class="st2" d="M54.5,93.3c-6.4-14.6-11-24.9-11-24.9c52,33.7,98.4,64,125,81.4c1.1,2.9,2.2,5.3,3.5,7.7L67.3,100.4
			l81.8,59.1l-4-0.7l-43.2-4.2c0,0-29.3-2.9-45.7-24.7C48.6,118,35.6,83.8,35.6,83.8L54.5,93.3z"/>
	</g>
	<path class="st3" d="M377.4,83.2c-8.4,22.1-19.4,45.2-24.9,54.7c-9.3,15.9-27.8,25.4-38.6,29.1c0,0-5.3,12.8-10.8,19.8h22.1v30
		l21.2,10.1l-21.2,10.6v25.4l-20.5,12.6c0,0-16.3-2-24.3-2.9l-64.8,37.5c-12.8,58.7-16.1,75.6-16.1,75.6s-3.1-16.1-16.1-75.6
		l-64.8-37.5c-7.9,0.9-24.3,2.9-24.3,2.9l-20.5-12.6v-25.4L52.6,227l21.2-10.1v-30.2h22.1C90.5,180,85,166.7,85,166.7
		c-6.4-2.2-12.8-5.1-18.3-8.6c-8.8-5.5-15.9-12.8-20.5-20.3c-8.2-15.7-18.7-39-24.3-54.7c-3.8-9.5-8.4-24-8.4-24s12.1,5.7,15.7,7.5
		c-5.7-17.4-10.8-40.4-10.8-40.4l0,0l0,0c0,0,82.9,54.7,141.1,101.2l0.9-0.7c0-1.1,0-2,0-3.1c0-0.7,0-1.8,0.4-3.3
		c0.7-2,2.2-4.2,5.5-6.4c-4.2-3.3-12.1-8.4-12.8-9.3c-5.5-4.9-6.6-10.4-6.2-13l0.9-6.2l31.5,23.4c17.2-4.9,29.3-2.6,38.4,0
		l31.5-23.4l0.9,6.2c0.4,2.9-0.4,8.2-6.2,13c-0.7,0.7-8.4,6-12.8,9.3c3.5,2.2,4.9,4.4,5.5,6.4c0.4,1.5,0.4,2.6,0.4,3.3
		c0,1.1,0,2,0,3.1l0.9,0.7C298,79.8,379.6,26.3,379.6,26.3l0,0l0,0c0,0-4.2,19-10.8,40.4c3.3-1.5,15.7-7.5,15.7-7.5
		C382.3,70.8,377.4,83.2,377.4,83.2z M104.2,190.3H77.7V219l-15.9,7.7l15.9,8.4v25.4l17.6,10.8c6.4-0.9,14.6-2,24.3-2.9l67.7,39
		l12.4,56.7c0-0.2,12.6-56.7,12.6-56.7l67.7-39c9.5,1.1,17.9,2,24.3,2.9l17.4-10.8v-25.4l15.9-8.2l-15.9-7.9v-28.7h-26.5
		c0,0,4.2-4,9.3-12.8c2.2-3.7,4.2-8.4,6.6-13.7c19.2-5.7,33.3-18.1,39.5-30c16.5-30,28.9-67,28.9-67s-7.1,3.5-15.7,7.7
		c6.8-21.2,11.2-39.3,11.2-39.3s-75.9,50.3-135.2,97.5l-5.1-3.1c0-0.4,0.2-4.6,0.2-5.1c0,0,0.7-4.9-8.2-7.9
		c-0.7-0.2-1.1-0.4-1.5-0.4c4.2-3.3,11-8.2,15.7-11.5c7.7-5.3,6.8-11.2,6.8-11.2l-28.2,21c-21.6-7.1-39.7,0-39.7,0l-28.2-21
		c0,0-0.9,5.7,6.8,11.2c4.9,3.3,11.7,8.2,15.9,11.5c-0.4,0.2-1.1,0.4-1.5,0.4c-8.8,3.1-8.2,7.9-8.2,7.9c0,0.4,0.2,4.6,0.2,5.1
		l-5.1,2.6C100.4,85.1,24.6,34.9,24.6,34.9s4.2,18.1,11.2,39.3c-9.3-4.4-15.7-7.7-15.7-7.7s12.3,37.1,28.7,67
		c6,12.1,20.3,24.3,39.5,30c0,0,3.3,7.5,6,12.8C97.8,183.1,104.2,190.3,104.2,190.3z"/>
</g>
</svg>
