<?xml version="1.0" encoding="UTF-8"?>
<!-- Generator: Adobe Illustrator 16.0.0, SVG Export Plug-In . SVG Version: 6.00 Build 0)  -->
<!DOCTYPE svg PUBLIC "-//W3C//DTD SVG 1.1//EN" "http://www.w3.org/Graphics/SVG/1.1/DTD/svg11.dtd">
<svg version="1.1" id="Layer_1" xmlns="http://www.w3.org/2000/svg" xmlns:xlink="http://www.w3.org/1999/xlink" x="0px" y="0px" width="400px" height="400px" viewBox="0 0 400 400" enable-background="new 0 0 400 400" xml:space="preserve">
<path fill="#FFFFFF" d="M331.4,163.4c-1.1-19.4-9.8-36.7-14.9-47.1l-0.6-1.2l-2.3-4.5l0.5,5c0.6,6.9,2.2,30.6-4.9,44.1  c-8.8,18.2-34.5,16.4-43,15.9l-0.6,0c-13.9-0.9-59.1-2.5-73-2.5c-18.3,0.1-38.5,1.6-54.8,2.8c-8,0.6-14.8,1.1-19.5,1.3  c-0.4,0-0.9,0.1-1.7,0.1c-22.8,2.1-37.2-4.6-42.8-20c-3.4-9.4-3.4-28.1-3.3-37l0-2.7l0-3.8c0,0-1.8,3.3-1.8,3.3  c-4.3,7.9-12.2,22.7-14.9,47.1c-1.5,28.8,13.5,39.2,24.9,44.4c11.9,5.5,24.1,6.3,28.1,6.6l0.3,0l-0.1,0c0.8,0.2,1.8,0.2,2.7,0.2  c1.2,0.1,2.6,0.1,3.9,0.4c-2.2,0.4-5,0.9-7.5,1.3c-2.7,0.5-5.2,0.9-6.5,1.2c-2.7,0.6-14.2,3.2-20.3,5.4c-5.2,1.8-10.9,4.5-11,4.5  l-1,0.5l0.7,0.9c0.1,0.1,2,2.7,3.9,4.7c4,4,15.3,11.1,28.8,9.4c10.8-1.3,16.7-3.9,18.9-5c0.7,2.3,2.4,7.7,4.1,11.9  c4.9,12.1,16,35.3,20.2,43.3c3.4,6.5,6.7,12.3,9,16.1l0.8,1.4c-0.7,2.5-2.5,4-3.8,5.2c-0.4,0.3-0.6,0.6-0.9,0.8l-0.2,0.3l0,0.4  c-0.1,2.2-0.6,22.4,13.1,37.1l0.1,0.2l0.2,0.1c6.8,2.6,15.7,5.3,30,5.3c14.6,0,26.9-3.5,31.2-5.6l0.2-0.1l0.1-0.1  c9.5-11.3,13.9-28.3,14-34.4l0-0.4l-0.3-0.3c-0.2-0.2-0.5-0.5-0.7-0.7c-1.5-1.4-3.3-3.2-4.4-7.4c1.2-2,3.4-6.8,5.3-10.6  c1-2.2,1.9-4,2.4-5c4-7.9,15.8-33.2,20.5-45.1c3-7.6,4.6-11.3,5.3-12.9c2.1,1.1,7.7,3.6,18.2,4.7c13.7,1.4,26.7-7.7,30.3-12.7  c0.6-0.8,1.6-2,1.7-2.1l0.8-1l-1.1-0.5c-0.1,0-0.5-0.2-2.6-0.9l-7.6-2.5l-7.5-2.5c-2.1-0.7-11.3-2.7-18-4.2l-5.1-1.1l1.7-0.3  C292.3,211.8,333.8,204.5,331.4,163.4"/>
<path fill="none" stroke="#FFFFFF" stroke-width="1.7706" stroke-miterlimit="40" d="M331.4,163.4c-1.1-19.4-9.8-36.7-14.9-47.1  l-0.6-1.2l-2.3-4.5l0.5,5c0.6,6.9,2.2,30.6-4.9,44.1c-8.8,18.2-34.5,16.4-43,15.9l-0.6,0c-13.9-0.9-59.1-2.5-73-2.5  c-18.3,0.1-38.5,1.6-54.8,2.8c-8,0.6-14.8,1.1-19.5,1.3c-0.4,0-0.9,0.1-1.7,0.1c-22.8,2.1-37.2-4.6-42.8-20  c-3.4-9.4-3.4-28.1-3.3-37l0-2.7l0-3.8c0,0-1.8,3.3-1.8,3.3c-4.3,7.9-12.2,22.7-14.9,47.1c-1.5,28.8,13.5,39.2,24.9,44.4  c11.9,5.5,24.1,6.3,28.1,6.6l0.3,0l-0.1,0c0.8,0.2,1.8,0.2,2.7,0.2c1.2,0.1,2.6,0.1,3.9,0.4c-2.2,0.4-5,0.9-7.5,1.3  c-2.7,0.5-5.2,0.9-6.5,1.2c-2.7,0.6-14.2,3.2-20.3,5.4c-5.2,1.8-10.9,4.5-11,4.5l-1,0.5l0.7,0.9c0.1,0.1,2,2.7,3.9,4.7  c4,4,15.3,11.1,28.8,9.4c10.8-1.3,16.7-3.9,18.9-5c0.7,2.3,2.4,7.7,4.1,11.9c4.9,12.1,16,35.3,20.2,43.3c3.4,6.5,6.7,12.3,9,16.1  l0.8,1.4c-0.7,2.5-2.5,4-3.8,5.2c-0.4,0.3-0.6,0.6-0.9,0.8l-0.2,0.3l0,0.4c-0.1,2.2-0.6,22.4,13.1,37.1l0.1,0.2l0.2,0.1  c6.8,2.6,15.7,5.3,30,5.3c14.6,0,26.9-3.5,31.2-5.6l0.2-0.1l0.1-0.1c9.5-11.3,13.9-28.3,14-34.4l0-0.4l-0.3-0.3  c-0.2-0.2-0.5-0.5-0.7-0.7c-1.5-1.4-3.3-3.2-4.4-7.4c1.2-2,3.4-6.8,5.3-10.6c1-2.2,1.9-4,2.4-5c4-7.9,15.8-33.2,20.5-45.1  c3-7.6,4.6-11.3,5.3-12.9c2.1,1.1,7.7,3.6,18.2,4.7c13.7,1.4,26.7-7.7,30.3-12.7c0.6-0.8,1.6-2,1.7-2.1l0.8-1l-1.1-0.5  c-0.1,0-0.5-0.2-2.6-0.9l-7.6-2.5l-7.5-2.5c-2.1-0.7-11.3-2.7-18-4.2l-5.1-1.1l1.7-0.3C292.3,211.8,333.8,204.5,331.4,163.4z"/>
<path d="M331.4,163.4c-1.1-19.4-9.8-36.7-14.9-47.1l-0.6-1.2l-2.3-4.5l0.5,5c0.6,6.9,2.2,30.6-4.9,44.1c-8.8,18.2-34.5,16.4-43,15.9  l-0.6,0c-13.9-0.9-59.1-2.5-73-2.5c-18.3,0.1-38.5,1.6-54.8,2.8c-8,0.6-14.8,1.1-19.5,1.3c-0.4,0-0.9,0.1-1.7,0.1  c-22.8,2.1-37.2-4.6-42.8-20c-3.4-9.4-3.4-28.1-3.3-37l0-2.7l0-3.8c0,0-1.8,3.3-1.8,3.3c-4.3,7.9-12.2,22.7-14.9,47.1  c-1.5,28.8,13.5,39.2,24.9,44.4c11.9,5.5,24.1,6.3,28.1,6.6l0.3,0l-0.1,0c0.8,0.2,1.8,0.2,2.7,0.2c1.2,0.1,2.6,0.1,3.9,0.4  c-2.2,0.4-5,0.9-7.5,1.3c-2.7,0.5-5.2,0.9-6.5,1.2c-2.7,0.6-14.2,3.2-20.3,5.4c-5.2,1.8-10.9,4.5-11,4.5l-1,0.5l0.7,0.9  c0.1,0.1,2,2.7,3.9,4.7c4,4,15.3,11.1,28.8,9.4c10.8-1.3,16.7-3.9,18.9-5c0.7,2.3,2.4,7.7,4.1,11.9c4.9,12.1,16,35.3,20.2,43.3  c3.4,6.5,6.7,12.3,9,16.1l0.8,1.4c-0.7,2.5-2.5,4-3.8,5.2c-0.4,0.3-0.6,0.6-0.9,0.8l-0.2,0.3l0,0.4c-0.1,2.2-0.6,22.4,13.1,37.1  l0.1,0.2l0.2,0.1c6.8,2.6,15.7,5.3,30,5.3c14.6,0,26.9-3.5,31.2-5.6l0.2-0.1l0.1-0.1c9.5-11.3,13.9-28.3,14-34.4l0-0.4l-0.3-0.3  c-0.2-0.2-0.5-0.5-0.7-0.7c-1.5-1.4-3.3-3.2-4.4-7.4c1.2-2,3.4-6.8,5.3-10.6c1-2.2,1.9-4,2.4-5c4-7.9,15.8-33.2,20.5-45.1  c3-7.6,4.6-11.3,5.3-12.9c2.1,1.1,7.7,3.6,18.2,4.7c13.7,1.4,26.7-7.7,30.3-12.7c0.6-0.8,1.6-2,1.7-2.1l0.8-1l-1.1-0.5  c-0.1,0-0.5-0.2-2.6-0.9l-7.6-2.5l-7.5-2.5c-2.1-0.7-11.3-2.7-18-4.2l-5.1-1.1l1.7-0.3C292.3,211.8,333.8,204.5,331.4,163.4"/>
<path fill="#CE1141" d="M68.9,121.8c-0.5,10.7-0.4,22.4,2.1,32.6c-2.3-2.1-4.6-4.5-7-6.5c-2.1,2.4-4.1,4.9-6.3,7.2  c2.3-11.8,6-22.7,11.2-33.3H68.9z"/>
<path fill="none" stroke="#CE1141" stroke-width="0.4433" d="M68.9,121.8c-0.5,10.7-0.4,22.4,2.1,32.6c-2.3-2.1-4.6-4.5-7-6.5  c-2.1,2.4-4.1,4.9-6.3,7.2c2.3-11.8,6-22.7,11.2-33.3H68.9z"/>
<path fill="#CE1141" d="M327.2,150.3l0.7,2.9l-5.6-4c-2.5,1.1-4.9,2.7-7.3,3.8c1.7-10.2,2.2-20.9,1.5-31.8  C321.5,130.3,324.2,140.3,327.2,150.3"/>
<path fill="none" stroke="#CE1141" stroke-width="0.4433" d="M327.2,150.3l0.7,2.9l-5.6-4c-2.5,1.1-4.9,2.7-7.3,3.8  c1.7-10.2,2.2-20.9,1.5-31.8C321.5,130.3,324.2,140.3,327.2,150.3z"/>
<path fill="#CE1141" d="M192.8,251.7c5.9,9,16.5,11.5,26.4,9c3.7-0.7,7.2-2.2,10.6-3.7c-3.1,9.4-5.3,19.8-5,30.4  c0,9.3,1.6,18.1,4.4,26.5c-1.4-0.4-2.8-1.5-4.4-2.2c-19.6-9.9-47.3-9.5-66.6,0.7c0.9-3.1,1.9-6.5,2.6-9.7c3-14.9,0.8-30.5-4.3-44.1  c10.5,4.4,25.7,5.3,34.1-4.3C191.4,253.4,192,252.4,192.8,251.7"/>
<path fill="none" stroke="#CE1141" stroke-width="0.4433" d="M192.8,251.7c5.9,9,16.5,11.5,26.4,9c3.7-0.7,7.2-2.2,10.6-3.7  c-3.1,9.4-5.3,19.8-5,30.4c0,9.3,1.6,18.1,4.4,26.5c-1.4-0.4-2.8-1.5-4.4-2.2c-19.6-9.9-47.3-9.5-66.6,0.7c0.9-3.1,1.9-6.5,2.6-9.7  c3-14.9,0.8-30.5-4.3-44.1c10.5,4.4,25.7,5.3,34.1-4.3C191.4,253.4,192,252.4,192.8,251.7z"/>
<path fill="#CE1141" d="M149,259.1c-0.4,4.2-1.9,8.9-6.3,10.5c-3.7,1-7-1-9.4-3.6c-1-1.3-1.9-2.7-2.2-4.3c5.6,3.6,12.9,0.7,17.8-2.7  L149,259.1z"/>
<path fill="none" stroke="#CE1141" stroke-width="0.4433" d="M149,259.1c-0.4,4.2-1.9,8.9-6.3,10.5c-3.7,1-7-1-9.4-3.6  c-1-1.3-1.9-2.7-2.2-4.3c5.6,3.6,12.9,0.7,17.8-2.7L149,259.1z"/>
<path fill="#CE1141" d="M254.5,259.6c-1.3,3.8-4.6,7.6-8.5,8.5c-3,0.4-5.7-1-7.4-3.6c-0.9-1.4-1.5-2.9-1.8-4.7  C241.9,263.7,249.6,262.8,254.5,259.6"/>
<path fill="none" stroke="#CE1141" stroke-width="0.4433" d="M254.5,259.6c-1.3,3.8-4.6,7.6-8.5,8.5c-3,0.4-5.7-1-7.4-3.6  c-0.9-1.4-1.5-2.9-1.8-4.7C241.9,263.7,249.6,262.8,254.5,259.6z"/>
<path fill="#CE1141" d="M243.6,270.4c2.1,0.4,4.2-0.1,6.2-0.7c-5.6,13.9-12.3,27.4-19.2,40.7c-2.4-6.6-1.8-13.9-1.4-21.3  c1-9,3.2-17.6,5.8-25.9C236.8,266.5,239.9,269.9,243.6,270.4"/>
<path fill="none" stroke="#CE1141" stroke-width="0.4433" d="M243.6,270.4c2.1,0.4,4.2-0.1,6.2-0.7c-5.6,13.9-12.3,27.4-19.2,40.7  c-2.4-6.6-1.8-13.9-1.4-21.3c1-9,3.2-17.6,5.8-25.9C236.8,266.5,239.9,269.9,243.6,270.4z"/>
<path fill="#CE1141" d="M156.1,310.3l-0.1,0.1c-8.4-12.8-14.8-26.3-20.9-40c2.8,1.5,7.3,2.5,10.2,0.5c2.8-1.9,4.4-4.9,5.4-8  C157.5,276.7,159.1,294.7,156.1,310.3"/>
<path fill="none" stroke="#CE1141" stroke-width="0.4433" d="M156.1,310.3l-0.1,0.1c-8.4-12.8-14.8-26.3-20.9-40  c2.8,1.5,7.3,2.5,10.2,0.5c2.8-1.9,4.4-4.9,5.4-8C157.5,276.7,159.1,294.7,156.1,310.3z"/>
<path fill="#CE1141" d="M235,321.2c-1.4,12-5.7,22.6-13.3,31.9c-17.5,6.8-41,7.5-58.5,0.1c-8.5-9.3-11.7-21.3-12.2-34.1  c18.5-13.5,47.5-16.5,68.7-6.8C225.1,314.8,230.3,317.4,235,321.2"/>
<path fill="none" stroke="#CE1141" stroke-width="0.4433" d="M235,321.2c-1.4,12-5.7,22.6-13.3,31.9c-17.5,6.8-41,7.5-58.5,0.1  c-8.5-9.3-11.7-21.3-12.2-34.1c18.5-13.5,47.5-16.5,68.7-6.8C225.1,314.8,230.3,317.4,235,321.2z"/>
<path fill="#CE1141" d="M306.8,224.9c-14.5-5.5-33.2-8.8-49.1-9.2c-1.5-17.7-3.5-28.8-7-38.8c-8.2-0.5-44.4-1.9-58.4-1.9  c-14,0-49.6,2.2-57.7,2.7c-3.3,9.5-7,21.4-8.8,38.9c-16,0.9-37.6,5.5-52.2,11c-2.2,0.8-3.1,1.6-3.2,1.5c2.2,2.5,10.3,12.2,25.4,12.6  c4.8,0.1,13.8-0.8,19.6-3.4c1.6-0.7,4.9-2.1,4.9-2.1s1.1,2,1.6,3.4c1.6,4.5,3.6,11,5,13.8c2.1,4.2,5.5,7.5,10.9,7.6  c5,0.1,8.6-4,9.1-4.8c-14.1-0.7-20-8.3-20.9-19.6c-3.3-0.6-4.3-0.9-4.7-2.7c-0.4-1.8,0.1-3.7,1.5-5.9c1.6-2.1,4.3-4.2,11-2.1  c4.4,1.4,7.9,4.2,10.4,6.4c2.9,2.6,11.4,11.4,16.5,14.4c5.4,3.2,15.8,6.1,22.5-0.5c6.5-6.4,7.2-11.8,8.1-15.2  c-11.3-0.3-21.9-1.4-31.7-2.8c-2.9-0.4-1.6-3.1,0.6-2.5c0,0,18.5,2.4,31.5,2.5c0.1-1.5,0.1-4.2,0.2-7.1c-7.7-0.2-20.6-1-32.9-3.5  c-2.5-0.5-2-3.3,0.3-2.7c1.8,0.5,21.9,3.3,32.6,3.3c0-2.3,0.1-5.6,0.1-8.7c-7.1,0-17.4-0.6-32.3-2.9c-2.6-0.4-2.1-2.8,0-2.6  c0,0,18.4,2.7,32.3,2.6c0-2.1,0-4.6,0-7.1c0-2.8,2.4-2.9,2.4-0.2c0,1,0.1,3.7,0.1,7.2c13.3-0.4,25-2,30.4-2.9c3.2-0.6,2.9,2,1.4,2.3  c-1.8,0.3-17.2,3.3-31.9,3.6c0,2.6,0.1,5.9,0.1,8.7c9.8-0.4,21.2-0.7,31-2.9c3.7-0.8,4,2,0.9,2.5c-9.6,1.6-23.4,3.2-31.8,3.3  c0.1,2.4,0.1,5.3,0.2,7.2c15.7-0.4,30.6-2.6,33.1-3c2.6-0.4,3.1,2.3,0.4,2.7c-2.8,0.4-21.2,2.8-33,3.1c1.2,4,1.4,9.8,7.1,14.7  c5.5,4.8,14.9,4.3,21.5,0.5c5.1-3,13.3-11.9,16.2-14.5c2.4-2.1,8.1-7.4,15.8-7.3c7.6,0.2,7.7,4.1,8.1,5.2c0.4,1.2,0.7,3.3-1,4.4  c-1.4,0.8-2.6,0.6-3.9,1.2c-1,6.2-2.9,13.2-7.8,16.9c-5.3,4-13.5,4.5-13.5,4.5s1.1,1.3,1.5,1.6c0.9,0.8,3.7,2.2,7.3,1.9  c3.4-0.3,7.4-2.9,9-4.6c2.5-3.3,4.9-10.2,6.7-14.7c0.7-1.7,2.2-4.7,2.7-6c1.6,0.7,2.3,1.2,5.2,2.3c5.9,2.4,13.6,3.4,18.4,3.2  c7.8-0.2,16.7-4.9,22-9.9c0.9-0.9,2.7-3,2.7-3S308.2,225.4,306.8,224.9"/>
<path fill="none" stroke="#CE1141" stroke-width="0.4433" d="M306.8,224.9c-14.5-5.5-33.2-8.8-49.1-9.2c-1.5-17.7-3.5-28.8-7-38.8  c-8.2-0.5-44.4-1.9-58.4-1.9c-14,0-49.6,2.2-57.7,2.7c-3.3,9.5-7,21.4-8.8,38.9c-16,0.9-37.6,5.5-52.2,11c-2.2,0.8-3.1,1.6-3.2,1.5  c2.2,2.5,10.3,12.2,25.4,12.6c4.8,0.1,13.8-0.8,19.6-3.4c1.6-0.7,4.9-2.1,4.9-2.1s1.1,2,1.6,3.4c1.6,4.5,3.6,11,5,13.8  c2.1,4.2,5.5,7.5,10.9,7.6c5,0.1,8.6-4,9.1-4.8c-14.1-0.7-20-8.3-20.9-19.6c-3.3-0.6-4.3-0.9-4.7-2.7c-0.4-1.8,0.1-3.7,1.5-5.9  c1.6-2.1,4.3-4.2,11-2.1c4.4,1.4,7.9,4.2,10.4,6.4c2.9,2.6,11.4,11.4,16.5,14.4c5.4,3.2,15.8,6.1,22.5-0.5  c6.5-6.4,7.2-11.8,8.1-15.2c-11.3-0.3-21.9-1.4-31.7-2.8c-2.9-0.4-1.6-3.1,0.6-2.5c0,0,18.5,2.4,31.5,2.5c0.1-1.5,0.1-4.2,0.2-7.1  c-7.7-0.2-20.6-1-32.9-3.5c-2.5-0.5-2-3.3,0.3-2.7c1.8,0.5,21.9,3.3,32.6,3.3c0-2.3,0.1-5.6,0.1-8.7c-7.1,0-17.4-0.6-32.3-2.9  c-2.6-0.4-2.1-2.8,0-2.6c0,0,18.4,2.7,32.3,2.6c0-2.1,0-4.6,0-7.1c0-2.8,2.4-2.9,2.4-0.2c0,1,0.1,3.7,0.1,7.2  c13.3-0.4,25-2,30.4-2.9c3.2-0.6,2.9,2,1.4,2.3c-1.8,0.3-17.2,3.3-31.9,3.6c0,2.6,0.1,5.9,0.1,8.7c9.8-0.4,21.2-0.7,31-2.9  c3.7-0.8,4,2,0.9,2.5c-9.6,1.6-23.4,3.2-31.8,3.3c0.1,2.4,0.1,5.3,0.2,7.2c15.7-0.4,30.6-2.6,33.1-3c2.6-0.4,3.1,2.3,0.4,2.7  c-2.8,0.4-21.2,2.8-33,3.1c1.2,4,1.4,9.8,7.1,14.7c5.5,4.8,14.9,4.3,21.5,0.5c5.1-3,13.3-11.9,16.2-14.5c2.4-2.1,8.1-7.4,15.8-7.3  c7.6,0.2,7.7,4.1,8.1,5.2c0.4,1.2,0.7,3.3-1,4.4c-1.4,0.8-2.6,0.6-3.9,1.2c-1,6.2-2.9,13.2-7.8,16.9c-5.3,4-13.5,4.5-13.5,4.5  s1.1,1.3,1.5,1.6c0.9,0.8,3.7,2.2,7.3,1.9c3.4-0.3,7.4-2.9,9-4.6c2.5-3.3,4.9-10.2,6.7-14.7c0.7-1.7,2.2-4.7,2.7-6  c1.6,0.7,2.3,1.2,5.2,2.3c5.9,2.4,13.6,3.4,18.4,3.2c7.8-0.2,16.7-4.9,22-9.9c0.9-0.9,2.7-3,2.7-3S308.2,225.4,306.8,224.9z"/>
<path d="M222.5,323.1c1.4,2.7,0.3,5.8-1.3,8.1c-3,3.7-7.5,5.2-12.2,4c-2.6-0.9-5.2-2.5-6.7-5.1c-0.7,2.3,0.9,3.9,0.8,6  c-0.3,0.4-1,0.5-1.3,0.1c-2.5-3.3-3.5-8.4-1.3-12.2c2.7-5.1,8.1-7.2,13.6-6.6C217.5,318,220.9,319.8,222.5,323.1"/>
<path fill="none" stroke="#CE1141" stroke-width="0.4433" d="M222.5,323.1c1.4,2.7,0.3,5.8-1.3,8.1c-3,3.7-7.5,5.2-12.2,4  c-2.6-0.9-5.2-2.5-6.7-5.1c-0.7,2.3,0.9,3.9,0.8,6c-0.3,0.4-1,0.5-1.3,0.1c-2.5-3.3-3.5-8.4-1.3-12.2c2.7-5.1,8.1-7.2,13.6-6.6  C217.5,318,220.9,319.8,222.5,323.1z"/>
<path d="M183.9,324.8c2.2,3.7,1.2,8.6-0.9,12c-0.3,0.5-0.8,1.1-1.5,0.6c-0.9-1.2,0.4-2.2,0.5-3.3c0.1-0.9,0.4-1.9,0.1-2.8  c-3,4.1-7.4,6.1-12.4,5.2c-3.5-0.7-6.7-3.4-8-6.8c-0.7-2.2-0.4-4.8,1-6.6c3.3-4.4,9.3-5.5,14.4-3.8  C179.8,320.2,182.5,322.2,183.9,324.8"/>
<path fill="none" stroke="#CE1141" stroke-width="0.4433" d="M183.9,324.8c2.2,3.7,1.2,8.6-0.9,12c-0.3,0.5-0.8,1.1-1.5,0.6  c-0.9-1.2,0.4-2.2,0.5-3.3c0.1-0.9,0.4-1.9,0.1-2.8c-3,4.1-7.4,6.1-12.4,5.2c-3.5-0.7-6.7-3.4-8-6.8c-0.7-2.2-0.4-4.8,1-6.6  c3.3-4.4,9.3-5.5,14.4-3.8C179.8,320.2,182.5,322.2,183.9,324.8z"/>
<path d="M222.2,349.1c-0.4,0.8-0.6,0.8-1.2,1.6c-1.8-0.5-3.7-1.2-5.5-1.9c-16-6.1-36.4-4.4-51.5,1.9c-0.4-0.4-0.7-0.8-0.9-1.5  C180.6,341.3,204.6,340.4,222.2,349.1"/>
<path fill="none" stroke="#CE1141" stroke-width="0.4433" d="M222.2,349.1c-0.4,0.8-0.6,0.8-1.2,1.6c-1.8-0.5-3.7-1.2-5.5-1.9  c-16-6.1-36.4-4.4-51.5,1.9c-0.4-0.4-0.7-0.8-0.9-1.5C180.6,341.3,204.6,340.4,222.2,349.1z"/>
<path d="M225.1,264.1c-2.7,12.6-10.7,27.1-24,30.8c-10.6,2.8-22.5,0.6-29.6-8.2c-5.2-6.4-7.7-13.8-8.5-22.1c0.5-0.4,1-0.4,1.6-0.4  c1.1,12,7.3,25.2,19.3,28.9c10.3,3.3,22.6,0.3,30.1-8.8c4.7-6.1,7.8-13.4,9.5-20.9C224.1,263.5,224.5,263.6,225.1,264.1"/>
<path fill="none" stroke="#CE1141" stroke-width="0.4433" d="M225.1,264.1c-2.7,12.6-10.7,27.1-24,30.8c-10.6,2.8-22.5,0.6-29.6-8.2  c-5.2-6.4-7.7-13.8-8.5-22.1c0.5-0.4,1-0.4,1.6-0.4c1.1,12,7.3,25.2,19.3,28.9c10.3,3.3,22.6,0.3,30.1-8.8  c4.7-6.1,7.8-13.4,9.5-20.9C224.1,263.5,224.5,263.6,225.1,264.1z"/>
<path d="M67.7,43.3c-2.3-2-5.6-3.4-9.1-3.2c-3.6,0.1-17.3,4.7-17.3,25S53.6,91.9,61,91.9c7.4,0,14.9-5.6,17.3-15.5  c0.4-1.4,0.1-1.6-1.3-2.3l-4.8-1.8c-1.1-0.4-1.2-0.4-1.9,1.6c-0.5,1.3-2.6,7.2-7.5,7.2c-4.9,0-7.1-7.3-7.1-14.9  c0-7.6,1.3-14.8,7.4-14.8c6.1,0,7.4,6.5,7.8,8.9c0.2,1,0.3,1.1,1.5,1.1h4.5c0.9,0,0.9-0.1,0.9-2.2V42.7c0-1.1-0.2-1.1-2-1.1h-4  c-0.8,0-0.8,0.2-1.4,1.3C70,43.6,69.1,44.5,67.7,43.3"/>
<path d="M250.3,51.4l9.3,29.3c0.5,1.3,0.5,1.4,1.2,1.4h1.4c1.5,0,1.5,0.1,1.5,1.3V89c0,1.9-0.1,1.9-1.1,1.9h-18.4  c-1.5,0-1.5-0.1-1.5-1.2v-5.8c-0.1-1.7,0.1-1.8,1.3-1.8h1.8c1,0,1-0.2,0.6-1.4l-1.4-4.4c-0.4-0.9-0.6-0.9-1.7-0.9h-11.2l2.4-6.7h6.8  c1.2,0,1.3-0.1,1-1l-4.1-12.9c-0.2-0.8-0.5-0.8-0.7-0.1l-4.2,13c-0.3,1-0.2,1,1.3,1l-2.4,6.7c-1.3,0-1.3,0-1.6,0.9l-1.4,4.4  c-0.4,1.3-0.4,1.4,0.4,1.4h1.9c1.3,0,1.3,0.2,1.3,1.8v5.8c0,1.1-0.1,1.2-1.5,1.2h-12.7c-1.1,0-1.1-0.1-1.1-1.9v-5.5  c0-1.2,0.1-1.3,1.5-1.3h1.2c0.8,0,1.1-0.4,1.3-1l9.5-29.6c0.3-0.8,0.3-1-1.2-1h-1.7c-1.4,0-1.5-0.1-1.5-1.3v-5.9  c0-1.7,0.1-1.7,2.1-1.7h24.5c1.4,0,1.5,0.2,1.5,1.8v5.5c0,1.3-0.1,1.3-1.9,1.3h-1.9C250,50.2,250,50.5,250.3,51.4"/>
<path d="M294.6,73.6h3.2c1.5,0,1.5,0.2,1.5,1.1c0,2.8-2.1,6.4-7.4,6.4c-4.9,0-7.1-7.3-7.1-14.9c0-7.6,1.3-14.8,7.4-14.8  c5.1,0,7.2,3.7,7.8,6c0.2,1,0.2,1.1,1.5,1.1h4.5c0.9,0,0.9-0.1,0.9-2.2V42.7c0-1.1-0.1-1.1-2-1.1h-4c-0.8,0-0.9,0.1-1.4,1.3  c-0.3,0.7-1.3,1.6-2.7,0.4c-2.3-2-5.7-3.4-9.1-3.2c-3.6,0.1-17.3,4.7-17.3,25c0,20.3,12.2,26.8,19.7,26.8c11.2,0,19.9-8.4,19.9-24.5  c0-1.6-0.2-1.7-2.4-1.7h-13.3c-1.3,0-1.4,0.1-1.4,1.6v5.3C292.9,73.6,293,73.6,294.6,73.6"/>
<path d="M337.6,41.4c-12.1,0-21.9,11.4-21.9,25.4c0,14,9.8,25.3,21.9,25.3s21.9-11.3,21.9-25.3C359.5,52.8,349.7,41.4,337.6,41.4  l-0.1,9.1c4.5,0,8.2,7.3,8.2,16.3c0,9-3.6,16.3-8.2,16.3c-4.5,0-8.2-7.3-8.2-16.3c0-9,3.7-16.3,8.2-16.3L337.6,41.4z"/>
<path d="M92,81V51.7c0-1-0.1-1.2-1.2-1.2h-1.4c-1.5,0-1.5-0.2-1.5-1.1v-6.5c0-1.1,0.1-1.3,1.8-1.3h17.2c1.3,0,1.5,0.1,1.5,1.4v5.9  c0,1.3-0.2,1.3-1.5,1.3H106c-0.8,0-0.9,0-0.8,1.1v8.4c0,2.1,0,2.3,1.8,2.3h9.2c1.8,0,1.8-0.1,1.8-2.3v-8.4c0-1.1-0.1-1.1-0.8-1.1  h-0.9c-1.5,0-1.6-0.1-1.6-1.3V43c0-1.3,0.2-1.4,1.5-1.4h17.2c1.8,0,1.8,0.1,1.8,1.3v6.5c0,1-0.1,1.1-1.5,1.1h-1.5  c-1.1,0-1.1,0.1-1.1,1.2V81c0,1.1,0.1,1.1,1.4,1.1h1.5c1.2,0,1.2,0.1,1.2,1.8v5.8c0,1,0,1.2-1.5,1.2h-18.2c-1.2,0-1.2,0-1.2-1.9  v-5.6c-0.1-1.3,0-1.3,1.5-1.3h0.9c1.1,0,1.1-0.1,1.1-1.3v-9c0-2.2-0.1-2.3-1.6-2.3h-9.2c-1.5,0-1.6,0.2-1.6,2.3v9  c0,1.3,0,1.3,1.1,1.3h0.9c1.5,0,1.5,0.1,1.5,1.3V89c0,1.9,0,1.9-1.2,1.9H89.4c-1.5,0-1.5,0-1.5-1.2v-5.8c0-1.7,0.1-1.8,1.2-1.8h1.5  C92,82.1,92,82.1,92,81"/>
<path d="M148.1,51.4c0-1.1-0.1-1.1-0.8-1.1h-1.7c-1.5,0-1.6-0.1-1.6-1.3V43c0-1.3,0.2-1.4,1.5-1.4h17.2c1.8,0,1.8,0.1,1.8,1.3v6.5  c0,1-0.1,1.1-1.5,1.1h-0.8c-1.1,0-1.1,0.1-1.1,1.2V81c0,1.1,0.1,1.1,1.4,1.1h1.2c1.2,0,1.2,0.1,1.2,1.8v5.8c0,1,0,1.2-1.5,1.2h-18.2  c-1.2,0-1.2,0-1.2-1.9v-5.6c-0.1-1.3,0-1.3,1.5-1.3h1.4c1.1,0,1.2,0,1.2-1.2V51.4z"/>
<path d="M198.1,43.3c-2.3-2-5.7-3.4-9.1-3.2c-3.6,0.1-17.3,4.7-17.3,25s12.2,26.8,19.7,26.8c7.4,0,14.9-5.6,17.3-15.5  c0.4-1.4,0.1-1.6-1.3-2.3l-4.8-1.8c-1.1-0.4-1.2-0.4-1.9,1.6c-0.5,1.3-2.6,7.2-7.5,7.2c-4.9,0-7.1-7.3-7.1-14.9  c0-7.6,1.3-14.8,7.4-14.8c6.1,0,7.4,6.5,7.8,8.9c0.2,1,0.3,1.1,1.5,1.1h4.5c0.9,0,0.9-0.1,0.9-2.2V42.7c0-1.1-0.2-1.1-2-1.1h-4  c-0.8,0-0.8,0.2-1.4,1.3C200.4,43.6,199.5,44.5,198.1,43.3"/>
<path d="M89.2,114.2v29c0,1-0.2,1.1-1.2,1.1h-1.6c-1.2,0-1.4,0.2-1.3,1.6v6c0,1.1,0.2,1.2,1.5,1.2h26.8l-9.1-9.3c-1.9,0-2,0-2-1.9  v-8.4c0-1.6,0.1-1.7,2-1.7v-7.6c-2,0-2-0.1-2-1.7V114c0-1.7,0.1-1.8,1.8-1.8c1.8,0,8.8,0.2,8.8,6.3s-6.5,5.8-8.6,5.8v7.6  c1.8,0,8.6,0.2,8.6,6.3c0,6-6.5,5.8-8.6,5.8l9.1,9.3c6.7,0,11.7-6,11.7-12.9c0-6.9-4.4-9.6-7.9-12.1c2.5-2,6.9-4.8,6.9-11.8  c0-7.6-7.6-12.5-12.2-12.5H87.2c-2,0-2.1,0.1-2.1,1.6v6.3c0,1,0.1,1.1,1.5,1.1h1.6C89.2,112.7,89.2,112.9,89.2,114.2"/>
<path d="M170.9,113.7v25.1c0,6.4-3.3,15.8-16,15.8c-12.7,0-18.8-9.4-18.8-15.8v-25.1c0-1.1-0.2-1.1-1.1-1.1h-1.5  c-1.5,0-1.5-0.1-1.5-1.3v-5.7c0-1.9,0.2-1.9,1.9-1.9H151c1.3,0,1.5,0.1,1.5,1.6v5.7c0,1.3-0.1,1.3-1.9,1.3h-1.4  c-0.8,0-0.9,0.1-0.9,1.1v24.4c0,2.8,2.1,7.2,7.4,7.2c6.1,0,7.4-4.7,7.4-7.2v-24.2c0-1.3-0.1-1.3-1.3-1.3h-1.2  c-1.5,0-1.7-0.1-1.7-1.3v-5.7c0-1.4,0-1.6,1.5-1.6h12.7c2.1,0,2.1,0,2.1,1.7v5.9c0,1.3,0,1.3-1.5,1.3H172  C171,112.7,170.9,112.7,170.9,113.7"/>
<path d="M230.6,144.3h-1.7c-1.2,0-1.3,0.2-1.3,1.8v5.8c0,1.2,0.1,1.2,1.5,1.2h31.5c1.4,0,1.5,0,1.5-1.9V137c0-1.3-0.1-1.3-1.5-1.3  h-4.6c-1.4,0-1.5,0.1-1.5,1.8v5c0,1.9-0.2,2-1.5,2h-7c-2.1,0-2.2-0.2-2.2-1.5v-28.5c0-1.9,0-2,1.1-2h1.7c1.4,0,1.4-0.1,1.4-1.3v-5.5  c0-1.7,0-1.8-1.5-1.8h-16.9c-2.1,0-2.1,0.1-2.1,1.7v5.9c0,1.2,0.1,1.3,1.5,1.3h1.4c1.2,0,1.2,0.1,1.2,1.8V143  C231.7,144.2,231.6,144.3,230.6,144.3"/>
<path d="M303.7,139.4c0,10.5-9.8,14.9-14,14.9c-3.1,0-6.7-1.3-9.1-3.2c-1.4-1.2-2.8,0.2-3.2,0.8c-0.7,1.2-0.8,1.3-1.4,1.3H274  c-2.1,0-2,0-2-1.1v-13.6c0-2.2,0.1-2.2,0.9-2.2h3.1c1.2,0,1.2,0.1,1.5,1.1c0.8,2.7,3.8,6.7,8.9,6.7c2.4,0,4.4-0.6,4.4-2.8  c0-4.6-2.7-5.7-7.5-8.2c-4.8-2.5-12.1-5.4-12.1-15.9c0-10.5,9.5-14.8,13.8-14.8c3.1,0,6.4,1.3,8.7,3.3c1.4,1.2,2.8-0.2,3.2-0.8  c0.8-1.3,0.8-1.3,1.4-1.3h2.1c1.9,0,2,0,2,1.1v13.6c0,2.1,0,2.2-0.9,2.2h-3.1c-1.2,0-1.2-0.1-1.5-1.1c-0.8-2.7-4.3-6.7-9.4-6.7  c-2.1,0-3.3,1.3-3.3,3.2c0,2.9,3.2,5.4,8.7,8.1C298.3,126.6,303.7,130.7,303.7,139.4"/>
<path d="M186.8,144.3h-1.7c-1.2,0-1.3,0.2-1.3,1.8v5.8c0,1.2,0.1,1.2,1.5,1.2h31.5c1.4,0,1.5,0,1.5-1.9V137c0-1.3-0.1-1.3-1.5-1.3  h-4.6c-1.4,0-1.5,0.1-1.5,1.8v5c0,1.9-0.2,2-1.5,2h-7c-2.1,0-2.2-0.2-2.2-1.5v-28.5c0-1.9,0-2,1.1-2h1.7c1.4,0,1.4-0.1,1.4-1.3v-5.5  c0-1.7,0-1.8-1.5-1.8h-16.9c-2.1,0-2.1,0.1-2.1,1.7v5.9c0,1.2,0.1,1.3,1.5,1.3h1.4c1.2,0,1.2,0.1,1.2,1.8V143  C187.9,144.2,187.8,144.3,186.8,144.3"/>
<path fill="#FFFFFF" d="M73.7,162.6c6.9,13.3,20.8,17.6,35,16.9c7.9-0.1,15.5-0.9,23.3-1.4l0,0.5c-4,11.2-6.6,22.6-8.2,34.4  c-20.5,0.8-41.5-0.9-56.6-14.6c-10.3-10.4-12.9-24.7-10.6-38.9c2.4-2.9,5-5.3,7.5-8.2C67.5,154.9,72.8,157.8,73.7,162.6"/>
<path fill="#FFFFFF" d="M328.5,156.7c0.5,2.1,0.6,4,0.8,6.2c1,15.8-5.8,30.3-19.3,38.3c-14.7,8.9-31.7,11.9-49.8,12.4  c-0.3-1.6-0.5-3.7-0.7-5.5c-1.4-10.4-3.4-20.8-6.3-30.8c19.3-0.2,42.8,4.9,55.6-12.9c1.7-2.5,3.4-4.7,4.9-7.4  c2.9-1.3,5.6-3.1,8.4-4.6C324.5,153.5,326.2,155.4,328.5,156.7"/>
<path fill="#FFFFFF" d="M255.1,236.5c0.1,6.1-1.9,12.3-7.3,15.2c-2.5,1.4-5.5,1.9-8.3,1.8c-0.1-0.5-0.3-1.2-0.1-1.8  c4.4,0.1,8.7-1.5,11-5.1c1.6-2.7,2.2-5.7,2.3-9.1C253.4,237,254.2,236.7,255.1,236.5"/>
<path fill="#FFFFFF" d="M146,252.9c-0.8,0.1-1.2,0.3-2.7,0c-7.1,0-14.6-5.7-14.1-15.3c0.8-0.3,1.8-0.2,2.7,0.1c0,5.5,2.2,13,13.8,13  C146.5,251.9,145.7,252,146,252.9"/>
</svg>