<?xml version="1.0" encoding="utf-8"?>
<!-- Generator: Adobe Illustrator 22.0.1, SVG Export Plug-In . SVG Version: 6.00 Build 0)  -->
<svg version="1.1" id="Layer_2" xmlns="http://www.w3.org/2000/svg" xmlns:xlink="http://www.w3.org/1999/xlink" x="0px" y="0px"
	 viewBox="0 0 400 400" style="enable-background:new 0 0 400 400;" xml:space="preserve">
<style type="text/css">
	.st0{fill:#FFB81C;}
	.st1{fill:#6F263D;}
	.st2{fill:#041E42;}
	.st3{fill:#FFFFFF;}
</style>
<g>
	<path class="st0" d="M191.9,362.5c-1.1-0.6-27.3-15.8-53.4-46.5c-24.2-28.4-53-76.3-53-142.6c0-1.9,0-4.1,0-6.7c0-1.1,0-3.6,0-3.6
		l0-4.7c0.1-13.8,0.6-40.8,1.7-58.7c0.2-3.7,0.5-6.9,0.7-9.4l0.6-5.8l4.6-3.6c4.4-3.4,10-6.9,16.9-10.4c4.8-2.5,10.3-5,16.3-7.6
		c30.9-14.7,68.2-27.6,68.5-27.8l3.6-1.3l3.6,1.2c0.4,0.1,42.1,14.5,73.9,30.1c7.9,3.5,14.7,7.1,20.2,10.4c2.9,1.8,5.4,3.5,7.6,5.2
		l4.6,3.6l0.6,5.8c0.1,1.2,0.2,2.6,0.4,4.2c1.3,17.1,2,48.3,2.1,64l0,5.6l0,2.8c0,2.5,0,4.7,0,6.7c0,66.3-28.8,114.1-53,142.6
		c-26.2,30.8-52.3,45.9-53.4,46.5l-6.7,3.8L191.9,362.5z"/>
	<path class="st1" d="M198.5,36.1l1.1,0.4l1.8,0.6c0.4,0.1,42.2,14.5,73.7,30c7.9,3.5,14.6,7,20,10.3c2.8,1.7,5.3,3.4,7.5,5.1
		l2.7,2.1l1.2,0.9l0.2,1.5l0.3,3.4c0.1,1.2,0.2,2.5,0.4,4.1c1.3,17,2,48.2,2.1,63.8c0,1.6,0,3.2,0,4.5v1.1c0,0.8,0,1.6,0,2.3l0,0.4
		c0,2.5,0,4.8,0,6.7c0,65.7-28.5,113-52.5,141.2c-25.9,30.4-51.7,45.4-52.8,46l-3.9,2.2l-1.7,1l-1.7-1l-3.9-2.2
		c-1.1-0.6-26.9-15.6-52.8-46c-23.9-28.2-52.5-75.5-52.5-141.2c0-1.9,0-4.1,0-6.7l0-0.4c0-0.8,0-1.6,0-2.4l0-0.9l0-0.2
		c0-1.4,0-2.9,0-4.5c0.1-13.8,0.6-40.8,1.7-58.6c0.2-3.7,0.5-6.8,0.7-9.3l0.3-3.4l0.2-1.5l1.2-0.9l2.7-2.1
		c4.3-3.3,9.8-6.7,16.6-10.2c4.7-2.5,10.2-5,16.2-7.5c30.8-14.6,68-27.6,68.4-27.7l1.8-0.6L198.5,36.1 M198.5,31.6l-1.4,0.5
		l-1.1,0.4l-1.8,0.6c-0.3,0.1-37.9,13.2-68.8,27.9c-6,2.5-11.5,5.1-16.3,7.6c-6.9,3.6-12.7,7.2-17.2,10.6l-2.7,2.1L88,82.2l-1.4,1.1
		l-0.2,1.8l-0.2,1.5L85.9,90c-0.3,2.6-0.5,5.8-0.7,9.5c-1.1,18-1.6,45.1-1.7,58.8c0,1.6,0,3.2,0,4.6v0l0,0.2l0,0.8
		c0,0.8,0,1.7,0,2.5l0,0.4c0,2.5,0,4.8,0,6.6c0,66.9,29.1,115.2,53.5,143.9c26.4,31,52.8,46.3,53.9,47l3.9,2.2l1.7,1l2.1,1.2
		l2.1-1.2l1.7-1l3.9-2.2c1.1-0.6,27.5-15.9,53.9-47c24.4-28.7,53.5-77,53.5-143.9c0-1.9,0-4.2,0-6.8l0-0.3l0-0.3c0-0.7,0-1.4,0-2.1
		v-1.1c0-1.4,0-2.9,0-4.5c-0.1-15.7-0.8-47-2.1-64.1c-0.1-1.7-0.3-3-0.4-4.2l-0.3-3.4l-0.2-1.5l-0.2-1.8l-1.4-1.1l-1.2-0.9l-2.7-2.1
		c-2.3-1.8-4.9-3.6-7.8-5.4c-5.6-3.4-12.5-7-20.5-10.6c-31.3-15.4-72.3-29.5-74-30.1l-1.8-0.6l-1.1-0.4L198.5,31.6z"/>
	<path d="M305.9,164c0,0.8,0,1.5,0,2.3l0,0.5c0,2.5,0,4.8,0,6.7c0,64.6-28.1,111.2-51.7,138.9c-25.5,30-50.8,44.7-51.9,45.3
		l-3.9,2.2l-3.9-2.2c-1.1-0.6-26.4-15.3-51.9-45.3C119.1,284.7,91,238.1,91,173.5c0-1.9,0-4.2,0-6.7l0-0.4c0-0.8,0-1.6,0-2.4v-0.9
		v-0.1c0-1.3,0-2.9,0-4.5c0.1-13.7,0.6-40.6,1.7-58.4c0.2-3.6,0.5-6.7,0.7-9.2l0.3-3.4l2.7-2.1c4.1-3.2,9.5-6.5,16-9.9
		c4.7-2.4,10.1-4.9,16-7.5c30.5-14.5,67.7-27.5,68.1-27.6l1.8-0.6l1.8,0.6c0.4,0.1,41.9,14.4,73.3,29.9c7.7,3.5,14.4,6.9,19.7,10.2
		c2.7,1.6,5.1,3.3,7.2,4.9l2.7,2.1l0.3,3.4c0.1,1.2,0.2,2.6,0.4,4.1c1.3,16.9,2,48,2.1,63.6c0,1.6,0,3.1,0,4.5V164z"/>
	<g>
		<g>
			<path class="st0" d="M211.7,224.4c-0.2,0.4,44.5-25.7,44.5-25.7v-8.9l-2.2-2.2c-12-11.4-29.9-11.5-48.1-6.6l0-93.2
				c0-6.1,0.1-12-0.4-17.4c-0.5-5.5-1.6-10.9-4-15.8l-3-6.2l-2.9,6.3c-2.4,5.3-3.5,10.8-4.1,16.4c-0.5,5.5-0.5,11.4-0.6,17.5
				l-0.4,97.6c-18.7,7.7-35.9,18.9-45.1,26.5l-10.1,15.6l12.5-3.1c-19.2,24.2-12.4,40-11.6,41.6c2,5.7,6.7,10.3,14.2,13.3
				c5.7,2.3,12.2,2.6,17.7,2.3c6.9-0.3,14.2-1.9,21.5-4.2l0,3.1c-6.3,3.4-11.3,9.4-14,16.6c-1,2.8-1.7,5.8-1.8,8.9
				c0,0.5,0,2.2-0.2,4.6c-0.2,2.2-0.5,5-1.3,7.8l-0.5,1.6l-1.6,3.9c0.2,0.7,4.6-0.8,6.7-1.6c0.3-0.1,0.8-0.3,1.4-0.6
				c1.1-0.6,2.5-1.6,4.2-3.2c1-1,2-2.2,2.8-3.2c0.8-1,1.5-2,2.1-2.9c0.9-1.2,1.7-2.4,2.5-3.6l0.1,10.4l0,6.9l0,1.8
				c-0.3,0.4-0.7,1-1.1,1.7c-0.9,1.7-3.2,7.3-3.4,10.4c-0.1,0.7,2.1,0.6,5.3,0.5c0.4,0,1.1-0.1,1.8-0.2c1.4-0.2,3.4-0.6,5.4-1.2
				c3.6-1.1,9.3-3.7,10.1-9.4l0.3-2l-0.6-0.4c7.6-6.7,9.7-14,9.4-20c-0.1-2.1-0.5-4-0.9-5.6l2.7,0.5l3.2,0.6l0.6-3.2
				c1.9-11-4.3-20.2-16.8-22v-6.4c12.2-5.8,23.7-13.4,32.8-21.3l0.4-0.4l3.6-18.3l-7.1,3.9c-11.5,5-21.9,9-29.7,11.8l0-41.5
				c2.2-1.3,4.4-2.4,6.6-3.3c5.8-2.5,9.6-3.4,11.4-3.2c-0.5,1.5-1.3,3.4-2.4,5.6C221.4,205.2,212.1,223.6,211.7,224.4 M186.9,221.2
				c1-1.1,2.2-2.2,3.4-3.3l-0.1,14.5l0,0l-0.2,20.6c-12.1,3.7-17.8,4.3-22,3.3l-0.5-0.1c-1.2-0.5-1.4-1.5-1.4-1.8
				C165.9,246.2,179.8,228.8,186.9,221.2"/>
			<path class="st2" d="M253.6,197.2l-0.1-5.8l-29.3,17.9c-0.2,0.5-4,7.9-4.4,8.3L253.6,197.2z"/>
			<path class="st2" d="M143.3,223.4c3.2-0.8,6.8-1.7,10.4-2.6c2-2.4,4-4.5,5.8-6.3c-3.7,0.8-7.7,1.8-11.7,2.7
				C147.1,218.2,143.8,222.8,143.3,223.4"/>
			<path class="st2" d="M202.9,264.6c-1.5,0.7-3.1,1.4-4.6,2.1c-1,0.4-2,0.9-2.9,1.3c-0.7,0.3-1.4,0.5-2,0.8
				c-9.3,3.6-18.7,6-27.4,6.4c-5.4,0.3-11.3-0.1-16.3-2.1c-4.6-1.8-7.9-4.3-10-7c1.6,4.7,5.4,8.6,12.3,11.4c5.1,2,10.9,2.3,16.3,2.1
				c8-0.4,16.5-2.4,25-5.5c0.7-0.2,1.4-0.5,2-0.7c1-0.4,2-0.8,3-1.2c1.5-0.6,3.1-1.3,4.6-2c12.6-5.8,24.6-13.6,33.9-21.7l1.7-8.1
				C229.3,249.2,216.5,258,202.9,264.6"/>
			<path class="st2" d="M202.9,281.4v-7.8c-1.5,0.7-3.1,1.3-4.6,2l0,8.1c0,1.9-3.1,2.3-3,0.8l0-7.7c-0.7,0.3-1.4,0.5-2.1,0.7
				l-0.1,6.1l-0.4,0.3c-6.1,2.9-11.2,8.5-13.7,15.3c0,0.1-0.1,0.2-0.1,0.3c-0.9,2.5-1.5,5.2-1.6,8c-0.1,1,0.1,7-1.7,13
				c0,0,1.6-0.3,4.7-3.2c1.7-1.6,3.2-4,4.5-5.6c2.8-3.9,5.1-7.8,8.4-9.5l0,3.5c0,6.6,0.1,24.5,0.1,24.6c0,0.1-2.8,3.1-3.2,8.2
				c0,0.2,13.9-0.8,14.9-8c0,0-2.7-1.8-2.6-1.8c19.6-13.6,8.7-29.9,8.7-29.9c4.7,0.7,7.4,1.1,8.6,1.4
				C221.5,290.1,215.6,282,202.9,281.4 M197.6,328.7c0,1.2-2.5,1.2-2.5,0.3l0.1-28.1c0.2-0.2,1.9-1,2.6-1.1L197.6,328.7z
				 M200.9,325.8c6.1-14.7,1.6-25.5,1.7-25.7C210.2,301.1,212.6,317.5,200.9,325.8 M208.5,320.1c2.9-6.1,3.7-16.8-2.9-21.5l2.3,0
				C214.4,304,211.5,317.7,208.5,320.1 M217.4,297.1c-10.9-3-23.7-0.3-29.6,6.7c-2.4,2.9-4.6,7.2-8.8,11.5c0.9-5.3,0.9-7,1-8.9
				c0.7-8.4,5.1-15.6,13.9-19.8c0,0.3,0.1,0.7,0.3,1c0.4,0.6,1,1,1.9,1.2c0.8,0.1-0.5-0.2,0,0c0.1,0,0.3,0.1,0.4,0.1
				c0,0,0.1,0,0.1,0c0.1,0,0.2,0,0.4,0c0,0,0.1,0,0.1,0c0.1,0,0.2,0,0.3,0h0.1c0.1,0,0.3,0,0.5,0c0.1,0,0.3,0,0.4-0.1c0,0,0,0,0.1,0
				c0.1,0,0.2-0.1,0.4-0.1h0c0.3-0.1,0.5-0.2,0.8-0.3c0.9-0.3,1.7-0.8,2-1.4v0c0.1-0.1,0.2-0.3,0.2-0.4c3.2,0.7,5.9,2.3,7.1,4.2
				c-5.7-0.3-13.9,1.6-20.8,9.5c9.4-7.4,20.1-7.5,27-5.7c0.2-4.1-5.4-8.5-8.5-10.3C212.5,286.3,218.5,291.2,217.4,297.1"/>
		</g>
		<path class="st1" d="M202.9,252.5c-1.7,0.6-3.3,1.1-4.6,1.6c-1.1,0.4-2.1,0.7-2.9,1c-0.8,0.3-1.5,0.5-2,0.6
			c-0.7,0.2-1.1,0.3-1.1,0.3c-51.5,16-35-17.4-11.5-42.5c1.6-1.7,5.2-5.1,9.4-8.5l0.1-14.8c-17.3,7.3-33.3,17.7-42.5,25.2
			c5.9-1.6,11.9-2.9,17.8-4.3c-51.2,48.9-21.5,74.8,27.5,55.2c0.7-0.3,1.3-0.6,2-0.9c1-0.4,1.9-0.8,2.9-1.3c1.5-0.7,3.1-1.4,4.6-2.2
			c11-5.4,22.6-13,34.4-22.9C223.5,245.1,211.2,249.6,202.9,252.5z"/>
		<path class="st1" d="M252,190.1c-11.2-10.7-28.5-10.5-46.1-5.5l0,10.4c13.5-6.6,29.2-8.7,18.7,11.9L252,190.1z"/>
		<path class="st2" d="M209.2,195.7c-1,0.4-2.1,1-3.3,1.5l0,5.6c2-1.1,3.8-2.1,5.6-2.8c6.1-2.6,11.3-4.2,14.2-3.3
			C226.1,190,218.7,191.7,209.2,195.7z"/>
		<g>
			<path class="st2" d="M190.3,207.6c-2.9,2.4-5.6,4.9-7.9,7.3c-6.6,7.1-21.9,25.7-21.7,35.4c0.1,2.6,1,4.3,2.4,5.5
				c0-0.4-0.1-0.8-0.1-1.2c-0.2-9.7,15.1-28.3,21.7-35.4c1.6-1.7,3.5-3.5,5.5-5.3L190.3,207.6z"/>
			<path class="st2" d="M198.9,56.3c-4.4,9.7-4.3,20.6-4.4,32.6l-0.3,88.4l0,0l-0.4,40.9h0l-0.1,11.7v0l-0.2,22.3
				c0.5-0.2,1.2-0.4,2-0.6l0.1-23.2v0l0.1-18.8l0-6.1l0-2.5l0.1-12.9l0.2-83.6l0.1-32c0.5,0.9,2.3,4.5,2.4,17l-0.1,97.6l0,12l0,2.4
				l0,6l0,18.5v0l0,0l-0.1,24.6c1.4-0.5,2.9-1,4.6-1.6l0-26.8v0l0-4l0-27.3v-4.7v-0.7l0-1.3l0-7h0l0-89.2
				C203,76,203.3,65.1,198.9,56.3z"/>
		</g>
	</g>
	<path d="M301.3,191.5c0,0-86.4-49.2-206.7,0c-0.7-10.9,7.2-104.1,7.2-104.1h195.7L301.3,191.5z"/>
	<path class="st3" d="M264,122h-5.7h-7.1c0.2,1.1,0.3,1.7,0.5,2.8c0,3.7,0,7.5,0,11.2c0,1.1,0,1.7,0,2.8c0,9.3,0,18.7,0.1,28
		c2.6,0.2,4,0.3,6.6,0.6c0.4,0,0.6,0.1,0.9,0.1c0-3.8,0-5.7,0-9.5c0-3.4,0-5.1,0-8.5c0.8-0.5,1.2-0.7,2-1.2c1.9,2.9,2.8,4.4,4.7,7.4
		c0,4.2,0,8.3,0,12.5c3,0.3,4.5,0.5,7.5,0.8c0-5.2,0-10.4,0-15.6c-2.1-2.9-4.1-5.8-6.2-8.7c2.5-1.6,3.7-2.4,6.2-4
		c0-3.9,0-7.8,0-11.7c-2.6-2.8-4-4.1-6.6-6.8H264z M259.4,140c0-0.4,0-0.6,0-0.9c0-1.1,0-1.7,0-2.8l0-6.6c0.4,0,0.6,0,0.9,0
		c1.9,0,2.8,0,4.7,0.1c0.4,0.4,0.6,0.6,0.9,1c0,2.3,0,3.5,0,5.8c0,0.4,0,0.6,0,1c-2.6,1.8-4,2.7-6.6,4.5
		C259.4,141.1,259.4,140.7,259.4,140"/>
	<path class="st3" d="M248.5,129.4c0-3,0-4.5,0-7.4h-10.4H231c0.2,1.1,0.3,1.6,0.5,2.7c0,13.6,0.1,27.2,0.1,40.8
		c5.7,0.3,11.3,0.7,17,1.1c0-3,0-4.5,0-7.4c-3.8-0.2-5.7-0.3-9.4-0.5c0-4.4,0-8.8,0-13.3c3,0.1,4.5,0.2,7.5,0.3c0-2.6,0-3.9,0-6.5
		c-3-0.1-4.5-0.1-7.5-0.2c0-3.8,0-5.8,0-9.6C242.8,129.3,244.7,129.4,248.5,129.4"/>
	<path class="st3" d="M218.8,122c0.2,1.1,0.3,1.6,0.5,2.7c0,4.8,0,9.6,0,14.3c0,1.1,0,1.6,0,2.7c0,7.8,0,15.5,0,23.3
		c3,0.1,4.5,0.1,7.6,0.3c0-2.9,0-4.3,0-7.2c0-5.4,0-10.8,0-16.2c0-1.1,0-1.6,0-2.7c0-4.8,0-9.6,0-14.4c0.2-1.1,0.3-1.6,0.4-2.7
		H218.8z"/>
	<path class="st3" d="M148.9,166.6c-2.2-14.9-4.4-29.8-6.5-44.6h-12.3c0.2,1.2,0.3,1.7,0.5,2.9c-2.1,14.7-4.2,29.4-6.2,44.1
		c3-0.3,4.5-0.5,7.5-0.8c0.5-3.7,0.7-5.6,1.2-9.2c1.4-0.1,2.1-0.2,3.6-0.3c1.4-0.1,2.1-0.2,3.6-0.3c0.4,3.6,0.7,5.3,1.1,8.9
		C144.4,167,145.9,166.9,148.9,166.6 M134.1,151.2c0.9-7,1.8-14.1,2.7-21.1c0.9,6.9,1.7,13.9,2.6,20.8
		C137.2,151,136.2,151.1,134.1,151.2"/>
	<path class="st3" d="M194.2,164.7c-2.2-14.2-4.4-28.5-6.6-42.7h-12.3c0.2,1.1,0.3,1.6,0.5,2.7c-2.1,13.6-4.1,27.1-6.2,40.7
		c3-0.1,4.5-0.2,7.6-0.3c0.5-3.4,0.7-5.1,1.2-8.6c1.4,0,2.1-0.1,3.6-0.1c1.4,0,2.1,0,3.6-0.1c0.5,3.4,0.7,5.1,1.1,8.5
		C189.7,164.7,191.2,164.7,194.2,164.7 M179.3,149.3c0.9-6.6,1.8-13.1,2.7-19.7c0.9,6.5,1.7,13.1,2.6,19.6
		C182.5,149.2,181.5,149.3,179.3,149.3"/>
	<path class="st3" d="M164.1,122c-1.6,12-3.2,24.1-4.8,36.1c-1.6-12-3.1-24.1-4.6-36.1h-7.5c1.8,12.9,3.5,25.9,5.3,38.8
		c1.7,2.1,2.5,3.2,4.2,5.3c3.3-0.2,5-0.3,8.3-0.5c2.2-14.5,4.4-29.1,6.7-43.6H164.1z"/>
	<path class="st3" d="M122.1,133.8c0-2,0-3,0-4.9c-2.6-2.7-3.9-4.1-6.6-6.9h-8c-2.6,2.9-4,4.3-6.6,7.3v42.9c2.6,2.5,3.9,3.8,6.6,6.2
		c3.2-0.5,4.8-0.8,8-1.2c2.6-3.2,4-4.8,6.6-7.8c0-5.6,0-8.3,0-13.9c-2.5,2.9-5.1,5.7-7.5,8.7c0,2.8,0,1.4,0,4.2
		c-0.4,0.4-0.6,0.7-0.9,1.1c-1.7,0.2-2.5,0.3-4.2,0.6c-0.4-0.4-0.6-0.5-0.9-0.9c0-12.6,0-25.2,0-37.8c0.4-0.4,0.6-0.6,0.9-1
		c1.7,0,2.5-0.1,4.2-0.1c0.4,0.4,0.6,0.6,0.9,1c0,3.7,0,7.4,0,11.1C117.1,139.3,119.6,136.5,122.1,133.8"/>
	<path class="st3" d="M298,142.8v-13.5c-2.6-3-4-4.4-6.6-7.3h-5.7h-2.8c-2.6,2.8-4,4.2-6.6,6.9c0,1.6,0,2.4,0,3.9
		c0,4.1,0,6.2,0,10.3c4.8,4.3,9.5,8.6,14.1,13.1c0,4.3,0,8.5,0,12.8c-0.4,0.4-0.6,0.5-0.9,0.9c-1.9-0.3-2.8-0.4-4.7-0.6
		c-0.4-0.5-0.6-0.7-0.9-1.1c0-3.8,0-7.2,0-7.2l-7.5-5.6l0,13.9c0,0,4,4.6,6.6,7.8c2.3,0.3,3.4,0.5,5.6,0.9c1.1,0.2,1.7,0.3,2.8,0.5
		c2.6-2.4,3.9-3.7,6.6-6.2V168v-15.2c-4.6-4.5-9.3-9-14.1-13.3c0-3.4,0-5.1,0-8.5c0.4-0.4,0.6-0.6,0.9-1c1.9,0,2.8,0.1,4.7,0.1
		c0.4,0.4,0.6,0.6,0.9,1c0,3.5,0,5.9,0,5.9S295,140.4,298,142.8"/>
	<path class="st3" d="M196.1,122c0.4,0.9,0.6,1.3,0.9,2.2c0,4.9,0,9.8,0,14.7v2.7c0,7.7,0,15.4,0,23.1c5.8,0,11.7,0.1,17.5,0.2
		c0.6-2.8,0.8-4.3,1.4-7.1c-3.8-0.1-7.6-0.1-11.3-0.2c0-5.3,0-10.7,0-16c0-1.1,0-1.6,0-2.7c0-4.9,0-9.8,0-14.7
		c0.4-0.9,0.6-1.3,0.9-2.2H196.1z"/>
	<path class="st3" d="M249.1,96l-3.1-3.1h-7.1v21.2h7.3l2.9-2.9V96z M245.6,110.2l-0.4,0.4h-2.7V96.5h0.4h2.2l0.4,0.4V110.2z"/>
	<polygon class="st3" points="179.7,96.5 179.7,92.9 174.8,92.9 171.5,92.9 171.7,94.3 171.7,114.2 179.7,114.2 179.7,110.6 
		175.3,110.6 175.3,104.2 178.8,104.2 178.8,101.1 175.3,101.1 175.3,96.5 	"/>
	<polygon class="st3" points="202.7,114.2 202.7,110.6 198.2,110.6 198.2,104.2 201.8,104.2 201.8,101.1 198.2,101.1 198.2,96.5 
		202.7,96.5 202.7,92.9 197.8,92.9 194.5,92.9 194.7,94.3 194.7,114.2 	"/>
	<polygon class="st3" points="204.4,102.7 204.4,114.2 212.6,114.2 213.3,110.6 208,110.6 208,102.7 208,101.3 208,94.3 208.2,92.9 
		204.2,92.9 204.4,94.3 204.4,101.3 	"/>
	<polygon class="st3" points="161.3,102.7 161.3,114.2 169.5,114.2 170.2,110.6 164.9,110.6 164.9,102.7 164.9,101.3 164.9,94.3 
		165.1,92.9 161.1,92.9 161.3,94.3 161.3,101.3 	"/>
	<path class="st3" d="M218.5,110h1.7h1.7l0.5,4.2h3.5l-3.1-21.2H217l0.2,1.3l-2.9,19.9h3.5L218.5,110z M220.1,96.7l1.2,9.7h-2.5
		L220.1,96.7z"/>
	<polygon class="st3" points="184.8,92.9 181.2,92.9 183.8,111.5 185.8,114.2 189.6,114.2 192.7,92.9 189.2,92.9 187,110.4 	"/>
	<polygon class="st3" points="230.8,102.7 230.8,102.6 234.1,114.2 234.1,114.2 237.4,114.2 237.4,92.9 233.8,92.9 233.9,103.7 
		230.5,92.9 227,92.9 227.2,94.3 227.2,114.2 230.8,114.2 	"/>
	<polygon class="st3" points="159.8,98.2 159.8,96 156.7,92.9 152.9,92.9 149.8,96 149.8,111.1 152.9,114.2 156.7,114.2 
		159.8,111.1 159.8,105.4 156.2,109 156.2,110.2 155.8,110.6 153.8,110.6 153.3,110.2 153.3,96.9 153.8,96.4 155.8,96.4 156.2,96.9 
		156.2,101.8 	"/>
</g>
</svg>
