<?xml version="1.0" encoding="utf-8"?>
<!-- Generator: Adobe Illustrator 22.1.0, SVG Export Plug-In . SVG Version: 6.00 Build 0)  -->
<svg version="1.1" id="Layer_1" xmlns="http://www.w3.org/2000/svg" xmlns:xlink="http://www.w3.org/1999/xlink" x="0px" y="0px"
	 viewBox="0 0 648 648" style="enable-background:new 0 0 648 648;" xml:space="preserve">
<style type="text/css">
	.st0{fill:#B5B3B3;}
	.st1{fill:#1D428A;}
	.st2{fill:#C8102E;}
	.st3{fill:#FFFFFF;}
</style>
<g>
	<path class="st0" d="M611.4,323.6c0,159.1-128.9,288-288,288c-159.1,0-288-128.9-288-288c0-159.1,128.9-288,288-288
		C482.4,35.6,611.4,164.6,611.4,323.6"/>
	<g>
		<path class="st1" d="M603.1,323.6c0,154.5-125.2,279.7-279.7,279.7c-154.5,0-279.7-125.2-279.7-279.7
			c0-154.5,125.2-279.7,279.7-279.7C477.9,43.9,603.1,169.1,603.1,323.6"/>
		<g>
			<path class="st2" d="M561.9,323.6c0,131.7-106.8,238.5-238.5,238.5S84.8,455.4,84.8,323.6c0-131.7,106.8-238.5,238.5-238.5
				S561.9,191.9,561.9,323.6"/>
			<path class="st3" d="M323.4,85.1c-131.5,0-238.5,107-238.5,238.5c0,131.5,107,238.5,238.5,238.5c131.5,0,238.5-107,238.5-238.5
				C561.9,192.1,454.9,85.1,323.4,85.1 M98.7,330.6h43.9v-14H98.7c0.2-5.3,0.4-10.6,1-15.8C115.2,222.5,209.6,162,323.4,162
				c113.8,0,208.1,60.4,223.7,138.8c0.5,5.2,0.8,10.5,1,15.8h-43.9v14H548c-0.2,5.3-0.4,10.6-1,15.8
				c-15.6,78.3-109.9,138.8-223.7,138.8c-113.8,0-208.1-60.4-223.7-138.8C99.1,341.2,98.8,336,98.7,330.6 M323.4,98.8
				c95.3,0,176.8,59.6,209.5,143.4c-40-54.7-118.9-92-209.5-92c-90.6,0-169.6,37.3-209.5,92C146.5,158.4,228.1,98.8,323.4,98.8
				 M323.4,548.5c-95.3,0-176.8-59.6-209.5-143.4c40,54.7,118.9,92,209.5,92c90.6,0,169.6-37.3,209.5-92
				C500.2,488.9,418.6,548.5,323.4,548.5"/>
			<g>
				<g>
					<polygon class="st3" points="222.6,405.6 239.4,405.6 239.4,329.9 222.6,329.9 					"/>
					<path class="st3" d="M287.2,329.9l-0.5,0c-4.7,0-22-0.1-25.3,0l-0.9,0c-5.1,0-8.3,2.4-9.1,6.8c-0.1,0.7-0.1,1.3-0.1,1.3
						c0,0.2-1.2,14.4,0.2,18.4c2.3,6.5,7.5,8.9,12.4,10.4c0.2,0,0.3,0.1,0.5,0.1c0.3,0.1,0.6,0.2,0.9,0.3c0.5,0.2,0.9,0.5,1.1,0.9
						l0.1,27.3l-13.9,0l0.1,10.1l18.3,0h0c6.4-0.3,10.7-3.1,12.4-7.9c0.5-3.7,0.5-29.1,0.2-34.4c-0.1-2-1-3.6-2.9-5.1
						c-0.7-0.6-1.6-1.1-2.7-1.8c-1-0.5-2.1-1.1-3.1-1.5c-4-1.9-8.4-4.1-8.4-9.2l0-4.3l13.2,0c2.7,0,4.9-1.3,6.3-3.8
						c1.1-1.9,1.4-3.8,1.4-4c0.1-1.2,0.1-2.4,0-3.2L287.2,329.9z"/>
					<path class="st3" d="M364.3,329.8c-3.8,0-7.8,0.1-10.9,1c-8.3,2-12.3,7.5-12.3,16.9v45.1c0,11.5,8.3,13.9,20.7,13.9
						c15,0,23.6-5.3,23.6-14.6l0-47C385.4,329.8,375.7,329.8,364.3,329.8 M358.8,346.9c0.1-2,0.2-3.5,0.5-4.7l0.3-0.3
						c0.8-0.1,1.5-0.2,2.4-0.2l0.3,0c5.7,0.1,5.9,1.8,5.9,12.1v31.6c0,0.9,0,1.8-0.1,2.8c0,0.9-0.1,1.8-0.3,2.6l-0.3,0.3
						c-1,0.1-2,0.2-3,0.2c-2.1,0-3.6-0.5-4.5-1.4c-1.3-1.4-1.4-3.7-1.3-6.4v-32C358.7,351.7,358.7,348.1,358.8,346.9"/>
					<path class="st3" d="M424.5,362.1c-8.1-29.2-21-32.4-26.3-32.4c-1.4,0-2.2,0.2-2.3,0.2l-0.4,0.1l0,75.7l17.1,0v-30.5l11.9,30.5
						h17.4v-75.8h-17.3V362.1z"/>
					<path class="st3" d="M202,329.8l-42.6,0.1l-0.5,0l0,0.5c0,0.1-0.4,9,9.6,11.1v64.2H186v-32.2h14.7c7.8,0,12.2-5.1,12.2-14
						l0-2.7C212.9,335.2,212,330.9,202,329.8 M195.2,363.5l-9.5,0v-22c0,0,5.2-0.1,5.9,0c1.9,0.2,3.6,1,3.6,3.2
						C195.3,345.4,195.2,363.5,195.2,363.5"/>
					<path class="st3" d="M335.9,329.9h-39.5v11.9h11.3v63.9l17.4,0l0-64c0.2,0,0.4,0,0.6,0c3.1,0,5.6-0.9,7.3-2.8
						c3.2-3.3,2.9-8.3,2.9-8.5L335.9,329.9z"/>
					<path class="st3" d="M487.8,329.9l-0.5,0c-4.7,0-22-0.1-25.3,0l-0.9,0c-5.1,0-8.3,2.4-9.1,6.8c-0.1,0.7-0.1,1.3-0.1,1.3
						c0,0.2-1.2,14.4,0.2,18.4c2.3,6.5,7.5,8.9,12.4,10.4c0.2,0,0.3,0.1,0.5,0.1c0.3,0.1,0.6,0.2,0.9,0.3c0.5,0.2,0.9,0.5,1.1,0.9
						l0.1,27.3l-13.9,0l0.1,10.1l18.3,0h0c6.4-0.3,10.7-3.1,12.4-7.9c0.5-3.7,0.5-29.1,0.2-34.4c-0.1-2-1-3.6-2.9-5.1
						c-0.7-0.6-1.6-1.1-2.7-1.8c-1-0.5-2.1-1.1-3.1-1.5c-4-1.9-8.4-4.1-8.4-9.2l0-4.3l13.2,0c2.7,0,4.9-1.3,6.3-3.8
						c1.1-1.9,1.4-3.8,1.4-4c0.1-1.2,0.1-2.4,0-3.2L487.8,329.9z"/>
				</g>
				<g>
					<path class="st3" d="M332.9,283.1h2.9c2.8,0.1,7.5,0.9,7.5,6c0,2.4,0.2,10,0.3,12.8l0,1.1c0,0.4,0.2,4.1,0.4,4.8
						c1.2,4.4,4.6,7.1,10,7.6h4.9v-27c0-2.3-1.3-5.6-3.1-7.9l-0.4-0.5c2.7-3,3.8-6.1,3.8-10.8l0-2.6c0-20.9-0.8-25.1-10.6-26.2H316
						v74h16.9V283.1z M333,252.2l2.9,0l0.5,0c4.4,0.1,6.1,0.1,5.9,7.9c0,6.2,0,6.6-0.1,9.7l0,0.6c0,0.9-0.4,1.9-0.9,2.5
						c-0.4,0.4-0.9,0.6-1.4,0.6H333V252.2z"/>
					<polygon class="st3" points="437.6,240.5 421.1,240.5 421.1,314.5 437.6,314.5 					"/>
					<path class="st3" d="M279.7,314.6l16.9,0l0-62.5c0.2,0,0.4,0,0.6,0c3,0,5.5-0.9,7.2-2.7c3.1-3.2,2.8-8.1,2.8-8.3l0-0.5h-38.5
						v11.6h11V314.6z"/>
					<path class="st3" d="M457.2,314.6l16.9,0v-62.5c0.2,0,0.4,0,0.6,0c3,0,5.5-0.9,7.2-2.8c3.1-3.2,2.8-8.1,2.8-8.3l0-0.5h-38.5
						v11.6h11V314.6z"/>
					<polygon class="st3" points="259.8,302.6 242.1,302.6 242.1,284.6 254.3,284.6 254.3,268.6 242.1,268.6 242.1,251.9 
						259.8,251.9 259.8,240.5 225.7,240.5 225.6,314.5 259.8,314.5 					"/>
					<path class="st3" d="M204.2,240.5H162l-0.1,0.5c0,0.2-0.5,4.4,2.2,7.7c1.7,2.1,4.4,3.2,7.9,3.4v62.3h31.4c7.2,0,12-6.1,12-15.1
						l0-34.3C215.4,246,215.4,240.9,204.2,240.5 M198.3,302.6h-9.4v-50.5c5.8-0.2,7,0.3,7.1,0.3c2.2,0.9,2.1,4.9,2.1,5
						C198.8,263.3,198.4,298,198.3,302.6"/>
					<path class="st3" d="M391.2,240.5c-3.8,0-7.7,0.1-10.9,1c-8.2,1.9-12.2,7.4-12.2,16.5v44.1c0,11.3,8.2,13.6,20.5,13.6
						c14.9,0,23.5-5.2,23.5-14.2l0-46C412.1,240.5,402.4,240.5,391.2,240.5 M385.6,257.3c0.1-2,0.2-3.4,0.5-4.6l0.3-0.3
						c0.7-0.1,1.5-0.2,2.4-0.2l0.3,0c5.7,0.1,5.8,1.8,5.8,11.9v31c0,0.9,0,1.8-0.1,2.7c0,0.9-0.1,1.7-0.3,2.5l-0.3,0.3
						c-1,0.1-2,0.2-3,0.2c-2.1,0-3.5-0.4-4.4-1.4c-1.3-1.4-1.4-3.6-1.3-6.2v-31.3C385.6,261.9,385.6,258.5,385.6,257.3"/>
				</g>
			</g>
		</g>
	</g>
</g>
</svg>
