<?xml version="1.0" encoding="utf-8"?>
<!-- Generator: Adobe Illustrator 23.0.3, SVG Export Plug-In . SVG Version: 6.00 Build 0)  -->
<svg version="1.1" id="Layer_1" xmlns="http://www.w3.org/2000/svg" xmlns:xlink="http://www.w3.org/1999/xlink" x="0px" y="0px"
	 viewBox="0 0 648 648" style="enable-background:new 0 0 648 648;" xml:space="preserve">
<style type="text/css">
	.st0{fill:#FFFFFF;}
	.st1{fill:#9EA2A2;}
	.st2{fill:#707271;}
	.st3{fill:#373A36;}
	.st4{fill:#061922;}
	.st5{fill:#CE1141;}
</style>
<g>
	<path class="st0" d="M523.19,237.22c-16.48-37.54-43.18-69.57-77.26-92.7c-35.97-24.4-77.99-37.3-121.52-37.3
		c-43.53,0-85.55,12.9-121.52,37.3c-34.08,23.12-60.78,55.16-77.26,92.7c-73.71,19.35-89.22,43.49-89.22,60.37l0.08,91.94
		c1.03,15.42,17.23,44.24,114.05,64.36c19.54,26.12,45.07,47.85,73.89,62.88c30.66,15.99,65.23,24.44,99.98,24.44
		c34.75,0,69.32-8.45,99.98-24.44c28.81-15.02,54.35-36.76,73.89-62.88c96.82-20.12,113.03-48.95,114.06-64.51l0.07-91.8
		C612.41,280.71,596.9,256.57,523.19,237.22z"/>
	<g>
		<path class="st1" d="M518.09,243.18c-31.77-75.64-106.62-128.91-193.67-128.91s-161.9,53.26-193.67,128.91
			c-53.77,13.68-87.29,33-87.29,54.41l0.06,91.47c0-19.25,27.03-35.33,71.56-48.62c8.31,108.22,99.02,193.73,209.33,193.73
			s201.02-85.51,209.33-193.73c44.53,13.29,71.56,29.38,71.56,48.62l0.06-91.47C605.37,276.18,571.86,256.86,518.09,243.18z"/>
		<path class="st2" d="M605.12,386.45c-0.04-0.33-0.07-0.66-0.13-0.98c-0.07-0.37-0.16-0.74-0.25-1.1
			c-0.05-0.22-0.09-0.44-0.15-0.66c-0.12-0.45-0.27-0.89-0.42-1.34c-0.04-0.13-0.08-0.27-0.13-0.4c-0.19-0.52-0.4-1.05-0.63-1.57
			c-0.02-0.05-0.04-0.1-0.06-0.14c-2.89-6.42-8.94-12.45-17.72-18.12c-13.96,9.25-35.16,17.96-60.9,24.96c0,0,0,0.01,0,0.01l0,0
			c-3.45,10.95-7.76,21.52-12.88,31.62l0,0.01l0,0c-5.11,10.09-11.01,19.72-17.62,28.8l0,0c66.27-13.46,109.49-34.61,111.09-58.48
			c0-0.61-0.03-1.21-0.08-1.81C605.2,386.98,605.16,386.72,605.12,386.45z"/>
		<path class="st2" d="M43.71,386.45c0.04-0.33,0.07-0.66,0.13-0.98c0.07-0.37,0.16-0.74,0.25-1.1c0.05-0.22,0.09-0.44,0.15-0.66
			c0.12-0.45,0.27-0.89,0.42-1.34c0.04-0.13,0.08-0.27,0.13-0.4c0.19-0.52,0.4-1.05,0.63-1.57c0.02-0.05,0.04-0.1,0.06-0.14
			c2.89-6.42,8.94-12.45,17.72-18.12c13.96,9.25,35.16,17.96,60.9,24.96c0,0,0,0.01,0,0.01l0,0c3.45,10.95,7.76,21.52,12.88,31.62
			c0,0,0,0,0,0.01l0,0c5.11,10.09,11.01,19.72,17.62,28.8c0,0,0,0,0,0c-66.27-13.46-109.49-34.61-111.08-58.47
			c0-0.61,0.03-1.21,0.08-1.81C43.62,386.98,43.67,386.72,43.71,386.45z"/>
		<circle class="st3" cx="324.41" cy="324.22" r="199.02"/>
		<g>
			<path class="st4" d="M578.66,275.69c-13.22-8.36-33.21-16.25-57.82-22.83c-3.83-1.02-7.76-2.01-11.77-2.96
				c-29.45-73.1-101.02-124.7-184.66-124.7c-83.64,0-155.21,51.6-184.66,124.7c-4.01,0.96-7.94,1.94-11.77,2.96
				c-24.6,6.58-44.6,14.47-57.82,22.83c-8.23,5.2-18.04,13.22-18.04,21.9v62.64c14.88-12.02,38.89-22.51,71.37-31.2
				c0.64-0.17,1.3-0.34,1.95-0.51c2.29,107.92,90.49,194.71,198.96,194.71c108.47,0,196.67-86.79,198.96-194.71
				c0.65,0.17,1.31,0.34,1.95,0.51c32.48,8.68,56.49,19.18,71.37,31.2v-62.64C596.69,288.91,586.88,280.89,578.66,275.69z
				 M450.61,199.12c0.71-1.51,2.72-1.87,3.88-0.67c13.23,13.68,24.31,29.44,32.73,46.74c-1.67-0.32-3.34-0.64-5.03-0.95
				c-10.82-12.21-22.95-23.22-36.23-32.75C447.17,207.21,448.73,203.08,450.61,199.12z M404.42,161.91
				c12.23,6.04,23.68,13.42,34.16,21.95c2.25,1.83,2.9,4.97,1.59,7.55c-2.06,4.05-3.83,8.27-5.27,12.64
				c-9.58-6.03-19.65-11.35-30.15-15.86c-1.4-7.54-3.09-15-5.04-22.38C398.96,163.02,401.84,160.63,404.42,161.91z M350.73,145.2
				c9.1,1.32,17.97,3.32,26.58,5.95c3.24,0.99,5.75,3.53,6.75,6.76c2.51,8.12,4.69,16.38,6.51,24.77
				c-10.46-3.65-21.28-6.53-32.4-8.56c-1.4-4.64-3.14-9.21-5.22-13.69c-1.65-3.54-3.49-6.96-5.51-10.24
				C345.98,147.82,347.96,144.8,350.73,145.2z M505.35,324.22c0,32.13-8.38,62.31-23.07,88.47c-0.87,1.55-3.25,0.65-2.87-1.09
				l0.02-0.1c7.01-31.37,5.48-63.32-4.08-93.14c-0.84-2.63-1.73-5.26-2.7-7.86c-0.44-1.18-1.49-2.03-2.73-2.23l-8.14-1.33
				c-2-0.33-3.6,1.66-2.83,3.54c0.76,1.87,1.48,3.75,2.16,5.63c10.71,29.42,12.86,61.32,5.86,92.61c-0.41,1.81-0.84,3.62-1.3,5.41
				c-7.37,28.52-27.66,51.8-54.63,63.64c-22.72,9.97-47.79,15.58-74.12,15.74c-11.38,0.07-22.52-0.91-33.33-2.83
				c-4.45-0.79-5.99-6.43-2.54-9.36c6.29-5.34,12.39-10.95,18.29-16.85c4.21-4.21,8.28-8.53,12.22-12.94
				c1.67-1.88,2.54-4.33,2.47-6.85l-0.34-10.83c-0.05-1.64-2.1-2.32-3.14-1.05c-13.8,16.93-29.42,32.31-46.57,45.85
				c-4.32,3.41-10.14,4.22-15.27,2.2c-24.42-9.59-46.31-24.26-64.41-42.7c-3.65-3.72-5.29-8.99-4.17-14.08
				c4.85-22.03,13.67-43.07,26.08-62c1.07-1.63,0.3-3.83-1.56-4.41c-2.3-0.71-4.52-1.47-6.64-2.28c-1.23-0.47-2.64-0.04-3.35,1.07
				c-10.35,16.09-18.3,33.58-23.64,51.86c-1.27,4.37-7.08,5.28-9.58,1.48c-16.73-25.47-27.39-55.29-29.95-87.34
				c-0.4-4.96-0.61-9.96-0.61-15.02c0-0.56,0-1.12,0.01-1.68c0.21-23.36,8.92-45.76,24.28-63.03c2.57-2.89,5.31-5.66,8.25-8.24
				c26.72-23.49,59.57-40.16,95.81-47.28c1.07-4.37,2.29-8.9,3.69-13.64c-35.65,5.94-68.4,20.56-96.01,41.59
				c-2.58,1.97-5.85-1.35-3.83-3.88c33.53-41.9,85.3-68.57,143.28-67.96c0.01,0.01,0.02,0.01,0.04,0.02
				c6.03,6.61,11.1,14.16,14.99,22.5c0.95,2.04,1.8,4.12,2.59,6.2c-8.23-0.95-16.59-1.45-25.07-1.45c-3.97,0-7.92,0.12-11.83,0.33
				c1.16,4.06,2.22,8.26,3.16,12.63c2.88-0.12,5.76-0.2,8.67-0.2c9.83,0,19.5,0.71,28.97,2.05c0.78,3.74,1.31,7.52,1.59,11.31
				c0.08,1.07,0.83,1.96,1.86,2.24c4.1,1.1,7.82,2.5,11.15,4.17c-0.01-5.14-0.42-10.28-1.21-15.37c11.04,2.32,21.76,5.54,32.08,9.56
				c1.69,10.31,2.85,20.8,3.45,31.44c0.09,1.68,1.33,3.07,2.99,3.34l7.65,1.25c1.22,0.2,2.33-0.78,2.27-2.02
				c-0.43-9.42-1.28-18.76-2.53-28.01c8.48,4.05,16.63,8.67,24.42,13.8c-0.99,5.55-1.46,11.13-1.44,16.67
				c0.01,1.27,0.63,2.41,1.61,3.11c0.46,0.33,1,0.57,1.59,0.67l7.75,1.26c0.64,0.1,1.22-0.17,1.57-0.64
				c0.22-0.29,0.34-0.66,0.32-1.06c-0.18-3.88-0.08-7.79,0.31-11.7c6.24,4.76,12.2,9.88,17.85,15.31
				c17.33,16.66,31.74,36.31,42.42,58.13c1.16,8.28,1.78,16.73,1.78,25.33C505.35,324.19,505.35,324.2,505.35,324.22z"/>
		</g>
		<g>
			<path class="st1" d="M365.83,312.8l0.34-28.63c-0.03-13.44-14-15.69-24.31-15.52c6.92-2.29,15.24-6.2,21.27-12.71
				c6.32-5.84,10.83-14.06,10.05-25.6c-1.32-19.42-25.6-29.09-65.85-25.19c-0.66,0.06-1.32,0.13-1.97,0.2
				c-1.89-14.35-4.83-28.25-9.3-41.09l-1.99,1.98c-5.35,16.6-8.55,29.83-10.41,42.11c-24.02,4.14-40.85,9.65-40.85,9.65l-1.98,1.98
				c0,0,19.43-1.76,41.57-1.45c-2.46,25.17,0.05,49.08-0.03,94.25c-35.77-1.01-67.15,4.94-74.83,14.49
				c-2.52,2.08-3.86,4.36-3.78,6.81c0.39,10.95,32.91,21,78.62,24.84l1.95,62.08l1.99-1.99l3.21-42.1c0.01-0.69,0.09-1.27,0.22-1.77
				c0.96,0.13,1.87,1.36,1.87,3.5l1.41,55.44l1.99-1.98l3.41-45.12c-0.01-1.01,0.1-1.84,0.29-2.5c0.97,0.17,1.86,1.59,1.79,4.13
				l1.58,57.8l1.98-1.98l2.73-84.12c5.25,0.17,10.61,0.26,16.07,0.26c5.78,0,11.47-0.1,17.04-0.28l2.76,87.7l1.98-1.98l2.36-45.9
				c0.01-0.92,0.11-1.69,0.28-2.31c0.9,0.21,1.73,1.55,1.73,3.92l2.37,64.37l1.98-1.98l2.4-55.61c0.03-0.79,0.14-1.46,0.32-2.02
				c1.14-0.01,2.3,1.35,2.35,4.01l1.98,73.71l1.98-1.99l2.89-123.43c39.06-3.41,68.72-11.29,76.07-20.34
				c2.44-2.05,3.75-4.17,3.75-6.33C444.53,320.07,408.4,310.79,365.83,312.8 M281.96,345.87c-31.31-3.02-52.46-9.37-52.46-17.4
				c0-0.59,0.17-1.15,0.5-1.69c7.34-5.16,29.83-8.42,52.36-11.8c-0.03,8.83-0.16,18.45-0.45,29.04L281.96,345.87z M345.75,238.08
				c1.19,8.86-1.35,15.55-5.92,20.6c-8.17,7.41-20.98,10.78-31.4,12.31c0.18-16.72-0.06-34.07-1.51-51.1
				C327.02,222.04,344.27,227.11,345.75,238.08 M339.89,347.57c-4.91,0.14-9.93,0.22-15.06,0.22c-6.04,0-11.93-0.1-17.64-0.3
				l0.23-7.14c-0.54-18.08,0.59-40.75,0.95-64.96c14.66,1.7,32.35,5.88,32.04,16.19L339.89,347.57z M417.75,333.62
				c-7.29,5.75-26.7,10.2-52.31,12.48l0.37-30.79c29.32,3.82,53.11,8.11,53.11,15.14C418.92,331.54,418.52,332.6,417.75,333.62"/>
			<path class="st5" d="M445.08,332.09c-0.55-12.02-36.68-21.3-79.25-19.3l0.34-28.63c-0.05-17.72-24.31-15.99-32.49-14.91
				c9.55-1.73,41.47-9.7,39.5-38.93c-1.32-19.42-25.6-29.09-65.85-25.19c-0.66,0.06-1.32,0.13-1.97,0.2
				c-1.89-14.35-4.83-28.25-9.3-41.09c-5.6,17.36-8.85,31.04-10.67,43.8c-24.95,4.17-42.59,9.94-42.59,9.94s19.43-1.76,41.57-1.45
				c-2.5,25.55,0.12,49.79-0.03,96.29c-42.31-1.49-79.04,6.75-78.6,19.25c0.38,10.95,32.91,21.01,78.62,24.85l1.94,62.07l3.21-42.1
				c0.1-5.22,4.08-4.74,4.08-0.26l1.42,55.44l3.41-45.12c-0.05-6.09,4.21-5.8,4.06-0.35l1.57,57.8l2.79-86.15
				c5.86,0.21,11.87,0.32,17.99,0.32c5.78,0,11.47-0.1,17.04-0.28l2.76,87.69l2.36-45.9c0.03-5.85,3.99-5.55,3.98-0.37l2.37,64.37
				l2.41-55.61c0.18-5.46,4.55-5.22,4.65,0l1.98,73.71l2.93-125.16v-0.08C411.53,353.13,445.08,343.06,445.08,332.09 M347.73,236.1
				c3.27,24.29-21.5,32.28-39.29,34.89c0.19-17.44-0.08-35.58-1.7-53.3C327.75,219.7,346.2,224.74,347.73,236.1 M229.5,328.47
				c0-7.42,27.4-11.34,54.84-15.46c-0.03,8.82-0.16,18.45-0.45,29.03l0.13,4.03C251.58,343.13,229.5,336.67,229.5,328.47
				 M307.19,347.49l0.23-7.14c-0.56-18.62,0.66-42.12,0.99-67.16c14.99,1.54,34.31,5.62,33.99,16.4l-0.55,57.91
				c-5.52,0.18-11.21,0.28-17.02,0.28C318.79,347.79,312.9,347.69,307.19,347.49 M365.44,346.1l0.39-33.03
				c30.21,3.9,55.06,8.22,55.06,15.41C420.9,336.7,398.27,343.18,365.44,346.1"/>
		</g>
		<path class="st0" d="M114.37,270.53c-3.76,1.26-7.52,2.55-11.26,3.88c-2.4,0.85-4.35,3.57-4.35,6.03c0,12.91,0,25.83,0,38.74
			c0,2.46,1.96,3.76,4.35,2.91c3.75-1.33,7.5-2.62,11.26-3.88c2.41-0.81,4.38-3.46,4.38-5.92c0-12.91,0-25.83,0-38.74
			C118.76,271.09,116.78,269.72,114.37,270.53z M111.49,311.77c-1.84,0.62-3.68,1.26-5.51,1.9c0-10.95,0-21.91,0-32.86
			c1.83-0.64,3.67-1.27,5.51-1.9C111.49,289.87,111.49,300.82,111.49,311.77z M227.61,243.45c-3.89,0.57-7.77,1.18-11.64,1.83
			c-2.48,0.41-4.51,2.78-4.51,5.24c0,12.91,0,25.83,0,38.74c0,2.46,2.03,4.12,4.51,3.71c3.88-0.64,7.76-1.25,11.64-1.83
			c2.49-0.37,4.52-2.66,4.52-5.12c0-12.91,0-25.83,0-38.74C232.13,244.81,230.1,243.08,227.61,243.45z M224.64,284.16
			c-1.9,0.29-3.8,0.59-5.7,0.89c0-10.95,0-21.91,0-32.86c1.9-0.31,3.8-0.6,5.7-0.89C224.64,262.26,224.64,273.21,224.64,284.16z
			 M140.19,262.48c2.44-0.71,4.89-1.4,7.34-2.08c0,14.4,0,28.81,0,43.21c0,2.46-2,5.02-4.43,5.72c-3.8,1.08-7.6,2.2-11.39,3.35
			c-2.42,0.74-4.4-0.65-4.4-3.11c0-14.4,0-28.81,0-43.21c2.43-0.76,4.87-1.5,7.31-2.23c0,13.42,0,26.85,0,40.27
			c1.86-0.56,3.71-1.1,5.57-1.64C140.19,289.32,140.19,275.9,140.19,262.48z M83.15,281.86c2.39-0.93,4.78-1.85,7.17-2.76
			c0,15.9,0,31.79,0,47.69c-2.4,0.91-4.79,1.83-7.17,2.76c0-6.71,0-13.42,0-20.14c-1.66,0.65-3.32,1.31-4.97,1.97
			c0,6.71,0,13.42,0,20.14c-2.38,0.95-4.76,1.92-7.13,2.91c0-15.9,0-31.79,0-47.69c2.37-0.98,4.75-1.95,7.13-2.91
			c0,6.71,0,13.42,0,20.14c1.66-0.66,3.31-1.32,4.97-1.97C83.15,295.28,83.15,288.57,83.15,281.86z M183.76,251.44
			c6.8-1.48,13.62-2.85,20.46-4.11c0,2.47,0,4.94,0,7.41c-2.17,0.4-4.35,0.81-6.52,1.24c0,13.42,0,26.85,0,40.27
			c-2.48,0.48-4.97,0.98-7.45,1.5c0-13.42,0-26.85,0-40.27c-2.17,0.45-4.33,0.91-6.5,1.38
			C183.76,256.38,183.76,253.91,183.76,251.44z M260.6,239.41c0,15.9,0,31.79,0,47.69c-2.51,0.24-5.02,0.5-7.53,0.77
			c0-2.78,0-5.55,0-8.33c-1.74-4.97-3.49-9.93-5.23-14.88c0,7.93,0,15.86,0,23.8c-2.51,0.29-5.01,0.6-7.52,0.92
			c0-15.9,0-31.79,0-47.69c2.45-0.31,4.91-0.61,7.37-0.9c1.79,5.09,3.59,10.2,5.38,15.3c0-5.3,0-10.61,0-15.91
			C255.58,239.91,258.09,239.66,260.6,239.41z M176.58,257.52c0,1.85,0,3.7,0,5.55c-2.47,0.57-4.94,1.15-7.41,1.74
			c0-0.87,0-1.74,0-2.61c-1.88,0.45-3.75,0.91-5.62,1.38c0,3.28,0,6.56,0,9.84c3.56,1.67,7.12,3.38,10.68,5.11
			c1.74,0.85,2.35,2.38,2.35,4.43c0,4.43,0,8.87,0,13.3c0,2.46-2.01,4.93-4.47,5.51c-3.84,0.91-7.67,1.85-11.49,2.83
			c-2.45,0.62-4.45-0.86-4.45-3.32c0-1.85,0-3.7,0-5.55c2.46-0.65,4.92-1.28,7.38-1.89c0,0.87,0,1.74,0,2.61
			c1.87-0.47,3.75-0.93,5.62-1.38c0-3.28,0-6.56,0-9.84c-3.56-1.71-7.12-3.38-10.67-5.03c-1.73-0.8-2.33-2.31-2.33-4.36
			c0-4.43,0-8.87,0-13.3c0-2.46,2-5,4.45-5.62c3.82-0.98,7.66-1.92,11.49-2.83C174.56,253.51,176.57,255.06,176.58,257.52z
			 M434.38,245.53c-3.88-0.65-7.76-1.27-11.64-1.85c-2.49-0.37-4.52,1.35-4.52,3.81c0,12.91,0,25.83,0,38.74
			c0,2.46,2.03,4.76,4.52,5.13c3.88,0.58,7.76,1.2,11.64,1.85c2.48,0.42,4.51-1.24,4.51-3.7c0-12.91,0-25.83,0-38.74
			C438.89,248.31,436.86,245.94,434.38,245.53z M431.41,285.31c-1.9-0.31-3.8-0.61-5.7-0.91c0-10.95,0-21.91,0-32.86
			c1.9,0.29,3.8,0.6,5.7,0.91C431.41,263.4,431.41,274.35,431.41,285.31z M531.91,269.69c6.66,2.2,13.29,4.5,19.89,6.92
			c0,2.47,0,4.94,0,7.41c-2.1-0.77-4.2-1.52-6.31-2.27c0,13.42,0,26.85,0,40.27c-2.41-0.85-4.82-1.69-7.24-2.52
			c0-13.42,0-26.85,0-40.27c-2.11-0.72-4.23-1.43-6.34-2.13C531.91,274.63,531.91,272.16,531.91,269.69z M570.66,293.85
			c0-0.87,0-1.74,0-2.61c-1.81-0.73-3.63-1.44-5.44-2.15c0,3.28,0,6.56,0,9.84c3.45,3.91,6.89,7.85,10.32,11.82
			c1.67,1.94,2.25,3.85,2.26,5.9c0,4.43,0,8.87,0,13.3c0,2.46-1.93,3.67-4.3,2.71c-3.7-1.5-7.41-2.97-11.12-4.4
			c-2.38-0.92-4.33-3.66-4.33-6.12c0-1.85,0-3.7,0-5.55c2.4,0.9,4.79,1.82,7.18,2.75c0,0.87,0,1.74,0,2.61
			c1.82,0.71,3.63,1.43,5.44,2.15c0-3.28,0-6.56,0-9.84c-3.44-3.94-6.89-7.86-10.34-11.74c-1.68-1.89-2.28-3.78-2.27-5.83
			c0-4.43,0-8.87,0-13.3c0-2.46,1.95-3.74,4.33-2.82c3.72,1.43,7.43,2.9,11.12,4.4c2.37,0.96,4.3,3.77,4.3,6.23c0,1.85,0,3.7,0,5.55
			C575.42,295.77,573.04,294.8,570.66,293.85z M497.42,259.33c-2.55,7.26-5.1,14.53-7.65,21.82c2.55,8.61,5.1,17.23,7.65,25.86
			c-2.58-0.7-5.16-1.38-7.74-2.05c-2.03-6.86-4.07-13.7-6.11-20.54c0,6.33,0,12.66,0,18.99c-2.46-0.61-4.93-1.21-7.4-1.79
			c0-15.9,0-31.79,0-47.69c2.47,0.58,4.93,1.18,7.4,1.79c0,6.33,0,12.66,0,18.99c2.04-5.83,4.07-11.64,6.11-17.45
			C492.26,257.95,494.84,258.63,497.42,259.33z M467.82,256.52c0,1.9,0,3.79,0,5.69c-2.47-0.55-4.95-1.08-7.43-1.6
			c0-0.92,0-1.83,0-2.75c-1.89-0.4-3.77-0.78-5.66-1.16c0,10.95,0,21.91,0,32.86c1.89,0.38,3.77,0.77,5.66,1.16
			c0-0.82,0-1.64,0-2.47c2.48,0.52,4.96,1.05,7.43,1.6c0,1.8,0,3.61,0,5.41c0,2.46-2.02,4.02-4.48,3.49
			c-3.85-0.83-7.71-1.62-11.57-2.37c-2.47-0.48-4.5-2.88-4.5-5.34c0-12.91,0-25.83,0-38.74c0-2.46,2.03-4.09,4.5-3.61
			c3.86,0.76,7.72,1.55,11.57,2.37C465.8,251.6,467.82,254.06,467.82,256.52z M409.05,264.84c0-6.2,0-12.41,0-18.61
			c0-2.46-2.04-4.74-4.53-5.04c-5.41-0.66-10.82-1.25-16.24-1.78v0c0,15.9,0,31.79,0,47.69c2.51,0.24,5.02,0.5,7.53,0.77
			c0-6.71,0-13.42,0-20.14c1.01,0.11,2.03,0.22,3.04,0.34c1.1,6.84,2.2,13.68,3.3,20.52c2.54,0.3,5.08,0.61,7.61,0.94
			c-1.12-6.99-2.24-13.98-3.37-20.97C407.96,268.06,409.05,266.64,409.05,264.84z M401.54,260.97c-1.91-0.22-3.81-0.44-5.72-0.65
			c0-4.24,0-8.48,0-12.72c1.91,0.21,3.82,0.42,5.72,0.65C401.54,252.49,401.54,256.73,401.54,260.97z M505.68,261.63
			c6.67,1.9,13.31,3.9,19.93,6.02c0,2.47,0,4.94,0,7.41c-4.19-1.34-8.39-2.63-12.6-3.88c0,4.24,0,8.48,0,12.72
			c3.12,0.93,6.24,1.88,9.35,2.85c0,2.47,0,4.94,0,7.41c-3.11-0.97-6.23-1.93-9.35-2.85c0,4.24,0,8.48,0,12.72
			c4.21,1.25,8.41,2.55,12.6,3.88c0,2.47,0,4.94,0,7.41c-6.62-2.11-13.27-4.12-19.93-6.02
			C505.68,293.42,505.68,277.52,505.68,261.63z"/>
	</g>
</g>
</svg>
