<?xml version="1.0" encoding="utf-8"?>
<!-- Generator: Adobe Illustrator 22.1.0, SVG Export Plug-In . SVG Version: 6.00 Build 0)  -->
<svg version="1.1" id="Layer_1" xmlns="http://www.w3.org/2000/svg" xmlns:xlink="http://www.w3.org/1999/xlink" x="0px" y="0px"
	 viewBox="0 0 648 648" style="enable-background:new 0 0 648 648;" xml:space="preserve">
<style type="text/css">
	.st0{fill:#061922;}
	.st1{fill:#BEC0C2;}
	.st2{fill:#1D428A;}
	.st3{fill:#C8102E;}
	.st4{fill:#FFFFFF;}
</style>
<g>
	<path class="st0" d="M43.5,294.5c-5.5,5.1-8.3,11.6-8.3,19.6v144.4c0,8.1,2.8,14.8,8.3,19.8c5.5,5.1,12.4,7.2,20.4,6.5
		c12.9-1.1,25.9-2.1,38.8-3v-27.3c-12.9,0.7-25.9,1.4-38.8,2.2c0-46.9,0-93.9,0-140.8c12.9,0.8,25.9,1.5,38.8,2.2v-27.3
		c-12.9-0.9-25.9-1.9-38.8-3C55.9,287,49.1,289.2,43.5,294.5"/>
	<path class="st0" d="M137.4,293c-9.6-0.6-19.2-1.2-28.8-1.9v190.3c21-1.5,42-2.7,63-3.7v-26.1c-11.4,0.4-22.8,0.8-34.2,1.3V293z"/>
	<path class="st0" d="M177.3,477.4c9.8-0.5,19.6-0.9,29.4-1.2c0-59.9,0-119.9,0-179.8c-9.8-0.4-19.6-0.8-29.4-1.2V477.4z"/>
	<path class="st0" d="M261.1,297.9c-16.2-0.3-32.4-0.8-48.6-1.3V476c9.6-0.3,19.3-0.6,28.9-0.9V399c6.6,0,13.1,0,19.6-0.1
		c8,0,14.8-2.5,20.4-7.3c5.7-4.8,8.6-10.8,8.6-17.9v-50.2c0-6.9-2.9-12.8-8.6-17.8C275.9,300.7,269.1,298.1,261.1,297.9
		 M261.1,373.7c-6.6,0-13.1,0-19.6-0.1v-50.7c6.6,0.1,13.1,0.2,19.6,0.3V373.7z"/>
	<path class="st0" d="M516.4,391.9c5.7-5.1,8.6-11.5,8.6-19.1v-53.9c0-7.4-2.8-13.6-8.6-18.4c-5.6-5-12.3-7.2-20.3-6.8
		c-16.2,0.9-32.3,1.7-48.5,2.3v180.4c9.6,0.4,19.3,0.8,28.9,1.3v-77.6c8,25.9,16,52.2,24,78.9c9.6,0.5,19.2,1.1,28.9,1.8
		c-8.4-28-16.8-55.4-25.2-82.4C508.7,397.3,512.9,395.2,516.4,391.9 M476.5,320.9c6.5-0.2,13.1-0.5,19.6-0.7c0,17.6,0,35.2,0,52.9
		c-6.5,0.1-13.1,0.1-19.6,0.1V320.9z"/>
	<path class="st0" d="M344.5,298.5c-16.2,0.1-32.4,0.1-48.6,0v175.7c9.7-0.1,19.3-0.1,29-0.1v-75.2c6.6,0,13.1,0,19.7,0
		c8,0,14.8-2.4,20.4-7.2c5.7-4.8,8.6-10.8,8.6-17.9c0-16.8,0-33.6,0-50.4c0-7-2.9-12.8-8.6-17.6
		C359.3,300.8,352.5,298.4,344.5,298.5 M344.5,373.7c-6.6,0-13.1,0-19.7,0v-50.1c6.6,0,13.1,0,19.7-0.1V373.7z"/>
	<path class="st0" d="M379.3,474.5c21.1,0.4,42.1,1,63.2,1.8v-25.7c-11.4-0.3-22.8-0.6-34.2-0.8V399c6.5,0,18.2,0.1,24.8,0.1
		c0-8.5,0-17,0-25.6c-6.5,0-18.2,0.1-24.8,0.1v-50.8c11.4-0.2,22.8-0.5,34.2-0.8v-25.7c-21,0.8-42.1,1.4-63.2,1.8
		C379.3,356.9,379.3,415.7,379.3,474.5"/>
	<path class="st0" d="M611.2,343v-28.9c0-8-2.8-14.6-8.5-19.6c-5.5-5.2-12.3-7.4-20.2-6.7c-8.1,0.7-16.2,1.3-24.3,1.9
		c-8.1,0.6-14.9,3.8-20.5,9.6c-5.6,5.6-8.3,12.1-8.3,19.5v54c0,7.6,2.8,14,8.3,19.2c5.6,5.3,12.4,8,20.5,8.1
		c8.1,0.1,16.2,0.2,24.3,0.3c0,18.8,0,37.5,0,56.3c-8.1-0.5-16.2-0.9-24.3-1.4v-27.6c-9.6-0.3-19.2-0.6-28.8-0.9v27
		c0,7.6,2.8,14.1,8.3,19.7c5.6,5.6,12.4,8.7,20.5,9.3c8.1,0.6,16.2,1.3,24.3,1.9c7.9,0.7,14.7-1.5,20.2-6.5c5.7-5,8.5-11.7,8.5-19.8
		v-57.8c0-8-2.8-14.8-8.5-20.3c-5.5-5.7-12.3-8.4-20.2-8.3c-8.1,0.1-16.2,0.2-24.3,0.3v-55.2c8.1-0.4,16.2-0.9,24.3-1.4
		c0,9.4,0,18.8,0,28.2C592.1,343.7,601.7,343.3,611.2,343"/>
	<g>
		<path class="st1" d="M65.6,290.9c11.4,1,23.3,1.9,35.3,2.8v-1.2c-12.3-0.9-24.8-1.9-37-2.9c-0.9-0.1-1.8-0.1-2.7-0.1
			c-6.5,0-11.8,2.1-16.3,6.3c-5.1,4.7-7.7,10.8-7.7,18.2v144.4c0,6.1,1.7,11.3,5,15.5c-2.5-3.9-3.7-8.6-3.7-13.8V315.8
			c0-7.5,2.6-13.8,7.8-18.5c4.6-4.3,10-6.4,16.6-6.4C63.7,290.8,64.6,290.9,65.6,290.9"/>
		<path class="st1" d="M135.5,296v-1.2c-8.3-0.5-16.7-1-25-1.6v186.2l1.3-0.1V294.5l0.2,0C119.6,295,127.5,295.5,135.5,296"/>
		<path class="st1" d="M204.8,299.4v-1.2c-8.4-0.3-17-0.7-25.6-1.1v178.3l1.3-0.1V298.4l0.2,0C188.6,298.8,196.7,299.1,204.8,299.4"
			/>
		<path class="st1" d="M262.8,301.1c5.8,0.1,11,1.6,15.5,4.5c-4.9-3.7-10.6-5.6-17.2-5.8c-15.5-0.3-31.2-0.7-46.6-1.3V474l1.3,0
			V299.9l0.2,0C231.5,300.4,247.3,300.8,262.8,301.1"/>
		<path class="st1" d="M499.8,296.9c5.2,0,9.8,1.2,13.8,3.8c-4.4-3.4-9.5-5-15.5-5c-0.6,0-1.2,0-1.9,0.1c-15.3,0.9-31,1.6-46.7,2.2
			v176.7l1.3,0.1V299.2l0.2,0c15.8-0.6,31.6-1.4,46.9-2.3C498.6,296.9,499.2,296.9,499.8,296.9"/>
		<path class="st1" d="M325,301.8c7.1,0,14.3,0,21.3-0.1h0.3c5.9,0,11.1,1.4,15.6,4.2c-4.9-3.7-10.5-5.5-17.3-5.5h-0.3
			c-7.1,0-14.3,0.1-21.3,0.1c-8.3,0-16.9,0-25.4-0.1v171.8l1.3,0V301.7l0.2,0C307.9,301.7,316.5,301.8,325,301.8"/>
		<path class="st1" d="M440.6,298.3c-19.6,0.7-39.6,1.3-59.3,1.7v172.7l1.3,0V301.2l0.2,0c19.1-0.4,38.6-0.9,57.9-1.6V298.3z"/>
		<path class="st1" d="M584.3,290.9c0.9-0.1,1.7-0.1,2.6-0.1c4.7,0,8.9,1.1,12.6,3.4c-4.1-3.2-8.8-4.7-14.3-4.7
			c-0.8,0-1.7,0-2.5,0.1c-8.1,0.7-16.2,1.3-24.3,1.9c-7.6,0.6-14,3.6-19.2,9c-5.2,5.3-7.8,11.2-7.8,18.2v54c0,5.7,1.6,10.6,5,14.8
			c-2.5-3.9-3.7-8.2-3.7-13.1v-54c0-7.1,2.6-13.1,7.9-18.5c5.3-5.5,11.9-8.5,19.5-9.1C568.1,292.3,576.2,291.6,584.3,290.9"/>
	</g>
	<path class="st2" d="M35.2,516.1c190.8-23.8,385.2-23.8,576,0v-10c-190.8-22.1-385.2-22.1-576,0V516.1z"/>
	<path class="st3" d="M104.7,542.7c144.2-37.4,292.8-37.4,437,0v-9.4c-144.2-36.4-292.7-36.4-437,0
		C104.7,536.4,104.7,539.6,104.7,542.7"/>
	<path class="st2" d="M266,270.2c-77.2-1.9-154.3-7.6-230.8-17.2v10c81.4,9.4,163.4,14.8,245.5,16.2
		C275.5,276.6,270.6,273.6,266,270.2"/>
	<path class="st2" d="M380.4,270.2c-4.6,3.4-9.5,6.4-14.7,9c82.1-1.4,164.1-6.8,245.5-16.2v-10C534.7,262.6,457.6,268.3,380.4,270.2
		"/>
	<path class="st3" d="M246.8,251c-47.6-4.2-95.1-12.4-142.1-24.6c0,3.2,0,6.3,0,9.4c49.7,12.5,99.9,20.7,150.2,24.6
		C252.1,257.5,249.3,254.3,246.8,251"/>
	<path class="st3" d="M399.6,251c-2.5,3.3-5.2,6.5-8.2,9.5c50.4-3.9,100.6-12.1,150.2-24.6v-9.4C494.7,238.6,447.3,246.8,399.6,251"
		/>
	<path class="st4" d="M234.4,193.6c0-49,39.7-88.8,88.8-88.8c49,0,88.8,39.7,88.8,88.8c0,49-39.7,88.8-88.8,88.8
		C274.2,282.4,234.4,242.6,234.4,193.6"/>
	<path class="st0" d="M323.2,104.8c-49,0-88.8,39.8-88.8,88.8c0,49,39.8,88.8,88.8,88.8c49,0,88.8-39.8,88.8-88.8
		C412,144.6,372.2,104.8,323.2,104.8 M387.4,144.3c10.2,13.2,15.9,28.9,16.7,45.4h-33.5C371.5,173.2,377.2,157.5,387.4,144.3
		 M259.1,144.3c10.2,13.2,15.9,28.9,16.7,45.4h-33.5C243.1,173.1,248.9,157.5,259.1,144.3 M259.1,242.9
		c-10.2-13.2-15.9-28.9-16.7-45.4h33.5C275,214.1,269.2,229.7,259.1,242.9 M327.1,274.5v-23.2h-7.8v23.2c-21.1-1-40.6-10-55.1-25.5
		c11.9-14.8,18.6-32.6,19.4-51.5v-7.8c-0.8-18.9-7.5-36.7-19.4-51.5c14.5-15.5,34.1-24.5,55.1-25.5v23h7.8v-23
		c21.1,1,40.6,10,55.1,25.5c-11.9,14.8-18.6,32.6-19.4,51.5v7.8c0.8,18.9,7.5,36.7,19.4,51.5C367.7,264.5,348.2,273.5,327.1,274.5
		 M387.4,242.9c-10.2-13.2-16-28.9-16.7-45.4h33.5C403.3,214.1,397.6,229.8,387.4,242.9"/>
	<polygon class="st3" points="303.5,156.4 303.5,230.5 343,230.5 343,220.3 314,220.3 314,156.4 	"/>
	<path class="st2" d="M356.5,181.2v-30.5c0-4.6-1.8-6.4-6.4-6.4h-53.9c-4.5,0-6.3,1.9-6.3,6.4v85.8c0,4.6,1.8,6.4,6.3,6.4h53.9
		c4.5,0,6.4-1.9,6.4-6.4v-30.6h-10.7v27.6h-45.2v-79.9h45.2v27.6H356.5z"/>
	<path class="st3" d="M343,217.4l0-61h-25.7l-0.3,61h10.3l0.2-19h5.2l-0.1,19H343z M332.7,188.3h-5.2v-21.7h5.2V188.3z"/>
</g>
</svg>
