<?xml version="1.0" encoding="utf-8"?>
<!-- Generator: Adobe Illustrator 20.0.0, SVG Export Plug-In . SVG Version: 6.00 Build 0)  -->
<svg version="1.1" id="Layer_3" xmlns="http://www.w3.org/2000/svg" xmlns:xlink="http://www.w3.org/1999/xlink" x="0px" y="0px"
	 width="400px" height="400px" viewBox="0 0 400 400" style="enable-background:new 0 0 400 400;" xml:space="preserve">
<style type="text/css">
	.st0{fill:#98002E;}
	.st1{fill:#F9A01B;}
	.st2{fill:none;stroke:#F9A01B;stroke-width:0.174;}
	.st3{fill:#FFFFFF;}
</style>
<g>
	<path d="M329.9,105.2c-9.9-11-31.9-19.9-60.1-25.2c0.1-3.2,2.1-4.6,5.6-7.1c1.8-1.3,3.9-2.7,6-4.7c9.1-8.7-1.6-21.9-2-22.5
		l-5.9-7.2l1.4,9.2c1,6.3-1.3,8.5-8.2,13.3c-0.9,0.6-1.6,1.3-2.3,2c0.3-4.2,0.5-8.9-0.9-14.7c-1.4-5.9-4.3-8.2-4.3-8.2l-0.7,8.5
		c0,0.1-0.7,6.7-9.5,14.6c0.8-0.9,1.5-1.7,2.1-2.7c4.3-6.3,3.1-13.4,1.6-21.7l-0.3-1.7c-1.5-8.6,0.8-14,2.3-14.9
		c1.4-1.8,4.3-4.7,4.3-4.7s-1.5-0.7-5.8-0.1c-5.5,0.8-14.8,4.1-14.5,11.6c0.1,3.3,1.2,6.5,2.1,9.2c1,3,2,5.8,1.1,7.2
		c-0.7,1.1-2.7,2.1-5.9,2.6c-13,2.4-22.9,8.4-28,17.1c-1.7,2.9-2.8,5.9-3.4,9.2c-32.2,0.1-62.7,4.1-86.3,11.4
		c-26.5,8.2-41.1,19.4-42.2,32.3c-0.6,6.8,2.5,16.6,19.5,26l-0.1,0.1l4.8,2.3c0,0,0,0,0,0l2.5,1.2l0,0c7.8,3.5,17,6.5,27.3,9
		c-3.7,2.1-7,4.4-10,7.1c-16.5,13.5-26,33.6-26,55c0,19,7.4,36.9,20.9,50.4c13.5,13.5,31.3,20.9,50.4,20.9c33.7,0,63-23.9,69.7-56.8
		c5.7-17.2,5.1-35.6,4.8-42.6c-0.6-15.8,7.2-24.6,12.1-28.5c22.5-2.8,42.4-7.8,57.2-14.4l0,0l2.4-1.1c0,0,0,0,0,0l5.1-2.4l-0.1-0.1
		c11.9-6.7,18.6-14.5,19.3-22.8C336.6,115.6,334.5,110.2,329.9,105.2 M306.8,119c2,2.2,1.9,3.7,1.9,4.1c-0.2,2.6-3.4,5.7-8.8,8.5
		l0,0c-11.3,5.9-30.8,10.4-53.9,12.8c1-0.7,2.1-1.2,3.3-1.7l0.4-0.2c6.7-2.7,14.2-5.8,14.6-16.8c0.1-1.8,0.1-7.1,1.1-9
		c1.2-2.5,4.4-6.3,7.2-7.3c0,0-4.7-0.9-4.7-0.9c-0.2,0-0.5,0-0.7,0c1.6-1.1,2.7-2.5,3.5-4C289.5,108.5,302.1,113.8,306.8,119
		 M103.6,121.7c0.8-9.1,33.5-21.1,86.5-23c-4.9,3.7-10.7,10.1-12.2,20.5l-0.5,3.9c-0.3,2.4-0.8,4.9-1.7,7.3
		c-2,5.3-7.8,9.8-13.9,13.1c-21.3-2.7-39.1-7.2-49.5-12.8l0,0C106.4,127.7,103.3,124.4,103.6,121.7"/>
	<polygon points="140.4,338.7 149.5,301.6 134.4,301.6 125.3,338.7 	"/>
	<path d="M173.2,310.7l0.9,15.2h-7.8l7.9,12.8h13.7l-2.1-37.1h-22.6c0,0-18.5,37.1-18.4,37.1h14.5L173.2,310.7L173.2,310.7z"/>
	<polygon points="138.4,372.8 135.3,385.5 149.4,385.5 158.5,348.4 144.4,348.4 141,362.8 130.4,362.8 133.9,348.4 119.8,348.4
		110.6,385.5 124.7,385.5 127.8,372.8 	"/>
	<polygon points="172.1,377.1 173.1,372.1 190.5,372.1 192.7,363.9 175.2,363.9 176.4,358.4 193.9,358.4 196.6,348.4 164.8,348.4
		155.6,385.5 187.2,385.5 189.5,377.1 	"/>
	<polygon points="262.6,338.7 271.7,301.6 256.7,301.6 247.6,338.7 	"/>
	<path d="M287.5,330.3c2,2.8,4.2,8.2-5.1,12.4c-10.8,4.9,0,17.3-14.7,17.3h-6.1l-6.1,25.5h-15.1l6.1-25.5l-10.2,0l3.2-11.6h26.1
		c15.5,0,4.6-10.7,12.5-12.2C283.6,335.2,286.9,334.3,287.5,330.3"/>
	<polygon points="99.4,320.7 97,301.6 78.5,301.6 69.4,338.7 83.1,338.7 88.1,319.3 88.2,319.3 90.9,338.7 99,338.7 110.2,319.3
		110.3,319.3 105.9,338.7 118.8,338.7 127.9,301.6 110.1,301.6 99.5,320.7 	"/>
	<polygon points="221.9,320.7 219.5,301.6 200.9,301.6 191.8,338.7 205.5,338.7 210.5,319.3 210.6,319.3 213.4,338.7 221.4,338.7
		232.6,319.3 232.7,319.3 228.3,338.7 241.2,338.7 250.4,301.6 232.5,301.6 222,320.7 	"/>
	<path d="M219.6,357.5l0.9,15.2h-7.8l7.9,12.8h13.7l-2.1-37.1h-22.6c0,0-18.5,37.1-18.4,37.1h14.5L219.6,357.5L219.6,357.5z"/>
	<path class="st0" d="M96.9,223.8c1.9,9.4,7.2,20.6,17.9,28.1c3.2,2.3,6.7,4.1,10.4,5.5c-2.3-3.9-5-7.9-7.7-11.9
		c-5.1-7.5-10.4-15.3-13.7-23.6c-3.5-8.6-4.4-17.7-2.9-26.8c-2.7,7.4-4.2,15.4-4.2,23.7C96.7,220.5,96.8,222.1,96.9,223.8"/>
	<path class="st0" d="M108.4,220c3.2,7.9,8.3,15.4,13.2,22.7c3.8,5.6,7.6,11.1,10.4,16.7c3.1,0.7,6.4,1.2,9.7,1.4
		c-3.4-4.9-6.4-10.4-8.9-16.8c-9.9-24.6-8.5-54.9,3.8-72.5c6.3-9.1,13.9-15.2,23.6-20.5c8.4-4.6,13.6-5.9,19-9.1
		c5.8-3.5,8.9-9.2,5.1-22.2c-1.1-3.8-1.3-6.8-1.1-9.1c-1.3,2.6-2.4,5.5-2.8,9l0,0c-0.6,3.7-0.9,7.7-2.4,11.8
		c-5.1,13.4-30,20.9-33.2,21.9c-9.4,2.9-17,7.2-22.9,12.4C104.9,180.8,101.8,203.5,108.4,220"/>
	<path class="st0" d="M212,98.6c0.3,0.8,0.4,1.7,0.6,2.5c0.6,4.7-0.8,8.5-6.5,9.4c-5.9,1-7.9-4.2-8.4-8.4c0-1.5,0.1-2.6,0.2-3.5
		c-1,0-2,0-3,0.1c-1.9,1.1-4.4,2.8-6.8,5.2c-1.2,2.5-2.6,6.1-0.4,14.3c3.9,14.5,2.2,23.3-9.4,28.3c-14.9,6.4-24.4,10.2-37.1,26.2
		c-6.1,7.6-9.4,20.3-9.9,33c-0.5,12.4,2,25.6,6.4,36.4c2.9,7.2,6.3,13.5,10.3,18.9c4-0.2,8-0.7,12-1.6c-4.4-5.2-7-11.5-7.4-18.6
		c-1.5-23.6,11.2-33.5,30.7-49.1l8.7-7.3c34.9-29.6,24.7-59.7,28.5-85.5C217.7,98.7,214.9,98.7,212,98.6"/>
	<path class="st0" d="M226,99.1c-1.1,5.1-1.5,10.5-1.9,16c-1.4,22.4-0.7,47.8-29.1,73l-8.6,6.9c-19,15.2-29.8,24.7-29.1,45.4
		c0.2,6.8,3.1,12.8,7.9,17.5c5.3-1.6,10.6-3.8,15.6-6.7c24.7-14,40.2-34.9,46.1-61.8c3.8-17,3.7-30.8,3.6-41.9
		c0-5.6,0.7-16.6,0.7-16.6c0.8-6.9,1.9-16.7,10-29.4c0.3-0.4,0.5-0.8,0.8-1.2C237,99.8,231.6,99.4,226,99.1"/>
	<path class="st0" d="M234.3,171.1L234.3,171.1C234.3,171.1,234.3,171.1,234.3,171.1c-0.8,4.1-1,8.6-1.5,13.1
		c-0.2,1.7-0.5,3.4-0.7,5c-0.1,0.5-0.2,0.9-0.3,1.4c-6.2,28.3-22.3,50.3-48.3,65c-4.5,2.5-9,4.6-13.5,6.2c7.6,5,16.5,6.6,22.6,5.7
		c23.3-3.5,34.6-18.7,40.1-34.9c5.6-16.7,5-34.5,4.7-41.8c-0.9-24.6,18.1-33.7,18.1-33.7C240.8,156.2,235.9,162.6,234.3,171.1"/>
	<path class="st0" d="M218.8,261.9c-9.5,8-19.8,9.7-24.4,10.4c-9.2,1.4-20-0.8-29.6-8.3c-0.2-0.1-0.3-0.3-0.5-0.4
		c-4.1,1.1-8.2,1.8-12.3,2.2c9.4,10.1,21.8,15.8,38.3,16.9c0.1,0,0.1,0,0.2,0h0c11.3-4.4,21.1-11.8,28.6-21.1
		C219,261.7,218.9,261.8,218.8,261.9"/>
	<path class="st0" d="M132.1,278.8c0.2-5.2-1.3-10.3-3.7-15.4c-5.7-1.6-11.3-4.1-16.6-7.4c-3-1.8-5.7-4.6-8.2-7.3c0,0,0,0,0,0
		C109.8,261.5,119.8,272,132.1,278.8L132.1,278.8z"/>
	<path class="st0" d="M179.6,285.9c-9.3-2.1-17.2-5.4-24.2-10.7c-3.6-2.7-6.8-5.8-9.8-9.2c-3.8,0-7.5-0.4-11.2-1.1
		c2.1,5.3,3.1,10.7,2.4,16.4v0c8.7,4,18.3,6.2,28.5,6.2c4.9,0,9.7-0.5,14.3-1.5C179.7,285.9,179.6,285.9,179.6,285.9"/>
	<path class="st0" d="M259.4,117.2c-1.6,5.3-6.9,4.7-8.4,1.8c-2.4-4.6-1.5-8.1,1-10.5c2.5-2.4,6.6-3.7,10.7-5.5c0,0,0,0,0.1,0
		c-4.6-0.8-9.6-1.5-14.8-2.1c-0.1,0.1-0.1,0.2-0.2,0.2c-0.5,0.5-0.9,1.1-1.4,1.6c-8.3,12.4-9.3,21.7-10.1,28.8l-0.3,2.2
		c-0.5,3.7-0.4,8.4-0.4,13.9c0,0.7,0,1.5,0,2.3c-0.1,1.9-0.1,3.8-0.2,5.6c0,0,0.1,0,0.1,0c0.1-0.8,0.1-1.1,0.1-0.7
		c2.3-7.5,6.6-12,12.7-14.5c6.6-2.7,13-5.1,13.4-14.6c0.1-4,0.4-8,1.3-10c1.7-3.7,4.6-4.7,4.6-4.7
		C264.4,110.8,260.9,112.1,259.4,117.2"/>
	<path class="st1" d="M267.3,79.5c0.5-6.4,6.5-7.6,12.4-13.1c7.5-7.1-2.3-19-2.3-19c1.2,8-2.5,11-9.2,15.8c-2.1,1.5-3.7,3.6-3.9,6.3
		c-0.2,3-0.4,6.2-1.1,9.4C264.6,79,266,79.2,267.3,79.5"/>
	<path class="st2" d="M267.3,79.5c0.5-6.4,6.5-7.6,12.4-13.1c7.5-7.1-2.3-19-2.3-19c1.2,8-2.5,11-9.2,15.8c-2.1,1.5-3.7,3.6-3.9,6.3
		c-0.2,3-0.4,6.2-1.1,9.4C264.6,79,266,79.2,267.3,79.5z"/>
	<path class="st1" d="M246.7,68.4c-1.8,1.3-3.5,2.7-5.1,4.1c-1.1,1.1-2.2,2.1-3.2,3.2c6.6,0.6,13,1.3,19.2,2.2
		c3.9-7.2,5.8-15.3,3.5-29.2C261,48.7,260.5,58.1,246.7,68.4"/>
	<path class="st2" d="M246.7,68.4c-1.8,1.3-3.5,2.7-5.1,4.1c-1.1,1.1-2.2,2.1-3.2,3.2c6.6,0.6,13,1.3,19.2,2.2
		c3.9-7.2,5.8-15.3,3.5-29.2C261,48.7,260.5,58.1,246.7,68.4z"/>
	<path class="st1" d="M209.8,74.3c7.5,0.1,14.9,0.4,22.2,0.9c0.2-0.2,0.5-0.5,0.7-0.7c4.8-5.2,12.3-9.6,16.3-15.4
		c4-5.8,2.4-12.9,0.9-21.6c-2.6-14.9,3.7-17.6,3.7-17.6s-12.6,1.7-12.3,9c0.3,9.8,10.4,18.9-4.8,21.7c-16.6,3-27,12-29.2,23.8
		C208.2,74.3,209,74.3,209.8,74.3"/>
	<path class="st2" d="M209.8,74.3c7.5,0.1,14.9,0.4,22.2,0.9c0.2-0.2,0.5-0.5,0.7-0.7c4.8-5.2,12.3-9.6,16.3-15.4
		c4-5.8,2.4-12.9,0.9-21.6c-2.6-14.9,3.7-17.6,3.7-17.6s-12.6,1.7-12.3,9c0.3,9.8,10.4,18.9-4.8,21.7c-16.6,3-27,12-29.2,23.8
		C208.2,74.3,209,74.3,209.8,74.3z"/>
	<path class="st3" d="M209.8,78.2C140.1,77.5,82,95.5,80,118.3c-0.8,9.1,7.4,17.6,22,24.6c9,4.3,20.4,8,33.7,11
		c2.7-1.2,5.4-2.2,8.3-3.1c2.3-0.7,6.6-2.1,11.3-4.1c-19.5-2.8-35.3-7.2-45-12.5c-7.2-3.9-11-8.2-10.6-12.8
		c1.4-15.4,50.1-27.3,108.9-26.7c58.8,0.6,105.4,13.5,104,28.8c-0.4,4.2-4.3,8.1-10.9,11.6c-12.3,6.5-34,11.4-60.3,13.7
		c-0.9,1.2-1.7,2.6-2.4,4.2c12-4.5,25.8,2.2,25.8,2.2s0.9,0.4,1.6,0.8c17.5-3.1,32.5-7.6,43.8-12.9c13.3-6.3,21.4-14,22.1-22.2
		C334.2,98,279.4,78.9,209.8,78.2"/>
</g>
<g id="Layer_2">
</g>
</svg>
