<?xml version="1.0" encoding="utf-8"?>
<!-- Generator: Adobe Illustrator 20.0.0, SVG Export Plug-In . SVG Version: 6.00 Build 0)  -->
<svg version="1.1" id="Layer_1" xmlns="http://www.w3.org/2000/svg" xmlns:xlink="http://www.w3.org/1999/xlink" x="0px" y="0px"
	 width="400px" height="400px" viewBox="0 0 400 400" style="enable-background:new 0 0 400 400;" xml:space="preserve">
<style type="text/css">
	.st0{fill:#EEE1C6;}
	.st1{fill:#00471B;}
	.st2{fill:#FFFFFF;}
</style>
<g>
	<g>
		<path class="st0" d="M201,372.6c-80.4,0-145.8-65.4-145.8-145.8c0-39.3,15.5-76.2,43.6-103.9c0.2-0.2,0.5-0.4,0.7-0.6
			c-9.7-14.6-15.1-31.7-11-52.4c7.6-38.1,38.4-49.6,39.7-50.1c0.5-0.2,1-0.3,1.5-0.3c1.6,0,3.2,0.9,4,2.4c0.5,0.9,0.6,2,0.4,3
			c10.1-8.5,19.7-12.2,23.7-13.5c0.5-0.1,0.9-0.2,1.4-0.2c1.7,0,3.4,1,4.1,2.6c0.9,2.1,0.2,4.5-1.8,5.7
			c-9.2,5.5-17.2,13.1-23.2,21.7c7.3-1.7,12.1-1.9,13.8-1.9c0.6,0,0.9,0,0.9,0c2.2,0.1,4,1.9,4.2,4.1c0.2,2.2-1.2,4.2-3.4,4.8
			c-0.1,0-12.2,3.1-25.5,12.6c-2.5,7.7-3.8,15.7-3.8,23.8c0,15.4,4.9,31.3,13.5,43.4c2,2.8,3.9,5.3,6,7.5
			c-0.8-15.9,3.9-40.5,32.5-51.9c0.5-0.2,1.1-0.3,1.7-0.3c1.7,0,3.2,0.9,4,2.5c1.1,2.1,0.3,4.6-1.7,5.9l-0.2,0.1
			c-4.3,2.8-8,6.4-10.8,10.6c3-0.9,5.6-1.2,7.3-1.4l0.3,0c0.2,0,0.4,0,0.5,0c1.9,0,3.6,1.2,4.2,3c0.7,2-0.1,4.2-1.8,5.3
			c0,0-0.3,0.2-0.3,0.2c-9.1,5.3-14.2,11.4-15.1,18.2c-1,7.4,3.1,14.4,6,18.4c7.7-8.9,12.6-24,14-29.7c0.5-2,2.3-3.4,4.4-3.4
			c0.2,0,0.4,0,0.5,0c2.3,0.3,4,2.2,4,4.4c0.1,18.7-4.9,31.5-10,39.6c7.7,3.8,15.1,4.1,16.8,4.1c0.2,0,0.4,0,0.5,0
			c0.1,0,0.1,0,0.2,0c0,0,0.1,0,0.3,0c1.6,0,9.1-0.2,16.8-4.1c-5.1-8.2-10.1-21-10-39.6c0-2.3,1.7-4.2,4-4.4c0.2,0,0.4,0,0.5,0
			c2,0,3.9,1.4,4.4,3.4c1.4,5.7,6.4,20.8,14,29.7c3-4,7-11,6-18.4c-0.9-6.8-6-13-15.1-18.2c-0.1,0-0.3-0.2-0.3-0.2
			c-1.8-1.1-2.6-3.4-1.9-5.3c0.6-1.8,2.3-3,4.2-3c0.2,0,0.4,0,0.5,0l0.3,0c1.8,0.2,4.3,0.5,7.3,1.4c-2.8-4.2-6.5-7.8-10.8-10.6
			l-0.2-0.1c-2-1.2-2.7-3.8-1.7-5.9c0.8-1.6,2.4-2.5,4-2.5c0.6,0,1.1,0.1,1.7,0.3c28.5,11.4,33.2,36,32.5,51.9c2.1-2.2,4-4.7,6-7.5
			c8.6-12.2,13.5-28,13.5-43.4c0-8.1-1.3-16.1-3.8-23.8c-13.4-9.6-25.3-12.6-25.5-12.6c-2.2-0.5-3.6-2.6-3.4-4.8
			c0.2-2.2,2-4,4.2-4.1c0,0,0.3,0,0.9,0c1.7,0,6.6,0.2,13.8,1.9c-6.1-8.7-14.1-16.2-23.2-21.7c-2-1.2-2.7-3.6-1.8-5.7
			c0.7-1.6,2.4-2.6,4.1-2.6c0.5,0,0.9,0.1,1.4,0.2c4,1.3,13.6,5,23.7,13.5c-0.2-1-0.1-2,0.5-3c0.8-1.5,2.3-2.4,4-2.4
			c0.5,0,1,0.1,1.5,0.3c1.3,0.5,32.1,12,39.7,50.1c4.1,20.7-1.3,37.8-11,52.4c0.3,0.2,0.5,0.4,0.7,0.6
			c28.1,27.7,43.6,64.6,43.6,103.9C346.8,307.2,281.4,372.6,201,372.6z"/>
	</g>
	<g>
		<path class="st1" d="M300.1,126.1l-3.1,3.8c25,24.7,40.4,59,40.4,96.9c0,75.3-61.1,136.4-136.4,136.4
			c-75.3,0-136.4-61.1-136.4-136.4c0-37.9,15.5-72.2,40.4-96.9l-3.1-3.8c-26,25.7-42.2,61.3-42.2,100.7
			c0,77.9,63.4,141.3,141.3,141.3s141.3-63.4,141.3-141.3C342.3,187.4,326.2,151.8,300.1,126.1z M112.1,136.7
			c-22.9,22.9-37.6,55.3-37.6,90.1c0,8.1,0.8,15.9,2.2,23.6l38.1-10.3c6.3,41.6,42.3,73.5,85.6,73.5c43.5,0,79.5-32.2,85.7-74
			l39.1,10.8c1.4-7.6,2.2-15.5,2.2-23.6c0-34.9-14.5-66.8-37.4-89.7l3.4-3.6c24.1,23.8,39,56.8,39,93.3c0,72.5-59,131.4-131.4,131.4
			c-72.5,0-131.4-59-131.4-131.4c0-36.5,15-69.6,39.1-93.5L112.1,136.7z M92.9,70.9c7.2-36,36.8-46.7,36.8-46.7
			c-10.8,8-21.9,23.1-26.5,44.2c4.5-5.5,8.6-9.7,13.4-13c12-25.9,32.5-36.4,42.6-39.6c-13,7.9-23.9,19.6-30.6,33.1
			c15.1-5.4,24.2-4.9,24.2-4.9s-13.5,3.3-28.2,14.2c-2.9,8.3-4.5,17.3-4.5,26.6c0,16.4,5.3,33.2,14.4,46
			c5.1,7.2,10.1,12.2,16.2,16.8c-2-5.1-9.8-44.6,27.6-59.6l-0.3,0.2c-8.8,5.7-15.3,14.6-18,25.1c6.8-6.5,14-7.2,17.8-7.7
			c-0.1,0-0.1,0.1-0.2,0.1c-34.7,20-7.1,47.1-7.1,47.1c10.9-9.2,17.3-29.7,18.7-35.3c0.1,21.7-7.1,34.7-12,41
			c11.2,7.7,23.7,7.2,23.7,7.2h0h0c0,0,12.5,0.5,23.7-7.2c-4.9-6.3-12.1-19.3-12-41c1.4,5.6,7.8,26.1,18.7,35.3
			c0,0,27.6-27.1-7.1-47.1c-0.1,0-0.1-0.1-0.2-0.1c3.8,0.5,11,1.1,17.8,7.7c-2.6-10.5-9.1-19.4-18-25.1l-0.3-0.2
			c37.4,15,29.6,54.5,27.6,59.6c6.1-4.6,11.1-9.6,16.2-16.8c9.1-12.9,14.4-29.7,14.4-46c0-9.3-1.6-18.2-4.5-26.6
			c-14.7-10.9-28.2-14.2-28.2-14.2s9.1-0.5,24.2,4.9c-6.6-13.5-17.5-25.2-30.6-33.1c10.1,3.2,30.5,13.7,42.6,39.6
			c4.9,3.3,9,7.5,13.4,13c-4.6-21.2-15.6-36.2-26.5-44.2c0,0,29.6,10.7,36.8,46.7c8.4,41.9-25.1,68.1-52.2,90.6l20.6-8.4
			c1.4-0.6,2.4,0.8,2.1,2.4l-0.6,5.1c-0.3,2.8-2.4,17-10.2,21.3c-1.7,0.9-4.6,2-13.1,2.6l-15.5,1l2.6,8.7l-15.2,24.3l7.8-8.2
			l15.9,56.5l-43.6,35.9l13.6-61.7L201,265.7L180.7,241l13.6,61.7l-43.6-35.9l15.9-56.5l7.8,8.2l-15.2-24.3l2.6-8.7l-15.5-1
			c-8.6-0.6-11.5-1.7-13.1-2.6c-7.8-4.3-9.9-18.5-10.2-21.3l-0.6-5.1c-0.3-1.6,0.7-3,2.1-2.4l20.6,8.4C118,139,84.5,112.8,92.9,70.9
			z M288.3,116c0,0,17.1-27,5.4-42.1c-1.2-1.5-2.5-3-3.8-4.3C294.8,86.8,288.3,116,288.3,116z M113.7,116c0,0-6.4-29.2-1.7-46.4
			c-1.3,1.4-2.6,2.8-3.8,4.3C96.6,89,113.7,116,113.7,116z"/>
		<path class="st2" d="M156.1,311.3l0.9-1.4l0.1-0.1l-13-8.3l-0.1,0.1l-16.4,25.7l4,2.5l7.2-11.3l5,3.2l-7.2,11.3l4,2.5l13.9-21.7
			L156.1,311.3z M146.4,317.7l-5-3.2l4-6.3l5,3.2L146.4,317.7z M141.7,299.8l-23.4,19.9l-3.2-3.2l5.7-8.5l-8.4,5.8l-3.2-3.2
			l19.6-23.7l3.2,3.1l-7.9,10l10.8-7.2l1.1,1.1l-7.1,10.9l9.9-8.1L141.7,299.8z M118.6,271.4l-27.2,14.2l-2.2-4.2l27.2-14.2
			L118.6,271.4z M114.4,263.2l-29,10l-1.5-4.5l18.2-6.3l-8.4-0.3l6.5-5.4L81.9,263l-1.5-4.5l29-10l1.5,4.5l-6.5,5.4l8.4,0.3
			L114.4,263.2z M102.6,294.4l5.8,8.2l-4,2.9l-8.6-12l24.9-17.9l2.8,3.9L102.6,294.4z M173.9,316.8l-11,28.5l-3.1-1.2l-8.2-3.1
			l-3.3-1.3l11.1-28.4l4.4,1.7l-9.2,23.9l5.6,2.1l9.2-23.9L173.9,316.8z M299.7,296.2l2.7,2.1l-7.5,9.4l-2.1,2.6l-21.1-16.9
			l-2.7-2.2l9.6-12l2.7,2.2l4.6,3.6l-2.9,3.7l-3.4-2.7l-3.7,4.7l16.2,12.9l3.7-4.7l-3.5-2.8l2.9-3.7L299.7,296.2z M294.6,275.2
			l19.5,2.6l-2.3,4.4l-14.2-1.8l11.8,6.3l-2.2,4.2l-27.1-14.4l2.2-4.2l7.5,4l-5.6-7.6l2.4-4.4L294.6,275.2z M321.7,256.4l-4.4,14.8
			l-3.3-1l-4.9-1.5l1.4-4.5l3.5,1.1l1.7-5.7l-8.1-2.4l-3.1,10.2l-3.3-1l-13.1-3.9l1-3.2l3.5-11.5l3.3,1l4.8,1.5l-1.4,4.5l-3.5-1
			l-1.7,5.7l7,2.1l3.1-10.2l3.3,1l10.9,3.3L321.7,256.4z M266.4,294l19.7,23.3l-2.5,2.1l-6.7,5.6l-2.7,2.3l-19.5-23.5l3.6-3.1
			l16.5,19.6l4.6-3.8L262.7,297L266.4,294z M231.5,342.4l0.9,4.8l-14.5,2.8l-5.9-29.9l14.5-2.8l0.9,4.8l-9.8,1.9l1.4,7.2l9.8-1.9
			l0.9,4.7l-9.8,1.9l1.7,8.4L231.5,342.4z M209.1,346l0.1,4.9l-14.7,0.2l-0.5-30.5l14.7-0.2l0.1,4.9l-10,0.2l0.1,7.4l10-0.2l0.1,4.8
			l-10,0.2l0.1,8.6L209.1,346z M257.1,320.4l0.5-3l-4.7-8.6l-4.4-1.2l-10.6,5.7l14.5,26.8l10.6-5.7l1.3-4.5l-4.5-8.3L257.1,320.4z
			 M244.4,315.4l5.3-2.8l3.5,6.5l-5.3,2.8L244.4,315.4z M254.2,333.6l-4.1-7.5l5.3-2.8l4.1,7.5L254.2,333.6z M190.9,320l-7.9,11
			l3.6,19.3l-4.9-0.9l-2.7-14l-2.3,13.2l-4.7-0.8l5.3-30.2l4.7,0.8l-1.5,8.4l5.5-7.7L190.9,320z"/>
		<g>
			<path class="st2" d="M186.8,184.5c-2.2-1-6.4-2.9-10.5-4.8c-0.8-0.4-1.8,0.1-1.9,1c-0.3,1.8-0.3,4.6,2.2,6.5
				c4.6,3.6,8.6,1.6,10.7-0.5C187.9,186,187.7,184.9,186.8,184.5z"/>
			<path class="st2" d="M129.7,160.4c0,0,1.5,12.7,6.8,15.6c3.6,2,12.3,1.8,20,2.4C148,175.1,135.5,166.1,129.7,160.4L129.7,160.4z"
				/>
			<polygon class="st2" points="192.2,236.1 196.4,241.8 205.6,241.8 209.8,236.1 			"/>
			<path class="st2" d="M272.3,160.4c-5.9,5.7-18.3,14.7-26.8,18c7.6-0.6,16.4-0.4,20-2.4C270.8,173.1,272.3,160.4,272.3,160.4
				L272.3,160.4z"/>
			<path class="st2" d="M209.8,202.7l-4.1-13.4l-4.7,2.3l-4.7-2.3l-4.1,13.4c0,0-1.4,5.3-7.2,9l-2.5,11l6.1,8.3h6.5l-6-8.9l1-5.5
				c2.7,2.9,6.6,4.8,10.9,4.8c4.3,0,8.2-1.8,10.9-4.8l1,5.5l-6,8.9h6.5l6.1-8.3l-2.5-11C211.2,208,209.8,202.7,209.8,202.7z"/>
			<path class="st2" d="M225.7,179.6c-4.2,1.9-8.3,3.8-10.5,4.8c-0.9,0.4-1.1,1.6-0.4,2.2c2.1,2.1,6,4.1,10.7,0.5
				c2.5-1.9,2.5-4.7,2.2-6.5C227.5,179.8,226.5,179.2,225.7,179.6z"/>
		</g>
	</g>
</g>
</svg>
