<?xml version="1.0" encoding="UTF-8"?>
<!-- Generator: Adobe Illustrator 16.2.1, SVG Export Plug-In . SVG Version: 6.00 Build 0)  -->
<!DOCTYPE svg PUBLIC "-//W3C//DTD SVG 1.1//EN" "http://www.w3.org/Graphics/SVG/1.1/DTD/svg11.dtd">
<svg version="1.1" id="Layer_2_1_" xmlns="http://www.w3.org/2000/svg" xmlns:xlink="http://www.w3.org/1999/xlink" x="0px" y="0px" width="400px" height="400px" viewBox="0 0 400 400" enable-background="new 0 0 400 400" xml:space="preserve">
<g>
	<path fill="#B4975A" d="M363.494,172.653l0.996,0.403V154.48c0-2.917-0.506-5.824-1.503-8.647   c-1.005-2.844-2.459-5.531-4.319-7.996c-1.675-2.212-3.637-4.207-5.827-5.928c-1.941-1.524-4.045-2.819-6.263-3.849   c-1.442-0.94-4.272-2.303-11.898-5.327c-6.461-2.563-16.988-6.464-30.465-10.481c-12.371-3.692-28.249-7.754-45.901-10.723   c-0.001-0.004-0.001-0.007-0.004-0.01c-0.117-0.15-11.957-14.96-29.805-7.313c-0.605,0.261-1.197,0.547-1.791,0.841   c-2.669,1.305-4.977,2.434-9.5,1.222c-2.671-0.716-6.06-2.355-4.663-8.319c0.312-1.335,1.355-3.111,2.986-4.063   c1.128-0.658,2.355-0.803,3.652-0.425c2.396,0.697,3.392,1.991,3.047,3.951c-0.134,0.757-0.702,1.484-1.377,1.768   c-0.716,0.302-1.538,0.136-2.451-0.488c-0.856-0.582-2.024-0.366-2.613,0.493c-0.584,0.858-0.364,2.026,0.494,2.611   c1.979,1.348,4.119,1.65,6.027,0.849c1.843-0.777,3.264-2.573,3.62-4.577c0.26-1.463,0.614-6.378-5.694-8.219   c-2.287-0.664-4.575-0.395-6.6,0.791c-2.283,1.332-4.147,3.864-4.753,6.451c-0.019,0.074-0.026,0.144-0.043,0.215   c-0.786-1.079-1.504-1.871-1.902-2.272l-6.164-6.264l-6.17,6.267c-0.399,0.405-1.112,1.196-1.893,2.27   c-0.017-0.071-0.025-0.14-0.043-0.215c-0.604-2.587-2.472-5.12-4.754-6.451c-2.022-1.183-4.306-1.458-6.599-0.791   c-6.311,1.84-5.955,6.755-5.695,8.22c0.354,2.002,1.776,3.798,3.621,4.576c1.907,0.802,4.047,0.501,6.028-0.849   c0.856-0.585,1.075-1.753,0.491-2.611c-0.584-0.857-1.754-1.077-2.612-0.493c-0.915,0.622-1.738,0.787-2.449,0.488   c-0.677-0.284-1.244-1.011-1.378-1.765c-0.346-1.963,0.65-3.257,3.045-3.954c1.292-0.378,2.523-0.233,3.652,0.425   c1.631,0.952,2.676,2.728,2.988,4.063c1.393,5.964-1.994,7.603-4.666,8.319c-4.53,1.209-6.831,0.083-9.498-1.222   c-0.597-0.293-1.189-0.58-1.792-0.841c-17.844-7.645-29.69,7.163-29.806,7.313c-0.026,0.034-0.042,0.073-0.066,0.107   c-16.975,2.887-32.262,6.75-44.253,10.27c-23.008,6.75-41.513,15.172-42.29,15.529l-2.436,1.114l0.003,0.416   c-1.064,0.173-2.149,0.513-3.239,1.02c-3.939,1.831-7.852,3.736-11.636,5.666l-2.873,1.471v10.118c0,2.434,0.481,4.433,1.45,6.08   c0.192,0.338,0.405,0.66,0.632,0.967v11.173c-1.281,2.457-1.955,5.021-1.955,7.482c0,2.446,0.685,4.623,1.955,6.323v23.312   l0.246,0.678c0.187,0.525,3.896,10.439,14.929,14.465l-0.314,0.15c0,0,5.83,9.455,14.887,11.414l-1.732,0.717   c0,0,6.382,10.32,18.765,12.504l-1.826,0.893c0,0,7.98,8.598,20.392,10.189c13.146,40.975,51.604,70.723,96.889,70.723   c45.287,0,83.738-29.748,96.886-70.723c12.411-1.592,20.393-10.189,20.393-10.189l-1.825-0.893   c12.384-2.184,18.763-12.504,18.763-12.504l-1.729-0.717c9.057-1.959,14.885-11.414,14.885-11.414l0.585-0.773   c10.325-4.406,16.361-14.494,16.361-24.012v-11.903C365.101,178.276,364.423,175.33,363.494,172.653 M251.89,100.511   c-7.307-1.085-14.861-1.964-22.576-2.533c0.223-0.106,0.445-0.218,0.673-0.316C240.035,93.352,247.725,97.25,251.89,100.511    M171.578,97.662c0.236,0.101,0.468,0.22,0.7,0.33c-7.746,0.59-15.328,1.502-22.655,2.605   C153.799,97.342,161.57,93.373,171.578,97.662"/>
	<path fill="#002B5C" d="M354.908,164.723l5.439,2.197V154.48c0-2.453-0.425-4.892-1.263-7.265c-0.87-2.452-2.12-4.762-3.719-6.875   c-1.467-1.935-3.178-3.674-5.085-5.174c-1.776-1.396-3.706-2.567-5.743-3.485c-1.07-0.773-3.895-2.127-11.388-5.098   c-6.382-2.534-16.79-6.388-30.117-10.363c-21.957-6.549-55.006-14.295-89.442-14.787c-0.812-2.388-2.775-4.175-5.369-4.779   c-0.309-4.51-3.551-8.027-4.229-8.712l-3.214-3.266l-3.214,3.266c-0.673,0.685-3.917,4.202-4.222,8.712   c-2.588,0.601-4.547,2.378-5.364,4.754c-33.893,0.595-66.295,8.128-87.875,14.461c-22.987,6.748-41.735,15.323-41.735,15.323   l0.015,2.529c0,0-0.312-0.201-0.482-0.282c-0.624-0.313-1.323-0.474-2.083-0.474c-0.96,0-2.001,0.256-3.097,0.763   c-3.846,1.789-7.72,3.673-11.495,5.598l-0.618,0.317v7.586c0,1.673,0.293,2.988,0.897,4.013c0.328,0.57,0.725,1.049,1.185,1.435   v13.85c-1.264,2.102-1.955,4.364-1.955,6.404c0,2.039,0.687,3.68,1.955,4.694v24.219c0,0,3.628,10.072,15.15,12.75   c0.269,0.072,0.556,0.125,0.833,0.184c0.022,0.006,0.045,0.01,0.067,0.016c1.819,0.402,3.798,0.596,5.976,0.438h0.005   c-2.041,0.998-4.074,2.02-6.105,3.064c0.034,0.123,6.076,10.062,20.662,8.627c-2.426,1.15-4.847,2.318-7.255,3.529   c0.03,0.141,7.001,9.91,22.371,9.652c-3.545,1.785-5.683,2.928-5.668,2.926c0.006,0.057,6.929,6.754,18.569,7.572   c12.049,40.232,49.335,69.557,93.489,69.557c44.149,0,81.437-29.324,93.485-69.557c11.64-0.818,18.562-7.516,18.568-7.572   c0.015,0.002-2.122-1.141-5.667-2.926c15.368,0.258,22.341-9.512,22.371-9.652c-2.408-1.211-4.829-2.379-7.255-3.529   c14.588,1.436,20.628-8.504,20.66-8.627c-2.03-1.045-4.063-2.066-6.107-3.064c4.973,0.365,9.014-1.004,12.125-2.865   c7.768-4.209,11.996-12.31,11.996-19.291v-11.906C360.96,173.537,354.908,164.723,354.908,164.723"/>
	<path fill="#E31837" d="M265.744,258.918c1.829,1.391,3.654,2.783,5.479,4.203c0.026-0.191-21.701,5.947-37.16-0.861   c-0.567-0.252-1.107-0.535-1.653-0.814c-3.831,13.875-16.554,24.094-31.628,24.094c-15.073,0-27.797-10.219-31.632-24.09   c-0.544,0.275-1.085,0.559-1.647,0.811c-15.461,6.809-37.193,0.67-37.161,0.861c1.821-1.42,3.651-2.812,5.482-4.203   c-7.554,1.094-14.481-0.268-19.323-1.777c13.615,33.16,46.212,56.52,84.283,56.52c38.065,0,70.664-23.359,84.281-56.52   C280.221,258.65,273.294,260.012,265.744,258.918"/>
	<path fill="#FFFFFF" d="M191.723,110.872c-1.656-0.834-2.923-2.253-3.604-3.992c-54.655,1.42-109.098,21.042-108.994,21.762   c-2.372,0.893-3.662,2.963-3.662,4.32v1.944c37.64-14.618,76.893-22.33,116.269-23.302L191.723,110.872z"/>
	<path fill="#FFFFFF" d="M325.848,130.02c0.124-0.776-57.079-21.734-112.407-23.128c-0.679,1.728-1.938,3.139-3.583,3.97v0.758   c40.54,1.131,80.961,9.398,119.642,24.683v-1.941C329.499,133.001,328.216,130.926,325.848,130.02"/>
	<path fill="#E31837" d="M206.775,100.972c-3.541-0.428-4.126,4.611-4.221,6.316h-1.13c0.02-4.811,2.307-6.739,2.307-9.959   c0-3.226-2.949-6.221-2.949-6.221s-2.951,2.995-2.951,6.221c0,3.22,2.29,5.149,2.304,9.959h-1.126   c-0.094-1.705-0.681-6.744-4.222-6.316c-3.827,0.461-3.411,5.762,0,6.18c0,0-0.645-2.355,1.248-2.355   c1.371,0,1.747,1.613,1.849,2.492h-1.62h-0.048v1.843h0.048h3.633c-0.518,1.774-1.695,2.309-1.695,2.309s0.505,1.013,1.61,1.149   c0,0,0,1.249,0.971,2.214c0.966-0.965,0.966-2.214,0.966-2.214c1.112-0.137,1.615-1.149,1.615-1.149s-1.184-0.535-1.7-2.309h3.639   h0.045v-1.843h-0.045h-1.621c0.1-0.878,0.474-2.492,1.851-2.492c1.887,0,1.244,2.355,1.244,2.355   C210.185,106.734,210.603,101.433,206.775,100.972"/>
	<path fill="#FFFFFF" d="M189.284,137.773v-11.814c0-1.645-0.302-3.073-0.901-4.286c-0.6-1.21-1.424-2.189-2.467-2.944   c-1.041-0.757-2.276-1.294-3.697-1.609c-1.425-0.312-2.955-0.419-4.594-0.309c-1.643,0.106-3.173,0.417-4.592,0.918   c-1.416,0.5-2.658,1.203-3.725,2.098c-1.06,0.895-1.891,1.989-2.493,3.278c-0.595,1.291-0.897,2.755-0.897,4.399v11.824   c-1.248,0.313-2.209,1.462-2.209,2.729c0,1.273,0.962,2.208,2.209,2.271v13.248c0,1.645,0.302,3.05,0.897,4.219   c0.602,1.175,1.433,2.123,2.493,2.85c1.067,0.728,2.309,1.219,3.725,1.495c1.419,0.279,2.95,0.36,4.592,0.252   c1.639-0.108,3.168-0.394,4.594-0.857c1.421-0.464,2.656-1.123,3.697-1.992c1.043-0.864,1.867-1.921,2.467-3.175   c0.6-1.249,0.901-2.695,0.901-4.342v-13.233c1.312-0.181,2.328-1.273,2.328-2.581S190.596,137.864,189.284,137.773    M182.754,156.044c0,0.869-0.157,1.597-0.464,2.2c-0.317,0.595-0.715,1.094-1.2,1.493c-0.491,0.393-1.035,0.695-1.635,0.9   c-0.595,0.214-1.209,0.336-1.829,0.379c-0.625,0.04-1.248-0.001-1.865-0.133c-0.618-0.123-1.176-0.355-1.663-0.686   c-0.488-0.331-0.888-0.773-1.195-1.334c-0.312-0.555-0.468-1.267-0.468-2.134v-29.555c0-0.864,0.156-1.603,0.468-2.21   c0.307-0.604,0.707-1.115,1.195-1.519c0.487-0.401,1.045-0.717,1.663-0.933c0.617-0.215,1.24-0.345,1.865-0.387   c0.62-0.042,1.234,0.003,1.829,0.142c0.6,0.135,1.144,0.376,1.635,0.715c0.485,0.343,0.883,0.793,1.2,1.361   c0.307,0.571,0.464,1.284,0.464,2.146V156.044z"/>
	<path fill="#FFFFFF" d="M64.094,169.61c0,0.124-0.029,0.16-0.096,0.101c-0.061-0.059-0.114-0.121-0.155-0.194   c-0.179-0.52-7.95-26.334-8.353-27.5c-0.418-1.19-0.62-1.834-0.62-1.917c-0.12-0.379-0.311-0.631-0.555-0.747   c-0.251-0.13-0.624-0.076-1.118,0.153c-2.331,1.084-4.652,2.194-6.963,3.333v2.142c0,0.733,0.097,1.277,0.304,1.631   c0.204,0.353,0.45,0.588,0.739,0.708c0.283,0.163,0.63,0.231,1.043,0.2v19.712c-1.12,0.758-1.965,2.208-1.965,3.45   c0,1.242,0.845,1.855,1.965,1.534v27.79c1.809-0.873,3.619-1.728,5.437-2.574v-34.858c0-0.256,0.02-0.377,0.058-0.354   c0.044,0.025,0.084,0.071,0.128,0.14c0,0.04,0.203,0.652,0.617,1.819c0.404,1.142,8.003,26.513,8.097,26.719   c0.204,0.643,0.426,1.155,0.655,1.531c0.229,0.379,0.614,0.45,1.155,0.225c1.216-0.515,2.425-1.021,3.641-1.521   c0.501-0.201,0.879-0.52,1.134-0.979c0.252-0.445,0.38-0.879,0.38-1.319v-26.121c1.028-0.717,1.783-1.984,1.783-3.142   c0-1.163-0.755-1.824-1.783-1.714v-19.317c0.042-0.406,0.111-0.719,0.217-0.932c0.106-0.213,0.243-0.443,0.41-0.685   c0.335-0.392,0.672-0.896,1.009-1.502c0.338-0.612,0.504-1.282,0.504-2.016v-1.879c-2.563,1.033-5.124,2.105-7.666,3.203V169.61z"/>
	<path fill="#FFFFFF" d="M321.957,170.073c0,0.135-0.035,0.137-0.099,0.031c-0.065-0.112-0.117-0.219-0.156-0.318   c-0.171-0.625-0.51-1.875-1.016-3.745c-0.51-1.873-1.095-4.039-1.753-6.498c-0.658-2.463-1.356-5.041-2.102-7.748   c-0.745-2.7-1.436-5.187-2.072-7.462c-0.641-2.272-1.178-4.167-1.602-5.698c-0.427-1.526-0.643-2.334-0.643-2.419   c-0.122-0.475-0.317-0.877-0.575-1.199c-0.257-0.325-0.639-0.567-1.15-0.739c-2.412-0.799-4.83-1.569-7.26-2.316v2.143   c0,0.733,0.104,1.359,0.319,1.876c0.216,0.523,0.474,0.958,0.774,1.312c0.299,0.394,0.663,0.746,1.096,1.049v15.337   c-1.17-0.146-2.06,0.614-2.06,1.854c0,1.243,0.89,2.548,2.06,3.132v22.502c1.886,0.594,3.771,1.202,5.644,1.827v-30.896   c0-0.259,0.024-0.359,0.066-0.304c0.043,0.058,0.086,0.136,0.128,0.237c0,0.049,0.212,0.813,0.641,2.323   c0.424,1.5,0.96,3.382,1.604,5.629c0.635,2.247,1.325,4.692,2.073,7.323c0.741,2.633,1.445,5.12,2.104,7.45   c0.658,2.331,1.219,4.321,1.688,5.979c0.466,1.665,0.74,2.615,0.827,2.863c0.208,0.812,0.438,1.499,0.664,2.059   c0.233,0.563,0.625,0.939,1.176,1.145c1.229,0.454,2.453,0.919,3.678,1.379c0.503,0.2,0.89,0.173,1.137-0.075   c0.256-0.251,0.379-0.587,0.379-1.021v-20.835c1.035,0.096,1.793-0.568,1.793-1.729c0-1.158-0.758-2.424-1.793-3.131v-14.944   c0.044-0.373,0.115-0.622,0.228-0.756c0.101-0.132,0.238-0.25,0.407-0.362c0.336-0.122,0.674-0.36,1.012-0.7   c0.335-0.342,0.507-0.881,0.507-1.617v-1.878c-2.566-0.996-5.142-1.963-7.724-2.893V170.073z"/>
	<path fill="#FFFFFF" d="M354.169,174.963c-0.779-1.719-1.741-3.395-2.894-5.024c-0.959-1.358-2.018-2.668-3.143-3.958   c0.053-0.179,0.091-0.375,0.091-0.594c0-1.403-1.09-3.046-2.434-3.657c-0.584-0.264-1.114-0.276-1.533-0.105   c-0.197-0.22-0.412-0.46-0.605-0.673c-1.158-1.323-2.136-2.537-2.925-3.66c-0.797-1.123-1.19-2.107-1.19-2.979v-10.288   c0.004-0.478,0.148-0.837,0.438-1.078c0.293-0.239,0.668-0.387,1.128-0.449c0.454-0.057,0.932-0.044,1.433,0.045   c0.495,0.092,0.972,0.237,1.425,0.444c0.418,0.187,0.889,0.453,1.405,0.792c0.513,0.346,0.991,0.735,1.425,1.167   c0.433,0.44,0.795,0.922,1.081,1.441c0.292,0.522,0.435,1.045,0.435,1.559v2.404c0,1.034,0.353,2.064,1.054,3.082   c0.699,1.02,1.562,1.772,2.594,2.265c0.923,0.441,1.843,0.888,2.766,1.34v-4.801c0.005-1.639-0.261-3.209-0.798-4.697   c-0.531-1.491-1.283-2.869-2.243-4.125c-0.972-1.26-2.099-2.402-3.398-3.421c-1.305-1.007-2.722-1.865-4.255-2.552   c-1.531-0.687-2.941-1.123-4.237-1.32c-1.29-0.183-2.42-0.082-3.377,0.315c-0.961,0.395-1.718,1.097-2.26,2.108   c-0.548,1.007-0.822,2.372-0.822,4.105v8.466c0,1.821,0.39,3.524,1.168,5.118c0.77,1.594,1.747,3.113,2.92,4.558   c1.139,1.415,2.369,2.793,3.687,4.16c-0.14,0.255-0.218,0.568-0.218,0.941c0,1.403,1.095,3.016,2.442,3.617   c0.75,0.331,1.411,0.272,1.855-0.082c1.061,1.252,1.947,2.523,2.663,3.799c0.764,1.366,1.139,2.765,1.145,4.192v12.156   c-0.006,0.564-0.157,0.994-0.464,1.303c-0.317,0.312-0.715,0.516-1.21,0.612c-0.493,0.099-1.034,0.106-1.614,0.042   c-0.58-0.068-1.141-0.227-1.678-0.47c-0.539-0.243-1.095-0.579-1.679-1.003c-0.582-0.43-1.114-0.902-1.588-1.414   c-0.481-0.51-0.872-1.046-1.189-1.618c-0.314-0.562-0.47-1.127-0.47-1.693v-2.786c0-0.992-0.279-1.875-0.842-2.657   c-0.567-0.783-1.412-1.411-2.535-1.879c-1.01-0.418-2.013-0.839-3.016-1.247v4.862c0,1.646,0.303,3.198,0.911,4.682   c0.609,1.479,1.423,2.832,2.448,4.062c1.025,1.227,2.223,2.331,3.601,3.313c1.371,0.981,2.827,1.816,4.358,2.502   c1.533,0.69,2.986,1.156,4.341,1.398c1.366,0.239,2.558,0.218,3.588-0.092c1.026-0.307,1.843-0.927,2.465-1.858   c0.611-0.931,0.921-2.214,0.921-3.857v-11.641C355.339,178.409,354.948,176.683,354.169,174.963"/>
	<path fill="#FFFFFF" d="M135.365,146.963c-0.258,2.295-0.521,4.551-0.788,6.757c-0.266,2.216-0.505,4.188-0.725,5.913   c-0.218,1.731-0.392,3.123-0.525,4.183c-0.13,1.064-0.223,1.598-0.264,1.61c-0.522-3.05-0.999-5.787-1.412-8.209   c-0.415-2.425-0.873-5.127-1.374-8.113c-0.508-2.985-1.019-5.931-1.55-8.818c-0.521-2.896-1.015-5.574-1.47-8.053   c-0.463-2.464-0.861-4.42-1.215-5.859c-0.087-0.452-0.49-0.76-1.208-0.899c-0.723-0.143-1.452-0.129-2.191,0.041   c-0.654,0.148-1.341,0.429-2.06,0.832c-0.721,0.411-1.146,0.913-1.271,1.503c-0.352,1.512-0.753,3.603-1.211,6.288   c-0.455,2.682-0.944,5.588-1.47,8.719c-0.516,3.135-1.028,6.315-1.524,9.554c-0.506,3.238-0.955,6.172-1.369,8.805   c-0.409,2.63-0.881,5.617-1.397,8.949c-0.042,0.014-0.14-0.479-0.294-1.475c-0.151-1-0.32-2.312-0.521-3.951   c-0.194-1.629-0.422-3.497-0.678-5.588c-0.264-2.094-0.521-4.221-0.782-6.399c-0.611-5.114-2.711-23.517-2.711-23.512   c-2.641,0.734-5.278,1.496-7.9,2.293v1.943c0,0.736,0.153,1.296,0.449,1.682c0.299,0.382,0.624,0.634,0.971,0.742   c0.21,0.113,0.408,0.25,0.578,0.411c0.171,0.169,0.304,0.411,0.39,0.735c0.62,5.213,1.193,10.017,1.725,14.456   c-0.92,0.641-1.565,1.74-1.565,2.802c0,1.267,0.924,2.037,2.135,1.88c0.009,0.088,0.02,0.182,0.03,0.275   c0.301,2.466,0.592,4.864,0.876,7.203c0.275,2.345,0.536,4.437,0.774,6.297c0.236,1.856,0.431,3.37,0.582,4.532   c0.152,1.168,0.231,1.8,0.231,1.882c0.042,0.334,0.181,0.634,0.417,0.889c0.238,0.258,0.575,0.332,1.005,0.21   c2.445-0.669,4.894-1.315,7.347-1.931c0.475-0.121,0.848-0.342,1.105-0.668c0.261-0.324,0.499-0.795,0.719-1.408   c1.85-10.975,3.701-21.937,5.548-32.881c1.811,10.108,3.619,20.231,5.436,30.371c0.218,0.517,0.456,0.873,0.721,1.082   c0.261,0.2,0.634,0.255,1.117,0.155c2.449-0.506,4.903-0.981,7.361-1.431c0.438-0.083,0.778-0.307,1.018-0.674   c0.241-0.368,0.386-0.73,0.431-1.083c0-0.091,0.078-0.751,0.236-1.99c0.146-1.236,0.343-2.835,0.589-4.804   c0.238-1.965,0.502-4.183,0.792-6.652c0.281-2.465,0.582-5.002,0.888-7.611c0.01-0.093,0.022-0.194,0.035-0.285   c1.226-0.415,2.164-1.604,2.164-2.869c0-1.051-0.655-1.849-1.592-2.073c0.545-4.678,1.131-9.756,1.77-15.261   c0.083-0.361,0.217-0.663,0.392-0.911c0.179-0.239,0.375-0.469,0.599-0.679c0.35-0.27,0.682-0.671,0.988-1.193   c0.305-0.527,0.464-1.155,0.464-1.89v-1.946c-2.687,0.426-5.364,0.889-8.038,1.381   C138.141,122.223,135.979,141.573,135.365,146.963"/>
	<path fill="#FFFFFF" d="M297.68,153.755c0-1.262-0.921-2.567-2.128-3.101c-0.302-1.797-0.609-3.592-0.904-5.341   c-0.41-2.449-0.776-4.658-1.101-6.625c-0.329-1.965-0.597-3.584-0.81-4.857c-0.217-1.27-0.331-1.988-0.331-2.161   c-0.085-0.803-0.43-1.576-1.035-2.317c-0.602-0.747-1.406-1.253-2.403-1.514c-2.901-0.757-5.814-1.471-8.734-2.147v1.489   c0,1.853,0.545,3.126,1.633,3.815c0.218,0.137,0.328,0.346,0.328,0.628c0,0.284-0.02,0.59-0.069,0.931   c0,0.042-0.095,0.556-0.292,1.548c-0.192,0.988-0.46,2.287-0.784,3.895c-0.326,1.607-0.686,3.435-1.076,5.484   c-0.191,0.992-0.392,1.992-0.586,3.004c-1.391-0.296-2.521,0.576-2.521,1.963c0,1.062,0.661,2.113,1.588,2.704   c-1.242,6.291-4.215,21.667-4.215,21.67c2.081,0.445,4.161,0.91,6.235,1.396c0,0,1.806-10.503,1.849-10.706   c0.088-0.844,0.478-1.18,1.177-1.013c2.478,0.607,4.954,1.233,7.417,1.894c0.392,0.098,0.715,0.272,0.976,0.515   c0.261,0.247,0.429,0.637,0.514,1.176c0,0.215,1.456,11.541,1.456,11.541c2.18,0.619,4.354,1.254,6.524,1.918   c0.002,0-2.677-16.018-4.008-23.956C297.153,155.371,297.68,154.707,297.68,153.755 M291.113,158.736   c-0.174,0.172-0.416,0.212-0.712,0.135c-2.037-0.541-4.076-1.062-6.119-1.561c-0.265-0.065-0.478-0.208-0.651-0.451   c-0.176-0.235-0.236-0.501-0.198-0.792c0-0.043,0.053-0.395,0.162-1.057c0.105-0.666,0.25-1.517,0.423-2.56   c0.173-1.036,0.371-2.209,0.589-3.52c0.221-1.304,0.457-2.638,0.718-3.999c0.647-3.598,1.297-7.194,1.952-10.792   c0.046,0.011,0.092,0.027,0.133,0.035c0.649,3.927,1.301,7.855,1.948,11.788c0.261,1.49,0.501,2.946,0.718,4.366   c0.222,1.415,0.406,2.686,0.586,3.812c0.166,1.128,0.326,2.053,0.452,2.786c0.132,0.721,0.195,1.104,0.195,1.146   C291.353,158.352,291.287,158.567,291.113,158.736"/>
	<path fill="#FFFFFF" d="M218.412,160.498c-0.215-0.141-0.408-0.266-0.563-0.386c-0.156-0.112-0.234-0.388-0.234-0.82V148.21   c0-1.597-0.241-3.062-0.731-4.377c-0.489-1.322-1.243-2.365-2.265-3.145c-0.485-0.492-0.535-0.927-0.134-1.299   c0.931-0.696,1.686-1.602,2.268-2.727c0.577-1.118,0.862-2.366,0.862-3.749v-5.123c0-1.597-0.2-3.063-0.598-4.404   c-0.401-1.333-1.032-2.497-1.897-3.481s-1.965-1.771-3.304-2.358c-1.336-0.582-2.952-0.894-4.865-0.932   c-4.577-0.077-9.156-0.07-13.73,0.03v1.883c0,0.905,0.16,1.591,0.498,2.062c0.329,0.465,0.673,0.809,1.031,1.014   c0.178,0.087,0.334,0.226,0.469,0.416c0.134,0.192,0.199,0.462,0.199,0.811v14.825c-1.18,0.263-2.067,1.302-2.067,2.521   c0,1.22,0.888,2.216,2.067,2.441v22.463c2.182-0.021,4.355-0.021,6.533-0.004v-21.35c0-0.607,0.29-0.91,0.869-0.91   c1.374,0.013,2.753,0.028,4.131,0.056c1.429,0.024,2.456,0.473,3.102,1.33c0.645,0.859,0.966,2.049,0.966,3.558v14.262   c0,0.951,0.276,1.724,0.84,2.327c0.554,0.598,1.402,0.917,2.559,0.963c1.847,0.072,3.689,0.155,5.532,0.259v-2.526   c0-0.782-0.171-1.339-0.498-1.68C219.112,161.021,218.772,160.732,218.412,160.498 M211.018,132.657   c0,1.512-0.321,2.715-0.966,3.604c-0.646,0.891-1.673,1.319-3.102,1.293c-1.4-0.023-2.796-0.038-4.2-0.046   c-0.18-0.005-0.357-0.069-0.534-0.2c-0.181-0.127-0.266-0.3-0.266-0.514v-13.876c0-0.606,0.355-0.904,1.068-0.903   c1.312,0.011,2.617,0.03,3.932,0.05c1.429,0.023,2.456,0.492,3.102,1.394c0.645,0.904,0.966,2.111,0.966,3.625V132.657z"/>
	<path fill="#FFFFFF" d="M239.228,148.149c-0.664,0.23-0.995,0.839-0.995,1.834c0,0.26,0.059,11.229-0.099,11.45   c-0.154,0.22-0.385,0.315-0.697,0.285c-1.944-0.205-3.896-0.395-5.844-0.566c-0.31-0.026-0.531-0.174-0.666-0.446   c-0.13-0.272-0.2-0.576-0.2-0.926c-0.021-11.883-0.04-23.771-0.063-35.654c0-0.477,0.058-0.793,0.166-0.96   c0.112-0.165,0.275-0.298,0.5-0.409c0.353-0.23,0.702-0.569,1.06-1.007c0.358-0.447,0.53-1.034,0.53-1.768v-1.944   c-3.695-0.346-7.399-0.624-11.107-0.844v1.941c0,0.738,0.174,1.351,0.533,1.85c0.355,0.497,0.709,0.887,1.062,1.166   c0.227,0.149,0.402,0.314,0.533,0.492c0.137,0.184,0.201,0.51,0.201,0.988v14.756c-1.197,0.143-2.098,1.118-2.098,2.351   c0,1.233,0.9,2.312,2.098,2.624v22.459c5.86,0.387,11.708,0.929,17.547,1.617c0.44,0.053,0.882,0.104,1.329,0.157   c0.354,0.043,0.696-0.059,1.058-0.319c0.354-0.263,0.533-0.652,0.533-1.168v-17.782c-0.93-0.115-1.861-0.226-2.792-0.337   C240.851,147.877,239.891,147.918,239.228,148.149"/>
	<path fill="#FFFFFF" d="M94.809,133.021c-0.102,0.007-0.213,0.02-0.319,0.056c-0.037,0.01-0.078,0.021-0.122,0.034v0.001   c-6.792,2.164-13.53,4.542-20.209,7.133v1.882c0,0.864,0.115,1.488,0.345,1.875c0.234,0.385,0.563,0.605,0.984,0.66   c0.212,0.047,0.399,0.144,0.568,0.3c0.168,0.15,0.253,0.419,0.253,0.811v14.69c-1.143,0.663-1.998,2.02-1.998,3.254   c0,1.229,0.855,1.931,1.998,1.723v22.456c0.549-0.205,1.1-0.416,1.647-0.613c2.892-1.085,5.793-2.129,8.703-3.131   c1.244-0.434,2.484-0.848,3.728-1.262c0.938-0.312,1.878-0.618,2.821-0.923c0.385-0.123,0.773-0.251,1.16-0.371   c0.043-0.016,0.084-0.024,0.122-0.04c0.154-0.046,0.307-0.132,0.467-0.239c0.224-0.149,0.423-0.326,0.601-0.549   c0.32-0.409,0.484-0.842,0.484-1.324v-6.672l-0.003,0.004c-0.003-2.35-0.003-4.699-0.003-7.047   c-0.902,0.282-1.802,0.568-2.699,0.852c-0.943,0.308-1.867,0.764-2.507,1.276c-0.642,0.514-0.96,1.268-0.96,2.265   c0,0.261,0.054,7.079-0.092,7.368c-0.153,0.284-0.37,0.485-0.672,0.58c-0.814,0.278-1.629,0.554-2.445,0.833   c-1.121,0.388-2.241,0.781-3.362,1.179c-0.508,0.181-0.763-0.029-0.763-0.638v-15.098c0-0.605,0.318-1.025,0.955-1.248   c2.546-0.912,5.106-1.788,7.668-2.631c0.639-0.212,0.958-0.615,0.958-1.223v-3.625c0-0.347-0.118-0.557-0.353-0.631   c-0.233-0.072-0.459-0.076-0.672-0.005c-2.54,0.841-5.075,1.705-7.601,2.602c-0.637,0.224-0.955,0.042-0.955-0.565v-13.546   c0-0.262,0.097-0.521,0.286-0.784c0.191-0.264,0.392-0.431,0.604-0.508c2.028-0.721,4.072-1.428,6.113-2.111   c0.09,0.028,0.174,0.074,0.239,0.152c0.146,0.185,0.092,7.046,0.092,7.305c0,0.994,0.319,1.533,0.96,1.626   c0.64,0.088,1.564-0.064,2.507-0.37c0.897-0.287,1.797-0.572,2.699-0.854v-7.049h0.006v-6.869c0-0.345-0.156-0.62-0.455-0.833   C95.383,133.033,95.12,132.984,94.809,133.021"/>
	<path fill="#FFFFFF" d="M268.717,123.26c-0.105-0.052-0.212-0.093-0.322-0.115c-0.041-0.008-0.083-0.018-0.12-0.023h-0.007   c-6.944-1.362-13.921-2.513-20.917-3.456v1.886c0,0.859,0.115,1.544,0.363,2.057c0.245,0.505,0.585,0.9,1.025,1.175   c0.22,0.16,0.417,0.361,0.594,0.607c0.175,0.235,0.268,0.552,0.268,0.94v14.693c-1.193,0.057-2.091,0.967-2.091,2.199   c0,1.231,0.897,2.378,2.091,2.775v22.455c0.571,0.087,1.147,0.167,1.718,0.253c3.014,0.436,6.024,0.92,9.033,1.435   c1.279,0.219,2.559,0.452,3.835,0.683c0.967,0.182,1.926,0.364,2.893,0.547c0.396,0.075,0.79,0.154,1.188,0.232   c0.043,0.007,0.086,0.016,0.127,0.024c0.157,0.029,0.313,0.027,0.47-0.002c0.229-0.027,0.435-0.102,0.619-0.236   c0.323-0.234,0.49-0.591,0.49-1.068v-6.674v-7.047c-0.921-0.187-1.843-0.366-2.759-0.542c-0.968-0.192-1.918-0.218-2.572-0.038   c-0.665,0.183-0.988,0.771-0.988,1.764c0,0.26,0.058,7.11-0.094,7.323c-0.154,0.211-0.383,0.289-0.693,0.23   c-0.839-0.152-1.674-0.298-2.516-0.443c-1.158-0.201-2.321-0.393-3.483-0.583c-0.525-0.088-0.791-0.431-0.791-1.037v-15.105   c0-0.601,0.333-0.854,0.991-0.745c2.641,0.429,5.277,0.892,7.91,1.378c0.657,0.123,0.985-0.111,0.985-0.72v-3.625   c0-0.347-0.121-0.621-0.361-0.816c-0.24-0.196-0.475-0.316-0.691-0.355c-2.613-0.491-5.225-0.942-7.843-1.368   c-0.658-0.107-0.991-0.463-0.991-1.069v-13.544c0-0.264,0.102-0.475,0.302-0.636c0.193-0.166,0.402-0.225,0.62-0.192   c2.106,0.347,4.211,0.707,6.318,1.087c0.09,0.076,0.174,0.162,0.243,0.271c0.151,0.266,0.094,7.097,0.094,7.351   c0,1.003,0.331,1.707,0.988,2.129c0.654,0.425,1.604,0.756,2.572,0.944c0.916,0.177,1.838,0.351,2.759,0.545v-7.052v-6.866   c0-0.347-0.149-0.7-0.456-1.066C269.299,123.572,269.035,123.386,268.717,123.26"/>
	<path fill="#FFFFFF" d="M147.671,270.926l4.618,4.449c0.794,0.764,1.791,1.785,1.567,3.205c-0.102,0.635-0.455,1.299-1.006,1.867   c-0.696,0.723-1.397,0.986-1.988,1.049c-1.329,0.15-2.271-0.678-3.232-1.605l-2.616-2.52l-2.716,2.818l-1.842-1.777   L147.671,270.926z M146.277,276.061l2.311,2.221c0.605,0.584,1.439,1.369,2.399,0.371c0.387-0.4,0.495-0.789,0.479-1.131   c-0.041-0.469-0.316-0.734-1.101-1.486l-2.107-2.033L146.277,276.061z"/>
	<polygon fill="#FFFFFF" points="159.962,281.715 168.254,286.691 167.293,288.291 161.232,284.658 160.029,286.66 165.893,290.174    164.947,291.748 159.087,288.234 157.807,290.365 164.123,294.154 163.171,295.74 154.626,290.617  "/>
	<polygon fill="#FFFFFF" points="174.434,289.393 176.901,290.217 174.215,298.238 179.675,300.064 179.07,301.875 171.142,299.225     "/>
	
		<rect x="187.885" y="293.394" transform="matrix(-0.9887 -0.1501 0.1501 -0.9887 331.3983 622.1916)" fill="#FFFFFF" width="2.602" height="10.383"/>
	<path fill="#FFFFFF" d="M210.647,300.781c-0.168,0.652-0.368,1.414-1.258,2.305c-0.808,0.799-2.149,1.723-4.791,1.836   c-3.69,0.154-6.325-1.662-6.479-5.287c-0.166-3.908,2.88-5.627,6.157-5.766c1.188-0.051,4.609,0.07,6.086,2.98l-2.836,0.475   c-0.299-0.432-1.155-1.629-3.171-1.547c-2.349,0.102-3.615,1.789-3.532,3.771c0.095,2.26,1.927,3.539,3.897,3.453   c2.248-0.092,2.882-1.445,3.195-2.09L210.647,300.781z"/>
	<path fill="#FFFFFF" d="M219.875,291.723l2.691-0.799l7.746,8.535l-2.792,0.824l-1.397-1.625l-5.102,1.508l-0.294,2.125   l-2.719,0.805L219.875,291.723z M222.357,294.314c-0.107-0.107-0.207-0.23-0.284-0.346c-0.082-0.115-0.148-0.232-0.202-0.369   c-0.006,0.139,0,0.26,0.005,0.383c-0.021,0.143-0.025,0.283-0.044,0.426l-0.527,3.758l3.492-1.031L222.357,294.314z"/>
	<path fill="#FFFFFF" d="M232.618,287.107l2.22-1.326l7.33,2.346c0.9,0.303,1.078,0.371,2.048,0.732   c-0.581-0.799-0.717-1.029-1.188-1.789l-2.727-4.557l2.135-1.273l5.324,8.908l-2.205,1.318l-7.422-2.381   c-0.79-0.264-1.115-0.377-1.985-0.715c0.471,0.645,0.562,0.799,0.98,1.471l2.934,4.908l-2.118,1.266L232.618,287.107z"/>
	<path fill="#FFFFFF" d="M253.971,280.844c1.292,0.486,2.628-0.271,3.641-1.254c0.455-0.441,1.81-1.896,0.931-2.805   c-0.523-0.537-1.164-0.162-1.638,0.154c-0.367,0.23-2.124,1.482-2.531,1.756c-0.812,0.539-2.858,1.889-4.497,0.199   c-0.359-0.367-0.624-0.852-0.73-1.342c-0.347-1.607,0.771-3.201,1.952-4.348c1.088-1.055,2.078-1.703,3.257-2.029   c1.161-0.324,2.023-0.092,2.403,0.012l-1.343,2.158c-0.179-0.053-0.593-0.188-1.252,0.023c-0.731,0.238-1.418,0.818-1.776,1.164   c-0.822,0.801-1.514,1.777-0.829,2.484c0.474,0.486,1.025,0.193,1.71-0.221c0.365-0.234,2.133-1.453,2.553-1.717   c1.021-0.682,2.797-1.787,4.383-0.15c2.324,2.398-0.448,5.246-1.386,6.156c-1.228,1.188-3.321,2.809-6.115,1.85L253.971,280.844z"/>
	<path fill="#FFFFFF" d="M188.808,231.094c0,0-37.186-12.447-21.031-52.05c0,0-39.317,1.629-93.204,23.373   c0,0-3.781,1.578-5.987,2.363c-2.207,0.791-5.752,2.201-10.833-0.24c0,0,49.292-25.77,112.618-31.745   c8.353-0.787,9.454,0.474,7.248,3.625C175.812,179,153.198,207.775,188.808,231.094"/>
	<path fill="#B4975A" d="M155.773,190.261c-31.867,4.142-63.026,15.241-63.026,15.241c5.304,9.438,19.695,5.475,19.695,5.475   c26.997-7.641,39.043-10.23,42.905-10.979C155.198,196.986,155.326,193.748,155.773,190.261"/>
	<path fill="#B4975A" d="M156.005,205.771c-5.317,1.029-27.628,5.611-50.131,14.039c0,0,7.092,8.078,21.166,4.088   c11.839-3.355,27.017-8.201,31.543-9.652C157.456,211.688,156.572,208.873,156.005,205.771"/>
	<path fill="#B4975A" d="M160.952,218.713c-4.807,1.551-28.85,9.34-38.999,13.24c0,0,5.822,7.807,22.63,1.189   c11.712-4.613,18.163-7.303,21.005-8.516C163.896,222.869,162.329,220.908,160.952,218.713"/>
	<path fill="#B4975A" d="M169.299,228.02c-4.199,1.828-19.8,8.643-28.825,12.99c0,0,11.356,5.578,25.641-3.246l8.886-5.828   C173.066,230.805,171.142,229.51,169.299,228.02"/>
	<path fill="#B4975A" d="M179.319,234.205c-2.855,1.787-14.693,9.225-20.471,13.494c0,0,9.811,4.053,19.873-5.418   c3.273-3.08,5.059-4.826,6.042-5.828C183.032,235.828,181.195,235.09,179.319,234.205"/>
	<path fill="#FFFFFF" d="M212.757,231.094c0,0,37.186-12.447,21.029-52.05c0,0,39.316,1.629,93.204,23.373   c0,0,3.781,1.578,5.987,2.363c2.204,0.791,5.749,2.201,10.833-0.24c0,0-49.293-25.77-112.619-31.745   c-8.352-0.787-9.454,0.474-7.248,3.625C225.752,179,248.366,207.775,212.757,231.094"/>
	<path fill="#B4975A" d="M245.791,190.261c31.864,4.142,63.026,15.241,63.026,15.241c-5.304,9.438-19.697,5.475-19.697,5.475   c-26.997-7.641-39.043-10.23-42.906-10.979C246.362,196.986,246.235,193.748,245.791,190.261"/>
	<path fill="#B4975A" d="M245.56,205.771c5.314,1.029,27.625,5.611,50.13,14.039c0,0-7.093,8.078-21.167,4.088   c-11.837-3.355-27.017-8.201-31.543-9.652C244.107,211.688,244.988,208.873,245.56,205.771"/>
	<path fill="#B4975A" d="M240.611,218.713c4.807,1.551,28.851,9.34,38.996,13.24c0,0-5.819,7.807-22.628,1.189   c-11.711-4.613-18.161-7.303-21.003-8.516C237.666,222.869,239.236,220.908,240.611,218.713"/>
	<path fill="#B4975A" d="M232.262,228.02c4.202,1.828,19.804,8.643,28.824,12.99c0,0-11.354,5.578-25.641-3.246l-8.882-5.828   C228.499,230.805,230.42,229.51,232.262,228.02"/>
	<path fill="#B4975A" d="M222.244,234.205c2.854,1.787,14.694,9.225,20.469,13.494c0,0-9.81,4.053-19.87-5.418   c-3.274-3.08-5.057-4.826-6.043-5.828C218.531,235.828,220.366,235.09,222.244,234.205"/>
	<path fill="#FFFFFF" d="M231.233,252.713c0,16.824-13.633,30.459-30.451,30.459c-16.826,0-30.454-13.635-30.454-30.459   c0-16.816,13.628-30.453,30.454-30.453C217.601,222.26,231.233,235.896,231.233,252.713"/>
	<path fill="#B4975A" d="M224.934,259.016c0,13.346-10.812,24.158-24.151,24.158c-13.342,0-24.149-10.812-24.149-24.158   c0-13.34,10.808-24.152,24.149-24.152C214.122,234.863,224.934,245.676,224.934,259.016"/>
	<path fill="#002B5C" d="M200.782,219.891c-18.098,0-32.82,14.723-32.82,32.822c0,18.102,14.723,32.826,32.82,32.826   c18.096,0,32.819-14.725,32.819-32.826C233.602,234.613,218.878,219.891,200.782,219.891 M228.358,247.418   c-2.025,8.135-7.594,14.77-14.798,18.434c0.577-4.014,2.322-7.982,4.141-12.105c2.635-5.982,5.512-12.52,4.253-19.451   C225.149,237.959,227.406,242.457,228.358,247.418 M186.374,228.617c3.671-2.201,7.878-3.584,12.377-3.906v44.156   c-2.245-0.156-4.422-0.578-6.5-1.225c-0.232-5.461-2.48-10.564-4.673-15.533C183.938,243.852,180.796,236.668,186.374,228.617    M192.009,271.814c2.167,0.6,4.424,0.973,6.742,1.113v7.793c-3.677-0.264-7.162-1.232-10.317-2.783   C189.939,276.506,191.55,274.43,192.009,271.814 M202.813,272.928c2.32-0.141,4.578-0.514,6.749-1.113   c0.453,2.615,2.068,4.691,3.57,6.119c-3.158,1.555-6.64,2.523-10.319,2.787V272.928z M209.319,267.596   c-2.088,0.666-4.269,1.105-6.506,1.27v-44.154c4.497,0.322,8.706,1.705,12.376,3.906c5.575,8.051,2.436,15.229-1.204,23.488   C211.802,257.059,209.562,262.152,209.319,267.596 M179.611,234.295c-1.261,6.936,1.616,13.469,4.254,19.451   c1.834,4.156,3.587,8.156,4.152,12.201c-7.245-3.613-12.756-10.248-14.807-18.551C174.163,242.443,176.422,237.951,179.611,234.295    M173.137,257.623c3.535,5.752,8.765,10.227,14.963,12.832c-0.022,0.184-0.038,0.371-0.066,0.555   c-0.314,2.104-2.055,3.799-3.273,4.754C178.757,271.574,174.462,265.109,173.137,257.623 M216.806,275.76   c-1.219-0.957-2.958-2.656-3.269-4.752c-0.031-0.186-0.049-0.369-0.065-0.553c6.188-2.604,11.414-7.068,14.947-12.809   C227.094,265.123,222.803,271.578,216.806,275.76"/>
	<path fill="#002B5C" d="M210.535,177.276c0,0-0.248,1.033-0.88,1.033c-0.626,0-4.566-1.889-6.458-2.914   c-0.809-0.438-1.942-1.096-2.338-1.326c0,0-1.686,0.888-2.495,1.326c-1.89,1.024-5.83,2.914-6.46,2.914   c-0.628,0-0.875-1.033-0.875-1.033s-10.339,6.242-10.339,23.492c0,12.836,6.683,18.662,6.683,18.662l0.909,3.629h11.369h2.258   h11.372l0.907-3.629c0,0,6.688-5.826,6.688-18.662C220.876,183.518,210.535,177.276,210.535,177.276"/>
	<path fill="#FFFFFF" d="M215.461,196.409c0-5.332-2.171-9.671-4.508-12.259c0,0-0.078,1.521-2.624-0.18   c-2.199-1.506-4.783-2.391-7.562-2.391c-2.788,0-5.38,0.887-7.584,2.402c-2.454,1.672-2.571,0.168-2.571,0.168   c-2.335,2.587-4.507,6.927-4.507,12.259c0,4.421,1.085,6.607,1.461,7.226c2.195,5.643,7.277,9.592,13.201,9.592   c5.856,0,10.89-3.869,13.123-9.41C214.021,203.633,215.461,201.508,215.461,196.409"/>
	<path fill="#002B5C" d="M206.304,208.447c-0.016-0.031-0.038-0.062-0.054-0.094c0,0-1.457-2.73,0.939-4.615   c0,0,5.414,1.133,5.542-6.046c0,0-0.128-0.758,0.625-2.266c0,0-1.385-1.262-4.407,1.009c-3.022,2.263-4.657,8.688-6.293,7.176   c-1.618-1.498-1.027-9.862-1.866-10.179h-0.031c-0.838,0.317-0.244,8.681-1.861,10.179c-1.638,1.512-3.275-4.913-6.296-7.176   c-3.025-2.271-4.409-1.009-4.409-1.009c0.758,1.508,0.627,2.266,0.627,2.266c0.131,7.179,5.542,6.046,5.542,6.046   c2.393,1.885,0.949,4.629,0.949,4.629c-0.015,0.029-0.035,0.055-0.048,0.084c-6.463-6.939-10.22-5.994-8.367,1.777   c1.822,7.631,8.815,40.424,9.928,48.025c-0.157,6.836-0.947,9.281-1.153,9.809l-0.706,1.404l0.778,1.562   c1.228,1.783,2.083,3.793,2.385,4.555l2.663,6.768l2.644-6.75c0.313-0.779,1.168-2.789,2.394-4.572l0.812-1.48l-0.739-1.482   c-0.207-0.514-0.973-2.867-1.149-9.459c0.921-6.82,8.065-40.613,9.916-48.379C216.518,202.459,212.767,201.512,206.304,208.447"/>
	<path fill="#E31837" d="M196.402,242.627c-2.323-12.201-4.151-21.225-5.627-27.771c-1.126-5.004,1.878-3.002,3.496,0.127   L196.402,242.627z"/>
	<path fill="#E31837" d="M205.164,242.627c2.325-12.201,4.152-21.225,5.626-27.771c1.125-5.004-1.878-3.002-3.499,0.127   L205.164,242.627z"/>
	<path fill="#E31837" d="M192.734,201.303c-0.459-0.125-0.729-0.6-0.598-1.057c0.05-0.179,0.161-0.321,0.297-0.431   c-0.301-0.343-0.661-0.685-1.087-0.992c0,0-0.758,3.526,2.394,3.151c0,0-0.108-0.312-0.344-0.762   C193.202,201.328,192.966,201.367,192.734,201.303"/>
	<path fill="#E31837" d="M210.216,198.823c-0.429,0.306-0.787,0.649-1.088,0.992c0.138,0.112,0.253,0.252,0.301,0.432   c0.126,0.457-0.145,0.931-0.604,1.056c-0.233,0.064-0.466,0.025-0.658-0.086c-0.233,0.445-0.343,0.758-0.343,0.758   C210.974,202.35,210.216,198.823,210.216,198.823"/>
	<path fill="#E31837" d="M202.259,247.152c1.003-18.85,2.503-32.197,2.503-33.861c0-0.598-0.069-1.359-0.314-2.199l-1.098,3.586   l-0.336-6.334c-0.551-0.711-1.303-1.422-2.25-2.107h-0.057c-0.944,0.686-1.606,1.395-2.161,2.105l-0.33,6.336l-1.099-3.588   c-0.248,0.842-0.318,1.604-0.318,2.201c0,1.664,1.5,15.012,2.5,33.861c1,18.844-1.338,22.348-1.338,22.348   c1.356,1.961,2.819,5.443,2.819,5.443s1.466-3.482,2.818-5.443C203.599,269.5,201.267,265.996,202.259,247.152"/>
</g>
</svg>