<?xml version="1.0" encoding="utf-8"?>
<!-- Generator: Adobe Illustrator 20.0.0, SVG Export Plug-In . SVG Version: 6.00 Build 0)  -->
<svg version="1.1" id="Layer_1" xmlns="http://www.w3.org/2000/svg" xmlns:xlink="http://www.w3.org/1999/xlink" x="0px" y="0px"
	 width="400px" height="400px" viewBox="0 0 400 400" style="enable-background:new 0 0 400 400;" xml:space="preserve">
<style type="text/css">
	.st0{fill:#002D62;}
	.st1{fill:#007AC1;}
	.st2{fill:#F05133;}
	.st3{fill:#FFFFFF;}
	.st4{fill:#FDBB30;}
</style>
<path class="st0" d="M342.7,92l-15.2,31.1l9.4,4.6l15.2-31.1L342.7,92z M293.9,168.3l44-90.3l18.7,9.1c5.2,2.5,7.3,8.7,4.8,13.9
	l-16.2,33.3c-2.1,4.3-5.7,6.1-9.8,4.1L324.3,183l-9.4-4.6l11.1-44.7l-3-1.5l-19.7,40.5L293.9,168.3z M320.2,70.9l-19.7-6.4
	c-5.5-1.8-11.3,1.2-13.1,6.7l-24.5,75.5c-1.8,5.5,1.2,11.3,6.7,13.1l19.7,6.4l3.2-9.9l-19.8-6.4l10.7-32.8l14.8,4.8l3.2-9.9
	l-14.8-4.8l10.7-32.8l19.8,6.4L320.2,70.9z M247.2,62.9l10.3,1.6L245,142.9l-10.2-1.6L247.2,62.9z M222.9,149.9l20.5,3.2
	c5.7,0.9,11-2.9,11.9-8.6l12.4-78.4c0.9-5.7-3-11-8.6-11.9L238.5,51L222.9,149.9z M184.1,149.2l10.4,0.2l0.5-29
	c0.2-8.8-0.4-26.7-0.8-35.1h0.3c2.7,22.4,7.7,43.2,10.9,64.3l9.8,0.2L217,49.6l-10.4-0.2l-0.5,29c-0.2,8.8,0.4,26.7,0.8,35.1h-0.3
	c-2.7-22.4-7.7-43.2-10.9-64.3l-9.8-0.2L184.1,149.2z M162.2,50.9l-10.3,1.6l14.1,88.7l-10.3,1.6l-14.1-88.7l-10.2,1.6l13.4,84.4
	c1.3,8.5,9.4,14.3,17.8,13c8.5-1.3,14.3-9.4,13-17.8L162.2,50.9z M110,166l9.9-3.2L106,120.1l9.9-3.2l13.9,42.7l9.9-3.2l-30.9-95.3
	l-9.9,3.2l13.9,42.7l-9.9,3.2l-14-42.7L79,70.7L110,166z M89.3,176.1l9.3-4.5L59.3,90.8l9.3-4.6L64.1,77l-28,13.6l4.5,9.3l9.3-4.6
	L89.3,176.1z"/>
<path class="st1" d="M297.5,230.5c23-5.1,45.5-8.5,67.3-10.3c-24.1,7.4-48.7,15.6-73.5,24.6C293.5,240.2,295.5,235.4,297.5,230.5
	 M54.4,351.9c19.2-17,40.9-33.2,64.7-48.1c4.5-2.3,8.9-4.5,13.4-6.7c1.8-0.9,5.5-2.7,10-4.8c3.1,3.4,6.2,6.8,9.5,10
	C118,318.2,85.3,334.8,54.4,351.9"/>
<path class="st2" d="M307,202.1c19.9-0.8,39.2-0.5,57.7,0.9c-20,2.8-40.3,6.1-61,9.9C304.9,209.4,306,205.8,307,202.1 M37.7,284.6
	c22.3-14.2,47-27.1,73.7-38.3c0.9,1.8,1.8,3.6,2.7,5.3c-1.4,2.9-2.9,5.9-4.3,8.8C85,268.1,60.9,276.1,37.7,284.6"/>
<path class="st3" d="M180.9,274.1l3.3-1.5l8.3-6.7l1.9-5.1c1.2,2.5,1.9,3.4,3.1,5.8l2.7-1.2c0.1,2.7,0.1,5.2,0.1,7.7
	c-6,1.4-12.5,2.1-19.2,2.2L180.9,274.1z M204.9,263.3c3.5-1.5,6.9-3,10.4-4.5l1.6-1.7c0.7,0.1,1.5,0.1,2.4,0.1
	c1.3-0.2,3-0.7,4.8-1.3c-1.2,4.2-1.9,7.9-2.2,11.1c-4.9,1.7-10.4,3.4-16.7,5C205.1,269.1,205,266.3,204.9,263.3 M201.2,170.3
	c37.6,0,67.1,8.8,100.4,25.4c-16.3,61.4-46.1,102.7-100.4,136.2c-20.4-12.6-37.7-26.7-52.2-42.7c6.4-3.1,13.7-6.5,20.1-9.5
	c2.6,0.2,5,0.4,7.4,0.4c-0.1,3.5-1.3,6.1-3.1,8c1,1.2,2.1,2.4,3.2,3.5c2.8-2.5,4.6-6.2,4.8-11.5c6.6-0.1,13-0.8,18.9-2.1
	c-0.3,9.7-1.7,16.8-4.4,19.6c-0.1,0.1-0.2,0.2-0.2,0.2c-0.7,0.8-1.3,1.3-1.8,1.8c2.6-0.5,5.3-1.1,7.8-1.8c3.3-6.9,3.4-18.9,3.4-21
	c6.1-1.5,11.6-3.1,16.6-4.8c0.2,5.6,2.5,11,6.8,13c1.9-1.4,3.8-2.8,5.7-4.3c-1.1,0.2-7.9,0.6-7.8-10.3c14.5-5.5,23.9-12,32.2-21.8
	c2.2-5,3.9-10.1,5.2-15.5c-9.9,15.6-19,24.7-36.8,31.9c0.5-3.2,1.4-6.9,2.9-11.4c5.2-2.2,10.6-4.8,13.9-6.1l7.8-8.2
	c2-7.6,3.9-15.1,5.8-22.7l-6.1,1.9l7.2-7.5c1.5-5.9,3-11.9,4.5-17.8c-3.6,0.5-7.2,1.1-10.8,1.6c0.6-3,1-5.9,1.3-8.8
	c-1.7-0.4-3.5-0.9-5.2-1.2c-0.4,3.3-1,6.9-2,11l-0.5,0.1c-3.4,0.6-6.8,1.7-9.8,4.2l1-2.9c-5.8,1-11.5,2.1-17.3,3.2l-5.7,6l0.2-0.5
	l1.9-4.8c-5.7,1.2-11.4,2.4-17.1,3.6c-1.2-7.7-2.4-14.6-3.4-20.2c-1.6,0.2-3.2,0.4-4.8,0.6c1,5.7,2.3,12.8,3.5,20.6l-4,0.9l-5.1,5.4
	c-3.6-3.8-10.9-1.4-15.5-0.2c-5,1.3-9.9,2.6-14.9,3.9c-1.5,0.4-3,0.9-4.4,1.4c-3.7-5.4-7.2-10.9-10.1-16.9l-0.5-1.1
	c-1.5,0.6-3,1.2-4.5,1.9l0.6,1.3c2.8,5.8,6.2,11.3,9.8,16.6c-5.3,2.4-10.3,5.7-14.6,10.4c0,0-7,7.3-7.8,8.2
	c-1.8,2.1-3.4,4.3-4.7,6.5c-7.3-14.7-13.1-30.7-17.5-48.2C134.1,179.1,163.6,170.3,201.2,170.3"/>
<path class="st2" d="M180.9,274.1l3.3-1.5l8.3-6.7l1.9-5.1c1.2,2.5,1.9,3.4,3.1,5.9l2.7-1.2c0.1,2.7,0.1,5.2,0.1,7.7
	c-6,1.4-12.5,2.1-19.2,2.2L180.9,274.1z M204.9,263.3c3.5-1.5,6.9-3,10.4-4.5l1.6-1.7c0.7,0.1,1.5,0.1,2.3,0.1
	c1.3-0.2,3-0.7,4.8-1.3c-1.2,4.2-1.9,7.9-2.2,11.1c-4.9,1.7-10.4,3.4-16.7,5C205.1,269.1,205,266.3,204.9,263.3 M139.3,199.1
	c16.6-6.8,33.6-11.5,51.1-14c1,5.7,2.3,12.8,3.5,20.6l-4,0.9l-5.1,5.4c-3.6-3.8-10.9-1.4-15.4-0.2c-5,1.3-9.9,2.6-14.9,3.9
	c-1.5,0.4-3,0.9-4.4,1.4c-3.7-5.4-7.2-10.9-10.1-16.8L139.3,199.1z M135.2,225.1c-2.7-6.8-5.1-13.8-7.1-21c2.2-1.1,4.5-2.1,6.8-3.1
	l0.6,1.3c2.8,5.8,6.2,11.3,9.8,16.6C141.7,220.5,138.3,222.5,135.2,225.1 M173.4,288.1c-2.1-2.5-4.2-5-6.2-7.5l1.9-0.9
	c2.6,0.2,5.1,0.4,7.4,0.4C176.3,283.6,175.2,286.2,173.4,288.1 M193.8,299.7c-2.7,0.5-5.5,0.9-8.3,1.1c-3.1-3-6.1-6.1-8.9-9.2
	c2.8-2.5,4.6-6.2,4.8-11.5c6.6-0.1,13-0.8,18.9-2.1c-0.3,9.7-1.7,16.8-4.4,19.6c-0.1,0.1-0.2,0.2-0.2,0.2
	C194.9,298.7,194.3,299.3,193.8,299.7 M228.4,285.2c-8,5.7-17.1,10-26.8,12.8c3.3-6.9,3.4-18.9,3.4-21c6.1-1.5,11.6-3.1,16.6-4.8
	C221.8,277.8,224.1,283.2,228.4,285.2 M258.4,248.7c-5.6,12.5-13.9,23.5-24.3,32.2c-1.1,0.2-7.9,0.6-7.8-10.3
	C240.7,265,250.1,258.5,258.4,248.7 M221.5,182.9c8,0,15.8,0.4,23.5,1.3c5.9,1.2,11.7,2.7,17.5,4.5c2.2,7.7,3.4,15.9,3.4,24.3
	c0,7-0.8,13.7-2.3,20.2c-9.9,15.6-19,24.7-36.8,31.9c0.5-3.2,1.4-6.9,2.9-11.4c5.2-2.2,10.6-4.8,13.9-6.1l7.8-8.2
	c2-7.6,3.9-15.1,5.8-22.7l-6.1,1.9l7.2-7.5c1.5-5.9,3-11.9,4.5-17.8c-3.6,0.5-7.2,1.1-10.8,1.6c0.6-3,1-5.9,1.3-8.8
	c-1.7-0.4-3.5-0.9-5.2-1.2c-0.4,3.3-1,6.9-2,11l-0.5,0.1c-3.4,0.6-6.8,1.7-9.8,4.2l1-2.9c-5.8,1-11.5,2.1-17.3,3.2l-5.7,6l0.2-0.5
	l1.9-4.8c-5.7,1.2-11.4,2.4-17.1,3.6c-1.2-7.7-2.4-14.6-3.4-20.2C203.8,183.4,212.6,182.9,221.5,182.9"/>
<path class="st4" d="M127.5,232.6c-4.7-10.2-8.6-20.9-11.8-31.9c27.9-13.1,56.7-20.2,87.4-21.1c14.3,0.1,28.2,1.6,41.9,4.5
	c-7.7-0.8-15.6-1.3-23.5-1.3c-8.9,0-17.7,0.5-26.3,1.6c-1.6,0.2-3.2,0.4-4.8,0.6c-17.5,2.5-34.5,7.2-51.1,14c-1.5,0.6-3,1.2-4.5,1.9
	c-2.3,1-4.5,2-6.8,3.1c2,7.2,4.4,14.2,7.1,21c-1.5,1.3-3,2.7-4.4,4.2L127.5,232.6z M202.9,321.7c-16-10.8-30.2-23.6-42.5-37.9
	l6.9-3.2c2,2.5,4.1,5.1,6.2,7.5c1,1.2,2.1,2.4,3.2,3.5c9.1,10,19.2,19.2,30.2,27.4C205.5,320,204.2,320.8,202.9,321.7"/>
<path class="st0" d="M180.9,274.1l0.2,1.2c6.7-0.1,13.2-0.8,19.2-2.2c0-2.5,0-5-0.1-7.7l-2.7,1.2c-1.2-2.4-1.8-3.4-3.1-5.8l-1.9,5.1
	l-8.3,6.7L180.9,274.1z M204.9,263.3c0.1,3,0.2,5.8,0.2,8.6c6.3-1.6,11.8-3.2,16.7-5c0.3-3.2,1-6.9,2.2-11.1
	c-1.8,0.6-3.4,1.1-4.8,1.3c-0.9,0.1-1.7,0.1-2.4-0.1l-1.6,1.7C211.8,260.3,208.4,261.8,204.9,263.3 M201.2,170.3
	c-37.6,0-67.1,8.8-100.5,25.4c4.4,17.5,10.1,33.5,17.5,48.2c1.4-2.3,2.9-4.5,4.7-6.5c0.8-0.9,7.8-8.2,7.8-8.2
	c4.3-4.7,9.2-8,14.6-10.4c-3.7-5.3-7-10.7-9.8-16.6l-0.6-1.3c1.5-0.6,3-1.3,4.5-1.9l0.5,1.1c2.9,6,6.4,11.5,10.1,16.9
	c1.4-0.5,2.9-0.9,4.4-1.4c5-1.3,9.9-2.6,14.9-3.9c4.6-1.2,11.9-3.6,15.4,0.2l5.1-5.4l4-0.9c-1.2-7.9-2.4-15-3.5-20.6
	c1.6-0.2,3.2-0.4,4.8-0.6c1,5.6,2.2,12.6,3.4,20.2c5.7-1.2,11.4-2.4,17.1-3.6l-1.9,4.8l-0.2,0.5l5.7-6c5.8-1.1,11.5-2.2,17.3-3.2
	l-0.9,2.9c3-2.5,6.4-3.6,9.8-4.2l0.5-0.1c1-4.1,1.6-7.7,2-11c1.7,0.4,3.5,0.8,5.2,1.2c-0.2,2.9-0.7,5.9-1.3,8.8
	c3.6-0.6,7.2-1.1,10.8-1.6c-1.5,5.9-3,11.9-4.5,17.8l-7.2,7.5l6.1-1.9c-2,7.5-3.9,15.1-5.8,22.7l-7.8,8.2c-3.3,1.4-8.7,4-13.9,6.1
	c-1.5,4.5-2.4,8.3-2.9,11.4c17.8-7.2,26.9-16.3,36.8-31.9c-1.3,5.4-3,10.5-5.2,15.5c-8.3,9.8-17.7,16.4-32.2,21.8
	c-0.1,11,6.8,10.5,7.8,10.3c-1.8,1.5-3.7,3-5.7,4.3c-4.3-2-6.6-7.4-6.8-13c-4.9,1.7-10.4,3.2-16.6,4.8c-0.1,2.1-0.1,14.1-3.4,21
	c-2.6,0.7-5.2,1.3-7.8,1.8c0.5-0.5,1.1-1.1,1.8-1.8c0-0.1,0.1-0.2,0.2-0.2c2.8-2.8,4.1-9.9,4.4-19.6c-5.9,1.3-12.3,1.9-18.9,2.1
	c-0.1,5.3-1.9,9-4.8,11.5c-1.1-1.2-2.1-2.3-3.2-3.5c1.8-1.9,2.9-4.5,3.1-8c-2.3-0.1-4.8-0.2-7.4-0.4c-6.4,3-13.7,6.5-20.1,9.5
	c14.5,16,31.8,30.1,52.2,42.7c54.3-33.5,84.1-74.8,100.4-136.2C268.3,179.1,238.8,170.3,201.2,170.3 M92.8,192.1
	c36-18.5,67.6-28.6,108.5-28.6c40.8,0,72.5,10.1,108.5,28.6C293,259.5,261,304.2,201.2,340c-22.5-13.5-42.3-29.3-58.6-47.7
	c-4.5,2.2-8.2,3.9-10,4.9c-5.6,2.8-11.3,5.6-16.9,8.5c-6.3,3.2-13.4,8.1-20.7,6.2c-8-3.5-2.7-13.2-0.3-18.7
	c6.2-14,12.7-27.8,19.4-41.6c-8.1-15.2-14.5-31.8-18.9-49.7L92.8,192.1z"/>
<path class="st3" d="M245.8,198.8c-3.5,0.6-6.6,1.7-9.2,4.3c-2.1,2.3-3.2,5-4.2,7.9c-2.8,8.6-5.5,17.3-8.3,25.9
	c-1.1,3.4-2.9,9.6,2.6,9.2c1.9-0.3,3.6-1.1,5.4-1.8c5.5-2.4,11.1-4.7,16.7-7c1.4-5.4,2.8-10.9,4.2-16.3c-2.9,0.9-5.8,1.8-8.8,2.8
	c-0.7,2.5-1.4,4.9-2.1,7.4c-2,0.7-4.1,1.5-6.1,2.2c2.6-8.8,5.1-17.5,7.7-26.3c1.8-0.4,3.6-0.8,5.4-1.2c-0.4,1.5-0.9,3.1-1.3,4.6
	c2.6-0.6,5.3-1.3,7.9-1.9c1-3.9,2-7.9,3-11.9C254.5,197.4,250.2,198.1,245.8,198.8 M220.9,203c-6.2,8.1-12.3,16.3-18.4,24.5
	c2.8-7.5,5.7-15,8.6-22.5c-6.4,1.3-12.9,2.7-19.2,4.2c-1.7,3.9-3.3,7.7-5,11.6c1.4-0.4,2.8-0.8,4.1-1.1c-5,12.2-10,24.4-14.8,36.7
	c-2,5-3.9,10-5.9,15c6.4-3,12.9-6,19.3-9c2.9-8.1,5.9-16.1,8.9-24.2c2.7,5.5,5.4,11,8.1,16.5c4.2-1.8,8.3-3.7,12.5-5.5
	c-2.5-5.8-5.1-11.6-7.7-17.3c4.6-7,9.3-14,14-20.9c1.3-0.3,2.7-0.6,4-0.9c1-3,2-6,3-9.1C228.6,201.6,224.7,202.3,220.9,203
	 M144.3,270.2c-4.5,2-8.9,4-13.4,6.1c6.5-15,13.2-29.9,20.2-44.7c3.9-1.2,7.9-2.5,11.8-3.7C156.4,242,150.2,256.1,144.3,270.2
	 M155,218.5c-8.5,2.3-16,5.9-22.1,12.6c-3.5,4-5.9,8.5-8.3,13.2c-6.8,13.8-13.3,27.7-19.5,41.7c-1.6,3.6-6.6,12.5-1.3,14.8
	c5.9,1.5,13.2-3.4,18.4-6c5.6-2.9,11.3-5.7,16.9-8.5c9.6-4.8,18.3-10.6,24.1-19.9c2.3-3.9,4.1-8.2,5.8-12.4
	c3.7-9.1,7.4-18.1,11.3-27.1c1.4-3.4,3.9-7.6,3.1-11.3c-1.6-5-10-1.9-13.6-1C164.9,215.9,159.9,217.2,155,218.5"/>
<path class="st1" d="M269.6,191.3c2.5,0.8,5,1.7,7.4,2.6C274.6,193,272.1,192.1,269.6,191.3 M269.2,190.7c2.6,0.9,5.1,1.7,7.6,2.7
	c6.2,2.3,11.6,4.6,16.2,6.8c-13.9,47.9-42.5,88-82.8,116.6l-3.3,2.3c-11.8-8.9-18.8-15.8-18.8-15.8l5.6-0.9
	c16.8-2.8,33.1-10.4,46.5-23c22.9-21.4,32.2-51.8,27.5-80.6c-0.1-0.7-0.2-1.3-0.4-2l-0.1-0.3l-0.1-0.3L267,196l-0.1-0.3l-0.1-0.3
	l-0.1-0.3l-0.1-0.3l-0.1-0.3l-0.1-0.3l-0.1-0.3l-0.1-0.4l-0.1-0.3l-0.1-0.3l-0.1-0.2l-0.1-0.3c-0.2-1-0.5-1.9-0.7-2.7
	C266.8,190,268,190.3,269.2,190.7"/>
</svg>
