<?xml version="1.0" encoding="utf-8"?>
<!-- Generator: Adobe Illustrator 20.0.0, SVG Export Plug-In . SVG Version: 6.00 Build 0)  -->
<svg version="1.1" id="Layer_2" xmlns="http://www.w3.org/2000/svg" xmlns:xlink="http://www.w3.org/1999/xlink" x="0px" y="0px"
	 width="400px" height="400px" viewBox="0 0 400 400" style="enable-background:new 0 0 400 400;" xml:space="preserve">
<style type="text/css">
	.st0{fill:#C2CCD2;}
	.st1{fill:#FFFFFF;}
	.st2{fill:#0B77BD;}
	.st3{fill-rule:evenodd;clip-rule:evenodd;fill:#FFFFFF;}
</style>
<path class="st0" d="M163.7,250.8c19.6-3,39.2-2.1,56.4,5.1l2.1-4.6c-27.8-8.9-62.7-8.5-88.6,5.8l7.4-17.2
	c-32.7,8.8-54.6,27.3-76.7,46.2c16.1-38.1,51.1-69.3,90.7-80.7l-2,6.3c34.7-11.3,72.8-13.5,103.6-8.4l-7.2-9.4l17.7,4.5l11.4-17
	l4.5,21l17.4,5.6c0,0-12.7,5.3-12.1,5.6c65.9,27.1,44.8,117.3-17.8,117.7c-31.7,0.3-56.3-28.4-55.2-58.3
	C199,262.5,182.9,257.4,163.7,250.8"/>
<path class="st0" d="M123.6,129.5c0-7.1,2-13.5,6.3-18.2c4.3-4.7,10.4-7.4,17.4-8c13.4-1.2,27-2,40.5-2.3v0l9.9-0.2v114.4l-0.2,9.8
	l-9.9-0.2c-1.7,0-15,0.5-17.4,0.6c-0.1,0-0.2,0-0.3,0l-10.7,1v-0.2l-6.7,0.3c-0.9,0-16.9,1.6-17.6,1.8l-11.3,1.8L123.6,129.5z
	 M151.3,130.6l0-0.2c0.1-2,1.2-4.6,3.2-6.1c2-1.5,4.1-1.9,6.1-2c0,0,1.8-0.1,3.7-0.2l5.7-0.4v35.8v5l-5,0.3c-3,0.2-4.8,0.3-8.1,0.5
	l-5.7,0.4V130.6z"/>
<path class="st0" d="M369.1,251.6c0,0-13.3-4.1-15.3-4.7c-0.1,0-0.1,0-0.2-0.1c0,0,0,0,0,0c-6-1.7-11.4-3.2-15.3-4.3l-7.1-1.8
	c-6.8-1.6-12.5-4.9-16.4-9.8c-3.9-4.9-5.8-11.2-5.8-18.1v-74.3c0-7.3,2.2-14,7.5-18.1c3.4-2.7,7.6-3.9,12-3.9c2.3,0,4.7,0.3,7.1,0.9
	c0.9,0.2,3.5,0.9,7.6,2.1c4,1.1,9.2,2.6,14.3,4.1c10.3,2.9,20.3,5.8,20.3,5.8l3.9,1.1V181l-32.4-10l-0.5-3.3c0,0-0.9-5.9-1.8-11.3
	l0,56.3v0.1l0,0.1c0,0,0,0,0,0.1c0,0.1,0.1,0.3,0.1,0.4c0,0-0.1,0.1,0.9,0.4c0,0,2.1,0.5,3.5,0.9c0.9-3.8,1.8-7.7,1.8-7.8l1.3-5.6
	l27.1,8.1l0.1,45.7L369.1,251.6z"/>
<path class="st0" d="M16.3,145.1c0-5.7,2.7-10.4,5.8-13.6c3.2-3.3,6.7-5.3,10-6.4c14.9-4.8,35.9-8,36.9-8.2l5.7-0.9
	c2.4-1.3,5-2.4,7.7-2.9c7.3-1.5,29.5-5.7,30.5-5.9l11.5-2.2l0,116.3l-0.2,8.7l-8.6,1c-0.7,0-16.8,2.8-17.6,3l-12,2.7v-18.8
	l-33.4,7.9v11.5l-0.1,7.6l-7.3,1.8c-0.1,0-2.6,0.7-5.2,1.5c-2.7,0.8-5.7,1.8-8,2.5c-1.4,0.4-2.6,0.8-2.7,0.9l-13.2,4.8V145.1z"/>
<path class="st0" d="M297.6,233.6c0,0,0,0-0.2,0c-0.2,0-0.4-0.1-0.6-0.1c-0.5-0.1-1.2-0.2-2-0.4c-1.6-0.3-3.7-0.6-5.7-1
	c-4-0.7-8.4-1.4-8.7-1.4l-4-0.4l-4.7-0.5V106.2l10.6,0.8c1.1,0.1,3.4,0.5,6.8,1c3.2,0.5,7,1.2,9.6,1.6c1.9,0.3,2.9,0.5,3.8,0.7
	l7.4,1.9l0,111.9l-0.1,12.1L297.6,233.6z"/>
<path class="st0" d="M260,228.1c-1.1-0.2-7.7-0.9-14.7-1.4c-6.6-0.5-13.9-1-18.6-1.3l-5.1-0.2c-7.1-0.3-13.4-2.5-17.9-7.1
	c-4.4-4.6-6.5-10.9-6.5-18v-77.4c0-6.2,1.8-11.9,6-15.9c5.3-5,11.8-5.5,15.8-5.5c1.1,0,2,0,2.7,0.1l0.7,0c0.3,0,0.5,0,0.8,0
	c1.4,0,3.1,0.1,5.6,0.2l2.9,0.1l-0.1,0.1c2.8,0.2,6.3,0.5,10.8,0.8c15.1,1.2,19.1,1.6,21.4,2.1c0.8,0.1,1.8,0.5,2.1,0.7l5.6,2.7
	l0,6.2v2.1v32l-32-4.1l-0.8-3.7c0,0-0.9-4.1-1.7-7.7c-0.4,0-0.9-0.1-1.4-0.1l0.1,14.7v3.2l2-0.1h0.1h0c0,0,0.1,0,0.1,0h0.1
	c0.9,0,2.1,0.1,4.1,0.3c1.9,0.2,4.3,0.4,6.8,0.6c5,0.4,10.4,1,13.1,1.3c0.8,0.1,1.2,0.1,1.9,0.3l7.7,1.7l-0.1,75.5L260,228.1z"/>
<path d="M126.8,129.5c-0.2-13,7.9-22,20.9-23c13.3-1.2,26.9-2,40.3-2.3l6.7-0.1v111l-0.1,6.7l-6.7-0.1h0c-1.7,0-16.9,0.5-18.1,0.7
	l-7.2,0.7v-43.4c-1.3,0.1-2.5,0.2-3.8,0.3l0,37l-0.1,6.2l-6.2,0.3c-1.2,0-16.8,1.6-17.9,1.8l-7.6,1.2L126.8,129.5z M158.8,155.7
	c1.3-0.1,2.5-0.2,3.8-0.3v-25.9c-0.9,0.1-1.5,0.1-1.4,0.1c-1.2,0.1-1.8,0.3-2,0.5c-0.2,0.2-0.3,0.2-0.4,0.8V155.7z"/>
<path d="M370.1,248.5c0,0-11.7-3.6-14.8-4.5c-0.3-0.1-0.5-0.1-0.6-0.2l-0.1,0c-6.6-1.9-12.5-3.5-16.5-4.6l0,0l-6.2-1.5
	c-12.6-2.9-19.8-12-19.7-24.8v-74.3c0-6.8,2-12.2,6.2-15.6c2.8-2.2,6.2-3.2,10-3.2c2,0,4.2,0.3,6.4,0.8c2.1,0.5,42,11.9,42.1,11.9
	l1.5,0.4v43.8l-26.3-8.1l-0.2-1.3c0,0-2-12.8-2.9-18.2c-1.6-0.5-2.8-0.8-3.6-1.1l-0.1,0l-0.7-0.2l-0.9-0.3h0l0,65.2l0,0.3
	c0,0.2,0.1,1.1,0.5,1.8c0.5,0.9,1.3,1.6,2.9,2.1c0,0,3.5,0.9,6.7,1.8c1-4.4,2.5-11,2.5-11l0.5-2.2l21.6,6.5l0.1,39.1L370.1,248.5z"
	/>
<path d="M19.5,145.1c0.2-9.5,8.3-15.3,13.6-17c14.5-4.6,35.5-7.9,36.5-8.1l6.3-1c2.2-1.3,4.7-2.3,7.3-2.9c7.2-1.5,29.4-5.7,30.4-5.9
	h0l7.7-1.4l0,112.4l-0.1,5.8l-5.8,0.7c-1.2,0.1-16.8,2.8-17.9,3.1l-8.1,1.8v-91c-0.1,0-0.1,0-0.2,0c-2.3,0.7-2.7,1.2-3.2,3.7v0.1
	c0,6.1,0,67.4,0,67.4v1.7l-31.7,7.5v-72.5c-0.2,0.1-0.4,0.1-0.5,0.1c-1.1,0.3-2.3,0.9-3.1,1.5c-0.8,0.7-1.1,1.2-1.1,2.2v83.7
	l-0.1,5.1l-4.9,1.2c-1.1,0.3-15.1,4.6-16.1,5l-8.9,3.3V145.1z"/>
<path d="M298.3,230.4c-1.1-0.3-16.6-2.8-17.7-2.9l-4-0.4l-1.9-0.2V109.7l7.1,0.6c1.8,0.2,18,2.9,19.7,3.3l5,1.3l0,109.3l-0.1,8.1
	L298.3,230.4z"/>
<path d="M260.6,224.9c-3.1-0.6-24.1-2.2-33.6-2.8l-5.2-0.2c-6.6-0.3-12-2.3-15.7-6.1c-3.7-3.8-5.6-9.3-5.6-15.8v-77.3
	c0-5.6,1.6-10.3,5-13.6c4.3-4.1,9.9-4.6,13.6-4.6c1,0,1.9,0,2.6,0.1l0.7,0c0.3,0,0.5,0,0.8,0c2.8,0,7.9,0.4,19,1.2
	c15.1,1.2,19.2,1.6,21,2c0.6,0.1,1.1,0.3,1.4,0.5l3.8,1.8l0,4.2v2.1v28.4l-26.2-3.4l-0.3-1.5c0,0-1.4-6.2-2.2-10
	c-0.5,0-1-0.1-1.4-0.1c-0.2,0-4.2-0.3-4.2-0.3c-0.2,0-0.4,0-0.6,0c-0.4,0-0.7,0-1,0.1c0,0.1,0,0.1,0,0.2c0,0,0,0.7,0,0.9l0,0.7
	l0.1,16.3v6.5l5.4-0.2c0.1,0,0.2,0,0.2,0h0c1.3,0,7,0.5,12.8,1c5.8,0.5,11.2,1.1,12.4,1.3l5.1,1.1l-0.1,69.1L260.6,224.9z
	 M232.6,196.3c0,0.1,0.1,0.9,0.3,1.3c0.2,0.3,0.5,0.6,2,0.7c0,0,0.7,0,1.6,0.1v-22c-1.3-0.1-2.9-0.2-2.9-0.2l-1.1-0.1L232.6,196.3z
	 M228.2,129.6C228.2,129.6,228.2,129.6,228.2,129.6C228.2,129.6,228.2,129.6,228.2,129.6"/>
<path class="st1" d="M188,108.8L188,108.8l0-1.1c-13.3,0.3-26.7,1-40,2.2c-11.3,1-17.7,8-17.6,19.5l0,92.7l3.5-0.6
	c1-0.2,17.4-1.8,18.3-1.9l1.8,0l1,0v-2.9v-40.3c2.7-0.2,8-0.6,11-0.8V219l3.3-0.4c0.9-0.1,16.1-0.7,18.3-0.7h0.1h0l0,0l2,0.1l1.1,0
	l0-3.1V107.7l-3,0.1L188,108.8z M166.1,125.8v33c-2.7,0.2-8,0.5-11,0.7v-28.8c0.3-2,1-4.2,5.7-4.6
	C160.8,126.1,163.7,125.9,166.1,125.8"/>
<path class="st1" d="M374.9,214.7l-15.3-4.6l-0.2,1.1c0,0-1.9,8.4-2.7,12.1c-6.1-1.8-8.8-2.6-10.3-2.9v0c-3.1-0.9-4.5-2.6-5.2-3.9
	c-0.8-1.5-0.9-3.1-0.9-3.5v-0.3V147c0-0.3,0.1-1.7,0.6-2.4c0.3-0.5,0.8-0.7,1.8-0.7c0.5,0,1.2,0.1,2,0.3l0.1,0h0.1l0.1,0
	c0.2,0,2.8,0.8,7.3,2.1c0.6,3.8,2.9,18.8,2.9,18.8l0.1,0.7l19.5,6v-36.1l-0.8-0.2c0,0-38.1-10.9-40.1-11.3c-2-0.5-3.9-0.8-5.6-0.8
	c-3.1,0-5.7,0.8-7.8,2.4c-3.3,2.6-4.9,7-4.9,12.8v74.3c-0.1,11.1,5.8,18.6,16.8,21.2l0.2,0.1l0.4,0c1.3,0.2,11.8,3.1,22.4,6.1
	l15.5,4.7l3.8,1.2L374.9,214.7z"/>
<path class="st1" d="M83.9,119.7c-4,0.8-7.6,2.9-10.4,5.7V123l-3.4,0.5c-0.9,0.1-21.8,3.4-35.9,8c-4.6,1.5-11,6.5-11.1,13.6v101.5
	l4-1.6c0.8-0.3,15.6-4.8,16.5-5.1l1.4-0.3l0.8-0.2v-86c0-4.4,4.1-6.3,6.8-7.2c0.9-0.3,3.1-0.7,5.1-1v72.3l24.5-5.8v-2.3
	c0-6.2,0-57.7,0-64v-0.4c0.6-4,2.3-5.9,6-6.9c0,0,0,0,0.1,0c0.6-0.1,2.6-0.4,4.5-0.7v2.2v88.6l3.7-0.9c0.9-0.2,17.4-3,18.4-3.1
	l1.7-0.1l1-0.1l0-2.7l0-108.1l-3.5,0.6C114.2,113.8,91.1,118.1,83.9,119.7"/>
<path class="st1" d="M281.5,113.8l-2.1-0.2l-1.1-0.1v110.1l1,0.1l1.7,0.2c0.9,0.1,17.3,2.8,18.2,3l3.7,0.9l0-3.8V117.5l-2.2-0.6
	C299.2,116.6,282.9,113.9,281.5,113.8"/>
<path class="st1" d="M238.2,157.4L238.2,157.4c-0.1,0-0.1,0-0.2,0l-1.8,0.1l-1,0v15.3l1,0.1c0,0,2.3,0.2,3.9,0.3v29.2
	c-2.4-0.2-5.4-0.4-5.5-0.4c-2.5-0.2-4-1.1-4.9-2.5c-0.7-1.2-0.8-2.6-0.8-3.2l0-48.8l-0.1-16.2c0,0,0-0.7,0-0.7v-0.2l0-0.8
	c0-0.9,0.2-1.9,0.8-2.6c0.6-0.7,1.8-1.2,3.8-1.2c0.3,0,0.5,0,0.8,0h0l0.1,0l0.3,0c0.5,0,3.3,0.2,8,0.6c0.7,3,2.4,10.9,2.4,10.9
	l0.2,0.7l19.6,2.5v-24.3v-2.1l0-1.2l0-0.6l-1.7-0.9c-0.8-0.3-1.6-0.6-21.2-2.1c-11.8-0.9-16.7-1.2-18.9-1.2c-0.2,0-0.4,0-0.6,0
	l-0.9,0c-0.7,0-1.5-0.1-2.5-0.1c-3.3,0-7.7,0.5-11,3.6c-2.7,2.5-3.9,6.3-3.9,11V200c-0.1,11.3,6.4,18,17.8,18.3h0.1h0.1l0.3,0h0
	c2.9,0,34.4,2.2,38.8,3l3.5,0.7l0.1-61.9l-2.3-0.5C260.9,159.3,240.4,157.4,238.2,157.4"/>
<path class="st2" d="M238.2,170.1c1,0.1,4.9,0.3,4.9,0.3v35.1c-2.9-0.2-5.8-0.4-8.6-0.6c-4.2-0.3-6.3-2.3-7.2-4
	c-1.1-1.9-1.2-3.9-1.2-4.6c0-0.8,0-29.5,0-48.8c0-9.3-0.1-16.3-0.1-16.8c0-0.1,0-0.5,0-1.1c0-1.2,0.3-3,1.6-4.5
	c1.4-1.6,3.8-2.4,7-2.2c0-0.1,4.9,0.3,10.6,0.8l2.6,11.7l14.2,1.9v-20.9v-2.1c-1.2-0.5-39.7-3.5-39.7-3.1l-0.7,0
	c-3.1-0.1-8.1-0.3-11.3,2.7c-2,1.9-3,4.9-3,8.9V200c0,10,5,15,15,15.4c0-0.3,34.7,2.1,39.7,3.1c0-1.2,0.1-54.7,0.1-55.9
	c-1.2-0.2-22.5-2.2-23.7-2.2V170.1z M152.2,130.6c0.2-2,1.3-6.9,8.4-7.4c2.8-0.2,5.6-0.4,8.4-0.5v39c-5.6,0.3-11.3,0.7-16.9,1.1
	V130.6z M133.4,129.5c0,0,0,87.9,0,89.2c1.2-0.2,17.6-1.9,18.8-1.9v-43.1c5.6-0.5,11.3-0.9,16.9-1.2v43.2c1.2-0.1,17.8-0.7,19-0.7
	V110.7c-13.3,0.3-26.6,1-39.8,2.2C138.4,113.9,133.4,119.6,133.4,129.5 M281.2,221c1.2,0.1,17.5,2.8,18.6,3.1V119.9
	c-1.1-0.3-17.5-3-18.6-3.1V221z M70.6,137.5v-11c0,0-21.4,3.4-35.5,7.9c-3.7,1.2-9,5.4-9,10.8v97.2c1.1-0.4,15.7-4.9,16.9-5.2v-83.7
	c0-5.9,4.8-8.8,8.9-10c2.3-0.7,9-1.7,9-1.7v72l18.6-4.4c0,0,0-64.3,0-64.6c0.6-5,3.3-8.4,8.3-9.5c4.7-0.8,8.2-1.3,8.2-1.3l0,5.6
	v84.8c1.1-0.3,17.7-3.1,18.8-3.2c0-20.9,0-104.5,0-104.5s-23,4.3-30.3,5.8C77.6,124,72.1,129.6,70.6,137.5 M371.9,216.9l-10.2-3
	l-3,13.2c-6.6-2-13.3-3.9-13.3-3.8c-4.1-1.1-6.1-3.6-7.1-5.4c-1.1-2.1-1.2-4.1-1.2-4.9c0-0.1,0-0.2,0-0.3h0c0-0.7,0-65.6,0-65.7
	c0-0.8,0.1-2.7,1.2-4.2c1-1.3,3-2.7,7-1.5c0-0.1,4.3,1.2,9.5,2.7l3,19.5l14,4.3V138c0,0-36.8-10.6-38.5-11
	c-9.7-2.4-14.7,1.6-14.7,11.6v74.3c0,10,5,16,14.7,18.4c0-0.2,12.3,3.2,23,6.2l15.6,4.7L371.9,216.9z"/>
<path class="st2" d="M238.2,170.1c1,0.1,4.9,0.3,4.9,0.3v35.1c-2.9-0.2-5.8-0.4-8.6-0.6c-4.2-0.3-6.3-2.3-7.3-4
	c-1.1-1.9-1.2-3.9-1.2-4.6c0-0.8,0-29.5,0-48.8c0-9.3-0.1-16.3-0.1-16.8c0-0.1,0-0.5,0-1.1c0-1.2,0.2-3,1.5-4.5
	c1.4-1.6,3.8-2.4,7-2.2c0-0.1,4.9,0.3,10.6,0.8l2.6,11.7l14.2,1.9v-20.9v-2.1c-1.2-0.5-39.7-3.5-39.7-3.1l-0.7,0
	c-3-0.1-8.1-0.3-11.3,2.7c-2,1.9-3,4.9-3,8.9V200c0,9.9,5,15,15,15.4c0-0.3,34.7,2.1,39.7,3.1c0-1.2,0.1-54.7,0.1-55.9
	c-1.2-0.2-22.5-2.2-23.7-2.2V170.1z M281.2,221c1.2,0.1,17.5,2.8,18.6,3.1V119.8c-1.1-0.3-17.5-3-18.6-3.1V221z M70.6,137.5v-11
	c0,0-21.4,3.4-35.5,7.9c-3.7,1.2-9,5.4-9,10.8v97.2c1.1-0.4,15.7-4.9,16.9-5.2v-83.7c0-5.8,4.8-8.8,8.9-10c2.3-0.7,9-1.7,9-1.7v72
	l18.6-4.4c0,0,0-64.3,0-64.6c0.6-5,3.3-8.3,8.3-9.5c4.7-0.8,8.2-1.3,8.2-1.3l0,5.6v84.8c1.1-0.3,17.7-3.1,18.8-3.2
	c0-20.9,0-104.5,0-104.5s-23.1,4.3-30.3,5.8C77.6,124,72.1,129.6,70.6,137.5"/>
<path d="M141.9,73.3c-0.5-0.6-1.2-1.1-2-1.3h0c-0.6-0.2-1.1-0.2-1.7-0.2c-0.9,0-1.7,0.1-2.4,0.2c-2,0.4-4,0.8-6,1.1
	c-1.5,0.3-2.8,0.8-3.8,1.4c-0.7,0.5-1.4,1.1-1.8,1.8c-0.5,0.9-0.8,1.9-0.8,2.9v19.4c0,1,0.2,2,0.8,2.8c0.5,0.6,1.2,1,2,1.2
	c0.5,0.1,1,0.1,1.4,0.1c0.9,0,1.8-0.2,2.6-0.3c2-0.4,4-0.8,6-1.1c1.5-0.3,2.8-0.7,3.8-1.3c0.8-0.5,1.4-1,1.8-1.7
	c0.6-0.9,0.8-1.9,0.8-2.9V76.1C142.7,75,142.5,74,141.9,73.3 M135.4,95.8c0,0,0,0.2-0.3,0.5v0h0c-0.2,0.2-0.6,0.4-1.2,0.5
	c-0.5,0.1-1.6,0.3-2.4,0.5c-0.2,0-0.3,0-0.4,0c-0.3,0-0.3-0.1-0.3-0.1c0,0,0-0.2-0.1-0.2v0V78.8v0c0,0,0-0.2,0.2-0.5
	c0.2-0.2,0.6-0.4,1.3-0.6c0.7-0.1,1.4-0.3,2.1-0.4c0.2,0,0.4-0.1,0.5-0.1c0.3,0,0.4,0.1,0.5,0.1c0.1,0,0.1,0.2,0.1,0.2V95.8z"/>
<path d="M233.1,69.5c-0.5-0.7-1.1-1.2-1.9-1.6c-1.4-0.7-2.9-0.9-3.9-0.9c-4-0.3-8-0.5-11.9-0.6l-1.2,0v29.4l1.1,0
	c1.7,0.1,3.5,0.1,5.2,0.2l1.2,0V71.5c0.8,0,1.6,0.1,2.4,0.1c2.8,0.3,2.4,1.2,2.5,1.5v23.1l1,0.1c1.7,0.1,3.4,0.2,5.1,0.4l1.2,0.1
	v-1.2c0-2.8,0-21.4,0-23.3C234,71.3,233.7,70.3,233.1,69.5"/>
<path d="M256.8,72.2c-0.5-0.7-1.1-1.3-1.8-1.7h0h0c-1.1-0.6-2.3-1-3.9-1.2c-1.6-0.3-9.7-1.2-11.9-1.4l-1.2-0.1l0,29.5l1,0.1
	c3.9,0.4,7.9,0.9,11.8,1.4c0.7,0.1,1.3,0.1,1.8,0.1c0.8,0,1.5-0.1,2.1-0.3c0.8-0.2,1.5-0.7,2-1.3c0.6-0.8,0.9-1.8,0.9-2.8V75.1
	C257.6,74.1,257.3,73.1,256.8,72.2 M250,93.3c-0.2,0.1-0.6,0.2-1.1,0.2c-0.3,0-0.7,0-0.9-0.1c-0.9-0.1-1.8-0.2-2.7-0.3V73.6
	c0.8,0.1,1.6,0.2,2.4,0.3c0.8,0.1,1.5,0.3,2,0.6c0.4,0.3,0.6,0.5,0.6,1.2c0,2.1,0,16.5,0,16.9C250.2,93.2,250.1,93.2,250,93.3"/>
<path d="M166.2,96.3c0-3.3,0-6.6,0-9.9c0-1-0.6-2-1.5-2.6v0c-0.1-0.1-0.2-0.2-0.4-0.2c0.8-0.6,1.7-1.5,1.7-3.1v-7.5
	c0-1-0.3-2-0.9-2.8c-0.5-0.6-1.2-1.1-2-1.3c-0.7-0.2-1.5-0.3-2.4-0.3c-0.5,0-1,0-1.6,0.1c-3.9,0.5-7.8,1-11.7,1.5l-1,0.1v29.5
	l1.3-0.2c1.7-0.3,3.4-0.5,5.1-0.7l1-0.1V87.3c0.9-0.1,1.7-0.2,2.6-0.3c0,0,0.1,0,0.1,0l0.1,0c0.3,0,0.5,0,0.7,0c0.7,0,1,0.1,1.2,0.2
	c0.2,0.1,0.2,0.3,0.2,0.7v10.2l1.3-0.1c1.7-0.2,3.4-0.4,5.1-0.5l1-0.1L166.2,96.3z M158.7,80.4L158.7,80.4c0,0.2,0,0.5-0.4,0.9l0,0
	c-0.4,0.3-1.1,0.6-2.1,0.8c-0.7,0.1-1.5,0.2-2.2,0.3v-8.2c0.8-0.1,1.7-0.2,2.5-0.3c0.4-0.1,0.8-0.1,1.1-0.1c0.7,0,1,0.1,1.1,0.2
	c0.1,0.1,0,0,0.1,0.3c0,0,0,0.1,0,0.1v0v4.8C158.7,79.8,158.7,80.3,158.7,80.4"/>
<path d="M186.7,89.6v-3.8l-1.2,0.1l-4.5,0.3l-1.7,5.2c-0.7,0-1.3,0.1-2,0.1V66.9l-1.2,0.1c-1.7,0.1-3.5,0.3-5.2,0.4l-1,0.1v29.5
	l1.2-0.1c4.8-0.4,9.7-0.7,14.5-0.9l1.1,0v-1.1c0-0.9,0-1.8,0-2.7L186.7,89.6L186.7,89.6z"/>
<path d="M209.1,66.2c-1.4,0-5.4-0.1-8.5-0.1c-1.6,0-2.9,0-3.5,0c-1.6,0-2.9,0.2-4,0.7c-0.8,0.3-1.5,0.9-2,1.5
	c-0.6,0.8-0.9,1.8-0.9,2.9c0,1.9,0,20.5,0,23.3v1.2l1.2,0c1.7,0,3.4-0.1,5.1-0.1l1.1,0V84.6c1.5,0,2.9,0,4.4,0h0.6v10.9l1.1,0
	c1.7,0,3.5,0,5.2,0.1l1.2,0V66.2L209.1,66.2z M202.7,79.7h-1.3c-1.2,0-2.4,0-3.7,0v-7.6l0-0.1c0-0.1,0-0.3,0.3-0.5
	c0.3-0.3,1-0.5,2.2-0.5c0.6,0,1.2,0,1.8,0c0.2,0,0.5,0,0.7,0V79.7z"/>
<path d="M279.6,76.4L279.6,76.4c-0.4-0.7-1-1.3-1.7-1.8c-1.3-0.9-2.8-1.2-3.9-1.5c-2-0.4-4-0.8-6-1.2c-0.8-0.1-1.5-0.2-2.2-0.2
	c-0.6,0-1.2,0.1-1.8,0.2c-0.8,0.2-1.5,0.6-2,1.2C261.3,74,261,75,261,76v19.4c0,1,0.2,2,0.8,2.9c0.4,0.7,1.1,1.3,1.8,1.7
	c1.3,0.8,2.8,1.1,3.9,1.3c2,0.4,4,0.7,5.9,1.2c0.9,0.2,1.7,0.3,2.5,0.3c0.5,0,1,0,1.4-0.1c0.8-0.2,1.6-0.6,2.1-1.2
	c0.6-0.8,0.9-1.7,0.9-2.8V79.3C280.3,78.3,280.1,77.3,279.6,76.4 M273.1,97.1C273.1,97.1,273.1,97.2,273.1,97.1c0,0.1,0,0.1,0,0.1h0
	c-0.1,0-0.2,0.1-0.5,0.1c-0.2,0-0.4,0-0.6-0.1c-0.5-0.1-1.5-0.3-2.4-0.4c-0.6-0.1-1-0.4-1.1-0.7c-0.1-0.2-0.1-0.4-0.1-0.4v0V77.4v0
	v0c0,0,0,0,0,0c0.1,0,0.2-0.1,0.5-0.1c0.2,0,0.4,0,0.6,0.1c0.7,0.1,1.4,0.3,2.1,0.4c0.6,0.1,1,0.3,1.2,0.5c0.4,0.3,0.3,0.6,0.3,0.6
	V97.1z"/>
<polygon class="st1" points="157.4,236.6 161.1,234.8 164.2,237.5 163.6,233.5 167.1,231.4 163.1,230.7 162.2,226.7 160.3,230.3
	156.2,229.9 159.1,232.9 "/>
<path d="M281.7,213.7c3.6-1.6,10.4-4.5,10.4-4.5l0.5-0.2l-0.5-0.2c0,0-10.9-3.6-13.2-4.3c-0.4-2.5-2.1-14.3-2.1-14.3l-0.1-0.6
	l-4,6.4c0,0-2.3,3.7-3.5,5.6c-2.6-0.7-13.8-3.5-13.8-3.5l-0.6-0.2l0.4,0.5c0,0,4.6,5.9,7.3,9.5c-11.3-2.5-24.4-3.8-39.3-3.8
	c-4.9,0-10,0.1-15.4,0.5c-20.4,1.2-40.5,5-59.7,11.9l2.2-6.6l-0.4,0.1c-30.1,9.4-63.1,37.7-77.7,65.6l0.3,0.2
	c20.6-19.3,48.5-34.8,73.5-40.4l-6.6,15.3l0.5-0.2c11.6-5.6,26.9-8.1,42.3-8.1c15.8,0,31.7,2.6,44,7.1l-4.7,10.3
	c-11.2-5.1-27.4-8.6-40.9-8.6c-2.4,0-4.7,0.1-6.9,0.3l0,0.4c15.9,4.5,32.3,9.6,45.4,20c-0.1,1.1-0.1,2.2-0.1,3.3
	c0,27.5,23.7,52.4,51.6,52.4c0.2,0,0.4,0,0.6,0c30.7-0.4,53.5-28.5,53.5-57.9C324.6,248.2,312.3,226,281.7,213.7"/>
<path class="st0" d="M264.9,264.1c-11.3,0-22.7-4.2-34.1-8.3c-3,6.3-4.5,13-4.5,19.8c0,3.6,0.4,7.2,1.3,10.9c0.9,0,1.9,0,2.8,0
	c22,0,45.4-6.1,64.2-17.3c-2.2-4-4.9-7.8-7.7-11.5C279.6,262.3,272.3,264.1,264.9,264.1"/>
<path class="st0" d="M229.6,290.7c-0.2,0-0.5,0-0.7,0c6.9,17.8,22.7,29.6,41.9,29.9c6.2-15.2,13-31.8,28.6-39.5
	c-0.8-2.7-1.8-5.4-2.9-8C276.4,284.8,252.9,290.7,229.6,290.7"/>
<path class="st0" d="M277.2,234.9c-6.8-2.6-11.2-3.4-11.6-3.5c-1.9,0.3-4.5,0.5-6.6,0.9c11.6,4.6,20.2,10.2,28.8,19.9
	c4.4-3.5,8.3-7.5,11-12.3c-7.9-7.7-22.8-17.1-60-20c15.7,3.7,30.1,8.8,38.5,14.7L277.2,234.9z"/>
<path class="st0" d="M173,229.7c2.3,0,4.8-0.1,7.4-0.1c26.4,0,67.1,3.1,82.9,21.9l-0.3,0.3c-5.5-3-16.4-8.1-23.2-8.1
	c-0.2,0-0.4,0-0.6,0c-2.3,2.6-4.4,5.4-6.3,8.4c10.6,3.9,21.3,7.8,31.8,7.8c6.7,0,13.3-1.5,19.8-5.5c-18.3-20-49.3-28.7-78.5-28.7
	C194.5,225.8,183.2,227.1,173,229.7"/>
<path class="st0" d="M297.9,267.1c5.1-3.5,9.5-7.1,13.5-11.8c-2.5-4.8-6.9-10.2-10-12.9c-2.9,5.1-6.6,9.4-11.2,13.1
	C293,259,295.8,263.1,297.9,267.1"/>
<path class="st0" d="M275.3,320.4c9.3-1.1,17.8-4.3,25-10.4c1.1-4.1,1.6-8.4,1.6-12.6c0-4.1-0.4-8.1-1.2-12.1
	C286.7,292,280.9,306.8,275.3,320.4"/>
<path class="st0" d="M305.9,300.1c0,1.4,0,2.8-0.1,4.2c5.4-7.4,8.4-13.8,10-23.2c-4,0.4-7.9,1-11.7,2.3
	C305.4,289,305.9,294.5,305.9,300.1"/>
<path class="st0" d="M299.9,270.9c1.2,2.8,2.3,5.7,3.3,8.6c4.4-1.4,8.6-2.2,13.1-2.4c0-0.3,0-0.6,0-1c0-6-0.9-10.7-2.9-16.4
	C309.2,264,304.8,267.6,299.9,270.9"/>
<path class="st0" d="M316.2,277.1c-4.5,0.3-8.8,1-13.1,2.4c-1-2.9-2-5.8-3.3-8.6c5-3.3,9.4-7,13.5-11.2c2,5.8,2.8,10.4,2.9,16.4
	C316.2,276.4,316.2,276.8,316.2,277.1"/>
<path class="st0" d="M316.2,277.1c-4.5,0.3-8.8,1-13.1,2.4c-1-2.9-2-5.8-3.3-8.6c5-3.3,9.4-7,13.5-11.2c2,5.8,2.8,10.4,2.9,16.4
	C316.2,276.4,316.2,276.8,316.2,277.1"/>
<path class="st0" d="M301.4,242.3c3.1,2.8,7.5,8.2,10,12.9c-4,4.7-8.4,8.3-13.5,11.8c-2.2-3.9-5-8.1-7.6-11.6
	C294.8,251.7,298.5,247.5,301.4,242.3"/>
<path class="st0" d="M301.4,242.3c3.1,2.8,7.5,8.2,10,12.9c-4,4.7-8.4,8.3-13.5,11.8c-2.2-3.9-5-8.1-7.6-11.6
	C294.8,251.7,298.5,247.5,301.4,242.3"/>
<path class="st0" d="M238.9,219.8c37.2,2.9,52.1,12.4,60,20c-2.7,4.9-6.6,8.8-11,12.3c-8.6-9.6-17.2-15.2-28.8-19.9
	c2.1-0.4,4.7-0.7,6.6-0.9c0.4,0.1,4.8,0.9,11.6,3.5l0.2-0.4C269,228.5,254.6,223.5,238.9,219.8"/>
<path class="st0" d="M238.9,219.8c37.2,2.9,52.1,12.4,60,20c-2.7,4.9-6.6,8.8-11,12.3c-8.6-9.6-17.2-15.2-28.8-19.9
	c2.1-0.4,4.7-0.7,6.6-0.9c0.4,0.1,4.8,0.9,11.6,3.5l0.2-0.4C269,228.5,254.6,223.5,238.9,219.8"/>
<path class="st0" d="M230.4,286.4c-0.9,0-1.9,0-2.8,0c-0.9-3.6-1.3-7.3-1.3-10.9c0-6.8,1.5-13.4,4.5-19.8
	c11.4,4.2,22.7,8.3,34.1,8.3c7.4,0,14.7-1.8,22.1-6.4c2.8,3.6,5.5,7.4,7.7,11.5C275.8,280.3,252.4,286.4,230.4,286.4"/>
<path class="st0" d="M230.4,286.4c-0.9,0-1.9,0-2.8,0c-0.9-3.6-1.3-7.3-1.3-10.9c0-6.8,1.5-13.4,4.5-19.8
	c11.4,4.2,22.7,8.3,34.1,8.3c7.4,0,14.7-1.8,22.1-6.4c2.8,3.6,5.5,7.4,7.7,11.5C275.8,280.3,252.4,286.4,230.4,286.4"/>
<path class="st0" d="M270.8,320.6c-19.2-0.3-35-12.1-41.9-29.9c0.2,0,0.5,0,0.7,0c23.3,0,46.7-5.9,66.9-17.7c1.1,2.6,2.1,5.3,2.9,8
	C283.8,288.8,276.9,305.4,270.8,320.6"/>
<path class="st0" d="M270.8,320.6c-19.2-0.3-35-12.1-41.9-29.9c0.2,0,0.5,0,0.7,0c23.3,0,46.7-5.9,66.9-17.7c1.1,2.6,2.1,5.3,2.9,8
	C283.8,288.8,276.9,305.4,270.8,320.6"/>
<path class="st0" d="M305.8,304.3c0.1-1.4,0.1-2.8,0.1-4.2c0-5.6-0.6-11.1-1.8-16.7c3.7-1.2,7.7-1.9,11.6-2.3
	C314.2,290.6,311.3,297,305.8,304.3"/>
<path class="st0" d="M305.8,304.3c0.1-1.4,0.1-2.8,0.1-4.2c0-5.6-0.6-11.1-1.8-16.7c3.7-1.2,7.7-1.9,11.6-2.3
	C314.2,290.6,311.3,297,305.8,304.3"/>
<path class="st0" d="M284.6,254.4c-6.5,4-13.2,5.5-19.8,5.5c-10.6,0-21.3-3.9-31.8-7.8c1.9-3,3.9-5.8,6.3-8.4c0.2,0,0.4,0,0.6,0
	c6.8,0,17.7,5,23.2,8.1l0.3-0.3c-15.8-18.8-56.5-21.9-82.9-21.9c-2.6,0-5.1,0-7.4,0.1c10.1-2.6,21.5-3.9,33.1-3.9
	C235.3,225.8,266.3,234.5,284.6,254.4"/>
<path class="st0" d="M284.6,254.4c-6.5,4-13.2,5.5-19.8,5.5c-10.6,0-21.3-3.9-31.8-7.8c1.9-3,3.9-5.8,6.3-8.4c0.2,0,0.4,0,0.6,0
	c6.8,0,17.7,5,23.2,8.1l0.3-0.3c-15.8-18.8-56.5-21.9-82.9-21.9c-2.6,0-5.1,0-7.4,0.1c10.1-2.6,21.5-3.9,33.1-3.9
	C235.3,225.8,266.3,234.5,284.6,254.4"/>
<path class="st0" d="M300.2,310c-7.2,6.1-15.7,9.3-25,10.4c5.6-13.6,11.4-28.4,25.4-35.1c0.7,4,1.2,8,1.2,12.1
	C301.8,301.6,301.3,305.9,300.2,310"/>
<path class="st0" d="M300.2,310c-7.2,6.1-15.7,9.3-25,10.4c5.6-13.6,11.4-28.4,25.4-35.1c0.7,4,1.2,8,1.2,12.1
	C301.8,301.6,301.3,305.9,300.2,310"/>
<polygon class="st0" points="263.5,217.7 271.6,214.9 277.7,221.8 277,212.7 284.9,209.3 276.3,206.5 275,197.5 270.5,204.8
	261.9,202.6 267.6,210 "/>
<polygon class="st1" points="220.5,224.2 226.1,221.4 230.8,225.6 229.9,219.4 235.3,216.3 229.1,215.2 227.8,209.1 224.9,214.7
	218.6,214 223,218.5 "/>
<polygon class="st1" points="157.4,236.6 161.1,234.8 164.1,237.5 163.6,233.5 167.1,231.4 163,230.7 162.2,226.7 160.3,230.3
	156.2,229.9 159,232.9 "/>
<path class="st2" d="M297.1,292.4l0-0.7l-5.2,8.7l1.5-7.7l-0.4-0.2c-7.6,9.3-10.5,15.9-12.9,24.1L280,317l0.4-0.1
	c8.6-3,13-6.4,14.8-7.8l0,0l0,0c1.3-2.8,1.9-8.4,1.9-15.2C297.1,293.3,297.1,292.9,297.1,292.4"/>
<path class="st2" d="M279.7,272.2c-8.3,1.7-18.1,2.7-27,2.7c-1.3,0-2.7,0-3.9-0.1l19.1-5.7l0-0.4c-12.6-0.6-22.4-0.8-34.7-6.6
	l-0.2-0.1l-0.1,0.2c-1.8,3.3-2.9,7.9-2.9,12.6c0,2.7,0.3,5.3,1.1,7.8l0,0.1l0.1,0c0,0,0.4,0,1.3,0c5.5,0,28.2-0.6,47.3-10.2
	L279.7,272.2z"/>
<path class="st2" d="M283.9,287.7c-9.6,7.2-16.9,13-31.1,15.6c13.2-6.8,22-11.6,30.3-20l-0.3-0.3c-14.7,8.6-33.9,12.2-47.4,12.8
	l-0.4,0l0.2,0.3c11.1,17.6,25.2,19.2,29.8,19.2h0c1,0,1.5-0.1,1.5-0.1l0.1,0l0.1-0.1c6-9.4,9.8-18.5,17.5-27.2L283.9,287.7z"/>
<path class="st3" d="M308.8,254.1c-1.3,1.4-2.5,2.6-3.7,3.7c-1.4-3-3-5.8-4.9-8.5c1-1.2,1.9-2.4,2.8-3.7
	C305.4,248.3,307.4,251.4,308.8,254.1 M313.8,272.8c-1.5,0.2-2.9,0.4-4.2,0.7c-0.3-2.2-0.7-4.4-1.3-6.5c1.5-1.2,2.9-2.5,4.3-3.9
	C313.5,266.3,313.8,269.3,313.8,272.8 M309.1,292.8l0-0.7c0.6-3.1,1-6.1,1.1-9.2c0.8-0.2,1.6-0.4,2.5-0.5
	C311.7,286.1,310.6,289.5,309.1,292.8 M274,229c-0.7-0.4-1.4-0.7-2.1-1c11.4,3.4,19.1,7.8,23.4,11.1c-0.7,1-1.4,1.9-2.2,2.8
	C287.8,236.5,281.4,232,274,229"/>
</svg>
