<?xml version="1.0" encoding="utf-8"?>
<!-- Generator: Adobe Illustrator 22.1.0, SVG Export Plug-In . SVG Version: 6.00 Build 0)  -->
<svg version="1.1" id="Layer_1" xmlns="http://www.w3.org/2000/svg" xmlns:xlink="http://www.w3.org/1999/xlink" x="0px" y="0px"
	 viewBox="0 0 648 648" style="enable-background:new 0 0 648 648;" xml:space="preserve">
<style type="text/css">
	.st0{fill:#FFFFFF;}
	.st1{fill:#006BB6;}
	.st2{fill:#ED174C;}
</style>
<g>
	<path class="st0" d="M612,324c0,159.1-128.9,288-288,288S36,483.1,36,324C36,164.9,164.9,36,324,36S612,164.9,612,324"/>
	<path class="st1" d="M601.4,324c0,153.2-124.2,277.4-277.4,277.4C170.8,601.4,46.6,477.2,46.6,324S170.8,46.6,324,46.6
		C477.2,46.6,601.4,170.8,601.4,324"/>
	<g>
		<polygon class="st0" points="89.4,371.3 95.1,389.4 114.3,389.4 98.8,400.7 104.4,418.5 89.4,407.6 74.2,418.5 79.9,400.7 
			64.3,389.4 83.5,389.4 		"/>
		<polygon class="st0" points="558.7,371.3 564.4,389.4 583.7,389.4 568.1,400.7 573.8,418.5 558.7,407.6 543.6,418.5 549.3,400.7 
			533.7,389.4 552.8,389.4 		"/>
		<polygon class="st0" points="156.8,468.3 162.5,486.3 181.7,486.3 166.1,497.7 171.8,515.5 156.8,504.6 141.6,515.5 147.3,497.7 
			131.7,486.3 150.9,486.3 		"/>
		<polygon class="st0" points="497.6,468.3 503.3,486.3 522.5,486.3 507,497.7 512.7,515.5 497.6,504.6 482.4,515.5 488.2,497.7 
			472.6,486.3 491.7,486.3 		"/>
		<polygon class="st0" points="261.9,531.4 267.5,549.5 286.8,549.5 271.2,560.8 276.9,578.6 261.9,567.7 246.7,578.6 252.4,560.8 
			236.8,549.5 256,549.5 		"/>
		<polygon class="st0" points="389.6,531.4 395.3,549.5 414.5,549.5 398.9,560.8 404.6,578.6 389.6,567.7 374.4,578.6 380.1,560.8 
			364.5,549.5 383.7,549.5 		"/>
	</g>
	<path class="st0" d="M532,325.3c0,114.9-93.1,208-208,208c-114.9,0-208-93.1-208-208c0-114.9,93.1-208,208-208
		C438.9,117.4,532,210.5,532,325.3"/>
	<path class="st1" d="M128.4,366.2c10.9,52.2,41.5,97.1,86.2,126.3c44.7,29.2,98,39.3,150.3,28.4c52.2-10.9,97.6-41.2,126.3-86.2
		c28.7-44.7,38.8-98.1,28.4-150.3c-10.4-52.3-41.5-97-86.2-126.3c-44.7-29.3-98.1-39.4-150.2-28.5c-52.2,10.9-97.1,41.5-126.4,86.2
		C127.6,260.6,117.5,313.9,128.4,366.2"/>
	<g>
		<path class="st0" d="M392,169.6c0.7,7.8-3,15.4-10.8,22.6c-37.5-27.5-73.2-41-108.2-41.2c-7.5,0-14.8,0.6-21.9,1.7
			c11-4.6,22.6-8.3,34.6-10.8c31.3-6.5,63-5,92.8,4.1C385,152.3,391.3,160.5,392,169.6"/>
		<path class="st0" d="M352.9,492.4c39.4-36.2,57.7-113.7,68.6-160l1.7-7.2c5.6-23.6,15.5-41.2,26.2-51.7
			c39.5,61.4,34.2,124.8,24.2,164.6c-27.3,36.3-66.4,61.2-111.3,70.6c-12.8,2.7-25.6,4-38.4,4C333.2,508,343,501.5,352.9,492.4"/>
		<path class="st0" d="M424.5,229.4c16-13.4,28.8-23.6,37.9-30.3c19.7,21.5,34.1,47.4,42.1,76c-7.4-9.9-16.8-19.3-27-21.4
			c-8.8-1.8-17.8,0.7-26.3,6.7C443.6,250,434.8,239.6,424.5,229.4"/>
		<path class="st0" d="M140.3,316.9c18.2-48.8,84.9-68.8,110-76.3l1.1-0.3c8.2-2.5,20.1-4.5,33.8-6.8c32.3-5.5,72.2-12.3,96.3-30.3
			c9.8,7.4,19.8,16,30.1,25.7C357.1,275.2,272.8,353,182.9,448.5c-21-23.9-35.5-52.9-42.2-84.9c-2.7-12.7-4-25.5-4-38.2
			C138.8,320.4,140.3,316.9,140.3,316.9"/>
		<path class="st0" d="M418.2,223.3c-10.1-9.6-20.1-18.2-30-25.8c9.1-8.9,13.3-18.5,12.4-28.7c-0.5-6.2-2.9-11.9-6.2-17
			c11.1,4.5,21.8,10.2,32.1,16.9c10.9,7.1,20.8,15.2,29.8,24.1C446.9,199.8,434,210.1,418.2,223.3"/>
		<path class="st0" d="M374.2,197.8c-22.6,15.6-60,22-90.5,27.1c-14,2.4-26,4.4-34.8,7l-1.1,0.3c-24.1,7.2-84.7,25.3-109.7,69
			c3.6-27.7,13.4-54.5,29.1-78.5c13.3-20.3,30.9-39,50.2-52.5C261.8,151.5,311.6,152.8,374.2,197.8"/>
		<path class="st0" d="M475.7,262.2c13.1,2.7,27.1,24.7,33.8,37.3c5.8,41.1-2.1,82.3-22.7,118.4c1-6.3,1.8-13,2.4-20
			c2.6-35.1-2.2-82.8-33.1-130.2C462.9,262.9,469.7,261,475.7,262.2"/>
	</g>
	<path class="st0" d="M417.9,235c10.3,10.2,19.1,20.5,26.5,31c-12.8,12.2-23.7,32.4-29.6,57.2l-1.7,7.3
		c-10.7,45.4-28.6,121.3-66,155.6c-15.5,14.2-30.6,21.6-44.1,25.5c-28.8-3.2-56.6-13.2-81.6-29.5c-12-7.9-23-17-32.7-27.1
		C279.5,358.4,364.1,280.7,417.9,235"/>
	<path class="st0" d="M375.7,380.9l5.1-1.4c3.1-0.8,5.1-1.8,5.1-6.3c0-3.7-1-10.4-5.5-10.4c-4.7,0-4.7,8-4.7,12.3V380.9z"/>
	<path class="st0" d="M314.8,378.1c0-16-0.6-29.8-11.4-29.8c-8.8,0-10.4,13.8-10.4,29.8c0,16-0.5,29.9,10.4,29.9
		C312.5,407.9,314.8,394.1,314.8,378.1"/>
	<path class="st0" d="M375.7,380.9l5.1-1.4c3.1-0.8,5.1-1.8,5.1-6.3c0-3.7-1-10.4-5.5-10.4c-4.7,0-4.7,8-4.7,12.3V380.9z"/>
	<path class="st0" d="M291.7,341.4h-0.2h0.4c5.2-8.1,15.1-12,24.8-12c22,0,35.5,19,35.5,44.5c0,30.2-20.5,48.2-45.8,48.2
		c-38.9,0-53.1-31.4-53.1-67.8c0-41.9,18.2-76.5,63.5-76.5c17.7,0,32.2,11.4,32.2,28.8c0,11.3-8.7,16.8-17.1,16.8
		c-12.2,0-16.1-10.2-17.9-19.2c-0.7-3.8,0.7-12.2-5.6-12.2c-13.2,0-15.3,25.8-15.9,35.3L291.7,341.4z"/>
	<path class="st0" d="M314.8,378.1c0-16-0.6-29.8-11.4-29.8c-8.8,0-10.4,13.8-10.4,29.8c0,16-0.5,29.9,10.4,29.9
		C312.5,407.9,314.8,394.1,314.8,378.1"/>
	<g>
		<path class="st0" d="M78.9,279.4c7.4,0.9,10.4,6.1,9.3,15.7l-0.8,7l4,0.5c5.1,0.6,7,0.5,7.6-3.6l4.7,0.6l-2.2,19l-4.7-0.6
			c0.4-4.2-1.5-4.7-6.6-5.3l-14.8-1.7c-5.1-0.6-7-0.5-7.6,3.6l-4.7-0.6l2.5-20.8C66.8,283,71.3,278.5,78.9,279.4z M82.9,299.6
			c0.7-6.3-1.1-9.7-5.6-10.2c-3.9-0.5-6.7,2-7.3,6.7c-0.4,3.3,0.8,4,4.4,4.4l8.2,1C82.7,300.9,82.8,300.3,82.9,299.6z"/>
		<path class="st0" d="M106.7,258.4c1.5-3.9-0.1-4.9-4.8-6.9l-13.7-5.7c-4.7-2-6.6-2.4-8.3,1.4l-4.4-1.8l7.4-17.6l4.3,1.8
			c-1.5,3.9,0.1,4.9,4.8,6.9l3.5,1.5l5.5-13.2l-3.5-1.5c-4.7-2-6.6-2.4-8.3,1.4l-4.3-1.8l7.4-17.6l4.4,1.8c-1.5,3.9,0.1,4.9,4.8,6.9
			l13.7,5.7c4.7,2,6.6,2.4,8.3-1.4l4.4,1.8l-7.4,17.6l-4.3-1.8c1.5-3.9-0.1-4.9-4.8-6.9l-6-2.5l-5.5,13.2l6,2.5
			c4.7,2,6.6,2.4,8.3-1.4l4.3,1.8l-7.4,17.6L106.7,258.4z"/>
		<path class="st0" d="M125.1,164.9c-2.4,3.4-1.1,4.8,3,7.9l11.9,8.9c4.1,3.1,5.8,3.9,8.4,0.7l3.8,2.8l-11.4,15.2l-3.8-2.8
			c2.4-3.4,1.1-4.8-3.1-7.9l-11.9-8.9c-4.1-3.1-5.8-4-8.4-0.7l-3.8-2.8l11.4-15.2L125.1,164.9z"/>
		<path class="st0" d="M168.1,167.1l-3-3.6c3.1-2.8,2.1-4.4-1.2-8.3l-9.6-11.4c-3.3-3.9-4.7-5.2-8-2.6l-3-3.6l14.6-12.2l3,3.6
			c-3.1,2.8-2.2,4.4,1.1,8.4l10.7,12.7c2.5,2.9,3.6,3.4,6.6,0.9c4-3.4,5.7-9.4,4.3-17l4.2-0.9l4.3,14L168.1,167.1z"/>
		<path class="st0" d="M213.4,132.2l-2-4.3c3.6-2.2,3.4-4.6,3.3-8.8l-1-29.5l8-3.6l22,21.5c2.5,2.4,3.9,3.6,7.1,2.5l2,4.3l-17.4,7.9
			l-1.9-4.2c0.1,0,0.3-0.1,0.4-0.2c2.4-1.1,3.3-2.1,2.6-3.6c-0.2-0.5-0.6-1-1-1.4l-4-4l-11.2,5.1l0.7,5.5c0.1,0.4,0.1,0.9,0.3,1.2
			c0.8,1.7,2.4,1.8,5.1,0.6l1.9,4.2L213.4,132.2z M227.6,105.3l-8.2-8.8l0.7,12.3L227.6,105.3z"/>
		<path class="st0" d="M272.2,103.7c4.1-0.7,4.2-2.6,3.5-7.7l-2.1-14.7c-0.7-5.1-1.3-6.9-5.5-6.4l-0.7-4.7l19.2-2.7
			c14.8-2.1,23.6,3.7,25.4,15.9c1.7,12.3-5.1,20.2-19.9,22.4l-19.2,2.7L272.2,103.7z M286,96.9c0.5,3.8,1.2,4.8,5.2,4.2
			c7.6-1.1,11.8-7.1,10.4-16.3c-1.3-9.2-6.9-13.8-14.6-12.7c-4,0.6-4.3,1.7-3.8,5.5L286,96.9z"/>
		<path class="st0" d="M339.3,98.1c4.1,0.5,4.8-1.3,5.5-6.4l2.1-14.7c0.7-5.1,0.7-7-3.4-7.7l0.7-4.7l31.7,4.6l3.5,12.3l-3.8,1.3
			c-3.1-6.4-7.5-10.1-13.4-10.9c-3.8-0.6-4.5,0.5-5,4.2l-0.8,5.5l1.8,0.3c4,0.6,5.2-0.5,6.1-5.2l4,0.6l-2.5,17.2l-4-0.6
			c0.1-4.5-1.2-6.8-4.3-7.2l-1.8-0.3l-1.3,8.9c-0.5,3.7-0.2,4.9,3.7,5.4c5.6,0.8,12.2-1.9,17.4-8.1l3.3,2.5l-7.7,12.3l-32.5-4.8
			L339.3,98.1z"/>
		<path class="st0" d="M399.1,115l1.9-4.3c3.9,1.6,4.9,0,7-4.8l6-13.6c2.1-4.7,2.6-6.5-1.2-8.3l1.9-4.3l17.4,7.6l-1.9,4.3
			c-3.9-1.6-4.9,0-7,4.7l-6.7,15.2c-1.5,3.5-1.4,4.7,2.2,6.3c4.8,2.1,11,1,17.1-3.7l2.7,3.3l-10.6,10.1L399.1,115z"/>
		<path class="st0" d="M497,143.3c-4.7,5.8-10.7,5.6-18.3-0.5l-5.5-4.4l-2.5,3.1c-3.2,4-4.2,5.7-1,8.4l-3,3.7l-14.8-12l3-3.7
			c3.3,2.5,4.8,1.3,8-2.7l9.3-11.6c3.2-4,4.1-5.7,1-8.4l3-3.7l16.3,13.2C500.4,131,501.8,137.3,497,143.3z M477.7,135.8
			c4.9,4,8.8,4.2,11.6,0.7c2.5-3.1,1.9-6.7-1.8-9.7c-2.6-2.1-3.8-1.5-6.1,1.3l-5.2,6.4C476.8,135,477.3,135.4,477.7,135.8z"/>
		<path class="st0" d="M499.9,178c2.5,3.4,4.2,2.6,8.4-0.4l12.2-8.5c4.2-2.9,5.6-4.3,3.3-7.8l3.9-2.7l10.9,15.6l-3.8,2.7
			c-2.5-3.4-4.2-2.6-8.4,0.4l-3.1,2.2l8.2,11.7l3.1-2.2c4.2-2.9,5.6-4.3,3.3-7.8l3.8-2.7l10.9,15.6l-3.9,2.7
			c-2.5-3.4-4.2-2.6-8.4,0.4l-12.2,8.5c-4.2,2.9-5.6,4.3-3.3,7.8l-3.9,2.7L510,200.6l3.8-2.7c2.5,3.4,4.2,2.6,8.4-0.4l5.3-3.7
			l-8.2-11.7l-5.3,3.7c-4.2,2.9-5.6,4.3-3.3,7.8l-3.8,2.7L496,180.7L499.9,178z"/>
		<path class="st0" d="M569.2,243.5c-1.6-3.9-3.5-3.5-8.3-1.7l-13.9,5.3c-4.8,1.8-6.4,2.8-5.1,6.8l-4.4,1.7l-6.8-17.8l4.4-1.7
			c1.6,3.9,3.5,3.4,8.3,1.6l13.9-5.3c4.8-1.8,6.5-2.8,5.1-6.7l4.4-1.7l6.8,17.8L569.2,243.5z"/>
		<path class="st0" d="M544.3,276.5l4.7-0.6c1,4.1,3.4,4.6,7.4,5.7l28.5,7.7l1.1,8.7l-27,14.7c-3.1,1.7-4.6,2.6-4.5,6.1l-4.7,0.6
			l-2.5-18.9l4.6-0.6c0,0.1,0,0.3,0,0.4c0.3,2.6,1.1,3.8,2.7,3.6c0.6-0.1,1.1-0.3,1.7-0.6l5-2.7l-1.6-12.2l-5.5-1
			c-0.4-0.1-0.9-0.1-1.3-0.1c-1.8,0.2-2.4,1.8-2.1,4.7l-4.6,0.6L544.3,276.5z M565.9,297.9l10.8-5.3l-11.9-2.9L565.9,297.9z"/>
	</g>
	<g>
		<g>
			<path class="st0" d="M440.9,349.6c-4.3,0-7.5,1.9-10,4.6c-0.3-0.6-0.5-1.2-0.8-1.7l-2.1-4.1l-29.9,8.8v16.4h5.5
				c0.5,0,0.8,0.1,0.9,0c0.3,0.5,0.7,2,0.7,7v19l-5.5,0.8v18h41.4v-18l-5.4-0.8v-5.6c0-3.2,0.7-9.3,1.5-12.9
				c1.5,0.5,3.4,0.8,5.4,0.8c7.4,0,12.6-6.7,12.6-16.2C455.3,356.1,449.5,349.6,440.9,349.6z"/>
			<path class="st0" d="M492.8,368.7c-0.4-1.4-0.5-1.9-0.5-2.6c0-4.9-2-16.3-20.1-16.3c-10,0-29.7,7.7-29.7,25.6
				c0,6.6,2,11.4,4.8,15c-3.9,2.3-6.4,6.8-6.4,12.4c0,6.4,3.2,17.2,24.9,17.2c18.6,0,29.2-9.6,29.2-26.4
				C495.1,377.6,493.7,372.3,492.8,368.7z"/>
			<path class="st0" d="M274,272.5c-1.1-1.3-2.8-2.1-4.5-2.1c-2.7,0-4.9,1.7-7.5,4.5c-8.8,9.3-20.8,14.3-34.5,14.3
				c-18,0-37-8.3-52.1-22.7c-1.2-1.2-2.8-1.8-4.4-1.8c-7.4,0-9.3,11.8-9.3,12l0,59.3l4.7,0.7c17.9,2.6,33.3,2.1,47.4-1.7
				c-15.2,13.6-49.4,50.6-48.9,85.8c0.1,6.5,4.1,7.2,5.8,7.2c2.2,0,3.6-1.1,4.5-1.9c0.3-0.2,0.6-0.5,0.9-0.7
				c4.9-3.6,12.8-5.7,21.7-5.7c7.4,0,14.7,1.5,20.1,4.1c1,0.5,2.2,1,3.7,1c1.7,0,3.3-0.7,4.4-1.9c1.9-2.1,1.7-4.7,1.5-6.4
				c-2.5-25.6,3.1-53.5,14-69.6l1.6-2.4c9.3-13.7,28.6-42.3,32.2-65.9C275.7,276,275.3,274,274,272.5z"/>
			<path class="st0" d="M411.7,385.8l-0.3-4.5c-0.2-3-0.6-5.8-1.3-8.4l-0.2-5.2l-1,1.5c-4.5-12.1-14.5-19.6-27.3-19.6
				c-19.2,0-32.6,15.2-32.6,36.9c0,16.7,9.8,33.5,31.5,33.5c12.5,0,23.9-6.3,29.9-16.4l0.8-1.4l-0.6-16.1L411.7,385.8z M388.4,396.2
				c-2.1,0-3.5-1.3-4.4-2.9l10.6-2.9C391.6,394,389.3,396,388.4,396.2z"/>
			<path class="st0" d="M340.2,333.3c-1.1-1.5-2.3-3.3-3.3-4.8c9.4-1.9,17.7-9.3,17.7-21.8c0-19.6-16.2-34.3-37.7-34.3
				c-43.2,0-69.1,30.7-69.1,82c0,46.6,21.4,73.3,58.6,73.3c30.2,0,51.3-22.1,51.3-53.7C357.8,358.2,347.2,343.2,340.2,333.3z"/>
		</g>
		<g>
			<path class="st1" d="M388.5,401.8c-6.7,0-10.7-6.1-11.3-12.3l28.8-7.8c-0.8-14.1-9-26.5-24.3-26.5c-16.3,0-27.1,12.7-27.1,31.4
				c0,14.6,8.4,27.9,26,27.9c10.1,0,19.9-4.8,25.1-13.7l-5.7-6.8C397.3,398.4,394,401.8,388.5,401.8z M375.8,375.2
				c0-4.3,0-12.3,4.7-12.3c4.4,0,5.5,6.7,5.5,10.4c0,4.4-2.1,5.5-5.1,6.3l-5.1,1.4V375.2z"/>
			<path class="st1" d="M435.8,412.9h-30.4v-7.7l5.5-0.8v-23.8c0-8.5-1.1-12.6-7.2-12.6v-6.7l21.6-6.3c2.5,4.8,3.2,10.3,3.6,15.7
				h0.2c2.2-6.5,4.9-15.6,11.9-15.6c6.2,0,8.9,4.8,8.9,10.6c0,5.9-2.6,10.7-7.1,10.7c-3.1,0-5.7-1.3-7.2-1.8
				c-3.9-1.3-5.2,15.8-5.2,19.4v10.4l5.4,0.8V412.9z"/>
			<path class="st1" d="M486.9,366.2c0,4.7-4.1,7.1-8.4,7.1c-5.2,0-8.9-4.2-9.9-9.3c-2.2,0-3.8,1.1-3.8,4.9
				c0,8.8,24.9,2.5,24.9,24.8c0,16.7-12.1,20.9-23.7,20.9c-7.1,0-19.4-0.9-19.4-11.7c0-4.9,2.7-8.6,7.6-8.6c7.5,0,8.8,6.9,10.1,11.8
				c0.4,1.3,1.5,1.5,2.5,1.5c4,0,6.9-1.6,6.9-4.3c0-10-25.5-6.1-25.5-27.9c0-13.8,16.3-20,24.2-20
				C481.3,355.4,486.9,358.4,486.9,366.2"/>
			<path class="st1" d="M316.9,329.5c-9.7,0-19.6,3.9-24.8,12h-0.2h-0.2h0.2l1-14c0.6-9.5,2.7-35.3,15.9-35.3
				c6.3,0,4.9,8.4,5.6,12.2c1.7,8.9,5.6,19.2,17.9,19.2c8.3,0,17.1-5.5,17.1-16.8c0-17.4-14.5-28.8-32.2-28.8
				c-45.3,0-63.5,34.6-63.5,76.5c0,36.4,14.1,67.8,53.1,67.8c25.3,0,45.8-18,45.8-48.2C352.4,348.5,338.9,329.5,316.9,329.5z
				 M303.4,408c-10.8,0-10.4-13.9-10.4-29.9c0-16,1.5-29.8,10.4-29.8c10.9,0,11.4,13.8,11.4,29.8C314.9,394.1,312.6,408,303.4,408z"
				/>
			<path class="st2" d="M167.2,277.2v54c30.2,4.5,66.3,1.5,91.9-35.8c1.1-1.6,1.7-0.5,1,0.9c-7.1,14.5-24,27.9-38.6,39.4
				c-14,11-51.6,50.4-51.1,85.1c0,2.7,0.1,1.9,2.5,0.2c11.4-8.5,33.7-8.7,47.4-2.2c1.9,0.9,2.1,0.6,1.8-1.8
				c-2.6-26.9,3.4-56.2,14.9-73.3c7.9-11.8,29.3-42.2,33-66c0.4-2.5-0.9-2.1-4,1.2c-24.2,25.6-67.9,24.9-96.2-2.1
				C168.1,274.9,167.3,275.7,167.2,277.2"/>
		</g>
	</g>
	<g>
		
			<ellipse transform="matrix(0.2285 -0.9735 0.9735 0.2285 -68.8681 402.6688)" class="st0" cx="219.6" cy="244.8" rx="51.8" ry="51.8"/>
		<g>
			<polygon class="st1" points="219.6,194.9 221.3,200.4 227.2,200.4 222.4,203.8 224.1,209.2 219.6,205.9 214.9,209.2 216.7,203.8 
				211.9,200.4 217.8,200.4 			"/>
			<polygon class="st1" points="254,215 255.8,220.4 261.7,220.4 256.9,223.9 258.6,229.3 254,226 249.4,229.3 251.2,223.9 
				246.4,220.4 252.3,220.4 			"/>
			<polygon class="st1" points="239.2,199.5 241,204.9 246.9,204.9 242.1,208.4 243.8,213.8 239.3,210.5 234.7,213.8 236.4,208.4 
				231.6,204.9 237.5,204.9 			"/>
			<polygon class="st1" points="259.7,233.9 261.4,239.4 267.3,239.4 262.5,242.9 264.3,248.3 259.7,245 255.1,248.3 256.8,242.9 
				252.1,239.4 257.9,239.4 			"/>
			<polygon class="st1" points="257.2,254 259,259.5 264.8,259.5 260.1,263 261.8,268.4 257.2,265 252.6,268.4 254.3,262.9 
				249.6,259.5 255.5,259.5 			"/>
			<polygon class="st1" points="246.1,270 247.8,275.5 253.7,275.5 249,279 250.7,284.4 246.2,281.1 241.5,284.4 243.3,279 
				238.5,275.5 244.4,275.5 			"/>
			<polygon class="st1" points="228.7,279 230.5,284.5 236.3,284.5 231.5,288 233.3,293.4 228.7,290.1 224.1,293.4 225.8,288 
				221.1,284.5 226.9,284.5 			"/>
			<polygon class="st1" points="184.5,213.2 182.7,218.7 176.9,218.7 181.6,222.1 179.9,227.5 184.4,224.2 189.1,227.5 187.3,222.1 
				192.1,218.7 186.2,218.7 			"/>
			<polygon class="st1" points="198.9,199.5 197.1,204.9 191.3,204.9 196,208.4 194.3,213.8 198.9,210.5 203.5,213.8 201.8,208.4 
				206.5,204.9 200.7,204.9 			"/>
			<polygon class="st1" points="177.7,231.5 176,237 170.1,237 174.9,240.4 173.2,245.9 177.7,242.5 182.3,245.9 180.6,240.4 
				185.4,237 179.6,237 			"/>
			<polygon class="st1" points="179.6,251.5 177.8,257 171.9,257 176.7,260.5 175,265.9 179.5,262.6 184.1,265.9 182.4,260.5 
				187.1,257 181.3,257 			"/>
			<polygon class="st1" points="190.6,267.9 188.9,273.4 183,273.4 187.8,276.9 186,282.3 190.6,278.9 195.3,282.3 193.5,276.9 
				198.2,273.4 192.4,273.4 			"/>
			<polygon class="st1" points="208,278.3 206.3,283.8 200.4,283.8 205.2,287.3 203.5,292.7 208,289.4 212.7,292.7 210.9,287.2 
				215.7,283.8 209.8,283.8 			"/>
		</g>
	</g>
</g>
</svg>
