<?xml version="1.0" encoding="utf-8"?>
<!-- Generator: Adobe Illustrator 16.0.3, SVG Export Plug-In . SVG Version: 6.00 Build 0)  -->
<!DOCTYPE svg PUBLIC "-//W3C//DTD SVG 1.1//EN" "http://www.w3.org/Graphics/SVG/1.1/DTD/svg11.dtd">
<svg version="1.1" id="Layer_2" xmlns="http://www.w3.org/2000/svg" xmlns:xlink="http://www.w3.org/1999/xlink" x="0px" y="0px"
	 width="400px" height="400px" viewBox="0 0 400 400" enable-background="new 0 0 400 400" xml:space="preserve">
<g>
	<path fill="#63727A" d="M371.762,27.346c-0.542-0.688-1.367-1.086-2.242-1.086H153.349c-25.783,0.055-41.629,11.188-47.093,33.092
		L27.709,372.616c-0.215,0.859-0.024,1.76,0.517,2.456c0.543,0.694,1.373,1.098,2.254,1.098h235.447l0,0
		c13.523-0.004,27.011-10.751,30.065-23.944l76.306-322.451C372.501,28.926,372.303,28.031,371.762,27.346z"/>
	<g>
		<path d="M30.48,373.313h235.447c12.249,0,24.526-9.823,27.286-21.748L369.52,29.117H153.355
			c-20.047,0.042-38.262,6.61-44.329,30.93L30.48,373.313z"/>
	</g>
	<g>
		<path fill="#63727A" d="M283.21,248.49H75.786l45.626-180.653c5.828-23.358,20.287-28.146,40.199-28.146h190.441l-43.62,188.695
			C305.872,239.47,294.56,248.486,283.21,248.49z M79.027,245.968H283.21c10.242,0,20.453-8.145,22.762-18.145l42.904-185.607
			H161.611c-22.748,0-32.979,7.108-37.75,26.236L79.027,245.968z"/>
	</g>
	<g>
		<g>
			<g>
				<polygon fill="#FFFFFF" points="109.754,349.777 115.424,357.628 158.42,357.628 175.875,288.488 158.253,288.488 
					143.264,347.868 127.6,347.868 142.589,288.488 120.395,288.488 118.985,289.742 123.4,295.693 				"/>
			</g>
			<g>
				<polygon fill="#FFFFFF" points="111.058,312.72 115.269,296.052 109.598,288.192 74.322,288.192 64.684,296.052 58.813,319.318 
					88.601,331.837 84.558,347.868 68.971,347.868 70.869,340.346 55.304,333.205 51.123,349.777 56.792,357.628 92.07,357.628 
					101.705,349.777 107.583,326.503 77.788,313.975 81.835,297.947 97.422,297.947 95.485,305.628 				"/>
			</g>
			<g>
				<polygon fill="#FFFFFF" points="232.698,296.052 227.029,288.192 184.033,288.192 166.58,357.334 184.199,357.334 
					199.192,297.947 214.857,297.947 199.867,357.334 222.052,357.334 223.467,356.07 219.057,350.128 				"/>
			</g>
			<g>
				<polygon fill="#FFFFFF" points="287.207,312.72 291.414,296.052 285.745,288.192 250.468,288.192 240.833,296.052 
					234.955,319.318 264.754,331.837 260.703,347.868 245.118,347.868 247.015,340.346 231.454,333.205 227.271,349.777 
					232.945,357.628 268.219,357.628 277.851,349.777 283.729,326.503 253.937,313.975 257.989,297.947 273.572,297.947 
					271.63,305.628 				"/>
			</g>
		</g>
		<g>
			<polygon fill="#BEC0C2" points="55.304,333.205 61.686,342.855 60.29,348.381 63.494,352.72 88.391,352.72 93.42,348.822 
				101.705,349.777 92.07,357.628 56.792,357.628 51.123,349.777 			"/>
			<polygon fill="#BEC0C2" points="84.558,347.868 93.42,348.822 98.389,329.14 68.309,316.503 73.22,297.033 64.684,296.052 
				58.813,319.318 88.601,331.837 			"/>
			<polygon fill="#BEC0C2" points="102.829,293.07 78.407,293.07 73.22,297.033 81.835,297.947 97.422,297.947 95.485,305.628 
				104.754,302.766 106.089,297.49 			"/>
			<polygon fill="#BEC0C2" points="231.454,333.205 237.833,342.855 236.438,348.381 239.641,352.72 264.538,352.72 
				269.562,348.822 277.851,349.777 268.219,357.628 232.945,357.628 227.271,349.777 			"/>
			<polygon fill="#BEC0C2" points="260.703,347.868 269.562,348.822 274.535,329.14 244.454,316.503 249.369,297.033 
				240.833,296.052 234.955,319.318 264.754,331.837 			"/>
			<polygon fill="#BEC0C2" points="278.977,293.07 254.553,293.07 249.369,297.033 257.989,297.947 273.572,297.947 271.63,305.628 
				280.905,302.766 282.236,297.493 			"/>
			<polygon fill="#BEC0C2" points="118.985,289.742 132.78,293.094 118.824,348.381 122.078,352.756 150.759,352.756 
				158.42,357.628 115.424,357.628 109.754,349.777 123.4,295.693 			"/>
			<polygon fill="#BEC0C2" points="158.253,288.488 165.905,293.07 150.759,352.756 143.264,347.868 			"/>
			<g>
				<polygon fill="#BEC0C2" points="191.697,293.068 184.033,288.192 166.58,357.334 184.199,357.334 176.551,352.752 				"/>
			</g>
			<g>
				<polygon fill="#BEC0C2" points="209.674,352.728 223.634,297.441 220.379,293.068 191.697,293.068 199.192,297.947 
					214.857,297.947 199.867,357.334 222.052,357.334 223.467,356.07 				"/>
			</g>
		</g>
	</g>
	<g>
		<g>
			<path fill="#FFFFFF" d="M74.092,259.086l-0.452,0.374l1.47,1.921l-4.445,18.187h6.143l0.452-0.377l-1.527-1.752l1.199-4.915
				l9.506-2.96l1.954-7.997l-1.896-2.48H74.092z M82.423,267.389l-4.561,1.328l1.497-6.119l4.239-0.007L82.423,267.389z"/>
		</g>
		<g>
			<polygon fill="#FFFFFF" points="125.003,259.086 120.458,259.086 118.655,266.457 114.191,267.529 116.252,259.086 
				110.13,259.086 109.675,259.46 111.145,261.381 106.704,279.567 111.249,279.567 113.228,271.467 117.669,270.477 
				115.449,279.567 121.578,279.567 122.028,279.19 120.515,277.438 			"/>
		</g>
		<g>
			<path fill="#FFFFFF" d="M150.307,259.086l-3.104,2.455l-3.799,15.539l1.899,2.487h8.341l3.088-2.481l3.799-15.545l-1.885-2.455
				H150.307z M152.387,276.271h-4.238l3.366-13.783h4.234L152.387,276.271z"/>
		</g>
		<g>
			<polygon fill="#FFFFFF" points="231.294,261.541 229.387,259.086 218.387,259.086 213.383,279.567 217.932,279.567 
				222.102,262.488 226.519,262.488 222.346,279.567 228.473,279.567 228.924,279.19 227.408,277.438 			"/>
		</g>
		<g>
			<polygon fill="#FFFFFF" points="259.692,259.086 253.567,259.086 253.114,259.46 254.582,261.381 250.14,279.567 256.27,279.567 
				256.722,279.19 255.21,277.438 			"/>
		</g>
		<g>
			<polygon fill="#FFFFFF" points="292.609,277.548 290.176,269.546 298.278,259.086 293.898,259.086 289.19,265.411 
				287.579,259.086 281.458,259.086 280.995,259.452 283.488,261.288 285.8,269.622 278.106,279.567 282.531,279.567 
				287.018,273.556 288.564,279.567 294.69,279.567 295.149,279.19 			"/>
		</g>
		<g>
			<polygon fill="#FFFFFF" points="189.659,276.271 184.326,276.271 185.605,271.028 190.019,271.024 190.847,267.647 
				186.431,267.651 187.694,262.488 192.679,262.488 193.934,264.286 194.415,263.945 195.603,259.086 182.405,259.086 
				181.951,259.46 183.418,261.381 178.977,279.567 190.933,279.567 192.102,274.772 191.799,274.439 			"/>
		</g>
	</g>
	<g>
		<path fill="none" d="M247.688,197.306"/>
		<g>
			<polygon fill="#F9A01B" points="84.519,242.641 201.208,178.742 122.078,242.641 218.097,187.468 216.51,198.593 
				232.524,189.694 268.694,223.893 287.946,166.052 315.788,164.263 301.625,129.178 326.843,109.442 294.231,96.741 
				302.493,61.659 274.737,74.364 260.436,44.182 238.212,66.382 198.211,48.432 192.705,84.152 157.057,91.88 178.153,104.591 
				156.93,115.24 174.955,116.804 100.791,174.492 175.392,134.861 95.36,195.784 180.552,151.38 89.554,219.795 189.848,166.354 
							"/>
			<g>
				<path fill="#E56020" d="M298.051,129.69c-1.326,32.067-28.388,56.983-60.465,55.656c-32.064-1.317-56.981-28.39-55.651-60.451
					c1.316-32.07,28.392-56.989,60.448-55.664C274.455,70.556,299.37,97.624,298.051,129.69z"/>
				<path fill="#B95915" d="M247.106,177.424c-32.06-1.333-56.985-28.402-55.657-60.465c0.602-14.839,6.735-28.134,16.315-38.015
					c-14.913,9.956-25.042,26.647-25.83,45.95c-1.33,32.062,23.587,59.134,55.651,60.451c17.232,0.717,33.021-6.163,44.138-17.645
					C271.852,174.301,259.883,177.951,247.106,177.424z"/>
				<path d="M298.076,127.966c0.029-2.081-0.055-4.139-0.244-6.166c-3.344-2.341-7.345-4.119-12.057-4.727
					c-0.897-0.111-1.751-0.164-2.621-0.229c-0.563-3.841-1.435-7.597-2.589-11.254c0.603,0.038,1.21,0.064,1.819,0.105
					c4.089,0.305,8.114,0.768,12.091,1.345c-0.561-1.478-1.175-2.927-1.838-4.352c-4.471-0.68-9.006-1.206-13.603-1.551
					c-0.015,0-0.032,0-0.049,0c-1.47-3.74-3.271-7.34-5.373-10.765c2.969-0.614,5.617-1.824,7.766-3.854
					c-1.1-1.112-2.242-2.184-3.424-3.206c-1.87,1.717-4.29,2.626-7.059,2.994c-0.425-0.592-0.847-1.192-1.291-1.765
					c-3.95-5.135-8.504-9.521-13.52-13.09c-4.371-1.258-8.953-2.033-13.703-2.224c-0.257-0.011-0.519-0.005-0.779-0.018
					c8.826,3.474,16.714,9.307,23.057,17.119c-6.048-0.581-13.018-2.611-19.915-4.632c-2.038-0.602-4.034-1.19-5.969-1.725
					c-11.738-3.241-20.767-3.761-27.54-3.175c-5.032,2.875-9.599,6.478-13.552,10.675c7.314-3.052,22.076-8.264,39.979-3.307
					c1.905,0.528,3.881,1.104,5.889,1.688c7.918,2.331,16.802,4.923,24.468,5.004c2.114,3.159,3.948,6.484,5.466,9.96
					c-1.506-0.07-3.002-0.12-4.502-0.145c-37.313-0.64-69.303,10.528-87.057,28.336c0.099,3.537,0.503,6.999,1.21,10.364
					c5.007-7.19,12.423-13.681,21.992-19.064c18.058-10.149,42.023-15.492,67.489-15.052c0.874,0.013,1.759,0.052,2.632,0.083
					c1.286,3.683,2.24,7.496,2.855,11.404c-16.398,0.698-27.032,10.93-39.236,21.824c-10.962,9.805-24.324,19.571-43.897,25.447
					c1.846,2.269,3.854,4.387,6.019,6.348c18.432-7.421,30.68-18.981,41.029-28.23c11.748-10.509,21.831-20.581,36.642-21.076
					c0.388,4.098,0.4,8.266,0.025,12.479c-1.993,22.765-15.173,42.062-33.156,51.586c4.602-0.434,9.056-1.408,13.296-2.868
					c1.443-1.192,2.847-2.442,4.203-3.779c11.783-11.601,19.102-27.422,20.602-44.51c0.374-4.28,0.373-8.522,0.024-12.704
					c0.741,0.079,1.471,0.142,2.232,0.27C290.938,122.358,294.947,124.903,298.076,127.966z"/>
			</g>
		</g>
	</g>
</g>
</svg>
