<?xml version="1.0" encoding="utf-8"?>
<!-- Generator: Adobe Illustrator 21.0.0, SVG Export Plug-In . SVG Version: 6.00 Build 0)  -->
<svg version="1.1" id="Layer_1" xmlns="http://www.w3.org/2000/svg" xmlns:xlink="http://www.w3.org/1999/xlink" x="0px" y="0px"
	 viewBox="0 0 400 400" style="enable-background:new 0 0 400 400;" xml:space="preserve">
<style type="text/css">
	.st0{fill:#FFFFFF;}
	.st1{fill:#CF0A2C;}
</style>
<g>
	<g>
		<path d="M261.1,82.9c-2.4-3.6-5.2-7-8.3-10c-1.3-1.3-2.7-2.6-4.2-3.8L278.8,39h-87.7l-33.9,33.9l0,0c0,0-0.1,0.1-0.1,0.1
			c-3.1,3.1-5.8,6.4-8.3,10c-2.4,3.6-4.5,7.5-6.2,11.5c-3.5,8.3-5.3,17.2-5.3,26.3c0,9.1,1.8,18,5.3,26.3c1.7,4,3.8,7.9,6.2,11.5
			c2.4,3.6,5.2,7,8.3,10c1.3,1.3,2.7,2.6,4.2,3.8l-30.1,30.1h87.7l34-34h0c3-3,5.8-6.4,8.2-9.9c2.4-3.6,4.5-7.5,6.2-11.5
			c3.5-8.3,5.3-17.2,5.3-26.3c0-9.1-1.8-18-5.3-26.3C265.7,90.4,263.6,86.6,261.1,82.9"/>
		<path class="st0" d="M248.9,76.8c-1.3-1.3-2.7-2.6-4.1-3.8L208,109.9c1.8,0.5,3.5,1.5,5,2.9l0,0c4.4,4.4,4.4,11.7,0,16.1
			l-68.2,68.2h8l64.2-64.2c6.6-6.6,6.7-17.4,0.1-24l4-4c8.8,8.9,8.8,23.2-0.1,32l-60.2,60.2h8l56.2-56.2c11-11,11.1-28.9,0.1-40l4-4
			c13.2,13.3,13.2,34.7-0.1,48l-52.2,52.2h8l48.2-48.2c15.5-15.5,15.5-40.5,0.1-56l4-4c17.6,17.7,17.6,46.3-0.1,64l-44.2,44.2h8
			l40.2-40.2c19.9-19.9,19.9-52.1,0.1-72l4-4c22.1,22.1,22,57.9-0.1,80l-36.2,36.2h8l32.2-32.2l0,0
			C273.2,140.5,273.2,101.1,248.9,76.8"/>
		<path class="st1" d="M161.2,164.8c1.3,1.3,2.7,2.6,4.1,3.8l36.8-36.8c-1.8-0.5-3.5-1.5-5-2.9c0,0,0,0,0,0
			c-4.4-4.4-4.4-11.7,0-16.1l68.3-68.3h-8l-64.3,64.3c-6.6,6.6-6.7,17.4-0.1,24l-4,4c-8.8-8.9-8.8-23.2,0.1-32l60.3-60.3h-8
			l-56.3,56.3c-11,11-11.1,28.9-0.1,40l-4,4c-13.2-13.3-13.2-34.7,0.1-48l52.3-52.3h-8l-48.3,48.3c-15.5,15.5-15.5,40.5-0.1,56l-4,4
			c-17.6-17.7-17.6-46.3,0.1-64l44.3-44.3h-8l-40.3,40.3c-19.9,19.9-19.9,52.1-0.1,72l-4,4c-22.1-22.1-22-57.9,0.1-80l36.3-36.3h-8
			l-32.3,32.3l0,0C136.9,101.1,136.9,140.5,161.2,164.8"/>
	</g>
	<g>
		<g>
			<polygon points="95.1,339.8 90.8,339.8 90.8,335.5 104.2,335.5 104.2,339.8 99.8,339.8 99.8,361 95.1,361 			"/>
			<path d="M118.2,346.9l1-1.1v-5.6l-1-1.1h-3.1v7.8H118.2z M110.3,335.5h10.6l3.1,3.1v8.9l-2.6,2.5l2.8,10.9h-4.8l-2.6-10.4h-1.8
				V361h-4.8V335.5z"/>
			<path d="M135.3,351.1h3.1l-1.5-12.6L135.3,351.1z M133.6,335.5h6.9l3.9,25.5h-4.7l-0.7-5.9h-4.1l-0.7,5.9h-4.5L133.6,335.5z"/>
			<polygon points="149.8,357.3 152.6,357.3 152.6,339.1 149.8,339.1 149.8,335.5 160.2,335.5 160.2,339.1 157.4,339.1 157.4,357.3 
				160.2,357.3 160.2,361 149.8,361 			"/>
			<polygon points="166.8,335.5 171.6,335.5 171.6,356.8 177,356.8 177,361 166.8,361 			"/>
			<path d="M201.1,357.2l1-1V351l-1.2-1.2h-2.8v7.3H201.1z M200.9,346.1l1.2-1.2v-4.5l-1-1h-2.9v6.8H200.9z M193.4,335.5h10.4
				l3.1,3.1v6.8l-2.5,2.5l2.5,2.5v7.4l-3.1,3.1h-10.4V335.5z"/>
			<polygon points="214,335.5 218.7,335.5 218.7,356.8 224.2,356.8 224.2,361 214,361 			"/>
			<path d="M235.1,351.1h3.1l-1.6-12.6L235.1,351.1z M233.3,335.5h6.9l3.9,25.5h-4.7l-0.7-5.9h-4.1l-0.7,5.9h-4.5L233.3,335.5z"/>
			<polygon points="249.5,357.5 256,339.8 249.6,339.8 249.6,335.5 261.2,335.5 261.2,338.9 254.7,356.6 261.2,356.6 261.2,361 
				249.5,361 			"/>
			<polygon points="267.8,335.5 279,335.5 279,339.7 272.6,339.7 272.6,345.9 278.4,345.9 278.4,350.1 272.6,350.1 272.6,356.8 
				279.1,356.8 279.1,361 267.8,361 			"/>
			<path d="M293.9,346.9l1-1.1v-5.6l-1-1.1h-3.1v7.8H293.9z M286,335.5h10.6l3.1,3.1v8.9l-2.5,2.5L300,361h-4.8l-2.6-10.4h-1.8V361
				H286V335.5z"/>
			<polygon points="306,357.9 306,353.3 310.7,353.3 310.7,356 311.8,357.1 313.5,357.1 314.5,356 314.5,351.1 313.7,350.3 
				308.7,350.3 306.1,347.6 306.1,338.6 309.2,335.5 316.2,335.5 319.3,338.6 319.3,343.1 314.5,343.1 314.5,340.5 313.5,339.4 
				311.9,339.4 310.8,340.5 310.8,345.2 311.7,346 316.7,346 319.3,348.6 319.3,357.9 316.2,361 309.1,361 			"/>
		</g>
		<g>
			<path d="M37.5,230.3h3.4c3.4,0,5.7,1.1,5.7,5v21.9c0,3.7-1.1,5.6-6.4,5.6h-2.6V230.3z M61.7,237.8c0-14.8-8-19.7-23.6-19.7h-12
				h-3.8H10.2l12.2,12.2v89h15.1v-44.4h0.8c15.2,0,23.1-4.7,23.5-18.7l0,0V237.8z"/>
			<path d="M87.7,319.2c9.4,0,19.7-3.8,19.7-17v-67.1c0-13.2-10.4-17-19.7-17c-9.2,0-19.6,3.8-19.6,17v67.1
				C68.1,315.4,78.5,319.2,87.7,319.2 M83.2,236.4c0-5.1,1.6-6.2,4.7-6.2c3,0,4.5,1.1,4.5,6.2v64.5c0,5.1-1.6,6.2-4.5,6.2
				c-3.1,0-4.7-1.1-4.7-6.2V236.4z"/>
			<path d="M262.9,286.9h9.9l3.2,32.3h15.2l-11.5-101.1h-22.6l-11.5,101.1h13.6L262.9,286.9z M267.7,235.9h0.9l2.9,38.9h-7.2
				L267.7,235.9z"/>
			<path d="M387.8,300.9V241c0-17.8-6.3-22.9-21.2-22.9h-18.2v101.1h21.4C381.6,319.2,387.8,310.5,387.8,300.9 M372.8,299.6
				c0,6.5-1.8,7.5-5.7,7.5h-3.6v-76.8h3.6c3.8,0,5.7,1,5.7,7.5V299.6z"/>
			<path d="M129.1,274.7c7-0.3,9.3,2.1,9.3,8.2c0,20.4,0,36.3,0,36.3H153c0,0,0.3-10.9,0-40.1c-0.1-9.1-5.8-10.5-5.8-10.5
				c6.6-2.8,5.8-6.1,5.8-13.6l-0.1-19.6c0-13.1-7.1-17.3-19.2-17.3l-19.9,0v101.1h15.2V274.7z M128.9,230.2h3.6c3.4,0,5.7,1.1,5.7,5
				l0,20.9c0,3.7-1.1,6.5-6.4,6.5h-2.9V230.2z"/>
			<polygon points="239.2,307.1 220,307.1 220,218.1 204.9,218.1 204.9,319.2 239.2,319.2 			"/>
			<polygon points="170.4,230.3 170.4,319.2 185.5,319.2 185.5,230.3 198.5,230.3 198.5,218.1 149,218.1 161.2,230.3 			"/>
			<polygon points="311.3,263.1 328.3,319.2 328.4,319.2 342,319.2 342,218.1 328.4,218.1 328.4,274.8 311.3,218.1 311.2,218.1 
				297.6,218.1 297.6,319.2 311.3,319.2 			"/>
		</g>
	</g>
</g>
</svg>
