<?xml version="1.0" encoding="utf-8"?>
<!-- Generator: Adobe Illustrator 21.0.0, SVG Export Plug-In . SVG Version: 6.00 Build 0)  -->
<svg version="1.1" id="Layer_1" xmlns="http://www.w3.org/2000/svg" xmlns:xlink="http://www.w3.org/1999/xlink" x="0px" y="0px"
	 viewBox="0 0 400 400" style="enable-background:new 0 0 400 400;" xml:space="preserve">
<style type="text/css">
	.st0{fill:#FFFFFF;}
	.st1{fill:#C4CED4;}
</style>
<g>
	<path class="st0" d="M143.8,252.2l-13.2,19.6l21.7-7.1l8.8,21.2l6.6-22.8l24.4,6.3l-15.8-18.3l19-15.7l-17,1l11.2-12.6h21.9
		l25-44.3v-29.2h-17.7l-8.5,15.1l-1.6,11.4l-12.8,22.7h-11.7l11.5-20.3v-28.8h-18.4l-8.2,15l-1.5,11.5l-20,35.7l3.1,7.9l-3.9-4.2
		l1.6,21.6l-23.3,1L143.8,252.2z M153.7,224h8.3l-2.5,6.3L153.7,224z"/>
	<path d="M49.1,199.5c-7.2,1.8-14.5,3.8-21.6,5.8c-0.8,0.2-1.6,0.5-2.3,0.7v-2.4V191v-3.1c1.1-0.3,2.1-0.6,3.2-0.9
		c5.9-1.7,11.8-3.3,17.7-4.8c1-0.3,2.1-0.5,3.1-0.8v3.1v6.7c5.5-1.4,11-2.7,16.5-3.9v-12c-1.9-2.9-3.8-5.8-5.8-8.8
		c-1.4,0.3-2.8,0.7-4.2,1c-0.1,0-0.1,0-0.2,0c-11.8,2.8-23.5,6-35.1,9.5c-0.4,0.1-0.8,0.3-1.3,0.4c-1.5,0.4-2.9,0.9-4.4,1.4
		c-2,4.1-3.9,8.2-5.8,12.2l0,0v24.3c2.9,2,5.8,4,8.8,6.1c2.4-0.7,4.8-1.5,7.2-2.2c7.4-2.2,14.8-4.2,22.2-6.1
		c0.8-0.2,1.6-0.4,2.4-0.6v2.5v13.1v3.2c-1,0.3-2.1,0.5-3.1,0.8c-6.1,1.6-12.2,3.2-18.3,5c-1,0.3-2.1,0.6-3.1,0.9v-3v-6.8
		c-5.4,1.6-10.9,3.3-16.3,5v12.1l0,0c1.9,2.7,3.8,5.5,5.7,8.2c1.4-0.4,2.8-0.9,4.3-1.3c0.5-0.1,0.9-0.3,1.4-0.4
		c11.8-3.6,23.7-6.8,35.7-9.7c1.5-0.4,2.9-0.7,4.4-1c2-3.9,3.9-7.8,5.9-11.6v-25c-2.9-2.3-5.9-4.7-8.8-7
		C54.3,198.2,51.7,198.9,49.1,199.5"/>
	<path d="M389.5,220.2c-2.9-3.9-5.8-7.8-8.7-11.7c-2.6-0.8-5.2-1.6-7.8-2.4c-7.2-2.1-14.4-4.1-21.6-5.9c-0.8-0.2-1.6-0.4-2.4-0.6
		v-2.4v-12.7v-3.1c1.1,0.3,2.1,0.5,3.2,0.8c5.9,1.5,11.8,3.1,17.7,4.8c1,0.3,2.1,0.6,3.1,0.9v3.1v6.7c5.5,1.6,10.9,3.3,16.3,5v-12
		c-1.9-4-3.8-7.9-5.7-11.9c-1.4-0.4-2.8-0.9-4.2-1.3c-0.1,0-0.1,0-0.2-0.1c-11.6-3.6-23.3-6.8-35.1-9.6c-0.4-0.1-0.9-0.2-1.3-0.3
		c-1.5-0.4-3-0.7-4.5-1.1c-2,3-4,6-6,9c0,8.1,0,16.2,0,24.3c3,3.6,5.9,7.3,8.9,10.9c2.4,0.6,4.9,1.2,7.3,1.8
		c7.4,1.9,14.8,3.9,22.2,6c0.8,0.2,1.6,0.5,2.3,0.7v2.5v13.1v3.2c-1-0.3-2.1-0.6-3.1-0.9c-6.1-1.8-12.2-3.4-18.3-5
		c-1-0.3-2.1-0.5-3.1-0.8v-3.1v-6.8c-5.5-1.4-11-2.7-16.5-3.9v12.1l0,0c1.9,3.8,3.8,7.6,5.8,11.4c1.4,0.3,2.9,0.7,4.3,1
		c0.5,0.1,0.9,0.2,1.4,0.3c12,2.9,23.9,6.1,35.7,9.8c1.5,0.4,2.9,0.9,4.3,1.3c1.9-2.8,5.7-8.5,5.7-8.5
		C389.5,245.1,389.5,228.5,389.5,220.2"/>
	<path d="M130.3,154.5c-0.5,0.1-0.9,0.1-1.4,0.2c-15.6,1.8-31.1,4.2-46.5,7.1v74.6c5.5-1.1,11.1-2.1,16.7-3v-26
		c9.9-1.6,19.9-3,29.8-4.2c0.5-0.1,0.9-0.1,1.4-0.2c1.5-0.2,3-0.3,4.5-0.5c2.1-3.9,4.2-7.7,6.4-11.6v-26.8
		c-2.1-3.4-4.2-6.9-6.4-10.3C133.3,154.1,131.8,154.3,130.3,154.5 M124.4,170.8v17.3v3.8c-1.3,0.2-2.5,0.3-3.8,0.5
		c-7.2,0.9-14.4,2-21.5,3.1v-24.9c7.2-1.2,14.3-2.2,21.5-3.1c1.3-0.2,2.5-0.3,3.8-0.5V170.8z"/>
	<path d="M309.7,200.2c2-0.8,3.9-1.5,5.9-2.3v-1.2v-1.2v-1.1v-17.3v-5c-3.5-4.1-7-8.2-10.5-12.3c-16.2-2.8-32.4-5-48.7-6.5v74.6
		c5.6,0.5,11.2,1.1,16.8,1.8v-29.2c4.3,0.5,8.6,1.1,12.9,1.7c1.4,0.2,2.9,0.4,4.3,0.6c2.9,0.4,5.7,0.9,8.6,1.3v29.2
		c0.3,0,0.6,0.1,0.9,0.1c5.3,0.9,10.5,1.8,15.8,2.8V207v-2.5C313.6,203.1,311.7,201.7,309.7,200.2 M295,191.8
		c-7.3-1.1-14.6-2.2-21.9-3v-22c7.4,0.9,14.7,1.9,22.1,3.1c1.2,0.2,2.5,0.4,3.7,0.6v3.7v14.4v3.9C297.6,192.2,296.3,192,295,191.8"
		/>
	<path d="M79,134.9c-2.4,0.4-4.7,0.9-7,1.4c-0.3,0.1-0.5,0.1-0.8,0.2v-0.8v-4.1v-1c0.3-0.1,0.7-0.1,1-0.2c1.9-0.4,3.8-0.7,5.8-1.1
		c0.3-0.1,0.7-0.1,1-0.2v1v2.2c1.8-0.3,3.6-0.7,5.4-1v-3.9c-0.6-1-1.2-1.9-1.9-2.9c-0.5,0.1-0.9,0.2-1.4,0.2c0,0,0,0-0.1,0
		c-3.8,0.7-7.6,1.4-11.4,2.2c-0.1,0-0.3,0.1-0.4,0.1c-0.5,0.1-1,0.2-1.4,0.3c-0.6,1.3-1.3,2.5-1.9,3.8v7.9c1,0.8,1.9,1.5,2.9,2.3
		c0.8-0.2,1.6-0.3,2.4-0.5c2.4-0.5,4.8-0.9,7.2-1.4c0.3,0,0.5-0.1,0.8-0.1v0.8v4.2v1c-0.3,0.1-0.7,0.1-1,0.2c-2,0.4-4,0.8-6,1.1
		c-0.3,0.1-0.7,0.1-1,0.2v-1v-2.2c-1.8,0.4-3.6,0.7-5.3,1.1v3.9l0,0c0.6,1,1.2,1.9,1.9,2.9c0.5-0.1,0.9-0.2,1.4-0.3
		c0.2,0,0.3-0.1,0.5-0.1c3.9-0.8,7.7-1.5,11.6-2.2c0.5-0.1,1-0.2,1.4-0.3c0.6-1.2,1.3-2.4,1.9-3.7l0,0l0,0v-8.1
		c-1-0.8-1.9-1.6-2.9-2.4C80.8,134.6,79.9,134.7,79,134.9"/>
	<path d="M97.6,121.9c-2.2,8.4-4.4,16.8-6.7,25.2c1.7-0.3,3.4-0.6,5.1-0.8c0.5-1.9,0.9-3.8,1.4-5.6c2.6-0.4,5.2-0.8,7.9-1.2
		c0.5,1.7,0.9,3.5,1.4,5.2c1.8-0.3,3.7-0.5,5.5-0.8c-2.2-7.8-4.4-15.5-6.7-23.2C102.8,121.1,100.2,121.5,97.6,121.9 M98.4,136.4
		c1-4,2-8,2.9-12.1c1,3.7,1.9,7.5,2.9,11.2C102.3,135.8,100.3,136.1,98.4,136.4"/>
	<path d="M132.7,133.4c-2.8-5.1-5.7-10.1-8.5-15.2c-1.9,0.2-3.8,0.4-5.7,0.7v24.2c1.6-0.2,3.2-0.4,4.8-0.6v-16.2
		c2.8,5.1,5.6,10.2,8.4,15.3c1.9-0.2,3.8-0.4,5.8-0.6v-24.2c-1.6,0.2-3.2,0.3-4.8,0.5V133.4z"/>
	<path d="M161.6,115.1c-2.2,8.2-4.5,16.4-6.7,24.6c1.7-0.1,3.4-0.2,5.2-0.3c0.5-1.8,0.9-3.7,1.4-5.5c2.6-0.2,5.3-0.3,7.9-0.4
		c0.5,1.8,0.9,3.6,1.4,5.4c1.9-0.1,3.7-0.2,5.6-0.2c-2.2-8-4.5-15.9-6.7-23.9C166.9,114.8,164.2,114.9,161.6,115.1 M162.4,129.7
		c1-3.9,2-7.9,3-11.8c1,3.8,1.9,7.7,2.9,11.5C166.3,129.5,164.4,129.6,162.4,129.7"/>
	<path d="M198.4,130.1c-2.8-5.4-5.7-10.7-8.5-16c-1.9,0-3.8,0.1-5.7,0.1v24.2c1.6,0,3.2-0.1,4.8-0.1V122c2.8,5.4,5.6,10.7,8.4,16.1
		c1.9,0,3.8,0,5.8,0V114c-1.6,0-3.2,0-4.8,0V130.1z"/>
	<path d="M211.1,118.5c2.2,0,4.4,0.1,6.6,0.2v19.8c1.8,0.1,3.6,0.1,5.4,0.2v-19.8c2.2,0.1,4.4,0.2,6.6,0.3v-4.3
		c-6.2-0.3-12.4-0.5-18.6-0.6V118.5z"/>
	<path d="M279.1,135c-2.8-5.7-5.6-11.4-8.5-17.1c-1.9-0.2-3.8-0.4-5.7-0.6v24.2c1.6,0.2,3.2,0.3,4.8,0.5v-16.2
		c2.8,5.7,5.6,11.4,8.4,17.2c1.9,0.2,3.8,0.5,5.7,0.7v-24.2c-1.6-0.2-3.2-0.4-4.8-0.6V135H279.1z"/>
	<path d="M291.7,124.3c1.4,0.2,2.7,0.4,4.1,0.6v16.7c-1.4-0.2-2.7-0.4-4.1-0.6v3.7c4.5,0.6,9,1.3,13.5,2.1c0-1.2,0-2.5,0-3.7
		c-1.4-0.2-2.7-0.4-4.1-0.7v-16.7c1.4,0.2,2.7,0.4,4.1,0.7c0-1.2,0-2.5,0-3.7c-4.5-0.7-9-1.4-13.5-2.1V124.3"/>
	<path d="M254.9,116.4c-0.5,0-1-0.1-1.5-0.1l0,0c-3.9-0.3-7.7-0.6-11.6-0.9c-0.2,0-0.4,0-0.5,0c-0.5,0-1-0.1-1.5-0.1
		c-0.7,1.1-1.4,2.3-2.1,3.4v17c0.7,1.2,1.4,2.5,2.1,3.7c0.5,0,1,0.1,1.5,0.1c0.2,0,0.4,0,0.5,0c3.9,0.3,7.7,0.5,11.6,0.9l0,0
		c0.5,0,1,0.1,1.5,0.1c0.7-1.1,1.4-2.3,2.1-3.4v-17C256.3,118.9,255.6,117.7,254.9,116.4 M251.6,121.6v13.3v1.4
		c-0.5,0-0.9-0.1-1.4-0.1c-1.9-0.2-3.8-0.3-5.7-0.4c-0.5,0-0.9-0.1-1.4-0.1c0-0.5,0-0.9,0-1.4c0-4.4,0-8.9,0-13.3c0-0.5,0-0.9,0-1.4
		c0.5,0,0.9,0.1,1.4,0.1c1.9,0.1,3.8,0.3,5.7,0.4c0.5,0,0.9,0.1,1.4,0.1V121.6z"/>
	<path d="M332.2,131.2c-0.7-1.3-1.4-2.7-2-4c-0.5-0.1-1-0.2-1.5-0.3l0,0c-3.8-0.8-7.6-1.5-11.5-2.2c-0.2,0-0.4-0.1-0.5-0.1
		c-0.5-0.1-1-0.2-1.5-0.3c-0.7,1.1-1.4,2.1-2,3.2v17c0.7,1.3,1.4,2.6,2,3.9c0.5,0.1,1,0.2,1.5,0.3c0.2,0,0.4,0.1,0.5,0.1
		c3.8,0.7,7.7,1.4,11.5,2.2l0,0c0.5,0.1,1,0.2,1.5,0.3c0.7-1.1,1.4-2.1,2-3.2V131.2z M326.9,132v13.3v1.4c-0.5-0.1-0.9-0.2-1.4-0.3
		c-1.9-0.4-3.8-0.7-5.7-1.1c-0.5-0.1-0.9-0.2-1.4-0.3c0-0.5,0-0.9,0-1.4c0-4.4,0-8.9,0-13.3c0-0.5,0-0.9,0-1.4
		c0.5,0.1,0.9,0.2,1.4,0.3c1.9,0.4,3.8,0.7,5.7,1.1c0.5,0.1,0.9,0.2,1.4,0.3V132"/>
	<g>
		<path d="M170.2,177.9l-19.7,35l3.3,8.2H166l-5.6,14.1L150,223.9l1.2,16.6l-18.1,0.8l14.4,10.1l-10.2,15.3l16.5-5.4l6.8,16.4
			l5.2-17.9l18.4,4.7l-11.9-13.7l14.6-12.1l-15.1,0.9l16.4-18.5h21.5l23.8-42.2v-25.7h-13.4l-7.7,13.7l-1.3,11l-13.8,24.6h-18.1
			l13.5-23.8v-25.4h-14l-7.4,13.6L170.2,177.9z"/>
		<polygon class="st1" points="228.5,157 222.2,157 217.4,165.5 223.9,165.5 		"/>
		<polygon class="st1" points="187.8,157 181.1,157 176.3,165.5 183.4,165.5 		"/>
		<path class="st1" d="M175.1,211.1l-14,32l-6.3-6.8l0.6,8.6l-9.4,0.4l7.5,5.3l-5.3,7.9l8.6-2.8l3.5,8.5l2.7-9.3l9.6,2.5l-6.2-7.2
			l7.6-6.3l-10.7,0.7h-0.7l22.1-33.4h19.2l17-30.4h-6.6L200,205.9h-34.3l14.3-25.1h-6.7L156,211.2h19.1V211.1z"/>
		<polygon class="st1" points="181.6,169 175.4,169 174.6,176.3 181,176.3 		"/>
		<polygon class="st1" points="222.5,169 216.4,169 215.6,176.3 221.9,176.3 		"/>
		<path d="M158.1,252.6c1.6,0,2.8-1.2,2.8-2.8s-1.3-2.8-2.8-2.8c-1.6,0-2.8,1.3-2.8,2.8S156.5,252.6,158.1,252.6"/>
	</g>
</g>
</svg>
