<?xml version="1.0" encoding="utf-8"?>
<!-- Generator: Adobe Illustrator 20.0.0, SVG Export Plug-In . SVG Version: 6.00 Build 0)  -->
<svg version="1.1" id="Layer_1" xmlns="http://www.w3.org/2000/svg" xmlns:xlink="http://www.w3.org/1999/xlink" x="0px" y="0px"
	 width="400px" height="400px" viewBox="0 0 400 400" style="enable-background:new 0 0 400 400;" xml:space="preserve">
<style type="text/css">
	.st0{fill:#CD1141;}
	.st1{fill:#FFFFFF;}
	.st2{fill:#A0A0A3;}
</style>
<g>
	<path class="st0" d="M362,200c0,88.9-72.1,161-161,161c-88.9,0-161-72.1-161-161c0-88.9,72.1-161,161-161
		C289.9,39,362,111.1,362,200"/>
	<path d="M201,352.6c-40.4,0-78.5-15.7-107.3-44.1c-28.8-28.4-44.9-66.4-45.3-106.9c-0.4-40.8,15-79.3,43.5-108.4
		c28.5-29.1,66.7-45.4,107.4-45.9c0.6,0,1.2,0,1.7,0c40.4,0,78.5,15.7,107.3,44.1c28.8,28.4,44.9,66.4,45.3,106.9
		c0.4,40.8-15,79.3-43.5,108.4c-28.5,29.1-66.7,45.4-107.4,45.9C202.1,352.6,201.5,352.6,201,352.6"/>
	<g>
		<path class="st1" d="M216,95.2l-5.3,5.3h-14.9l-5.3-5.3V65.7l5.3-5.3h14.8l5.3,5.3V95.2z M200.5,69.1l-1.6,1.6v19.5l1.6,1.6h5.4
			l1.6-1.6V70.7l-1.6-1.6H200.5z"/>
		<path class="st1" d="M302.2,164.7l-7.1-2.5l-6.4-13.4l2.5-7.1l26.6-12.7l7.1,2.5l6.4,13.4l-2.5,7.1L302.2,164.7z M319,139.5
			l-2.1-0.7l-17.5,8.4l-0.8,2.1l2.3,4.9l2.1,0.7l17.6-8.4l0.8-2.1L319,139.5z"/>
		<path class="st1" d="M137.1,117.5l0.1,7.5l-10.4,10.7l-7.6,0.1l-21.1-20.5l-0.1-7.6L108.4,97l7.6-0.1L137.1,117.5z M107.6,110.4
			l0,2.3l14,13.6l2.3,0l3.8-3.9l0-2.3l-13.9-13.6l-2.3,0L107.6,110.4z"/>
		<polygon class="st1" points="270.7,77.4 255.1,114.3 248.6,111.6 246.9,85.4 237.8,107 230.8,104 246.4,67.1 255.1,70.8
			255.2,93.8 263.5,74.3 		"/>
		<path class="st1" d="M167.5,85.8l-1.8,6.2l11.2,11l-7.8,3.4l-10.4-10l-3.8,1.7l5.3,12.2l-7.1,3.1l-16-36.8l17.2-7.5l7.3,2.9
			L167.5,85.8z M151.1,89.5l6.3-2.8c0.1,0,0.8-2.1,0.8-2.1l-2.2-5l-2.1-0.8l-6.3,2.8L151.1,89.5z"/>
		<polygon class="st1" points="302.1,113.3 296.9,108.2 274.8,130.7 268.8,124.8 290.9,102.3 285.7,97.2 291.7,91 308.2,107.2 		"/>
		<polygon class="st1" points="88,136.2 85,142.9 113.8,155.8 110.4,163.5 81.6,150.6 78.6,157.3 70.7,153.7 80.2,132.7 		"/>
		<path class="st1" d="M308,238.7l-4,7.5l-2.8-1.5l-0.8,1.5L298,251l0.7,2.1l3.9,2.1l-0.5-0.3l2.2-0.6l4.7-9l7.4-2.2l12.1,6.3
			l2.2,7.2l-6.9,13.2c0,0-7.3,2.2-7.3,2.2l-6-3.2l3.9-7.5l3.1,1.6l3.3-6.2l-0.7-2.2l-3.2-1.7l-2.2,0.7l-4.6,8.8l-7.5,2.3l0,0
			l-12.1-6.3l-2.4-7.4l6.9-13.2l7.3-2.1L308,238.7z"/>
		<path class="st1" d="M101.8,266.3l-6.3-1.3l-10.2,11.9l-3.9-7.5l9.2-11.1l-1.9-3.7l-11.8,6.1l-3.6-6.9l35.6-18.5l8.7,16.6
			l-2.4,7.4L101.8,266.3z M97,250.2l3.2,6.1c0,0.1,2.2,0.7,2.2,0.7l4.8-2.5l0.7-2.2l-3.2-6.1L97,250.2z"/>
		<path class="st1" d="M154.3,314.8l-5.8,13.9l-7-2.9l15.4-37.1l17,7l2.8,7.3l-5.6,13.5l-5.6,3L154.3,314.8z M157.3,307.7l5.7,2.4
			c0,0,2.1-0.9,2.1-0.9l2.1-5.1l-0.8-2.1l-5.7-2.4L157.3,307.7z"/>
		<polygon class="st1" points="215.2,307.9 207.9,308 208.2,339.5 199.8,339.6 199.5,308.1 192.2,308.2 192.1,299.5 215.1,299.3
			"/>
		<path class="st1" d="M261.9,321l-3,6.9l-13.9,5.3l-6.9-3.1l-10.5-27.6l3.1-6.9l13.9-5.3l6.9,3.1L261.9,321z M238.1,302.1l-0.9,2.1
			l6.9,18.2l2.1,0.9l5.1-1.9l0.9-2.1l-6.9-18.2l-2.1-0.9L238.1,302.1z"/>
		<path class="st1" d="M291.3,282.2l0.1,6.5l13.9,7.3l-6.5,5.5L286,295l-3.1,2.7l8.6,10.1l-5.9,5l-26-30.6l14.3-12.1l7.8,0.7
			L291.3,282.2z M276.7,290.4l5.3-4.5c0,0,0.2-2.2,0.2-2.2l-3.5-4.2l-2.2-0.2l-5.3,4.5L276.7,290.4z"/>
		<path class="st1" d="M121.2,315.1l-6.3-5.8l2.9-5.9l-8.6-7.9l-5.7,3.4l-6.3-5.8l36.3-21.8l6.3,5.8L121.2,315.1z M121.4,296.1
			l5.5-11.1l-10.7,6.4L121.4,296.1z"/>
	</g>
	<g>
		<path class="st2" d="M232.3,280.7c0.1,0.2,0.2,0.4,0.3,0.4c0.4,0,1.3-0.2,1.3-0.2l0.9-0.4l2.5-1c0,0,6.3-3,6.3-3
			c0,0,1.1-0.6,1.1-0.6l0.6-0.3l0.7-0.5l1.1-0.7l1.3-0.7l1.7-1.1l3-2.1l1.5-1.1l2.1-1.5l1.9-1.4l0.9-0.7l1.3-1.2l1.3-1.3l2.1-2.3
			l2.5-2.4l2.8-3.3l1.6-2.1l0.5-0.7l1.7-2.1l3.3-4.7l0.9-1.5l2.2-4.3l1.2-2.3l2.1-4.3l1.1-2.6l1.2-4c0,0,1.5-5.3,2.3-8
			c0.1-0.3,0.1-0.6-0.1-0.9c-0.5-0.6-0.8-1.4-1.2-2.1c-0.2-0.4-0.5-0.7-0.7-1.1c-0.2-0.3-0.8-1-1-1.3c-0.2-0.3-0.5-0.5-0.8-0.7
			c-0.7-0.6-1.3-1.3-1.8-1.7c-0.3-0.1-0.5-0.3-0.8-0.5c-1.8-1.4-3.6-2.5-5.6-3.3c-0.8-0.4-1.7-0.7-2.6-1c-0.6-0.2-1.6-0.4-2.2-0.6
			c-0.4-0.1-0.7-0.1-0.9,0.1c-0.3,0.2-0.3,0.6-0.3,1c-0.1,1.1-0.2,2.3-0.3,3.4c-0.1,1.1-0.2,2.3-0.3,3.4c-0.1,1-0.1,2.1-0.3,3.1
			c-0.2,1.4-0.3,2.7-0.6,4.1c-0.5,2.5-1,5-1.5,7.5c-0.1,0.7-0.2,1.4-0.5,2c-0.5,1.1-0.8,2.2-1,3.3c-0.5,2.4-1.3,4.6-2.1,6.9
			c-0.7,1.8-1.3,3.7-2.4,5.4c-0.1,0.1-0.1,0.2-0.2,0.4c-0.5,1.2-1,2.3-1.5,3.5c-0.3,0.7-0.8,1.4-1.1,2.2c-0.4,0.9-0.9,1.8-1.5,2.7
			c-0.9,1.4-1.8,2.7-2.6,4.1c-0.5,1-1.1,1.9-1.8,2.8c-0.2,0.2-0.3,0.5-0.5,0.7c-0.5,0.8-1,1.6-1.6,2.3c-1.1,1.4-2.2,2.8-3.4,4.1
			c-0.7,0.8-1.5,1.6-2.3,2.4c-0.7,0.7-1.4,1.5-2.1,2.2c-0.1,0.2-0.3,0.3-0.5,0.4c-0.4,0.4-0.9,0.7-1.2,1.1c-0.9,0.9-1.8,1.8-2.9,2.5
			c-0.5,0.3-0.9,0.6-1.3,1C235,279.2,233.7,279.9,232.3,280.7"/>
		<path class="st2" d="M288.7,213.2c0,0,0.1-0.1,0.1-0.2c0-0.2,0.1-0.6,0.1-0.6l0.6-5.5l0.4-5.1l0-5.1l0-0.8l-0.6-5.8
			c0,0-0.7-5.2-1.2-7.9c-0.2-1-0.8-1.4-1.6-1.8c-0.3-0.1-0.5-0.3-0.8-0.3c-0.6-0.2-1.2-0.4-1.8-0.6c-1.3-0.3-2.5-0.8-3.9-1
			c-1.6-0.3-3.1-0.4-4.7-0.6c-1.3-0.1-2.6-0.2-3.9-0.2c-1,0-1.7,0-2.7,0c-0.6,0-1.1,0-1.4,0.4c-0.3,0.3-0.1,1,0,1.6
			c0.2,1.3,0.4,1.9,0.6,3.1c0.6,3.7,1.3,7.4,1.4,11.2c0.1,1.7,0.2,3.4,0.2,5.1c0,0.5,0,0.8,0,1.3c0,0.3,0.1,0.6,0.2,0.8
			c0.1,0.2,0.4,0.3,0.7,0.4c0.3,0.1,0.6,0.1,1,0.2c0.3,0.1,0.9,0.2,1.3,0.3c1.5,0.5,3.1,1,4.6,1.6c1,0.4,2,1,3,1.5
			c0.1,0.1,0.2,0.1,0.3,0.2c0.6,0.4,1.2,0.9,1.7,1.3c1.4,1,2.8,2,3.8,3.4c0.2,0.3,0.4,0.5,0.7,0.7c0.4,0.4,1.1,1.7,1.6,2.3
			C288.5,213.1,288.6,213.2,288.7,213.2"/>
		<path class="st2" d="M250,151.5c0.5,0,1,0,1.4-0.1c0.3,0,0.6,0,0.7-0.4c0.1-0.3-0.1-0.6-0.2-0.8c-0.1-0.3-1.1-2-1.1-2l-1-1.5
			l-4.1-5.9l-0.8-1l-0.8-1.1l-1.3-1.5l-3.3-3.6l-1.4-1.4l-5.1-4.7l-4.2-3.2l-1.5-0.8l-4.9-3l-3.4-1.9l-0.7-0.3l-2.8-1l-4.2-1.6
			l-0.3-0.1l-1.3-0.3l-0.4-0.1l-1.2-0.3l-2.5-0.5l-1.2,0l-2.2-0.4l-2.6-0.2l-0.9-0.1l-1.7,0l-2.8,0.1l-2.7,0.3l-2.1,0l-1.9,0.2
			l-1.9,0.4l-1.5,0.4l-2.4,0.5l-0.5,0l-2.2,0.8l-1.3,0.4l-0.8,0.5l-1.9,0.5l-0.9,0.5L173,119l-2.9,1.2l-3.6,1.4l-1.2,0.6l-2.5,1.4
			l-2.2,1.4l-2.1,1.1l-0.8,0.4l-2.3,1.2l-0.4,0.2l-2.6,2l-2.1,1.4l-0.4,0.3l-2.4,1.9l-0.9,0.7c0,0-1.3,1.1-1.3,1.3l0.9-0.3
			c0,0,1.7-0.6,1.7-0.6c0,0,0.3,0,0.3,0l2.4-1h0.3l2.6-1c0,0,1.4-0.4,1.4-0.4s1.4-0.5,1.4-0.5l1.9-0.7l4.7-1.8l0.4,0l2.4-0.8
			l1.9-0.8l0.3,0.2c0,0,3.7,0.1,3.7,0.1c0,0,2.4,0.2,2.4,0.2l0.1,0l4.7,0.4l0,0l6.6,0.3l0,0.2l2.3,2l0.2,0l2.4,2.3l0.2-0.1l3.3,0.1
			l0.2-0.1l8.2,0.5l0,0.2l3.6,2.1l0.2,0l6.4,3.1l0,0.3l3.7-1.4l5.4,1.8l0.9,1.5l2,0.1l1.9,2.1l0.2,0l1.5,1.7l0,0.1h0.2l4.2,1
			l1.6,2.4l3.9,1.4c0,0,4.2,1.1,6.3,1.3C246.2,151.7,248.5,151.6,250,151.5"/>
		<path class="st2" d="M286.4,176.3c-0.1-0.6-0.6-1.9-0.6-1.9l-0.2-0.7l-0.2-0.8l-0.7-2.1L284,169l-2-4.5l-0.9-2.2l-1.1-2.5
			l-1.4-2.2l-0.3-0.6l-0.9-1.8l-0.9-1.4l-0.4-0.5l-5.8-7.9c0,0-0.6-0.7-0.9-1c-0.1-0.2-0.2-0.3-0.4-0.3c0,0,0,0,0,0
			c0,0-1.8,2.9-2.6,3.8c-0.7,0.8-2.3,2.2-2.3,2.2s-1.3,1-1.5,1.2c-0.2,0.2-1.2,0.8-1.2,0.8l-1.3,0.8c0,0-1,0.5-1.2,0.5
			c-0.2,0.1-0.4,0.1-0.5,0.3c-0.1,0.1-0.1,0.2-0.1,0.5c0,0.2,0.1,0.3,0.2,0.5c0.5,1.1,1,2.3,1.6,3.4c0.9,1.6,1.5,3.4,2.2,5.1
			c0.2,0.6,0.5,1.1,0.7,1.7c0.5,1.5,1,3,1.4,4.5c0.2,0.7,0.4,1.3,0.6,2c0.2,0.7,0.3,1.4,0.5,2c0.1,0.4,0.4,0.7,0.9,0.6
			c0.4,0,0.9,0,1.3,0c1.6,0,3.1-0.1,4.7-0.1c0.4,0,3.6,0.3,3.6,0.3s1.1,0.1,1.7,0.2c1.2,0.2,2.4,0.5,3.6,0.7c1,0.2,2,0.6,3,1
			c0.4,0.2,0.9,0.3,1.4,0.5c0.2,0,0.4,0.1,0.4,0.1C286.4,176.5,286.4,176.4,286.4,176.3"/>
		<path class="st2" d="M265.9,141.4c0-0.2-0.5-0.9-0.5-0.9l-0.3-0.5l-0.8-1l-0.6-0.8l-1.1-1c0,0-0.2-0.2-0.4-0.3
			c-1.9-1.5-5.6-4.5-5.6-4.5c0,0-1-0.8-1-0.8l-1.9-1.7l-9.7-5.8l-7.6-3.6c0,0-4.1-1.6-4.1-1.6c0,0-1.5-0.5-1.5-0.5c0,0-5-1.7-5-1.7
			l-3.5-0.9l-3.4-0.7l-0.5,0l-0.3,0.3l0.1,0.1c0,0,0.3,0.2,0.5,0.2c1.1,0.4,2.1,0.8,3.2,1.2c0.7,0.3,1.4,0.6,2.1,0.9
			c0.5,0.1,1,0.3,1.4,0.6c1.6,0.9,3.2,1.9,4.9,2.8c1,0.6,1.9,1.3,2.7,2c0.6,0.6,1.3,1.1,2,1.5c0.3,0.2,0.6,0.5,0.9,0.8
			c0.2,0.1,0.3,0.3,0.5,0.4c0.9,0.8,2,1.5,2.8,2.4c0.9,1,1.8,1.9,2.8,2.8c0.9,0.9,1.8,1.7,2.6,2.7c0.6,0.8,1.3,1.6,2,2.4
			c1.4,1.4,2.5,3,3.8,4.5c0.2,0.2,0.3,0.4,0.4,0.6c0.8,1.3,1.6,2.7,2.6,3.9c0.7,0.8,1.3,1.7,1.8,2.7c0.3,0.6,0.7,1.1,1.1,1.7
			c0.2,0.3,0.6,0.5,0.8,0.5c0.2,0,0.5-0.2,0.5-0.2l0.7-0.3c0,0,0.9-0.4,1.2-0.5c0.3-0.1,0.9-0.5,1.1-0.7c0.2-0.2,1.1-0.8,1.6-1.3
			c0.5-0.5,1.6-1.7,1.6-1.7l0.7-1l1.3-2.2C265.7,142.1,266,141.6,265.9,141.4"/>
		<path class="st2" d="M261.9,173.6c-0.5-1.6-0.9-3.1-1.5-4.7c-0.5-1.3-0.8-2.6-1.4-3.9c-0.4-0.7-0.6-1.6-0.8-2.4
			c-0.2-0.4-0.4-0.8-0.5-1.2c-0.7-2-1.7-3.7-2.7-5.6c0-0.1-0.1-0.2-0.2-0.4c-0.1-0.2-0.2-0.3-0.4-0.5c-0.2-0.1-0.4,0-0.9,0
			c-0.8,0.1-1.9,0.2-2.3,0.2c-0.4,0-2,0.1-3.3,0.2l-0.3-0.1h-0.8H246l-4.2-0.5c-1.5-0.2-5-1.1-5-1.1l-2.6-0.9l-3.2-1.1l-0.2,0.1
			l-4.9-0.4l-0.2,0.1l-2.8-2.1l-0.3,0l-1.7-1.6l-0.1-0.3l-1.9-0.3l-0.2,0.1l-1.6-0.5l-0.2-0.2l-3.6,0.3l-3.3-1.3l-11.4,0.6l-0.2-0.1
			l-2.1,0.2l-0.2,0.2l-5.6,0.4l-0.2-0.1l-8,4.6l-0.1,0.3l-0.4,0.3l-0.2-0.1l-4-0.4l-0.2,0.1l-7.1,0l-0.2-0.1l-2-0.1l-0.6-0.4
			l-7.4,5.8l0,0.1l-2.6,2.1l-2.9-1.4l-0.2,0.1l-1.1-0.3c0,0-5.4,1.4-5.3,1.4c0,0-5-0.8-5-0.8l-0.3-0.3l-0.9,1l-2,1l-0.1,0.2l-4,3.1
			l-5.7,4.1l-6.4,4.8l-2.9,2.1l-0.1,1.2l-1.2,2.8l-0.5,2.4l-0.8,4.9l-0.5,2.1l-0.2,2.5l-0.7,5.3l-0.3,11.5l0.3,0.7l0.2,3.2
			c0,0,0,0.6,0.2,0.6c0,0,0,0,0,0l14.1-14.6l4.6-1.9l3.9-0.2l2.4-2.7l0.2-0.5l0.3,0.1l6.4-0.7l0.3-0.2h2.4l0.4,0.1l0.8-1l2.9-1.8
			l3.1-2.1l8.6,0.1l0.1,0.2l3.4,0.3l2.6-0.5l4.8-4.9l0.1,0l3.8-3.6l5.7-0.7l0.2-0.2l0.3,0.2l3,1.4l0.2-0.2l2.6-0.3l0.1-0.1l2.5-0.4
			l0.2-0.1l2.7,2.3l0.1-0.2l5.5-0.1l0.5-0.3l4.4,0.2l0.2,0.1l0.7-0.2l0.1-0.2l1.8-0.8l0.2,0l2-0.9l0.2-0.2l2.2-0.8l0.2-0.3l6.1-2.3
			l0.1-0.1l1.1-0.3l0.2-0.2l0.3,0.3l1.8,0.9l0.5,0l2,1.1l0.1-0.2l0.6-0.3l0.1,0l1-0.5l0-0.1l1.4-0.3l3.6,0.9l0.8-0.2l0.7,0.4
			l2.7,0.4l2.6,1c0,0,1.5-0.1,1.5-0.1c0,0,0.5,0.3,0.5,0.3l0.4-0.2c0,0,5.1-0.6,7.7-0.8c1.7-0.1,3.3-0.3,5-0.5
			c0.9-0.1,1.9-0.2,2.8-0.3C261.8,174.4,262.1,174.2,261.9,173.6"/>
		<path class="st2" d="M265.6,199.9c0-0.4-0.1-0.6-0.1-0.9c-0.1-1-0.1-2-0.2-3c0-0.3-0.1-0.7-0.1-1c-0.1-1.2-0.1-2.5-0.2-3.7
			c-0.2-1.6-0.4-3.1-0.6-4.6c-0.2-1.2-0.4-2.4-0.6-3.6c-0.2-1.3-0.4-2.4-0.7-3.6c-0.3-1.3-0.5-1.4-1.8-1.3c-0.1,0-0.2,0-0.3,0.1
			c-0.5,0.1-1.1,0.2-1.6,0.2c-2.5,0.3-4.9,0.5-7.4,0.8l-7.2,2.5l-10.4-0.3l-1.1-0.4l0,0.2l-3.1,2.3l-0.4,0l-2.4,2.3l-0.1,0.3
			l-6.2,0.8l-5.7,4.4l-0.6,0l-3,1.8l-1.2,0.1l-1.2,1l-0.3-0.2l-5.8-0.4l-1,1.1l0,0.2l-5,5.5l-0.1,0.3l-0.2,0l-6.4,7.3l-1.8,0
			l-0.1,0.2l-5.3,0.9l-0.4,0c0,0-0.1,0.2-0.1,0.3c0,0-8.7,4.8-8.7,4.8l-3.9-0.5l-0.8,0.3l-3.9-0.2l-3.8,4.1l-2.3,0.5l-1.3-0.1
			l-1.4,0.6l-0.8-0.1l0,0.2l-4.8,3.7l-0.5,0.1l-7.5,5.8l0.1,0.3l-4.6,11.2l0.2,0.5l-7.6,0.7l-2.5,2.2l-0.2,0.8l3.4,4.7l2.5,3.8
			l2.2,2.8l3.5,3.8c0,0,0,0.3,0.1,0.3c0.1,0,0.5,0,0.5,0.1c0,0,2.1,0.7,2.1,0.7c0,0,2.6,0.8,2.6,0.8s0,0.1,0.1,0.1c0,0,0.3,0,0.3,0
			l4.3,1.7l0.3,0l0.2,0.3c0,0,0.4,0,0.4,0c0,0,1,0.7,1,0.7l1.8-1l0.1,0l0.8-0.5l6.5,1.6l4.8-2.4l10.6-1.1l4.4-7
			c0.7-0.7,1.9-1.9,1.9-1.9l0.2,0c0,0,1.5-1.4,1.5-1.4c0,0,0-0.2,0-0.2l2.7-2.5l1.3-1.3c0,0,0.3-0.2,0.3-0.2c0,0,1.5-1.5,1.5-1.5
			l1.2-1.2l0.3-0.1l-0.3-1.1l1.2-4.5l2.4-0.7l0.1-0.1l0.7-0.2l0-0.4l3.2-5.2l0.3-0.1l1.3-2.6l2.2-1.2l0.3-0.4l0.4,0.1
			c0,0,1.3-0.7,1.3-0.7h0.1l2.3-1l0.2-0.3l7.8-3.6l0.5,0l0.1-0.4l0.3-0.2l0.8-2.7l2.5-1.1l2.8-0.3l2.6-1.8l3.7,0.2l0.4,0.3l0.2-0.2
			l5.2-2.3l0-0.7l1.2-2.4l2.5-0.7l0.1-0.2l3.5-0.7l1.3-1.6l0.2,0c0,0,0.8-0.8,0.8-0.8c0,0,2.4,0.3,2.4,0.3l0.1,0.1l1.3,0.2l0.8,0.1
			c0,0,3.5-1.6,5-2.2c0.6-0.2,1.2-0.4,1.8-0.6c0.8-0.3,1.6-0.6,2.4-0.8c0.4-0.1,0.8-0.2,1.2-0.4l1.6-0.3l1.9-0.3l1.2-0.1
			c0,0,0.6-0.1,0.8-0.1c0.2,0,0.5,0,0.8-0.3c0.3-0.2,0.2-0.5,0.3-0.7C265.6,200.3,265.6,200.2,265.6,199.9"/>
		<path class="st2" d="M265.6,206.7c0-0.3,0-0.7-0.2-1c-0.2-0.2-0.5-0.3-0.7-0.3c-0.2,0-1.1,0.1-1.1,0.1l-1.5,0.2
			c-0.2,0-0.3,0.1-0.5,0.1c-0.9,0.2-1.8,0.4-2.7,0.7c-1,0.3-2,0.5-2.9,1c-1,0.4-2.1,0.8-3.1,1.3c-0.4,0.2-3.7,1.8-5.2,2.6l-2,2.1
			l-0.1,0.4l-0.3-0.1l-1.2,0.1L244,214l-4,1.3l0,0.4l-0.4,0.4l0,0.3l-1.9,3.3l-0.3,0l0,0.3c0,0-0.4,0.6-0.8,1.3l-8.4,5.4l-0.2,0
			l-1.3,1.1l-0.9,3.5l-0.8,0.8l-3.3,12.1l0.4,1.4l-4.8,2.3h-0.8l-0.9,4.2l-0.2,0.1l-1.2,3.8l0.1,0.2l-0.5,3.3l-0.2,0.2l0.2,0.3
			l-4.7,7.4l-0.4,0.1l-1.1,1.8l0,0.4c0,0-4,5.6-4,5.6c0,0-4.2,2.5-4.2,2.5l0.2,0.4c0,0-0.2,1.7-0.2,1.7l0.4,0.6l-0.6,0.2l-3,1.8
			l-0.3-0.1l-4.5,2.6l-0.5,0.8c0,0.1,1.7,0.3,1.7,0.3l2.9,0.2l2,0.1l2.3,0l1.1,0l1.7,0l1.7,0l6.2-0.8l3.7-0.7l2.8-0.8l3-0.9l3.9-1.5
			l0.3-0.2l1.1-0.6c0,0,3.1-1.7,4.5-2.7c2.4-1.8,4.8-3.6,7-5.7c0.8-0.7,1.5-1.4,2.2-2.2c0.7-0.7,1.4-1.4,2.1-2.1
			c0.1-0.1,0.3-0.2,0.3-0.4c0.2-0.6,0.7-1,1.1-1.4c0.3-0.3,0.6-0.6,0.8-0.9c0.5-0.8,1.2-1.3,1.8-1.9c0.5-0.5,1-1,1.4-1.6
			c0.7-1,1.4-2.1,2.1-3.2c0.9-1.4,2-2.8,2.8-4.3c0.9-1.6,1.7-3.2,2.6-4.8c0.8-1.3,1.5-2.7,2.1-4.1c1-2.3,2-4.7,2.9-7
			c1-2.5,1.7-5.1,2.4-7.7c0.5-1.9,0.8-3.9,1.5-5.8c0.1-0.2,0.1-0.5,0.2-0.8c0.3-1.6,0.5-3.2,0.8-4.8c0.2-1.5,0.4-3,0.7-4.5
			c0.2-1,0.3-2.1,0.4-3.1c0.1-1.4,0.2-2.9,0.2-4.3c0-0.2,0-0.5,0-0.5S265.5,207,265.6,206.7"/>
	</g>
</g>
</svg>
