<?xml version="1.0" encoding="UTF-8"?>
<!-- Generator: Adobe Illustrator 16.0.3, SVG Export Plug-In . SVG Version: 6.00 Build 0)  -->
<!DOCTYPE svg PUBLIC "-//W3C//DTD SVG 1.1//EN" "http://www.w3.org/Graphics/SVG/1.1/DTD/svg11.dtd">
<svg version="1.1" id="Layer_1" xmlns="http://www.w3.org/2000/svg" xmlns:xlink="http://www.w3.org/1999/xlink" x="0px" y="0px" width="400px" height="400px" viewBox="0 0 400 400" enable-background="new 0 0 400 400" xml:space="preserve">
<g>
	<g>
		<path fill="#8B8D8D" d="M200.494,39.525c-88.375,0-159.996,71.601-159.996,159.979c0,88.373,71.621,159.973,159.996,159.973    c88.357,0,159.995-71.6,159.995-159.973C360.489,111.125,288.852,39.525,200.494,39.525"/>
	</g>
	<g>
		<path fill="#CF0A2C" d="M354.55,198.93c0-82.785-70.82-154.018-153.619-154.018c-82.771,0-154.491,71.616-154.491,154.401    c0,76.001,60.421,143.08,134.349,153.593c6.24,0.77,12.593,1.178,19.04,1.187h0.093h0.084h0.033    c14.011-0.005,27.582-1.881,40.49-5.372C305.095,330.182,354.55,268.12,354.55,198.93z"/>
	</g>
	<g>
		<path fill="#FFFFFF" d="M354.35,191.459l-307.688,0.027c-0.146,2.634-0.222,5.28-0.222,7.939c0,14.028,2.063,27.75,5.886,40.867    c36.234,0,259.469-0.021,296.322-0.037c3.838-13.234,5.904-27.075,5.904-41.214C354.55,196.503,354.482,193.976,354.35,191.459z"/>
	</g>
	<path fill="#0D2240" d="M180.763,352.945c6.239,0.771,12.593,1.179,19.04,1.188h0.093h0.085h0.034   c14.01-0.004,27.582-1.878,40.489-5.372c40.424-11.604,74.922-40.272,95.07-77.066H65.416   C88.927,314.322,131.89,345.996,180.763,352.945z"/>
	<g>
		<path fill="#FFFFFF" d="M199.776,79.338c0,0-1.213-21.724-1.218-22.725c0.007-0.996,1.125-1.997,1.125-1.997    c-0.77,0.011-3.761,0.226-6.92,0.338c-0.767,0.156-2.156,0.194-1.859,3.358l1.28,23.96l7.727-0.412l0.562-0.158    C200.473,81.705,199.955,80.828,199.776,79.338"/>
		<path fill="#FFFFFF" d="M277.487,83.603l2.811-4.895l-11.423-6.594c0,0-0.049-0.036-0.111-0.064l-6.482-3.743    c-0.929-0.538-1.594,0.169-1.824,0.533c-0.229,0.376-2.582,4.523-2.582,4.523l0.004,0.001l-1.043,1.839    c0,0,1.578-1.53,3.389-0.483l4.041,2.334l-10.327,17.899l7.272,4.214c0,0,0.028-1.187,0.688-2.534c0,0,5.719-9.949,9.055-15.715    l3.117,1.797c1.798,1.038,1.739,3.857,1.739,3.857L277.487,83.603z"/>
		<path fill="#FFFFFF" d="M255.208,65.141l-10.635-3.691c-3.429-1.19-5.858-1.501-7.306-0.959c-1.442,0.546-2.679,2.309-3.711,5.299    l-3.895,11.238c-0.466,1.319-0.751,2.422-0.862,3.321c-0.221,1.75,0.179,3.109,1.19,4.056c1.001,0.955,2.87,1.908,5.621,2.863    l4.802,1.662c3.466,1.205,5.925,1.525,7.354,0.976c1.438-0.553,2.679-2.313,3.719-5.303c0,0,1.861-5.261,2.122-6.059    c0.449-1.451-0.639-2.376-1.252-2.587l-9.004-3.129c-1.058-0.367-1.732,0.438-2.106,1.118c-0.363,0.684-1.696,4.532-1.696,4.532    l-0.472,1.197c0,0,1.018-1.001,2.367-0.538l3.312,1.15c-0.508,1.212-1.06,1.898-1.632,2.08c-0.521,0.185-1.611-0.023-3.284-0.606    c0,0-1.164-0.449-1.479-0.638c-0.805-0.515-1.155-1.184-1.049-2.033c0.06-0.485,0.247-1.15,0.542-2.026l2.161-6.227    c0.578-1.665,1.171-2.594,1.779-2.792c0.614-0.182,1.749,0.004,3.423,0.587l8.18,2.835c1.474,0.512,1.76,2.443,1.76,2.443    l0.571-1.633l1.452-4.2C257.6,66.476,256.59,65.62,255.208,65.141"/>
		<path fill="#FFFFFF" d="M173.672,57.29c0,0,2.44,0.781,2.851,2.68l0.033,0.08l1.407,6.775l-5.371,1.125    c-1.582,0.327-1.914,1.893-1.914,1.893l-2.295-11.46l-9.251,1.928c0,0,1.915,0.889,2.316,2.789l0.038,0.08l4.877,23.51    l5.405-1.115c1.06-0.222,1.82-0.469,2.015-1.295l-1.97-9.445l7.486-1.562l2.13,10.29l5.401-1.115    c1.063-0.22,1.829-0.472,2.02-1.296l-5.397-25.898L173.672,57.29z"/>
		<path fill="#FFFFFF" d="M299.05,99.111c0.777-1.583,0.822-3.027,0.116-4.318c-0.571-1.162-2.027-2.656-4.349-4.481l-3.985-3.141    c-2.852-2.246-5.054-3.334-6.592-3.286c-1.541,0.044-3.287,1.306-5.248,3.79l-7.339,9.356c-0.864,1.098-1.488,2.053-1.886,2.867    c-0.776,1.583-0.854,2.988-0.212,4.21c0.637,1.233,2.1,2.747,4.385,4.544l3.989,3.145c2.884,2.271,5.107,3.376,6.635,3.32    c1.547-0.048,3.288-1.312,5.247-3.798l7.352-9.351C298.017,100.88,298.65,99.925,299.05,99.111 M289.419,99.253l-4.06,5.168    c-1.1,1.414-2.003,2.084-2.73,2.058c-0.543,0.009-1.505-0.544-2.905-1.644l0.607,0.468c-0.966-0.761-1.552-1.282-1.786-1.562    c-0.59-0.747-0.702-1.49-0.325-2.261c0.217-0.438,0.606-1.008,1.169-1.741l4.07-5.184c1.094-1.382,1.963-2.066,2.59-2.063    c0.644,0.031,1.655,0.579,3.052,1.677l-0.576-0.443c0.96,0.757,1.557,1.279,1.79,1.583c0.59,0.724,0.703,1.487,0.324,2.255    C290.43,97.993,290.022,98.558,289.419,99.253"/>
		<path fill="#FFFFFF" d="M161.129,76.635c-1.759-3.373-5.43-4.528-9.16-2.975l-4.204,1.753c-1.514,0.632-2.578,0.516-3.176-0.348    c-0.022-0.031-0.185-0.389-0.198-0.428c-0.188-0.629-0.659-1.721,1.583-2.655l7.589-3.162c1.635-0.683,4.122,0.95,4.122,0.95    s-1.503-3.571-2.425-5.762c-0.532-1.28-2.171-2.108-3.507-1.551l-9.293,3.872c-3.351,1.395-5.376,2.774-6.083,4.143    c-0.707,1.36-0.435,3.528,0.776,6.456l1.067,2.498c0.163,0.375,0.358,0.731,0.579,1.052c0.853,1.232,2.04,2.054,3.581,2.469    c1.83,0.471,3.924,0.207,6.29-0.779l3.616-1.508c1.398-0.583,2.411-0.43,3.022,0.456c0.165,0.236,0.247,0.499,0.25,0.78    c0,0,0.413,1.266-2.47,2.466l-7.297,3.041c-1.634,0.555-3.998-0.991-3.998-0.991s1.5,3.571,2.426,5.762    c0.531,1.278,2.169,2.107,3.507,1.549l0.723-0.302l5.02-2.09l3.642-1.518c3.354-1.396,5.375-2.768,6.079-4.147    c0.714-1.373,0.411-3.356-0.802-6.265C162.384,79.4,161.444,77.232,161.129,76.635"/>
		<path fill="#FFFFFF" d="M316.421,114.37l-1.31-1.646c0,0,0.364,2.367-1.147,3.564l0.042-0.031l-8.121,6.339l5.227-14.255    c0.124-0.36,0.063-0.706-0.205-1.05c-0.592-0.758-4.005-5.154-4.005-5.154l-1.406-1.778c0,0,0.377,2.551-1.146,3.746    l-18.976,14.846l3.395,4.351c0.664,0.848,1.228,1.434,2.054,1.234c0,0,4.778-3.747,10.13-7.935l-4.821,12.487    c-0.856,1.988-2.201,0.805-2.201,0.805l0.968,1.313l0.016-0.004l3.378,4.332c0.667,0.853,1.225,1.426,2.046,1.226l20.839-16.296    L316.421,114.37z"/>
		<path fill="#FFFFFF" d="M221.36,56.297l-2.092-0.215c0,0,1.946,1.396,1.742,3.313l0.007-0.052l-1.156,10.237l-6.522-13.713    c-0.172-0.338-0.46-0.538-0.896-0.588c-0.957-0.107-6.484-0.746-6.484-0.746l-2.255-0.241c0,0,2.089,1.516,1.875,3.442    l-2.681,23.94l5.483,0.625c1.069,0.121,1.883,0.126,2.319-0.605c0,0,0.667-6.032,1.425-12.786l5.542,12.184    c0.821,2.002-0.964,2.134-0.964,2.134l1.61,0.233l0.011-0.016l5.457,0.619c1.075,0.121,1.878,0.121,2.31-0.604l2.945-26.288    L221.36,56.297z"/>
		<path fill="#FFFFFF" d="M106.269,87.138l-0.8,0.965l-4.292,4.867c-0.02,0.03-0.027,0.047-0.059,0.084    c-0.583,0.661-0.993,1.224-0.944,1.832l10.922,16.848l-15.394-8.321c-1.953-0.79-1.135-2.928-1.135-2.928l-1.545,1.736    l-3.162,3.585c-0.017,0.027-0.023,0.046-0.056,0.083c-0.801,0.905-1.199,1.817-0.773,2.795l11.039,15.533l-15.43-7.928    c-2-1.028-1.134-3.253-1.134-3.253l-1.636,1.837l-3.635,4.124c-0.012,0.024-0.023,0.046-0.065,0.091    c-0.83,0.944-1.042,2.3-0.235,2.961c0.114,0.102,0.045,0.067,0.045,0.067l23.959,11.225l5.624-6.378    c0.761-0.863,0.983-1.333,0.627-2.248l-4.54-8.434l9.291,4.577l5.992-6.8c0.742-0.841,0.848-2.038,0.545-2.947l-12.74-21.307    C105.919,88.354,106.269,87.138,106.269,87.138"/>
		<path fill="#FFFFFF" d="M119.512,79.293l-4.558,3.189c-0.917,0.648-1.311,1.252-1.219,2.21l7.673,23.396    c0.494,1.461-1.292,4.112-1.292,4.112l8.003-5.6c0.721-0.503,0.891-1.356,0.638-2.165l-1.131-3.305l6.099-4.269l2.378,1.494    c1.367,1.129,0.387,2.394,0.387,2.394l8.792-6.151L119.512,79.293z M125.197,94.672l-1.473-4.032l3.681,2.417L125.197,94.672z"/>
		<polygon fill="#FFFFFF" points="75.408,142.897 79.019,154.007 90.7,154.007 81.249,160.875 84.858,171.987 75.408,165.121     65.956,171.987 69.566,160.875 60.115,154.007 71.797,154.007   "/>
		<polygon fill="#FFFFFF" points="325.582,144.377 321.972,155.488 310.289,155.488 319.742,162.356 316.129,173.466 325.582,166.6     335.032,173.466 331.421,162.356 340.872,155.488 329.192,155.488   "/>
	</g>
	<g>
		<path fill="#FFFFFF" d="M201.278,316.521h-5.562c-1.123,0.004-1.792,0.275-2.269,1.113l-7.122,23.568    c-0.436,1.48-3.418,2.629-3.418,2.629h9.768c0.88,0,1.508-0.6,1.765-1.406l0.969-3.358h7.44l1.095,2.589    c0.471,1.707-1.056,2.182-1.056,2.182h10.729L201.278,316.521z M197.358,332.524l1.188-4.125l1.546,4.125H197.358z"/>
		<path fill="#FFFFFF" d="M240.304,336.589l-5.867-6.493c1.364-0.318,2.462-1.066,2.868-1.744c0.663-1.103,0.694-3.201,0.121-6.3    c0,0-1.102-5.428-1.32-6.274c-0.425-1.636-1.34-2.625-2.336-3.008c-0.978-0.39-2.512-0.4-4.59-0.014l-19.347,3.638    c0,0,2.45,0.907,2.861,2.747l4.3,23.614l5.394-1.003c1.071-0.197,1.841-0.413,2.049-1.243l-1.463-7.995l3.767-0.75l6.516,7.917    l9.649-1.788C242.901,337.894,241.231,337.476,240.304,336.589 M229.77,320.777c0.202,0.566,0.483,2.534,0.307,3.053    c-0.168,0.511-0.52,0.822-1.06,0.922l-4.462,0.882c-1.017,0.188-1.762,1.245-2.372,2.517l-1.315-7.129l7.241-1.397    C228.892,319.481,229.454,319.856,229.77,320.777"/>
		<path fill="#FFFFFF" d="M262.012,304.111c-0.791-1.514-1.897-2.259-2.943-2.415c-1.042-0.156-2.545,0.178-4.485,1.016    l-18.222,7.889c0,0,2.535,0.451,3.427,2.052l8.436,19.47c0.368,1.378-0.143,2.865-0.377,3.166l17.733-7.601    c2.408-1.042,3.809-2.183,4.204-3.383c0.402-1.222-0.034-3.276-1.286-6.17l-5.27-11.516    C262.671,305.349,262.415,304.888,262.012,304.111 M256.934,310.404c0.325,0.509,4.827,10.566,4.773,11.104    c-0.047,0.548-0.319,0.935-0.822,1.151l-6.979,3.021l-4.09-9.406c-0.252-0.61-0.884-2.048-1.592-3.659l6.829-2.956    C255.79,309.34,256.418,309.583,256.934,310.404"/>
		<path fill="#FFFFFF" d="M186.136,321.951l1.149-5.197c0,0-20.214-4.431-20.495-4.459c-1.658-0.185-2.3,0.89-2.721,2.225    l-0.802,3.642l0.016,0.004l-0.363,1.492c0,0,1.496-1.122,3.13-0.883l9.3,2.052l-15.578,13.104l-0.943,4.394l20.285,4.467    c1.298,0.285,2.202,0.331,2.657-0.979l1.459-6.711c0,0-1.517,1.462-3.19,1.187l-9.829-2.165L186.136,321.951z"/>
		<path fill="#FFFFFF" d="M153.058,333.825c0,0,7.086-20.574,7.461-21.501c0.38-0.918,1.795-1.424,1.795-1.424    c-0.716-0.278-3.568-1.209-6.535-2.302c-0.769-0.146-2.069-0.632-2.989,2.406l-7.87,22.669l7.309,2.537l0.583,0.068    C152.811,336.28,152.664,335.271,153.058,333.825"/>
		<path fill="#FFFFFF" d="M151.787,307.938l-1.08-0.637l-5.486-3.468c-0.031-0.014-0.05-0.021-0.091-0.045    c-0.747-0.471-1.365-0.785-1.959-0.641l-12.068,11.746l4.416-14.187c0.274-1.373,2.488-1.413,2.488-1.413l-1.958-1.248    l-4.042-2.555c-0.029-0.013-0.05-0.018-0.09-0.043c-1.022-0.646-1.983-0.897-2.882-0.321l-12.399,11.486l5.442-13.823    c0.698-2.141,3.035-1.637,3.035-1.637l-2.073-1.324l-4.648-2.936c-0.025-0.007-0.05-0.019-0.103-0.05    c-1.062-0.671-2.435-0.665-2.959,0.234c-0.082,0.129-0.06,0.057-0.06,0.057l-8.541,24.641l7.19,4.539    c0.974,0.619,1.471,0.764,2.319,0.269l7.607-5.818l-3.048,9.896l7.664,4.844c0.946,0.596,2.146,0.511,2.994,0.069l17.771-16.747    C150.529,307.782,151.787,307.938,151.787,307.938"/>
		<path fill="#FFFFFF" d="M290.262,298.234c-2.421-2.932-6.253-3.304-9.579-1.009l-3.751,2.585c-1.352,0.93-2.413,1.038-3.179,0.315    c-0.027-0.025-0.261-0.342-0.283-0.377c-0.314-0.575-1.001-1.547,1-2.927l6.769-4.665c1.457-1.007,4.229,0.076,4.229,0.076    s-2.21-3.182-3.568-5.134c-0.785-1.143-2.561-1.613-3.754-0.791l-8.286,5.716c-2.986,2.06-4.685,3.831-5.093,5.316    c-0.41,1.472,0.307,3.54,2.1,6.153l1.561,2.222c0.236,0.335,0.5,0.644,0.786,0.909c1.088,1.029,2.42,1.587,4.015,1.674    c1.885,0.078,3.879-0.612,5.991-2.067l3.225-2.223c1.246-0.859,2.269-0.923,3.05-0.184c0.208,0.196,0.348,0.437,0.408,0.714    c0,0,0.664,1.152-1.904,2.924l-6.511,4.486c-1.483,0.883-4.115-0.14-4.115-0.14s2.21,3.184,3.571,5.131    c0.781,1.142,2.557,1.612,3.752,0.791l0.644-0.443l4.477-3.089l3.249-2.237c2.991-2.066,4.684-3.825,5.087-5.318    c0.412-1.493-0.296-3.371-2.085-5.965C292.062,300.68,290.691,298.756,290.262,298.234"/>
	</g>
	<path fill="#8B8D8D" d="M294.876,148.4c-6.594-12.154-15.466-22.891-26.045-31.643c-1.985-1.64-4.045-3.185-6.145-4.681   c-17.504-12.473-38.883-19.85-62.007-19.892h-0.188C143.15,92.188,96.295,137.182,93.333,193.81   c-0.099,1.829-0.146,3.668-0.151,5.519v0.187c0.004,14.802,3.002,28.907,8.423,41.74c0.675,1.604,1.396,3.186,2.146,4.75   c6.019,12.501,14.391,23.658,24.542,32.896c2.535,2.309,5.187,4.496,7.936,6.558c17.882,13.394,40.085,21.334,64.146,21.361h0.064   h0.061h0.022c12.955-0.004,25.367-2.303,36.861-6.507c41.058-15.028,70.369-54.417,70.425-100.684v-0.06v-0.002v-0.074   c-0.003-14.797-3.002-28.897-8.42-41.723C298.03,154.564,296.524,151.439,294.876,148.4"/>
	<path fill="#FFFFFF" d="M296.736,158.89c-1.318-3.12-2.783-6.164-4.389-9.121c-6.417-11.828-15.051-22.279-25.35-30.793   c-1.93-1.597-3.935-3.1-5.979-4.557c-17.031-12.14-37.84-19.318-60.347-19.359h-0.184c-55.803,0.003-101.403,43.789-104.287,98.901   c-0.096,1.78-0.144,3.569-0.146,5.371v0.182c0.003,14.407,2.922,28.132,8.2,40.617c0.658,1.563,1.356,3.105,2.086,4.625   c5.859,12.167,14.006,23.025,23.884,32.015c2.469,2.251,5.048,4.377,7.725,6.385c17.403,13.031,39.011,20.76,62.428,20.785h0.063   h0.059h0.022c12.607-0.004,24.688-2.236,35.874-6.331c39.953-14.625,68.479-52.959,68.538-97.986v-0.057v-0.002v-0.073   C304.928,185.096,302.013,171.372,296.736,158.89z"/>
	<path fill="#0D2240" d="M180.987,151.633l2.422-8.807l0.573-2.053l-11.116-6.228c0,0-6.483-4.499-20.982,3.914   c-16.975,10.009-30.785,22.955-37.934,36.689c-3.956,7.609-7.098,16.367-8.721,26.327c0.506,18.848,6.455,36.335,16.371,50.926   c-2.827-27.162,23.417-56.917,43.968-77.237C176.418,164.316,180.987,151.633,180.987,151.633"/>
	<path fill="#0D2240" d="M249.23,138.457c-14.501-8.412-20.981-3.91-20.981-3.91l-11.111,6.224l0.566,2.057l2.423,8.808   c0,0,4.567,12.681,15.42,23.527c20.487,20.259,46.646,49.893,43.995,76.988c9.963-14.757,15.874-32.458,16.217-51.522   c-1.663-9.613-4.749-18.086-8.594-25.481C280.019,161.418,266.201,148.468,249.23,138.457"/>
	<path fill="#CF0A2C" d="M214.357,122.175c38.099,4.304,63.136,25.924,76.063,45.101c-9.729-27.673-31.862-49.495-59.736-58.805   C224.536,110.288,217.722,114.108,214.357,122.175"/>
	<path fill="#CF0A2C" d="M186.756,122.175c-3.377-8.108-10.25-11.927-16.423-13.727c-28.043,9.346-50.286,31.372-59.936,59.284   C123.239,148.441,148.365,126.512,186.756,122.175"/>
	<path fill="#CF0A2C" d="M192.993,121.101l7.56-11.131l7.571,11.131c3.035-8.296,7.821-12.87,12.624-15.361   c-6.502-1.408-13.243-2.165-20.164-2.171c-6.954-0.006-13.723,0.755-20.26,2.162C185.138,108.215,189.941,112.774,192.993,121.101"/>
	<path fill="#0D2240" d="M200.557,153.434c-1.103,0.786-36.273,26.1-51.768,51.165c-20.911,33.832-18.195,53.341-12.785,64.478   c13.477,12.393,30.532,20.942,49.439,23.947l8.15-115.552l6.797-6.817l0.087-0.09v0.001l0.008-0.001l0.084,0.09l6.794,6.817   l8.21,115.457l-0.107,0.058c19.057-3.009,36.234-11.628,49.769-24.171c5.329-11.179,7.852-30.641-12.905-64.215   C236.836,179.533,201.66,154.221,200.557,153.434"/>
	<polygon fill="#8B8D8D" points="207.363,177.47 200.569,170.656 200.65,301.433 215.46,292.986 215.464,292.984 215.571,292.928     "/>
	<path fill="#8B8D8D" d="M220.886,128.947c-4.136-0.709-8.301-1.28-12.517-1.546l-2.979-0.188l-0.059-0.122l-0.063-0.123   l-1.194-2.436l-0.075-0.15v-0.001l-3.445-7.002l-1.11,2.258l-2.219,4.511l-0.003,0.006l-0.095,0.188l-0.091,0.19l-1.194,2.436   l-0.1,0.206l-0.019,0.039l-2.974,0.188c-4.214,0.266-8.381,0.837-12.516,1.546c-1.838,0.312-3.686,0.59-5.499,0.99h0.001h-0.001   l5.845,3.148l5.845,3.152l1.805,0.972l1.808,0.975l-1.098,3.958l-0.059,0.22l-0.504,1.829l-3.254,11.819l0.002-0.004v0.004   l7.406-5.464l5.022-3.703l1.481-1.093l1.479-1.092v-0.001v-0.06l0.041,0.035l0.047-0.035v0.06v0.001l1.479,1.092l1.483,1.093   l12.427,9.168l-3.255-11.819l-0.282-1.023l-0.277-1.025l-1.096-3.958l1.175-0.633l2.439-1.313l7.89-4.254l3.798-2.047h-0.003h0.003   C224.568,129.537,222.723,129.26,220.886,128.947"/>
</g>
</svg>