<?xml version="1.0" encoding="UTF-8" standalone="no"?>
<!-- Created with Inkscape (http://www.inkscape.org/) -->

<svg
   xmlns:dc="http://purl.org/dc/elements/1.1/"
   xmlns:cc="http://creativecommons.org/ns#"
   xmlns:rdf="http://www.w3.org/1999/02/22-rdf-syntax-ns#"
   xmlns:svg="http://www.w3.org/2000/svg"
   xmlns="http://www.w3.org/2000/svg"
   xmlns:sodipodi="http://sodipodi.sourceforge.net/DTD/sodipodi-0.dtd"
   xmlns:inkscape="http://www.inkscape.org/namespaces/inkscape"
   version="1.1"
   id="svg2"
   xml:space="preserve"
   width="4096"
   height="4096"
   viewBox="0 0 4096 4096"
   sodipodi:docname="norwich-fc-logo.svg"
   inkscape:export-filename="G:\Users\suitedoalex\sites\norwich-fc-logo-0.png"
   inkscape:export-xdpi="96"
   inkscape:export-ydpi="96"
   inkscape:version="0.92.2 (5c3e80d, 2017-08-06)"><metadata
     id="metadata8"><rdf:RDF><cc:Work
         rdf:about=""><dc:format>image/svg+xml</dc:format><dc:type
           rdf:resource="http://purl.org/dc/dcmitype/StillImage" /><dc:title></dc:title></cc:Work></rdf:RDF></metadata><defs
     id="defs6"><clipPath
       clipPathUnits="userSpaceOnUse"
       id="clipPath196"><path
         d="m 31.613,75.178 h 90.235 V 201.807 H 31.613 Z"
         id="path194"
         inkscape:connector-curvature="0" /></clipPath><clipPath
       clipPathUnits="userSpaceOnUse"
       id="clipPath208"><path
         d="M 140.12,75.178 H 242.126 V 201.807 H 140.12 Z"
         id="path206"
         inkscape:connector-curvature="0" /></clipPath><clipPath
       clipPathUnits="userSpaceOnUse"
       id="clipPath220"><path
         d="M 257.48,75.178 H 359.486 V 201.807 H 257.48 Z"
         id="path218"
         inkscape:connector-curvature="0" /></clipPath><clipPath
       clipPathUnits="userSpaceOnUse"
       id="clipPath232"><path
         d="m 322.881,504.567 h 53.687 v 59.057 h -53.687 z"
         id="path230"
         inkscape:connector-curvature="0" /></clipPath></defs><sodipodi:namedview
     pagecolor="#ffffff"
     bordercolor="#666666"
     borderopacity="1"
     objecttolerance="10"
     gridtolerance="10"
     guidetolerance="10"
     inkscape:pageopacity="0"
     inkscape:pageshadow="2"
     inkscape:window-width="1920"
     inkscape:window-height="1017"
     id="namedview4"
     showgrid="false"
     inkscape:zoom="0.098639694"
     inkscape:cx="5539.2212"
     inkscape:cy="1781.4416"
     inkscape:window-x="-8"
     inkscape:window-y="-8"
     inkscape:window-maximized="1"
     inkscape:current-layer="g10" /><g
     id="g10"
     inkscape:groupmode="layer"
     inkscape:label="2019-20-PL-Handbook-220819"
     transform="matrix(1.3333333,0,0,-1.3333333,0,4096)"><g
       id="g226"
       transform="matrix(30.13229,0,0,30.13229,-9002.0151,-14557.523)"
       inkscape:export-filename="G:\Users\suitedoalex\sites\norwich-fc-logo-4.png"
       inkscape:export-xdpi="18.102339"
       inkscape:export-ydpi="18.102339"><g
         id="g228"
         clip-path="url(#clipPath232)"><g
           id="g234"
           transform="translate(376.1245,563.6242)"><path
             d="m 0,0 v -13.567 c 0,-10.687 -0.963,-15.753 -3.12,-23.069 -0.016,-0.048 -1.427,-4.303 -4.62,-9.116 -2.949,-4.448 -8.067,-10.299 -15.697,-12.919 l -0.07,-0.026 c -0.82,-0.24 -1.725,-0.36 -2.705,-0.36 -1.731,0 -3.083,0.368 -3.14,0.383 -7.64,2.623 -12.758,8.474 -15.707,12.922 -3.193,4.813 -4.605,9.068 -4.618,9.111 -2.159,7.322 -3.122,12.389 -3.122,23.074 V 0 H 0"
             style="fill:#0d0d0d;fill-opacity:1;fill-rule:nonzero;stroke:none"
             id="path236"
             inkscape:connector-curvature="0" /></g><g
           id="g238"
           transform="translate(352.2417,506.751)"><path
             d="m 0,0 c 8.11,2.809 13.892,9.942 17.587,17.688 2.951,6.575 4.337,14.161 4.407,21.735 V 54.907 H -27.028 V 39.423 c 0.07,-7.574 1.456,-15.16 4.407,-21.735 C -18.926,9.942 -13.143,2.809 -5.034,0 c 0,0 2.556,-0.696 5.034,0"
             style="fill:#00a650;fill-opacity:1;fill-rule:nonzero;stroke:none"
             id="path240"
             inkscape:connector-curvature="0" /></g><g
           id="g242"
           transform="translate(327.3898,560.0366)"><path
             d="m 0,0 -0.025,-5.833 h 9.424 l 0.076,2.114 2.726,-0.051 -0.026,-2.088 h 9.858 L 22.058,0 19.027,0.025 19.001,-1.044 16.633,-1.07 16.607,0.025 h -2.42 L 14.162,-1.07 12.226,-1.095 12.201,0.051 H 9.348 L 9.399,-1.146 7.31,-1.121 7.285,0.025 4.636,0.051 4.61,-1.095 H 2.496 L 2.471,0.076 Z"
             style="fill:#fff200;fill-opacity:1;fill-rule:nonzero;stroke:none"
             id="path244"
             inkscape:connector-curvature="0" /></g><g
           id="g246"
           transform="translate(327.0587,552.9047)"><path
             d="m 0,0 c 0,0 0.484,-0.025 0.79,-0.28 0.305,-0.255 0.458,-0.561 0.891,-0.51 0.433,0.051 0.892,0.332 0.892,0.332 h 0.254 c 0,0 -1.146,-1.682 -1.35,-2.14 -0.203,-0.459 -0.305,-1.248 0.077,-1.681 0.382,-0.433 0.84,-0.51 0.84,-0.51 L 3.337,-4.89 c 0,0 0.28,1.63 0.484,2.088 0.203,0.459 0.687,1.656 0.993,2.063 0.306,0.408 0.866,0.815 0.866,0.815 l 0.484,-0.458 1.172,0.255 0.305,-0.433 0.663,-0.102 c 0,0 0.025,-0.28 -0.128,-0.739 C 8.023,-1.859 6.75,-3.999 6.75,-3.999 c 0,0 1.503,0.229 4.814,0.255 3.311,0.025 8.252,0.051 8.252,0.051 0,0 0.739,0.153 0.688,0.586 -0.051,0.433 0.026,0.713 -0.789,0.815 -0.815,0.102 -1.376,0.254 -2.879,0 -1.502,-0.255 -4.355,-0.484 -4.355,-0.484 0,0 -2.089,0.025 -2.42,0.305 -0.331,0.281 -0.662,1.248 -0.127,1.758 0.535,0.509 1.248,0.789 3.005,0.789 1.758,0 5.069,-0.28 5.069,-0.28 0,0 0.994,0.637 2.191,0.357 1.197,-0.28 1.655,-1.299 1.655,-1.299 v -0.408 l -0.687,0.026 -0.739,0.025 -2.394,0.331 -1.299,0.281 -2.191,0.331 -1.452,0.025 -1.885,-0.153 -0.586,-0.305 -0.076,-0.484 0.331,-0.382 0.688,-0.077 1.197,-0.051 0.815,0.331 0.331,0.484 0.637,0.23 0.586,-0.051 0.407,-0.281 0.688,-0.178 h 0.866 l 0.535,0.128 c 0,0 3.311,0 3.923,-1.045 0.611,-1.044 0.356,-1.095 0.356,-1.095 0,0 -0.356,-0.764 -0.764,-0.892 -0.407,-0.127 -2.139,-0.28 -2.471,-0.534 -0.331,-0.255 -0.687,-0.994 0.255,-1.096 0.943,-0.102 1.325,0.204 1.579,0.128 0.255,-0.077 0.714,-0.459 0.714,-0.459 l 0.152,-0.204 c 0,0 0.408,0.306 0.484,0.306 0.077,0 0.433,-0.025 0.433,-0.025 l 0.051,-0.102 -0.025,-0.663 -0.637,-1.197 -0.178,-0.585 0.051,-0.688 -0.612,0.305 -0.254,0.51 -0.357,0.356 -0.51,0.051 v 0.51 0.611 l -0.203,0.255 -0.586,-0.051 -0.713,-0.331 -1.07,-0.382 h -0.637 l -0.458,0.025 0.178,-0.688 -0.051,-0.662 -0.28,-0.433 -0.459,-0.306 -0.789,0.077 -0.51,0.076 -0.433,-0.051 -1.451,-0.484 -0.841,-0.051 -0.306,0.204 -0.254,0.229 -0.026,0.357 -0.917,-0.076 0.077,0.433 0.331,0.331 0.764,0.382 -0.28,0.433 0.305,0.102 0.841,-0.026 1.273,-0.509 0.917,-0.076 0.357,0.229 -0.764,0.917 -0.459,0.586 0.153,0.509 0.408,0.127 0.866,0.128 0.407,0.051 0.281,0.127 -0.153,0.611 c 0,0 -0.79,0.408 -1.554,0.077 C 13.016,-5.323 11.589,-6.47 11.207,-6.648 10.825,-6.826 9.755,-7.514 8.431,-7.59 7.106,-7.667 6.291,-7.769 6.291,-7.769 c 0,0 0.23,-0.637 0.077,-1.044 C 6.215,-9.22 5.807,-9.654 5.807,-9.654 l -0.28,0.153 -0.407,0.662 c 0,0 -0.357,-0.483 -0.586,-0.662 -0.229,-0.178 -0.739,-0.102 -0.739,-0.102 0,0 0,0.331 -0.127,0.535 L 3.54,-8.864 c 0,0 -0.585,-0.586 -0.764,-0.586 -0.178,0 -0.84,0.077 -0.84,0.077 0,0 0.204,0.356 0.204,0.534 v 0.332 l -1.936,0.025 -0.739,0.229 0.204,0.663 -0.357,0.56 c 0,0 0.968,-0.153 1.146,-0.204 0.179,-0.051 1.936,-0.458 2.216,-0.484 0.281,-0.025 0.637,0.026 0.637,0.026 l 0.026,1.146 -1.86,0.076 -1.222,0.408 -0.561,0.84 -0.127,0.332 0.28,0.152 -0.153,0.866 0.077,0.765 0.356,0.178 -0.28,0.866 -0.102,0.535 0.102,0.535 0.229,0.509 c 0,0 0.153,0.255 -0.076,0.484"
             style="fill:#fff200;fill-opacity:1;fill-rule:nonzero;stroke:none"
             id="path248"
             inkscape:connector-curvature="0" /></g><g
           id="g250"
           transform="translate(353.052,533.069)"><path
             d="M 0,0 C 0,0 -0.516,-1.452 -0.42,-2.35 -0.325,-3.248 0,-4.356 0,-4.356 c 0,0 -4.26,-0.725 -6.17,-3.744 -1.911,-3.018 -1.873,-6.476 -1.414,-7.851 0.459,-1.376 2.445,-5.311 6.533,-6.094 4.088,-0.784 8.024,0.726 9.59,3.725 1.567,2.999 1.834,5.043 1.318,6.782 -0.516,1.738 -2.196,4.909 -3.82,5.559 l -1.261,0.802 -2.082,0.688 -1.529,0.114 -0.248,0.764 -0.134,1.338 c 0,0 0.134,1.05 0.325,1.356 0.191,0.306 0.726,1.127 0.726,1.127 z"
             style="fill:#fff200;fill-opacity:1;fill-rule:nonzero;stroke:none"
             id="path252"
             inkscape:connector-curvature="0" /></g><g
           id="g254"
           transform="translate(351.2755,533.1837)"><path
             d="m 0,0 c 0,0 -0.879,-0.783 -0.898,-1.719 -0.019,-0.937 0.363,-1.72 0.382,-2.121 0.019,-0.401 0.019,-1.318 0.019,-1.318 l 1.204,0.573 c 0,0 -0.363,0.955 -0.421,1.548 -0.057,0.592 0.058,1.547 0.172,1.776 0.115,0.229 0.574,1.127 0.574,1.127 z"
             style="fill:#fff200;fill-opacity:1;fill-rule:nonzero;stroke:none"
             id="path256"
             inkscape:connector-curvature="0" /></g><g
           id="g258"
           transform="translate(332.8025,522.2756)"><path
             d="M 0,0 1.643,0.191 H 2.866 L 2.732,-0.707 2.674,-1.834 2.655,-2.923 l 0.172,-0.248 2.35,3.362 6.075,6.954 2.827,3.056 1.089,1.013 h 0.65 l 1.795,-0.23 0.554,-0.114 3.242,0.032 1.732,0.165 2.024,0.497 c 0,0 1.783,0.662 1.822,0.649 0.038,-0.012 1.477,0.765 1.477,0.765 l 1.579,0.955 1.172,0.917 1.35,1.464 0.917,1.465 0.649,0.955 0.93,2.165 0.522,2.229 0.777,3.591 0.242,2.987 v 3.687 l 0.248,0.707 0.707,0.668 1.166,0.802 0.248,0.287 v 0.268 l -0.631,0.362 -1.069,0.211 -1.49,0.229 -1.128,0.42 L 33.354,37.309 32.189,36.965 31.043,36.449 29.82,35.322 27.375,31.864 25.541,29.152 23.937,27.261 22.16,25.216 21.09,23.956 16.372,18.244 12.551,13.659 9.323,9.896 6.591,6.705 4.069,3.897 1.261,1.146 C 1.261,1.146 0.134,0.115 0,0"
             style="fill:#fff200;fill-opacity:1;fill-rule:nonzero;stroke:none"
             id="path260"
             inkscape:connector-curvature="0" /></g><g
           id="g262"
           transform="translate(349.2773,554.3572)"><path
             d="M 0,0 V 5.564 H -2.638 V 4.375 H -5.421 V 5.564 H -7.508 V 4.375 H -9.854 V 5.564 H -12.26 V 4.375 h -2.492 v 1.189 h -2.26 V 4.375 h -2.55 v 1.189 h -2.087 V 0 h 9.012 v 2.115 h 3.16 V 0 Z M 0.375,5.853 V -0.319 H -9.854 V 1.71 h -2.406 v -2.029 h -9.766 v 6.172 h 2.841 V 4.722 h 1.796 v 1.131 h 3.014 V 4.722 h 1.738 v 1.131 h 3.16 V 4.722 h 1.594 v 1.131 h 2.839 V 4.722 h 2.029 v 1.131 z"
             style="fill:#0d0d0d;fill-opacity:1;fill-rule:nonzero;stroke:none"
             id="path264"
             inkscape:connector-curvature="0" /></g><g
           id="g266"
           transform="translate(342.7389,530.964)"><path
             d="m 0,0 c -0.743,-0.534 -1.578,-1.185 -2.459,-1.323 -2.249,-2.388 -4.537,-5.329 -7.112,-7.159 0.851,0.199 2.228,0.16 2.431,0.248 C -5.233,-6.61 -1.879,-3.13 0,0 m 1.203,-1.323 c -0.324,0.485 -0.439,1.066 -0.486,1.67 -1.902,-3.153 -5.168,-6.746 -7.535,-8.907 -0.093,-1.044 -0.521,-1.997 -0.218,-3.017 2.11,3.963 5.62,7.031 8.239,10.254 M 4.954,2.598 C 4.995,2.675 4.771,2.621 4.66,2.614 4.28,2.587 4.054,2.577 3.674,2.605 3.424,2.621 2.989,2.702 2.769,2.668 2.721,2.661 2.605,2.436 2.577,2.397 2.473,2.258 2.362,2.129 2.251,1.997 2.006,1.708 1.754,1.423 1.492,1.145 1.326,0.972 1.196,0.865 1.166,0.62 1.136,0.38 1.145,0.072 1.189,-0.164 c 0.06,-0.322 0.185,-0.63 0.364,-0.905 -0.075,0.116 1.469,1.68 1.621,1.846 0.44,0.465 0.875,0.933 1.345,1.368 0.05,0.046 0.101,0.092 0.152,0.139 0.072,0.064 0.234,0.229 0.283,0.314 M 8.808,5.03 C 7.418,4.914 6.189,5.169 4.96,5.446 L 2.804,3.105 C 5.076,2.758 7.394,3.498 8.808,5.03 M 4.472,5.516 c 2.691,3.176 6.122,5.888 7.166,10.015 C 6.909,9.875 2.686,4.738 -2.043,-0.824 -0.602,-0.241 1.203,1.155 2.415,2.73 L 2.038,2.85 Z M 9.34,1.967 8.554,2.015 C 7.059,0.621 8.269,-1.015 8.269,-2.639 l 0.824,0.288 -0.285,0.847 C 8.412,0.062 8.813,1.166 9.34,1.967 m 0.65,0 L 9.727,1.962 9.669,1.904 C 9.493,1.728 9.336,1.342 9.227,1.12 9.012,0.682 8.914,0.181 8.901,-0.315 8.889,-0.662 8.958,-1.004 9.07,-1.33 9.097,-1.414 9.423,-2.256 9.465,-2.256 9.657,-2.191 9.909,-2.149 10.087,-2.103 9.491,-0.898 9.69,0.692 9.99,1.967 m 2.212,-7.464 c 0.465,0.673 1.995,0.315 2.709,0.428 -0.731,0.409 -2.147,0.326 -2.952,0.319 -0.067,0 -0.122,0.049 -0.129,0.116 -0.246,2.172 -1.756,4.377 -0.044,6.744 L 10.478,2.015 C 10.199,1.622 10.06,0.037 10.06,0.037 9.916,-1.694 11.138,-2.589 11.087,-4.738 10.77,-5.712 9.024,-5.536 8.614,-6.707 c 0.819,0.611 1.564,0.885 2.492,1.046 1.09,-0.323 1.191,-1.599 1.547,-2.645 0.4,0.763 -0.169,1.715 -0.224,2.154 0.701,0.053 1.525,-0.786 2.327,-1.501 -0.386,1.052 -1.832,1.85 -2.554,2.156 m 5.787,19.545 v 0.026 l -0.833,0.136 c -0.245,-0.333 -0.421,-0.55 -0.743,-0.807 -0.877,-0.703 -1.967,-1.127 -3.07,-1.3 -0.701,-0.111 -1.104,-0.111 -1.812,-0.098 -0.092,0.003 -0.444,0.063 -0.534,0.091 -0.088,0.025 -0.236,0.069 -0.236,0.069 C 10.391,11.716 9.928,11.094 9.567,10.638 9.467,10.511 9.368,10.384 9.275,10.252 9.146,10.071 9.144,10.118 9.34,10.023 9.87,9.771 10.636,9.768 11.207,9.805 c 1.243,0.079 2.379,0.507 3.468,1.085 1.035,0.551 1.958,1.303 2.682,2.226 0.231,0.294 0.444,0.606 0.632,0.932 m 1.573,0.077 c -0.058,0.004 -0.125,-0.012 -0.185,-0.016 -0.06,-0.005 -0.121,-0.01 -0.181,-0.014 -0.125,-0.012 -0.247,-0.019 -0.372,-0.026 -0.065,-0.004 -0.132,-0.007 -0.197,-0.011 -0.053,-0.003 -0.104,0.011 -0.134,-0.035 C 18.456,13.97 18.419,13.914 18.382,13.859 18.287,13.718 18.192,13.576 18.095,13.435 17.919,13.174 17.746,12.901 17.537,12.662 16.913,11.95 16.133,11.402 15.353,10.869 14.576,10.34 12.811,9.653 12.468,9.578 11.147,9.292 10.118,9.31 8.808,9.782 8.748,9.803 8.01,8.847 7.947,8.773 7.628,8.401 6.883,7.577 6.883,7.577 7.124,7.473 7.549,7.394 7.813,7.364 8.093,7.334 8.375,7.309 8.655,7.293 c 0.579,-0.035 1.046,-0.01 1.62,0.062 0.407,0.049 0.925,0.109 1.326,0.215 1.325,0.357 2.565,1.051 3.736,1.71 0.324,0.183 0.641,0.375 0.949,0.583 0.303,0.206 0.597,0.423 0.877,0.659 0.277,0.232 0.539,0.479 0.784,0.746 0.245,0.263 0.472,0.543 0.676,0.839 0.205,0.303 0.388,0.62 0.543,0.951 0.081,0.169 0.155,0.343 0.22,0.518 0.032,0.091 0.065,0.181 0.095,0.271 0.014,0.046 0.03,0.093 0.044,0.139 0.011,0.044 0.037,0.095 0.037,0.139 m -2.571,-32.211 c 2.714,2.365 3.92,6.145 2.737,9.6 -0.215,0.574 -0.481,1.131 -0.795,1.658 -0.732,1.234 -1.736,2.31 -2.955,3.075 -0.618,0.387 -1.284,0.692 -1.983,0.905 -0.361,0.109 -0.729,0.194 -1.103,0.254 -0.183,0.031 -0.364,0.063 -0.546,0.086 -0.181,0.023 -0.422,0.044 -0.602,0.03 -0.056,-0.002 -0.053,-0.002 -0.046,-0.053 0.007,-0.049 0.018,-0.095 0.028,-0.141 0.018,-0.097 0.15,-0.546 0.226,-0.935 0.021,-0.104 0.107,-0.699 0.211,-0.75 0.095,-0.046 0.252,-0.034 0.354,-0.043 0.213,-0.014 0.426,-0.033 0.636,-0.051 0.771,-0.07 1.606,0.037 2.27,-0.595 0.044,-0.044 0.169,-0.217 0.196,-0.273 0.054,-0.099 0.093,-0.065 -0.398,-0.116 -0.263,-0.025 -0.596,-0.03 -0.86,-0.03 -0.509,0 -1.134,0.151 -1.606,-0.011 1.277,-0.523 2.52,-1.555 2.381,-2.779 -0.694,0.234 -1.367,1.307 -2.173,1.509 0.394,-0.856 0.371,-1.435 -0.506,-2.471 -0.019,0.053 -0.211,0.86 -0.229,0.916 -0.327,0.974 -0.206,1.087 -0.727,1.978 -0.041,0.069 -0.206,0.231 -0.268,0.285 -0.088,0.076 -0.185,0.074 -0.294,0.067 -1.145,-0.241 -2.24,-0.956 -2.855,-1.576 0.051,2.064 1.726,1.832 2.584,2.853 0.162,0.671 0,1.557 -0.393,2.193 -3.48,-0.555 -5.988,-2.693 -7.147,-5.823 0,0 -0.465,-1.4 -0.46,-3.101 -0.093,-3.315 2.05,-6.29 4.891,-7.755 2.85,-1.471 6.952,-1.016 9.432,1.094 m 4.244,32.62 C 20.823,14.291 20.078,14.169 20.078,14.169 19.904,13.623 19.673,13.047 19.393,12.549 18.604,11.154 17.424,10.03 16.077,9.176 15.497,8.808 14.967,8.447 14.338,8.17 13.463,7.783 12.559,7.39 11.638,7.14 10.52,6.839 9.264,6.811 8.116,6.934 7.816,6.966 7.515,7.01 7.219,7.071 6.978,7.119 6.684,7.265 6.492,7.138 6.279,6.999 6.08,6.726 5.902,6.541 5.71,6.342 5.523,6.138 5.37,5.907 5.555,5.754 6.004,5.694 6.249,5.657 6.562,5.608 6.876,5.555 7.191,5.511 7.829,5.421 8.489,5.361 9.132,5.446 c 5.356,0.72 10.573,3.804 12.103,9.088 m 4.222,11.263 c 0.028,0.134 0.012,0.271 -0.035,0.393 -0.078,0.211 -0.243,0.391 -0.421,0.498 -0.729,0.43 -1.427,0.402 -2.105,-0.155 -0.072,-0.06 -0.144,-0.127 -0.19,-0.215 -0.06,-0.118 -0.069,-0.264 -0.046,-0.398 0.046,-0.287 0.194,-0.546 0.396,-0.72 0.247,-0.21 0.562,-0.301 0.869,-0.31 0.428,-0.011 0.866,0.127 1.213,0.424 0.143,0.122 0.275,0.282 0.319,0.483 M 24.809,22.28 c 0.963,1.004 1.576,2.365 1.497,3.739 -0.018,0.345 -0.081,0.692 -0.192,1.034 -0.127,0.389 -0.31,0.757 -0.544,1.09 -1.344,0.858 -3.121,0.137 -4.361,-0.578 -1.892,-1.088 -5.333,-7.966 -8.886,-11.314 -0.306,-0.814 -0.496,-1.552 -0.766,-2.378 -0.086,-0.257 -0.179,-0.512 -0.289,-0.757 -0.089,-0.199 -0.202,-0.386 -0.32,-0.567 0.097,-0.039 0.194,-0.076 0.296,-0.102 0.162,-0.037 0.334,-0.039 0.5,-0.041 0.06,0 0.12,-0.002 0.178,-0.002 0.257,-0.008 0.516,-0.012 0.773,0.013 0.252,0.024 0.507,0.072 0.757,0.121 0.465,0.09 0.92,0.222 1.36,0.402 0.726,0.301 1.377,0.648 1.869,1.27 0.033,0.042 0.31,0.415 0.31,0.417 2.46,-0.648 4.824,0.254 6.423,1.832 l 0.229,-0.196 C 23.097,15.689 22.528,15.212 21.815,14.881 20.355,9.141 15.002,6.066 9.581,5.081 8.475,4.111 7.152,2.964 5.724,2.781 c 4.428,-0.905 9.391,-0.419 13.007,1.83 6.677,3.804 7.767,11.895 7.767,19.777 -0.347,-1.298 -1.136,-2.364 -2.341,-3.177 -0.697,-0.347 -1.699,-0.428 -2.462,-0.104 -0.465,0.188 -0.854,0.801 -0.946,1.356 -0.169,1.136 -0.373,2.365 0.578,3.015 0.171,0.116 0.373,0.148 0.565,0.21 0.169,0.054 0.342,0.148 0.407,0.313 0.044,0.111 0.032,0.233 0.058,0.349 0.048,0.215 0.219,0.382 0.402,0.507 0.711,0.49 1.705,0.525 2.448,0.09 0.218,-0.127 0.419,-0.296 0.532,-0.521 0.07,-0.136 0.102,-0.284 0.102,-0.435 0,-0.351 -0.173,-0.712 -0.446,-0.946 -0.391,-0.333 -0.931,-0.439 -1.442,-0.419 -0.481,0.021 -0.988,0.165 -1.3,0.53 -0.072,0.081 -0.134,0.178 -0.232,0.229 -0.155,0.081 -0.344,0.026 -0.504,-0.048 -0.303,-0.146 -0.585,-0.371 -0.719,-0.678 -0.102,-0.243 -0.107,-0.521 -0.123,-0.778 -0.03,-0.469 0.005,-0.939 0.123,-1.395 0.062,-0.247 0.15,-0.504 0.323,-0.698 0.158,-0.179 0.375,-0.297 0.6,-0.373 0.395,-0.134 0.826,-0.157 1.231,-0.06 0.566,0.139 1.052,0.504 1.457,0.925 m 2.64,4.935 c 0.319,0.079 1.127,0.148 1.453,0.165 -0.412,0.421 -2.045,0.516 -2.73,0.601 l 0.326,-0.997 c 0.317,0.076 0.634,0.155 0.951,0.231 m 1.448,-0.051 C 28.893,27.171 28.145,27.118 27.791,27.03 27.551,26.968 27.31,26.898 27.074,26.82 27,26.794 26.926,26.769 26.852,26.741 26.806,26.72 26.688,26.699 26.658,26.658 c -0.04,-0.058 0.048,-0.243 0.067,-0.313 0.065,-0.236 0.118,-0.474 0.19,-0.705 -0.03,0.099 0.319,0.377 0.386,0.432 0.171,0.139 0.366,0.25 0.562,0.354 0.211,0.114 0.4,0.229 0.606,0.35 0.16,0.09 0.364,0.208 0.428,0.388 m 0.111,0.456 c 0.049,-0.034 0.31,-0.328 0.31,-0.328 C 28.65,25.964 26.581,26.017 26.829,24.048 27.04,19.365 26.387,15.184 24.835,11.105 22.933,5.865 17.625,2.448 12.276,2.117 11.048,0.981 11.038,-0.835 11.573,-2.087 c 3.755,-0.185 7.172,-2.406 8.507,-6.096 1.053,-2.911 0.442,-6.4 -1.413,-8.764 -1.021,-1.252 -2.36,-2.221 -3.869,-2.795 -1.747,-0.664 -3.702,-0.856 -5.527,-0.412 -1.606,0.391 -3.107,1.277 -4.294,2.422 -1.132,1.095 -2.022,2.499 -2.423,4.031 -0.789,3.014 0.07,6.446 2.157,8.694 1.02,1.041 1.969,1.668 3.176,2.154 0.123,0.62 -0.046,1.252 -0.208,1.847 -0.139,0.513 -0.21,0.955 -0.204,1.492 0.003,0.254 0.049,0.509 0.153,0.743 0.053,0.125 0.389,0.735 0.504,0.812 l -0.3,0.034 C 7.362,2.136 6.892,2.193 6.423,2.254 6.187,2.284 5.953,2.314 5.717,2.344 5.49,2.372 5.398,2.434 5.222,2.256 4.593,1.624 3.966,0.988 3.35,0.343 2.323,-0.743 1.321,-1.849 0.333,-2.968 c -0.981,-1.111 -1.948,-2.233 -2.91,-3.36 -0.933,-1.09 -1.86,-2.184 -2.798,-3.271 -0.673,-1.113 -1.274,-1.719 -1.695,-2.955 -0.648,1.53 -0.32,2.261 -0.204,3.883 -1.159,0.138 -2.228,-0.162 -3.364,-0.255 4.498,3.292 7.628,7.721 11.36,11.848 0.298,0.356 0.595,0.715 0.893,1.071 0.763,0.919 1.527,1.84 2.293,2.758 1.041,1.252 2.082,2.504 3.123,3.755 1.127,1.356 2.254,2.712 3.38,4.068 1.023,1.228 2.046,2.459 3.068,3.688 0.727,0.874 1.497,1.716 2.182,2.626 0.426,0.564 0.803,1.237 1.254,1.862 1.243,1.719 2.328,3.811 4.116,5.106 1.041,0.752 2.332,1.136 3.616,0.965 0.065,-0.009 0.495,-0.104 0.586,-0.15 0.758,-0.373 1.487,-0.396 2.306,-0.521 0.38,-0.055 0.613,-0.102 0.967,-0.252 0.176,-0.074 0.345,-0.167 0.502,-0.278"
             style="fill:#0d0d0d;fill-opacity:1;fill-rule:nonzero;stroke:none"
             id="path268"
             inkscape:connector-curvature="0" /></g><path
           d="m 330.874,556.066 h 0.348 v 1.553 h -0.348 z"
           style="fill:#0d0d0d;fill-opacity:1;fill-rule:nonzero;stroke:none"
           id="path270"
           inkscape:connector-curvature="0" /><path
           d="m 345.103,556.066 h 0.348 v 1.553 h -0.348 z"
           style="fill:#0d0d0d;fill-opacity:1;fill-rule:nonzero;stroke:none"
           id="path272"
           inkscape:connector-curvature="0" /><g
           id="g274"
           transform="translate(367.6144,557.17)"><path
             d="m 0,0 c -0.209,0.38 -0.684,0.462 -1.083,0.391 -0.338,-0.06 -0.789,-0.472 -0.588,-0.853 0.139,-0.263 0.409,-0.351 0.687,-0.412 0.24,-0.052 0.495,-0.014 0.7,0.122 C -0.045,-0.594 0.134,-0.373 0,0"
             style="fill:#0d0d0d;fill-opacity:1;fill-rule:nonzero;stroke:none"
             id="path276"
             inkscape:connector-curvature="0" /></g><g
           id="g278"
           transform="translate(349.9511,521.2524)"><path
             d="M 0,0 V 0 C -0.292,-0.227 -0.416,-1.653 -0.223,-2.499 L 0.089,-2.536 C 0.036,-1.963 0.02,-0.76 0.333,0.039 0.212,0.039 0.1,0.027 0,0"
             style="fill:#0d0d0d;fill-opacity:1;fill-rule:nonzero;stroke:none"
             id="path280"
             inkscape:connector-curvature="0" /></g><g
           id="g282"
           transform="translate(348.9166,521.0236)"><path
             d="m 0,0 c -0.186,-0.34 -0.299,-1.531 -0.081,-2.095 l 0.314,-0.024 c -0.181,0.537 -0.141,1.688 0.1,2.118 C 0.165,0.083 0,0 0,0"
             style="fill:#0d0d0d;fill-opacity:1;fill-rule:nonzero;stroke:none"
             id="path284"
             inkscape:connector-curvature="0" /></g><g
           id="g286"
           transform="translate(348.3073,520.9169)"><path
             d="M 0,0 C -0.111,0.075 -0.274,0.015 -0.274,0.015 -0.541,-0.495 -0.401,-1.337 -0.28,-1.799 L 0.015,-1.824 C -0.107,-1.415 -0.106,-0.456 0,0"
             style="fill:#0d0d0d;fill-opacity:1;fill-rule:nonzero;stroke:none"
             id="path288"
             inkscape:connector-curvature="0" /></g><g
           id="g290"
           transform="translate(347.6537,520.7812)"><path
             d="m 0,0 c -0.093,0.06 -0.232,0.013 -0.232,0.013 -0.23,-0.621 -0.109,-1.15 -0.006,-1.543 L 0.013,-1.551 C -0.091,-1.203 -0.131,-0.468 0,0"
             style="fill:#0d0d0d;fill-opacity:1;fill-rule:nonzero;stroke:none"
             id="path292"
             inkscape:connector-curvature="0" /></g><g
           id="g294"
           transform="translate(347.0655,520.6658)"><path
             d="M 0,0 C -0.084,0.048 -0.198,0.011 -0.198,0.011 -0.395,-0.523 -0.29,-0.966 -0.202,-1.3 L 0.011,-1.317 C -0.078,-1.022 -0.109,-0.478 0,0"
             style="fill:#0d0d0d;fill-opacity:1;fill-rule:nonzero;stroke:none"
             id="path296"
             inkscape:connector-curvature="0" /></g><g
           id="g298"
           transform="translate(346.6248,520.5643)"><path
             d="m 0,0 v 0.003 c -0.054,0.042 -0.168,0.01 -0.168,0.01 -0.174,-0.507 -0.078,-0.831 -0.004,-1.114 L 0.009,-1.116 C -0.077,-0.847 -0.089,-0.351 0,0"
             style="fill:#0d0d0d;fill-opacity:1;fill-rule:nonzero;stroke:none"
             id="path300"
             inkscape:connector-curvature="0" /></g><g
           id="g302"
           transform="translate(346.2119,520.5105)"><path
             d="m 0,0 0.001,0.002 c -0.068,0.031 -0.152,0.002 -0.152,0.002 -0.148,-0.282 -0.07,-0.741 -0.003,-0.997 L 0.009,-1.006 C -0.059,-0.78 -0.059,-0.252 0,0"
             style="fill:#0d0d0d;fill-opacity:1;fill-rule:nonzero;stroke:none"
             id="path304"
             inkscape:connector-curvature="0" /></g><g
           id="g306"
           transform="translate(345.8096,520.1058)"><path
             d="M 0,0 C 0.002,0.071 0.006,0.142 0.014,0.213 0.018,0.244 0.022,0.275 0.027,0.305 0.029,0.317 0.038,0.341 0.036,0.356 0.033,0.37 0.022,0.374 0.01,0.372 0.004,0.371 -0.003,0.37 -0.009,0.369 -0.022,0.367 -0.035,0.365 -0.048,0.363 -0.058,0.361 -0.068,0.361 -0.078,0.358 -0.09,0.353 -0.101,0.345 -0.109,0.335 -0.129,0.313 -0.139,0.282 -0.146,0.254 -0.153,0.226 -0.157,0.198 -0.163,0.171 -0.178,0.092 -0.182,0.011 -0.179,-0.07 c 0.003,-0.081 0.013,-0.163 0.027,-0.243 0.007,-0.04 0.015,-0.079 0.024,-0.118 0.003,-0.013 0.016,-0.104 0.026,-0.107 L 0.045,-0.551 C 0.033,-0.511 0.026,-0.47 0.02,-0.429 -0.001,-0.288 -0.004,-0.143 0,0"
             style="fill:#0d0d0d;fill-opacity:1;fill-rule:nonzero;stroke:none"
             id="path308"
             inkscape:connector-curvature="0" /></g><g
           id="g310"
           transform="translate(327.4828,546.9327)"><path
             d="M 0,0 C 0.743,-0.349 1.886,-0.46 2.698,-0.437 2.675,-0.021 2.702,0.528 2.749,0.898 1.936,0.828 1.104,1.155 0.743,1.923 0.604,2.216 0.551,2.492 0.562,2.751 0.597,3.764 1.585,4.539 2.156,5.354 L 1.844,5.203 C 0.838,4.604 0.442,5.749 -0.185,5.773 -0.016,5.766 0.002,5.419 -0.035,5.317 -0.104,5.12 -0.292,4.979 -0.433,4.838 -0.449,4.822 -0.465,4.805 -0.477,4.785 -0.49,4.761 -0.495,4.736 -0.5,4.711 -0.562,4.37 -0.49,4.01 -0.305,3.716 -0.127,3.433 0.167,3.116 0.167,2.76 0.167,2.737 0.164,2.712 0.162,2.688 0,2.688 -0.208,2.619 -0.347,2.758 -0.625,2.457 -0.532,1.807 -0.416,1.506 -0.254,1.321 -0.046,1.229 0.162,1.09 -0.069,0.648 -0.416,1.229 -0.671,0.925 -0.578,0.578 -0.254,0.231 0,0 M 13.836,5.164 C 13.944,5.166 14.053,5.176 14.164,5.19 14.011,5.206 13.803,5.224 13.72,5.227 12.813,5.252 12.13,5.398 11.267,5.192 10.782,5.169 10.224,4.984 10.34,4.357 c 0.742,-0.509 1.763,-0.139 2.598,0 0.254,0.33 0.5,0.698 0.898,0.807 m 1.837,-8.155 c 0.553,1.533 -1.414,1.552 -0.998,2.919 -0.578,-0.044 -1.413,0.165 -1.575,-0.509 l 1.506,-1.668 c -1.113,-0.928 -2.67,0.491 -3.861,0.294 l 0.384,-0.292 C 10.617,-2.665 10.05,-2.702 9.773,-3.283 l 0.941,0.072 0.137,-0.616 c 0.858,-0.578 1.809,0.294 2.619,0.433 0.812,0.139 1.786,-0.757 2.203,0.403 m 1.436,7.766 -1.989,0.296 -0.095,0.014 c 0.56,-0.654 1.605,-0.356 2.084,-0.31 M 20.98,-3.17 c -0.625,1.206 0.905,1.712 0.743,2.733 -0.44,0.139 -0.731,-0.697 -1.078,0 -0.498,0.698 -1.659,0.164 -2.013,0.164 -0.012,0 -0.021,0.002 -0.03,0.002 -0.486,0.139 -0.958,0.456 -1.005,1.034 0.868,1.44 3.605,0.109 3.751,2.159 0.009,0.132 -0.056,0.322 -0.141,0.421 C 20.304,4.403 18.868,4.5 17.53,4.433 17.095,4.41 16.737,4.375 16.316,4.264 16.091,4.204 15.772,4.162 15.487,4.299 15.11,4.482 15.036,4.711 14.622,4.759 14.291,4.798 13.907,4.817 13.593,4.551 13.535,4.502 13.495,4.435 13.465,4.368 13.343,4.086 13.197,3.936 12.936,3.898 12.262,3.806 11.582,3.656 10.906,3.739 10.617,3.774 10.321,3.859 10.111,4.06 9.782,4.38 9.842,5.044 10.229,5.305 c 0.203,0.139 0.472,0.16 0.708,0.197 0.351,0.062 0.708,0.102 1.064,0.122 0.245,0.017 0.488,0.024 0.733,0.024 0.472,0 0.944,-0.028 1.414,-0.07 C 15.594,5.449 17.04,5.062 18.477,4.866 19.381,4.743 20.376,4.558 21.29,4.576 21.357,4.903 20.968,5.388 20.527,5.687 19.576,6.106 18.699,6.275 17.794,5.65 16.306,5.789 14.546,5.86 13.051,5.854 H 12.734 C 12.126,5.858 11.485,5.863 10.902,5.742 10.316,5.62 9.581,5.391 9.444,4.708 9.43,4.643 9.426,4.574 9.426,4.507 9.43,4.273 9.403,4.169 9.497,3.956 9.518,3.908 9.641,3.737 9.678,3.7 9.724,3.651 9.789,3.628 9.851,3.609 c 0.72,-0.236 1.484,-0.284 2.235,-0.24 0.762,0.046 1.511,0.192 2.27,0.282 0.213,0.025 0.424,0.049 0.636,0.067 0.31,0.028 0.625,0.046 0.935,0.076 0.689,0.067 1.374,0.197 2.069,0.227 0.629,0.028 1.425,0.012 1.941,-0.391 C 20.096,3.503 20.221,3.339 20.286,3.142 20.362,2.911 20.351,2.651 20.251,2.429 20.221,2.365 20.184,2.3 20.126,2.253 20.057,2.2 19.967,2.182 19.879,2.168 19.18,2.048 18.484,2.055 17.778,2.057 17.132,2.059 16.485,2.061 15.839,2.066 14.537,2.071 13.236,2.078 11.934,2.071 10.393,2.064 8.85,2.045 7.311,1.943 6.925,1.918 6.538,1.872 6.157,1.8 6.094,1.788 6.032,1.775 5.969,1.758 L 6.168,2.085 H 6.006 C 5.518,2.131 5.102,2.712 5.171,3.105 L 6.839,3.174 C 7.142,3.824 7.512,4.521 7.744,5.099 7.674,5.099 6.8,5.18 6.696,5.624 6.372,5.532 6.089,5.564 5.786,5.379 L 5.252,5.773 C 4.694,5.307 4.285,4.745 3.984,4.097 4.169,3.656 4.734,3.23 4.734,3.23 4.704,3.204 4.671,3.181 4.641,3.158 4.343,2.938 3.996,2.793 3.57,2.92 3.38,2.54 3.223,1.934 3.184,1.52 3.376,1.668 3.658,1.923 3.894,2.015 4.327,2.184 4.829,1.814 5.109,1.522 5.347,1.273 5.581,1.016 5.821,0.768 5.856,0.733 5.983,0.646 5.953,0.592 5.937,0.562 5.759,0.578 5.724,0.581 5.567,0.583 5.407,0.606 5.252,0.636 4.669,0.752 3.968,0.951 3.366,0.935 3.239,0.93 3.142,0.919 3.142,0.919 3.112,0.842 3.093,0.516 3.098,0.372 3.11,0.069 3.093,-0.197 3.142,-0.504 3.184,-0.773 3.197,-1.046 3.223,-1.316 3.246,-1.541 3.364,-1.821 3.116,-1.881 2.95,-1.923 2.658,-1.943 2.485,-1.953 1.807,-1.994 1.145,-1.802 0.502,-1.61 c -0.47,0.141 -0.942,0.289 -1.427,0.356 l 0.476,-0.419 -0.305,-0.555 c 0.763,-0.347 1.83,0.069 2.642,-0.139 0.058,-0.294 0.065,-0.659 -0.127,-0.944 0.578,-0.185 1.069,0.366 1.323,0.643 0.241,-0.21 0.467,-0.472 0.444,-0.865 0.579,-0.116 0.808,0.796 1.296,0.865 0.113,-0.171 0.319,-0.404 0.393,-0.599 0.07,-0.178 0.107,-0.229 0.303,-0.095 0.095,0.065 0.155,0.169 0.199,0.276 0.199,0.479 0.102,0.971 -0.132,1.416 1.09,0.3 2.599,0.092 3.758,0.511 2.084,0.486 3.176,3.237 5.657,2.219 0.502,-0.209 0.104,-1.261 0.162,-1.652 0.152,-1.076 1.735,-1.078 2.482,-0.681 0.164,0.091 0.313,0.211 0.479,0.294 0.178,0.091 0.372,0.139 0.567,0.176 0.028,0.005 0.055,0.012 0.083,0.016 0.139,0.026 0.278,0.049 0.417,0.028 0.654,-0.099 0.451,-0.972 0.33,-1.397 1.09,0.462 0.695,-0.921 1.458,-1.014 M 4.699,-3.193 C 4.699,-3.232 4.35,-3.526 4.317,-3.549 4.16,-3.653 3.986,-3.732 3.808,-3.79 3.63,-3.848 3.521,-3.889 3.336,-3.908 3.271,-3.915 3.112,-3.933 3.112,-3.933 c 0.018,0.007 0.032,0.048 0.041,0.065 0.019,0.041 0.038,0.085 0.054,0.129 0.037,0.1 0.03,0.202 0.041,0.308 0.005,0.035 0.007,0.072 0,0.106 -0.009,0.037 -0.025,0.07 -0.041,0.104 -0.016,0.033 -0.035,0.07 -0.058,0.098 C 3.119,-3.086 3.107,-3.096 3.07,-3.117 3.01,-3.154 3.001,-3.198 2.95,-3.244 2.848,-3.336 2.753,-3.44 2.626,-3.498 2.374,-3.614 2.045,-3.741 1.765,-3.713 1.657,-3.702 1.55,-3.674 1.462,-3.607 1.416,-3.57 1.377,-3.526 1.347,-3.475 1.328,-3.45 1.293,-3.327 1.27,-3.318 c 0.232,-0.115 0.403,0.488 0.299,0.567 -0.313,0.241 -1.437,0.016 -2.134,0.109 -0.231,0.185 -0.377,0.053 -0.585,0.331 0.155,0.25 0.268,0.52 0.275,0.601 0.012,0.178 -0.631,0.403 -0.469,0.794 1.39,-0.023 2.654,-0.741 4.093,-0.694 0.138,0.231 -0.035,0.52 -0.012,0.775 -1.321,0.231 -3.107,0.069 -3.665,1.437 l -0.254,0.65 0.453,0.132 c 0,0.532 -0.592,1.721 0.313,1.79 -0.324,0.535 -0.766,1.206 -0.347,1.833 0.578,0.231 0,1.089 0,1.089 C 0.442,6.559 1.09,4.59 2.156,5.773 L 2.749,5.828 C 2.422,4.343 -0.208,2.781 1.832,1.344 2.11,1.205 2.506,1.275 2.83,1.252 3.153,3.059 3.616,5.169 5.333,6.351 5.867,5 7.066,6.784 7.168,5.624 7.515,5.391 7.998,5.585 8.348,5.611 8.114,4.333 7.188,3.313 6.677,2.177 c 0.039,0.088 0.9,0.095 1.018,0.104 0.359,0.028 0.72,0.051 1.078,0.07 0.734,0.034 1.469,0.048 2.203,0.051 0.169,0 0.338,0.002 0.507,0.002 1.353,0 2.707,-0.03 4.06,-0.032 0.766,0 1.532,0.006 2.295,0.032 0.396,0.014 0.789,0.03 1.182,0.053 0.29,0.019 0.676,-0.037 0.85,0.257 0.085,0.143 0.085,0.335 0.002,0.481 -0.13,0.225 -0.641,0.38 -0.9,0.417 C 18.238,3.716 17.757,3.621 17.024,3.572 16.253,3.524 15.457,3.396 14.692,3.306 13.94,3.218 13.19,3.1 12.433,3.045 12.117,3.022 11.8,3.008 11.48,3.008 c -0.317,0 -0.634,0.014 -0.951,0.041 -0.305,0.026 -0.617,0.067 -0.888,0.216 -0.5,0.273 -0.713,1.027 -0.535,1.55 0.142,0.416 0.454,0.724 0.817,0.958 0.178,0.113 0.493,0.143 0.699,0.189 0.238,0.053 0.479,0.095 0.719,0.127 0.477,0.065 0.956,0.091 1.435,0.093 0.962,0.007 1.923,-0.072 2.885,-0.093 0.537,-0.011 1.425,-0.127 1.96,-0.083 0,0 0.685,0.308 1.212,0.354 0.706,0.063 1.418,-0.164 2.006,-0.56 0.123,-0.081 0.241,-0.171 0.34,-0.282 0.132,-0.148 0.22,-0.326 0.31,-0.504 C 21.575,4.84 21.663,4.653 21.635,4.463 21.63,4.426 21.619,4.391 21.598,4.361 21.57,4.326 21.528,4.308 21.487,4.294 21.239,4.213 20.834,4.357 20.633,4.176 21.091,3.963 21.415,3.667 21.644,3.209 21.704,3.086 21.76,2.959 21.781,2.823 21.808,2.633 21.762,2.503 21.681,2.325 21.531,1.987 21.269,1.707 20.936,1.55 20.443,1.316 19.9,1.277 19.367,1.192 18.923,1.122 18.472,1.013 18.106,0.75 18.079,0.729 18.049,0.706 18.035,0.673 17.954,0.484 18.359,0.194 18.502,0.146 c 0.22,-0.074 0.463,-0.042 0.685,-0.005 0.456,0.081 1.004,0.28 1.432,0.009 0.162,-0.104 0.28,-0.263 0.361,-0.435 0.257,0.371 0.838,0.169 1.208,0.213 0.356,-1.207 -1.597,-2.265 -0.717,-3.75 -1.886,0.421 -0.845,1.416 -2.043,1.316 -0.81,0.188 0.187,0.859 -0.232,1.347 -1.09,0.254 -1.388,-0.75 -3.082,-0.685 -0.138,-0.301 0.047,-0.8 -0.023,-1.147 -0.044,-0.213 -0.266,-0.459 -0.416,-0.607 -0.111,-0.109 -0.229,-0.22 -0.363,-0.303 -0.188,-0.118 -0.59,-0.088 -0.764,0.028 -0.375,0.252 -0.692,0.204 -1.115,0.1 -0.606,-0.151 -0.997,-0.489 -1.615,-0.591 -0.555,-0.113 -1.062,0.07 -1.478,0.445 v 0.347 c 0,0.132 -0.597,-0.077 -0.65,-0.083 -0.373,-0.054 -0.371,0.094 -0.183,0.624 0.039,0.109 0.111,0.201 0.199,0.273 0.136,0.111 0.277,0.25 0.453,0.308 0.067,0.021 0.201,0.086 0.269,0.099 0.28,0.065 -0.132,0.324 -0.25,0.449 0.15,0.134 0.298,0.227 0.446,0.282 1.099,0.435 2.131,-1.008 3.38,-0.536 -0.511,0.671 -1.577,1.113 -1.159,1.992 0.255,0.428 0.755,0.43 1.203,0.419 0.142,-0.003 0.283,0.002 0.421,0.016 0.072,0.009 0.216,0.016 0.267,0.062 0.074,0.07 0.141,0.264 0.078,0.343 C 14.261,1.363 12.535,0.599 11.987,0.023 11.503,-0.484 10.932,-0.914 10.312,-1.254 10.231,-1.3 10.145,-1.342 10.06,-1.381 9.972,-1.418 9.884,-1.453 9.796,-1.483 9.419,-1.606 9.025,-1.666 8.632,-1.721 8.186,-1.784 7.734,-1.837 7.286,-1.89 7.182,-1.902 6.194,-2.066 6.168,-1.994 c 0.139,-0.37 0.093,-0.627 0,-0.997 C 5.937,-3.454 5.701,-3.762 5.166,-3.878 5.014,-3.593 4.905,-3.332 4.699,-3.193"
             style="fill:#0d0d0d;fill-opacity:1;fill-rule:nonzero;stroke:none"
             id="path312"
             inkscape:connector-curvature="0" /></g></g></g></g></svg>