<?xml version="1.0" encoding="UTF-8" standalone="no"?>
<!-- Created with Inkscape (http://www.inkscape.org/) -->

<svg
   xmlns:dc="http://purl.org/dc/elements/1.1/"
   xmlns:cc="http://creativecommons.org/ns#"
   xmlns:rdf="http://www.w3.org/1999/02/22-rdf-syntax-ns#"
   xmlns:svg="http://www.w3.org/2000/svg"
   xmlns="http://www.w3.org/2000/svg"
   xmlns:sodipodi="http://sodipodi.sourceforge.net/DTD/sodipodi-0.dtd"
   xmlns:inkscape="http://www.inkscape.org/namespaces/inkscape"
   version="1.1"
   id="svg2"
   xml:space="preserve"
   width="4096"
   height="4096"
   viewBox="0 0 4096 4096"
   sodipodi:docname="sheffield-united-fc-logo.svg"
   inkscape:export-filename="G:\Users\suitedoalex\sites\sheffield-united-logo-0.png"
   inkscape:export-xdpi="96"
   inkscape:export-ydpi="96"
   inkscape:version="0.92.2 (5c3e80d, 2017-08-06)"><metadata
     id="metadata8"><rdf:RDF><cc:Work
         rdf:about=""><dc:format>image/svg+xml</dc:format><dc:type
           rdf:resource="http://purl.org/dc/dcmitype/StillImage" /><dc:title></dc:title></cc:Work></rdf:RDF></metadata><defs
     id="defs6"><clipPath
       clipPathUnits="userSpaceOnUse"
       id="clipPath190"><path
         d="m 34.133,77.954 h 71.578 V 202.33 H 34.133 Z"
         id="path188"
         inkscape:connector-curvature="0" /></clipPath><clipPath
       clipPathUnits="userSpaceOnUse"
       id="clipPath202"><path
         d="m 157.796,77.954 h 71.577 V 202.33 h -71.577 z"
         id="path200"
         inkscape:connector-curvature="0" /></clipPath><clipPath
       clipPathUnits="userSpaceOnUse"
       id="clipPath214"><path
         d="m 97.087,78.656 h 38.111 v 46.558 H 97.087 Z"
         id="path212"
         inkscape:connector-curvature="0" /></clipPath><clipPath
       clipPathUnits="userSpaceOnUse"
       id="clipPath226"><path
         d="m 220.75,78.656 h 40.982 v 46.558 H 220.75 Z"
         id="path224"
         inkscape:connector-curvature="0" /></clipPath><clipPath
       clipPathUnits="userSpaceOnUse"
       id="clipPath238"><path
         d="m 316.584,503.386 h 61.176 v 60.238 h -61.176 z"
         id="path236"
         inkscape:connector-curvature="0" /></clipPath><clipPath
       clipPathUnits="userSpaceOnUse"
       id="clipPath250"><path
         d="m 314.363,503.386 h 64.913 v 60.238 h -64.913 z"
         id="path248"
         inkscape:connector-curvature="0" /></clipPath></defs><sodipodi:namedview
     pagecolor="#ffffff"
     bordercolor="#666666"
     borderopacity="1"
     objecttolerance="10"
     gridtolerance="10"
     guidetolerance="10"
     inkscape:pageopacity="0"
     inkscape:pageshadow="2"
     inkscape:window-width="1920"
     inkscape:window-height="1017"
     id="namedview4"
     showgrid="false"
     inkscape:zoom="0.10512594"
     inkscape:cx="692.60484"
     inkscape:cy="2386.4759"
     inkscape:window-x="-8"
     inkscape:window-y="-8"
     inkscape:window-maximized="1"
     inkscape:current-layer="g10" /><g
     id="g10"
     inkscape:groupmode="layer"
     inkscape:label="2019-20-PL-Handbook-220819"
     transform="matrix(1.3333333,0,0,-1.3333333,0,4096)"><g
       id="g232"
       transform="matrix(38.618915,0,0,38.618915,-11871.406,-19067.384)"
       inkscape:export-filename="G:\Users\suitedoalex\sites\sheffield-united-logo-4.png"
       inkscape:export-xdpi="12.190214"
       inkscape:export-ydpi="12.190214"><g
         id="g234"
         clip-path="url(#clipPath238)"><g
           id="g240"
           transform="translate(377.7634,533.5051)"><path
             d="m 0,0 c 0,-16.894 -13.696,-30.59 -30.59,-30.59 -16.894,0 -30.59,13.696 -30.59,30.59 0,16.894 13.696,30.59 30.59,30.59 C -13.696,30.59 0,16.894 0,0"
             style="fill:#ffffff;fill-opacity:1;fill-rule:nonzero;stroke:none"
             id="path242"
             inkscape:connector-curvature="0" /></g></g></g><g
       id="g244"
       transform="matrix(38.618915,0,0,38.618915,-11871.406,-19067.384)"
       inkscape:export-filename="G:\Users\suitedoalex\sites\sheffield-united-logo-4.png"
       inkscape:export-xdpi="12.190214"
       inkscape:export-ydpi="12.190214"><g
         id="g246"
         clip-path="url(#clipPath250)"><g
           id="g252"
           transform="translate(376.3668,533.5051)"><path
             d="m 0,0 c 0,-16.123 -13.07,-29.193 -29.193,-29.193 -16.123,0 -29.193,13.07 -29.193,29.193 0,16.123 13.07,29.193 29.193,29.193 C -13.07,29.193 0,16.123 0,0"
             style="fill:#ec1c26;fill-opacity:1;fill-rule:nonzero;stroke:none"
             id="path254"
             inkscape:connector-curvature="0" /></g><g
           id="g256"
           transform="translate(368.1225,533.5051)"><path
             d="m 0,0 c 0,-11.57 -9.379,-20.949 -20.949,-20.949 -11.569,0 -20.949,9.379 -20.949,20.949 0,11.57 9.38,20.949 20.949,20.949 C -9.379,20.949 0,11.57 0,0"
             style="fill:#ffffff;fill-opacity:1;fill-rule:nonzero;stroke:none"
             id="path258"
             inkscape:connector-curvature="0" /></g><g
           id="g260"
           transform="translate(366.5457,533.5051)"><path
             d="m 0,0 c 0,-10.699 -8.673,-19.372 -19.372,-19.372 -10.699,0 -19.372,8.673 -19.372,19.372 0,10.699 8.673,19.372 19.372,19.372 C -8.673,19.372 0,10.699 0,0"
             style="fill:#231f20;fill-opacity:1;fill-rule:nonzero;stroke:none"
             id="path262"
             inkscape:connector-curvature="0" /></g><g
           id="g264"
           transform="translate(348.518,543.8552)"><path
             d="m 0,0 c -0.485,0.635 -0.64,0.741 -1.263,0.865 -0.003,0.055 -0.012,0.117 -0.011,0.179 0.026,1.036 0.055,2.071 0.078,3.107 0.002,0.099 0.036,0.158 0.115,0.211 0.314,0.211 0.602,0.211 0.889,-0.038 C -0.024,4.179 0.118,4.004 0.266,3.838 0.467,3.612 0.657,3.377 0.862,3.154 1.149,2.841 1.501,2.623 1.9,2.477 2.096,2.406 2.293,2.337 2.484,2.254 2.971,2.044 3.182,1.657 3.12,1.127 3.108,1.021 3.056,0.979 2.967,0.948 2.586,0.816 2.21,0.672 1.827,0.548 1.287,0.375 0.742,0.215 0.198,0.05 0.131,0.03 0.062,0.016 0,0"
             style="fill:#ffffff;fill-opacity:1;fill-rule:nonzero;stroke:none"
             id="path266"
             inkscape:connector-curvature="0" /></g><g
           id="g268"
           transform="translate(347.0235,544.7154)"><path
             d="m 0,0 c -0.582,-0.074 -0.989,-0.361 -1.247,-0.857 -0.054,0.008 -0.098,0.007 -0.138,0.02 -0.93,0.299 -1.86,0.598 -2.789,0.902 -0.218,0.071 -0.215,0.081 -0.218,0.307 -0.007,0.55 0.178,0.833 0.694,1.045 0.199,0.082 0.402,0.154 0.604,0.231 0.398,0.151 0.737,0.39 1.02,0.705 0.226,0.251 0.435,0.518 0.659,0.771 0.124,0.139 0.253,0.278 0.401,0.39 0.327,0.248 0.622,0.138 0.87,-0.052 C -0.1,3.428 -0.081,3.338 -0.079,3.273 -0.062,2.633 -0.051,1.992 -0.036,1.352 -0.027,1 -0.011,0.647 0,0.295 0.002,0.203 0,0.111 0,0"
             style="fill:#ffffff;fill-opacity:1;fill-rule:nonzero;stroke:none"
             id="path270"
             inkscape:connector-curvature="0" /></g><g
           id="g272"
           transform="translate(342.4655,544.4686)"><path
             d="M 0,0 C 0.546,-0.075 2.874,-0.716 3.211,-0.883 3.155,-1.15 3.15,-1.42 3.234,-1.687 3.319,-1.954 3.477,-2.174 3.681,-2.378 3.648,-2.429 3.62,-2.477 3.588,-2.523 3.032,-3.329 2.473,-4.133 1.922,-4.942 1.842,-5.06 1.758,-5.101 1.621,-5.094 1.28,-5.076 1.052,-4.936 0.968,-4.602 c -0.083,0.326 -0.131,0.664 -0.161,0.999 -0.064,0.722 -0.278,1.379 -0.75,1.941 -0.101,0.121 -0.187,0.256 -0.269,0.391 -0.18,0.295 -0.184,0.601 -0.022,0.904 0.07,0.131 0.16,0.252 0.234,0.367"
             style="fill:#ffffff;fill-opacity:1;fill-rule:nonzero;stroke:none"
             id="path274"
             inkscape:connector-curvature="0" /></g><g
           id="g276"
           transform="translate(348.1484,542.1115)"><path
             d="M 0,0 C 0.429,0.408 0.562,0.899 0.44,1.492 1.489,1.827 2.549,2.131 3.627,2.367 3.794,2.195 3.906,2.004 3.971,1.789 4.04,1.564 4.015,1.343 3.897,1.142 3.795,0.969 3.686,0.797 3.559,0.642 3.123,0.11 2.919,-0.508 2.855,-1.182 2.834,-1.412 2.801,-1.64 2.771,-1.868 2.761,-1.939 2.744,-2.009 2.724,-2.078 2.624,-2.443 2.398,-2.63 1.924,-2.608 1.825,-2.604 1.792,-2.534 1.748,-2.471 1.366,-1.93 0.985,-1.388 0.603,-0.848 0.445,-0.624 0.283,-0.404 0.123,-0.182 0.082,-0.124 0.043,-0.064 0,0"
             style="fill:#ffffff;fill-opacity:1;fill-rule:nonzero;stroke:none"
             id="path278"
             inkscape:connector-curvature="0" /></g><g
           id="g280"
           transform="translate(346.3427,541.9453)"><path
             d="M 0,0 C 0.567,-0.313 1.115,-0.293 1.658,0.052 2.276,-0.809 2.836,-1.688 3.385,-2.578 3.278,-2.804 3.13,-2.986 2.936,-3.127 2.758,-3.257 2.554,-3.293 2.34,-3.249 c -0.147,0.031 -0.296,0.066 -0.436,0.12 -0.651,0.254 -1.307,0.243 -1.97,0.059 -0.222,-0.062 -0.446,-0.115 -0.67,-0.168 -0.077,-0.018 -0.156,-0.029 -0.234,-0.035 -0.406,-0.033 -0.642,0.131 -0.756,0.519 -0.021,0.074 -0.019,0.134 0.027,0.203 0.541,0.815 1.079,1.633 1.618,2.45 C -0.061,-0.072 -0.037,-0.046 0,0"
             style="fill:#ffffff;fill-opacity:1;fill-rule:nonzero;stroke:none"
             id="path282"
             inkscape:connector-curvature="0" /></g><g
           id="g284"
           transform="translate(352.095,545.0934)"><path
             d="M 0,0 C 0.052,0.478 -0.183,0.758 -0.515,0.972 -0.726,1.109 -0.946,1.236 -1.172,1.346 -1.898,1.698 -2.507,2.193 -3.013,2.82 -3.13,2.965 -3.257,3.104 -3.384,3.241 -3.7,3.582 -4.07,3.705 -4.515,3.515 -4.534,3.506 -4.556,3.502 -4.576,3.497 -4.582,3.496 -4.59,3.501 -4.619,3.51 c 0.085,0.184 0.204,0.341 0.347,0.477 0.265,0.252 0.582,0.392 0.948,0.422 0.418,0.035 0.82,-0.04 1.204,-0.198 C -1.174,3.822 -0.416,3.198 0.147,2.343 0.375,1.997 0.539,1.622 0.573,1.201 0.609,0.755 0.462,0.38 0.126,0.082 0.101,0.06 0.069,0.045 0,0"
             style="fill:#ffffff;fill-opacity:1;fill-rule:nonzero;stroke:none"
             id="path286"
             inkscape:connector-curvature="0" /></g><g
           id="g288"
           transform="translate(344.312,538.7557)"><path
             d="m 0,0 c 0.047,-0.063 0.091,-0.125 0.137,-0.186 0.19,-0.256 0.445,-0.388 0.763,-0.362 0.215,0.018 0.431,0.047 0.638,0.103 0.902,0.241 1.805,0.239 2.715,0.052 0.217,-0.045 0.442,-0.064 0.664,-0.068 0.325,-0.007 0.608,0.099 0.804,0.379 0.011,0.017 0.031,0.028 0.059,0.053 0.101,-0.252 0.09,-0.496 0.022,-0.74 C 5.701,-1.126 5.464,-1.382 5.169,-1.59 4.824,-1.836 4.436,-1.985 4.028,-2.084 3.194,-2.285 2.36,-2.291 1.53,-2.062 1.202,-1.971 0.893,-1.836 0.619,-1.63 c -0.502,0.376 -0.727,0.877 -0.67,1.502 0.002,0.029 0.006,0.058 0.014,0.085 C -0.034,-0.031 -0.02,-0.022 0,0"
             style="fill:#ffffff;fill-opacity:1;fill-rule:nonzero;stroke:none"
             id="path290"
             inkscape:connector-curvature="0" /></g><g
           id="g292"
           transform="translate(346.7874,548.5729)"><path
             d="m 0,0 c -0.106,0.033 -0.167,0.05 -0.226,0.07 -0.33,0.114 -0.628,0.053 -0.884,-0.179 -0.144,-0.131 -0.272,-0.278 -0.403,-0.421 -0.18,-0.197 -0.35,-0.403 -0.533,-0.596 -0.341,-0.358 -0.737,-0.644 -1.173,-0.876 -0.229,-0.121 -0.462,-0.237 -0.684,-0.369 -0.16,-0.096 -0.314,-0.205 -0.455,-0.327 -0.193,-0.168 -0.297,-0.386 -0.29,-0.649 0,-0.032 -0.007,-0.065 -0.013,-0.129 -0.344,0.262 -0.525,0.578 -0.55,0.982 -0.022,0.356 0.074,0.686 0.228,1 0.345,0.703 0.873,1.248 1.503,1.698 0.468,0.334 0.974,0.591 1.544,0.694 0.389,0.07 0.775,0.066 1.144,-0.102 C -0.443,0.638 -0.195,0.379 0,0"
             style="fill:#ffffff;fill-opacity:1;fill-rule:nonzero;stroke:none"
             id="path294"
             inkscape:connector-curvature="0" /></g><g
           id="g296"
           transform="translate(352.242,544.5907)"><path
             d="M 0,0 C 0.623,-0.098 1.051,-0.414 1.279,-0.988 1.457,-1.435 1.477,-1.902 1.431,-2.371 1.343,-3.258 1.072,-4.088 0.62,-4.857 0.507,-5.048 0.371,-5.227 0.232,-5.401 c -0.253,-0.318 -0.598,-0.44 -0.995,-0.416 -0.308,0.019 -0.609,0.078 -0.895,0.222 0.022,0.017 0.032,0.029 0.045,0.033 0.475,0.178 0.686,0.544 0.731,1.027 0.04,0.423 0.081,0.846 0.117,1.269 0.045,0.537 0.233,1.004 0.634,1.379 0.114,0.108 0.22,0.231 0.305,0.362 0.215,0.33 0.237,0.67 0.018,1.014 C 0.009,-0.226 0.011,-0.224 0,0"
             style="fill:#ffffff;fill-opacity:1;fill-rule:nonzero;stroke:none"
             id="path298"
             inkscape:connector-curvature="0" /></g><g
           id="g300"
           transform="translate(341.8748,544.4533)"><path
             d="M 0,0 C -0.035,-0.232 -0.066,-0.437 -0.096,-0.642 -0.102,-0.684 -0.104,-0.728 -0.107,-0.771 -0.127,-1.149 -0.049,-1.486 0.278,-1.725 0.335,-1.768 0.382,-1.824 0.435,-1.873 0.787,-2.207 0.958,-2.623 0.999,-3.1 1.028,-3.444 1.053,-3.789 1.086,-4.133 1.099,-4.268 1.119,-4.405 1.151,-4.537 1.275,-5.052 1.478,-5.234 2.037,-5.313 1.842,-5.469 1.64,-5.548 1.426,-5.598 c -0.361,-0.084 -0.7,-0.016 -1.021,0.159 -0.31,0.168 -0.556,0.408 -0.764,0.688 -0.476,0.639 -0.739,1.361 -0.849,2.145 -0.069,0.491 -0.056,0.977 0.092,1.453 0.159,0.514 0.461,0.908 0.974,1.114 C -0.102,-0.023 -0.059,-0.016 0,0"
             style="fill:#ffffff;fill-opacity:1;fill-rule:nonzero;stroke:none"
             id="path302"
             inkscape:connector-curvature="0" /></g><g
           id="g304"
           transform="translate(347.1333,542.4484)"><path
             d="M 0,0 C 0.278,-0.165 0.477,-0.162 0.677,0.045 0.767,0.138 0.832,0.268 0.876,0.392 0.929,0.54 0.831,0.665 0.752,0.775 0.927,1.035 0.909,1.25 0.701,1.462 0.486,1.682 0.254,1.702 -0.009,1.523 -0.31,1.698 -0.522,1.672 -0.735,1.435 -0.93,1.218 -0.939,1.009 -0.764,0.755 -0.939,0.471 -0.919,0.261 -0.694,0.046 -0.474,-0.166 -0.267,-0.179 0,0 M -1.282,0.776 C -1.28,1.483 -0.713,2.052 -0.006,2.059 0.706,2.065 1.289,1.486 1.293,0.77 1.297,0.059 0.716,-0.521 0,-0.52 c -0.718,0 -1.285,0.573 -1.282,1.296"
             style="fill:#ffffff;fill-opacity:1;fill-rule:nonzero;stroke:none"
             id="path306"
             inkscape:connector-curvature="0" /></g><g
           id="g308"
           transform="translate(350.5126,538.629)"><path
             d="M 0,0 C 0.347,-0.276 0.709,-0.309 1.1,-0.322 1.047,-0.681 0.94,-1.039 1.096,-1.401 0.769,-1.204 0.418,-1.155 0.042,-1.149 0.109,-0.768 0.144,-0.406 0,0"
             style="fill:#ffffff;fill-opacity:1;fill-rule:nonzero;stroke:none"
             id="path310"
             inkscape:connector-curvature="0" /></g><g
           id="g312"
           transform="translate(354.2365,545.3815)"><path
             d="m 0,0 c -0.145,-0.137 -0.283,-0.251 -0.4,-0.384 -0.118,-0.134 -0.213,-0.287 -0.328,-0.446 -0.327,0.16 -0.653,0.328 -1.076,0.364 0.393,0.189 0.612,0.484 0.786,0.834 C -0.712,0.125 -0.385,-0.006 0,0"
             style="fill:#ffffff;fill-opacity:1;fill-rule:nonzero;stroke:none"
             id="path314"
             inkscape:connector-curvature="0" /></g><g
           id="g316"
           transform="translate(342.8524,538.434)"><path
             d="M 0,0 C 0.395,-0.071 0.744,-0.041 1.056,0.201 0.964,-0.164 0.991,-0.511 1.091,-0.874 0.702,-0.86 0.34,-0.896 0.001,-1.11 0.147,-0.749 0.146,-0.39 0,0"
             style="fill:#ffffff;fill-opacity:1;fill-rule:nonzero;stroke:none"
             id="path318"
             inkscape:connector-curvature="0" /></g><g
           id="g320"
           transform="translate(347.1265,548.8003)"><path
             d="M 0,0 C -0.118,0.392 -0.358,0.636 -0.65,0.866 -0.39,1.1 -0.139,1.326 -0.034,1.684 0.057,1.521 0.121,1.363 0.222,1.235 0.328,1.102 0.47,0.999 0.608,0.872 0.364,0.647 0.103,0.412 0,0"
             style="fill:#ffffff;fill-opacity:1;fill-rule:nonzero;stroke:none"
             id="path322"
             inkscape:connector-curvature="0" /></g><g
           id="g324"
           transform="translate(340.1109,545.2017)"><path
             d="M 0,0 C 0.374,0.074 0.728,0.1 0.971,0.427 1.052,0.055 1.304,-0.153 1.583,-0.359 1.408,-0.41 1.241,-0.438 1.095,-0.51 0.943,-0.583 0.813,-0.7 0.65,-0.813 0.549,-0.473 0.331,-0.211 0,0"
             style="fill:#ffffff;fill-opacity:1;fill-rule:nonzero;stroke:none"
             id="path326"
             inkscape:connector-curvature="0" /></g><g
           id="g328"
           transform="translate(346.8788,542.58)"><path
             d="M 0,0 C -0.254,0.027 -0.347,0.119 -0.364,0.347 -0.177,0.307 -0.08,0.173 0,0"
             style="fill:#ffffff;fill-opacity:1;fill-rule:nonzero;stroke:none"
             id="path330"
             inkscape:connector-curvature="0" /></g><g
           id="g332"
           transform="translate(346.8588,543.825)"><path
             d="M 0,0 C -0.073,-0.168 -0.171,-0.288 -0.33,-0.349 -0.37,-0.149 -0.256,-0.022 0,0"
             style="fill:#ffffff;fill-opacity:1;fill-rule:nonzero;stroke:none"
             id="path334"
             inkscape:connector-curvature="0" /></g><g
           id="g336"
           transform="translate(347.3937,543.8232)"><path
             d="M 0,0 C 0.237,-0.005 0.338,-0.105 0.347,-0.332 0.178,-0.286 0.066,-0.179 0,0"
             style="fill:#ffffff;fill-opacity:1;fill-rule:nonzero;stroke:none"
             id="path338"
             inkscape:connector-curvature="0" /></g><g
           id="g340"
           transform="translate(347.7502,542.9524)"><path
             d="M 0,0 C -0.012,-0.237 -0.106,-0.335 -0.337,-0.361 -0.302,-0.178 -0.177,-0.077 0,0"
             style="fill:#ffffff;fill-opacity:1;fill-rule:nonzero;stroke:none"
             id="path342"
             inkscape:connector-curvature="0" /></g><g
           id="g344"
           transform="translate(347.5236,543.335)"><path
             d="m 0,0 v -0.221 c -0.08,-0.031 -0.124,0 -0.137,0.064 C -0.153,-0.08 -0.134,-0.015 0,0"
             style="fill:#ffffff;fill-opacity:1;fill-rule:nonzero;stroke:none"
             id="path346"
             inkscape:connector-curvature="0" /></g><g
           id="g348"
           transform="translate(347.1286,542.7531)"><path
             d="M 0,0 C -0.049,0.054 -0.099,0.083 -0.102,0.117 -0.108,0.184 -0.052,0.219 0.01,0.202 0.049,0.192 0.08,0.151 0.114,0.123 0.082,0.089 0.05,0.054 0,0"
             style="fill:#ffffff;fill-opacity:1;fill-rule:nonzero;stroke:none"
             id="path350"
             inkscape:connector-curvature="0" /></g><g
           id="g352"
           transform="translate(346.735,543.0964)"><path
             d="M 0,0 V 0.202 C 0.085,0.233 0.132,0.206 0.142,0.124 0.152,0.033 0.109,-0.007 0,0"
             style="fill:#ffffff;fill-opacity:1;fill-rule:nonzero;stroke:none"
             id="path354"
             inkscape:connector-curvature="0" /></g><g
           id="g356"
           transform="translate(347.2381,543.5836)"><path
             d="M 0,0 C -0.073,-0.144 -0.119,-0.148 -0.234,-0.022 -0.161,0.067 -0.085,0.051 0,0"
             style="fill:#ffffff;fill-opacity:1;fill-rule:nonzero;stroke:none"
             id="path358"
             inkscape:connector-curvature="0" /></g><g
           id="g360"
           transform="translate(347.1346,543.1025)"><path
             d="M 0,0 C -0.04,0.046 -0.085,0.076 -0.083,0.102 -0.081,0.133 -0.038,0.16 -0.012,0.189 0.015,0.164 0.06,0.141 0.066,0.111 0.071,0.084 0.032,0.05 0,0"
             style="fill:#ffffff;fill-opacity:1;fill-rule:nonzero;stroke:none"
             id="path362"
             inkscape:connector-curvature="0" /></g><g
           id="g364"
           transform="translate(360.9211,542.8054)"><path
             d="m 0,0 c -0.026,-0.42 -0.042,-0.793 -0.074,-1.165 -0.111,-1.25 -0.312,-2.485 -0.632,-3.7 -0.778,-2.953 -2.225,-5.53 -4.335,-7.736 -1.379,-1.44 -2.943,-2.648 -4.619,-3.717 -0.529,-0.336 -1.071,-0.651 -1.607,-0.974 -0.061,-0.037 -0.126,-0.069 -0.191,-0.105 -0.678,0.39 -1.339,0.794 -1.993,1.251 0.076,0.066 0.133,0.118 0.192,0.168 1.322,1.096 2.576,2.262 3.689,3.575 2.102,2.478 3.457,5.307 4.02,8.51 0.068,0.383 0.12,0.768 0.175,1.153 0.017,0.112 0.047,0.192 0.166,0.249 1.37,0.657 2.735,1.323 4.103,1.982 C -0.758,-0.34 -0.402,-0.185 0,0"
             style="fill:#ffffff;fill-opacity:1;fill-rule:nonzero;stroke:none"
             id="path366"
             inkscape:connector-curvature="0" /></g><g
           id="g368"
           transform="translate(342.2198,518.928)"><path
             d="m 0,0 c -0.499,0.032 -0.9,0.211 -1.169,0.643 -0.379,0.611 -0.59,1.28 -0.693,1.984 -0.099,0.677 -0.17,1.358 -0.264,2.035 -0.093,0.668 -0.266,1.312 -0.597,1.906 -0.1,0.179 -0.157,0.372 -0.152,0.579 0.007,0.328 0.197,0.557 0.519,0.626 0.51,0.109 1.087,-0.13 1.374,-0.57 0.348,-0.533 0.565,-1.12 0.67,-1.742 0.106,-0.632 0.18,-1.269 0.258,-1.905 C 0.048,2.729 0.212,1.923 0.624,1.183 0.695,1.055 0.731,0.899 0.752,0.752 0.802,0.398 0.594,0.11 0.247,0.033 0.163,0.015 0.076,0.01 0,0"
             style="fill:#ffffff;fill-opacity:1;fill-rule:nonzero;stroke:none"
             id="path370"
             inkscape:connector-curvature="0" /></g><g
           id="g372"
           transform="translate(342.4961,522.5911)"><path
             d="M 0,0 C -0.072,0.134 -0.233,1.059 -0.226,1.306 0.678,1.592 1.532,1.998 2.302,2.583 2.98,2.271 3.656,1.959 4.362,1.634 4.278,1.586 4.215,1.547 4.149,1.515 3.476,1.184 2.768,0.939 2.06,0.698 1.399,0.474 0.74,0.246 0.079,0.02 0.053,0.011 0.026,0.006 0,0"
             style="fill:#ffffff;fill-opacity:1;fill-rule:nonzero;stroke:none"
             id="path374"
             inkscape:connector-curvature="0" /></g><g
           id="g376"
           transform="translate(338.6277,521.5422)"><path
             d="m 0,0 c 0.003,0.026 0.001,0.07 0.013,0.111 0.14,0.468 0.27,0.939 0.428,1.401 0.1,0.294 0.439,0.39 0.694,0.219 C 1.318,1.609 1.375,1.431 1.33,1.223 1.3,1.083 1.251,0.947 1.211,0.809 1.116,0.492 1.028,0.174 0.926,-0.14 0.836,-0.421 0.576,-0.551 0.315,-0.46 0.121,-0.393 0.002,-0.226 0,0"
             style="fill:#f4f01f;fill-opacity:1;fill-rule:nonzero;stroke:none"
             id="path378"
             inkscape:connector-curvature="0" /></g><g
           id="g380"
           transform="translate(336.0231,522.5565)"><path
             d="m 0,0 c -0.003,-0.015 -0.006,-0.065 -0.02,-0.113 -0.132,-0.44 -0.261,-0.88 -0.399,-1.318 -0.073,-0.232 -0.223,-0.342 -0.438,-0.348 -0.292,-0.007 -0.507,0.216 -0.485,0.507 0.003,0.049 0.013,0.1 0.028,0.148 0.127,0.426 0.252,0.853 0.385,1.278 0.074,0.237 0.23,0.352 0.455,0.353 C -0.196,0.509 0.002,0.313 0,0"
             style="fill:#f4f01f;fill-opacity:1;fill-rule:nonzero;stroke:none"
             id="path382"
             inkscape:connector-curvature="0" /></g><g
           id="g384"
           transform="translate(338.662,522.7512)"><path
             d="M 0,0 C -0.003,-0.018 -0.003,-0.069 -0.017,-0.117 -0.15,-0.563 -0.28,-1.011 -0.422,-1.455 -0.507,-1.72 -0.748,-1.848 -0.996,-1.783 c -0.231,0.061 -0.378,0.281 -0.342,0.527 0.015,0.099 0.048,0.195 0.076,0.292 0.108,0.364 0.215,0.729 0.328,1.092 0.076,0.245 0.241,0.371 0.469,0.369 C -0.201,0.495 -0.004,0.297 0,0"
             style="fill:#f4f01f;fill-opacity:1;fill-rule:nonzero;stroke:none"
             id="path386"
             inkscape:connector-curvature="0" /></g><g
           id="g388"
           transform="translate(336.8825,523.1066)"><path
             d="m 0,0 c -0.228,-0.002 -0.384,-0.124 -0.462,-0.377 -0.109,-0.349 -0.211,-0.701 -0.316,-1.051 -0.026,-0.09 -0.058,-0.178 -0.077,-0.269 -0.055,-0.274 0.082,-0.518 0.32,-0.579 0.266,-0.069 0.503,0.059 0.59,0.334 0.139,0.437 0.276,0.876 0.398,1.318 C 0.547,-0.285 0.329,0.003 0,0"
             style="fill:#f4f01f;fill-opacity:1;fill-rule:nonzero;stroke:none"
             id="path390"
             inkscape:connector-curvature="0" /></g><g
           id="g392"
           transform="translate(333.4274,542.798)"><path
             d="m 0,0 c 0.395,-0.182 0.757,-0.341 1.112,-0.513 1.316,-0.636 2.626,-1.283 3.947,-1.908 0.211,-0.1 0.288,-0.221 0.321,-0.444 0.341,-2.335 1.018,-4.562 2.15,-6.643 1.185,-2.175 2.778,-4.006 4.689,-5.57 1.562,-1.278 3.269,-2.333 5.057,-3.262 0.37,-0.192 0.746,-0.374 1.119,-0.561 0.064,-0.032 0.128,-0.064 0.199,-0.099 -0.041,-0.344 -0.08,-0.679 -0.121,-1.029 -0.043,0.003 -0.078,-0.001 -0.109,0.008 -2.798,0.82 -5.518,1.834 -8.066,3.271 -1.848,1.043 -3.547,2.284 -5.03,3.81 -2.094,2.157 -3.544,4.688 -4.392,7.568 C 0.48,-4.029 0.219,-2.658 0.089,-1.264 0.054,-0.898 0.029,-0.532 0,-0.165 -0.003,-0.124 0,-0.081 0,0"
             style="fill:#ffffff;fill-opacity:1;fill-rule:nonzero;stroke:none"
             id="path394"
             inkscape:connector-curvature="0" /></g><g
           id="g396"
           transform="translate(352.0617,518.9279)"><path
             d="m 0,0 c -0.076,0.01 -0.171,0.015 -0.261,0.036 -0.307,0.075 -0.49,0.308 -0.495,0.626 -0.003,0.192 0.047,0.374 0.14,0.538 0.415,0.737 0.573,1.546 0.674,2.373 C 0.144,4.28 0.195,4.993 0.36,5.689 0.487,6.226 0.678,6.736 0.98,7.2 1.263,7.635 1.822,7.873 2.331,7.778 2.674,7.714 2.872,7.476 2.876,7.13 2.879,6.937 2.829,6.757 2.737,6.592 2.353,5.907 2.189,5.158 2.088,4.39 1.992,3.662 1.905,2.932 1.782,2.209 1.687,1.651 1.472,1.131 1.174,0.647 0.907,0.215 0.506,0.034 0,0"
             style="fill:#ffffff;fill-opacity:1;fill-rule:nonzero;stroke:none"
             id="path398"
             inkscape:connector-curvature="0" /></g><g
           id="g400"
           transform="translate(357.4843,523.1066)"><path
             d="M 0,0 C 0.228,-0.002 0.384,-0.124 0.462,-0.377 0.571,-0.726 0.673,-1.078 0.778,-1.428 0.804,-1.518 0.836,-1.606 0.855,-1.697 0.91,-1.971 0.773,-2.215 0.535,-2.276 0.269,-2.345 0.032,-2.217 -0.055,-1.942 -0.194,-1.505 -0.33,-1.066 -0.453,-0.624 -0.547,-0.285 -0.329,0.003 0,0"
             style="fill:#f4f01f;fill-opacity:1;fill-rule:nonzero;stroke:none"
             id="path402"
             inkscape:connector-curvature="0" /></g><g
           id="g404"
           transform="translate(354.3534,522.8419)"><path
             d="M 0,0 C -0.005,0.264 0.146,0.455 0.38,0.506 0.597,0.553 0.83,0.426 0.91,0.198 0.993,-0.039 1.058,-0.282 1.131,-0.523 1.198,-0.743 1.269,-0.962 1.328,-1.184 1.397,-1.447 1.266,-1.68 1.013,-1.763 0.768,-1.843 0.51,-1.723 0.427,-1.466 0.283,-1.022 0.155,-0.572 0.022,-0.125 0.008,-0.077 0.005,-0.026 0,0"
             style="fill:#f4f01f;fill-opacity:1;fill-rule:nonzero;stroke:none"
             id="path406"
             inkscape:connector-curvature="0" /></g><g
           id="g408"
           transform="translate(357.0053,521.4648)"><path
             d="m 0,0 c -0.001,-0.26 -0.143,-0.446 -0.352,-0.499 -0.207,-0.052 -0.429,0.044 -0.531,0.235 -0.027,0.049 -0.044,0.106 -0.061,0.16 -0.12,0.399 -0.241,0.797 -0.358,1.196 -0.021,0.069 -0.038,0.14 -0.041,0.211 -0.008,0.222 0.137,0.415 0.341,0.464 0.24,0.058 0.457,-0.041 0.557,-0.256 C -0.427,1.473 -0.414,1.431 -0.401,1.39 -0.28,0.984 -0.158,0.579 -0.038,0.173 -0.018,0.104 -0.007,0.033 0,0"
             style="fill:#f4f01f;fill-opacity:1;fill-rule:nonzero;stroke:none"
             id="path410"
             inkscape:connector-curvature="0" /></g><g
           id="g412"
           transform="translate(359.6436,521.2792)"><path
             d="m 0,0 c -0.001,-0.254 -0.148,-0.446 -0.351,-0.492 -0.225,-0.051 -0.444,0.049 -0.543,0.25 -0.021,0.045 -0.035,0.094 -0.05,0.142 -0.12,0.398 -0.24,0.797 -0.358,1.196 -0.018,0.061 -0.036,0.125 -0.04,0.188 -0.017,0.229 0.13,0.439 0.338,0.49 C -0.771,1.833 -0.548,1.73 -0.446,1.516 -0.431,1.484 -0.419,1.45 -0.409,1.415 -0.282,0.996 -0.156,0.577 -0.032,0.158 -0.014,0.096 -0.006,0.032 0,0"
             style="fill:#f4f01f;fill-opacity:1;fill-rule:nonzero;stroke:none"
             id="path414"
             inkscape:connector-curvature="0" /></g><g
           id="g416"
           transform="translate(354.0194,558.4172)"><path
             d="m 0,0 c -0.287,-0.918 -0.574,-1.836 -0.868,-2.776 -0.305,0.094 -0.59,0.182 -0.904,0.279 0.439,1.444 0.89,2.866 1.339,4.315 C -0.331,1.79 -0.243,1.767 -0.157,1.741 0.022,1.687 0.2,1.627 0.38,1.577 0.488,1.547 0.541,1.49 0.57,1.375 0.747,0.671 0.934,-0.032 1.117,-0.735 1.211,-1.095 1.306,-1.456 1.444,-1.822 1.731,-0.904 2.018,0.015 2.313,0.956 2.624,0.89 2.909,0.782 3.224,0.685 2.774,-0.758 2.331,-2.183 1.879,-3.633 1.668,-3.567 1.481,-3.484 1.287,-3.454 0.983,-3.408 0.873,-3.235 0.806,-2.95 0.588,-2.033 0.341,-1.124 0.104,-0.211 0.087,-0.143 0.064,-0.076 0.044,-0.009 0.029,-0.006 0.015,-0.003 0,0"
             style="fill:#ffffff;fill-opacity:1;fill-rule:nonzero;stroke:none"
             id="path418"
             inkscape:connector-curvature="0" /></g><g
           id="g420"
           transform="translate(365.3589,548.8689)"><path
             d="m 0,0 c 0.192,-0.244 0.368,-0.479 0.555,-0.704 0.347,-0.418 0.802,-0.519 1.297,-0.289 0.352,0.163 0.642,0.407 0.88,0.712 0.297,0.382 0.33,0.796 0.08,1.206 C 2.642,1.205 2.427,1.459 2.22,1.741 1.472,1.154 0.745,0.584 0,0 M 2.238,3.045 C 2.268,3.032 2.277,3.031 2.28,3.026 2.728,2.452 3.204,1.898 3.616,1.3 4.118,0.571 4.062,-0.254 3.507,-0.946 3.078,-1.482 2.538,-1.869 1.859,-2.029 1.317,-2.157 0.814,-2.059 0.367,-1.722 c -0.121,0.09 -0.24,0.189 -0.334,0.305 -0.444,0.549 -0.879,1.105 -1.336,1.684 1.184,0.933 2.362,1.853 3.541,2.778"
             style="fill:#ffffff;fill-opacity:1;fill-rule:nonzero;stroke:none"
             id="path422"
             inkscape:connector-curvature="0" /></g><g
           id="g424"
           transform="translate(324.8284,538.0448)"><path
             d="m 0,0 c -1.468,0.422 -2.903,0.834 -4.352,1.25 0.096,0.333 0.185,0.641 0.281,0.971 0.559,-0.159 1.096,-0.311 1.658,-0.471 0.167,0.578 0.329,1.142 0.497,1.724 -0.556,0.161 -1.099,0.319 -1.659,0.483 0.096,0.331 0.185,0.639 0.28,0.971 C -1.843,4.511 -0.408,4.099 1.055,3.679 0.96,3.348 0.87,3.035 0.776,2.706 0.145,2.886 -0.461,3.058 -1.089,3.237 -1.255,2.664 -1.415,2.106 -1.584,1.522 -0.972,1.315 -0.351,1.172 0.276,0.969 0.185,0.649 0.097,0.341 0,0"
             style="fill:#ffffff;fill-opacity:1;fill-rule:nonzero;stroke:none"
             id="path426"
             inkscape:connector-curvature="0" /></g><g
           id="g428"
           transform="translate(335.114,557.1636)"><path
             d="m 0,0 c -0.689,-0.417 -1.352,-0.819 -2.033,-1.232 0.165,-0.271 0.319,-0.527 0.485,-0.802 0.628,0.378 1.241,0.748 1.868,1.125 0.14,-0.231 0.27,-0.444 0.411,-0.676 -0.631,-0.382 -1.244,-0.754 -1.866,-1.131 0.188,-0.312 0.367,-0.605 0.558,-0.92 0.697,0.42 1.378,0.831 2.078,1.252 0.149,-0.246 0.289,-0.479 0.442,-0.732 -0.981,-0.593 -1.951,-1.18 -2.946,-1.782 -0.784,1.296 -1.558,2.576 -2.344,3.875 0.969,0.586 1.927,1.165 2.904,1.756 C -0.293,0.485 -0.153,0.253 0,0"
             style="fill:#ffffff;fill-opacity:1;fill-rule:nonzero;stroke:none"
             id="path430"
             inkscape:connector-curvature="0" /></g><g
           id="g432"
           transform="translate(325.8468,546.0474)"><path
             d="m 0,0 c -0.329,-0.661 -0.646,-1.297 -0.974,-1.953 0.326,-0.163 0.638,-0.319 0.963,-0.481 0.365,0.727 0.722,1.44 1.088,2.169 0.26,-0.131 0.502,-0.252 0.764,-0.384 -0.514,-1.029 -1.022,-2.043 -1.538,-3.077 -1.359,0.68 -2.694,1.348 -4.051,2.027 0.51,1.016 1.008,2.012 1.519,3.032 0.254,-0.127 0.495,-0.247 0.763,-0.381 -0.342,-0.714 -0.706,-1.405 -1.055,-2.129 0.28,-0.14 0.547,-0.273 0.835,-0.417 0.328,0.653 0.647,1.288 0.977,1.947 C -0.475,0.236 -0.252,0.126 0,0"
             style="fill:#ffffff;fill-opacity:1;fill-rule:nonzero;stroke:none"
             id="path434"
             inkscape:connector-curvature="0" /></g><g
           id="g436"
           transform="translate(366.5019,553.0571)"><path
             d="m 0,0 c -0.182,-0.21 -0.356,-0.41 -0.547,-0.631 -0.602,0.521 -1.194,1.033 -1.797,1.555 -0.21,-0.242 -0.407,-0.468 -0.615,-0.709 0.552,-0.478 1.09,-0.945 1.647,-1.429 -0.175,-0.202 -0.342,-0.395 -0.519,-0.599 -0.555,0.48 -1.093,0.946 -1.649,1.427 -0.239,-0.276 -0.468,-0.54 -0.705,-0.814 0.613,-0.532 1.211,-1.051 1.833,-1.59 -0.188,-0.217 -0.369,-0.426 -0.561,-0.648 -0.869,0.753 -1.723,1.493 -2.574,2.231 0.074,0.155 2.627,3.127 2.925,3.41 C -2.424,2.14 -0.211,0.24 0,0"
             style="fill:#ffffff;fill-opacity:1;fill-rule:nonzero;stroke:none"
             id="path438"
             inkscape:connector-curvature="0" /></g><g
           id="g440"
           transform="translate(321.5041,536.8477)"><path
             d="m 0,0 c -0.044,-0.014 -0.064,-0.023 -0.084,-0.026 -0.386,-0.05 -0.551,-0.187 -0.634,-0.565 -0.034,-0.159 -0.038,-0.328 -0.032,-0.492 0.003,-0.089 0.041,-0.185 0.088,-0.262 0.17,-0.278 0.542,-0.275 0.702,0.006 0.075,0.131 0.133,0.272 0.187,0.413 0.095,0.248 0.177,0.502 0.275,0.75 0.065,0.167 0.137,0.334 0.226,0.489 C 1.267,1.247 2.454,1.022 2.883,0.377 3.042,0.138 3.138,-0.125 3.171,-0.406 3.232,-0.93 3.184,-1.444 2.962,-1.928 2.76,-2.367 2.45,-2.693 1.965,-2.815 c -0.181,-0.046 -0.367,-0.07 -0.58,-0.02 0.028,0.314 0.056,0.625 0.083,0.937 0.049,0.008 0.077,0.015 0.105,0.017 0.4,0.028 0.622,0.196 0.747,0.573 0.096,0.287 0.113,0.579 0.029,0.871 -0.051,0.175 -0.15,0.314 -0.338,0.36 C 1.828,-0.033 1.659,-0.072 1.548,-0.229 1.457,-0.357 1.38,-0.498 1.32,-0.643 1.213,-0.903 1.133,-1.173 1.025,-1.432 0.939,-1.637 0.848,-1.844 0.725,-2.028 0.32,-2.635 -0.525,-2.722 -1.064,-2.225 c -0.278,0.257 -0.417,0.585 -0.469,0.95 -0.067,0.466 -0.008,0.921 0.179,1.354 0.218,0.508 0.587,0.828 1.157,0.878 0.05,0.004 0.101,0.007 0.151,0.004 C -0.012,0.959 0.022,0.946 0.084,0.931 0.055,0.616 0.027,0.305 0,0"
             style="fill:#ffffff;fill-opacity:1;fill-rule:nonzero;stroke:none"
             id="path442"
             inkscape:connector-curvature="0" /></g><g
           id="g444"
           transform="translate(348.4592,560.9457)"><path
             d="M 0,0 C 0.328,-0.037 0.646,-0.072 0.978,-0.109 0.973,-0.208 0.973,-0.286 0.965,-0.363 0.873,-1.186 0.776,-2.008 0.689,-2.831 0.67,-3.008 0.668,-3.191 0.692,-3.367 0.725,-3.614 0.88,-3.781 1.111,-3.875 c 0.261,-0.106 0.534,-0.124 0.807,-0.081 0.229,0.036 0.401,0.173 0.473,0.396 0.057,0.177 0.098,0.361 0.12,0.545 0.097,0.822 0.185,1.645 0.277,2.468 0.007,0.064 0.023,0.127 0.039,0.217 0.322,-0.002 0.638,-0.063 0.967,-0.097 0.007,-0.036 0.024,-0.07 0.02,-0.102 C 3.705,-1.487 3.598,-2.446 3.479,-3.403 3.457,-3.578 3.4,-3.755 3.328,-3.918 3.061,-4.525 2.556,-4.786 1.923,-4.832 c -0.413,-0.03 -0.819,0.028 -1.21,0.168 -0.666,0.238 -1.049,0.745 -1.05,1.454 -0.001,0.408 0.054,0.817 0.096,1.225 0.063,0.609 0.136,1.216 0.207,1.824 C -0.029,-0.113 -0.014,-0.066 0,0"
             style="fill:#ffffff;fill-opacity:1;fill-rule:nonzero;stroke:none"
             id="path446"
             inkscape:connector-curvature="0" /></g><g
           id="g448"
           transform="translate(373.0941,535.78)"><path
             d="m 0,0 c -0.02,0.041 -0.035,0.059 -0.038,0.079 -0.049,0.283 -0.096,0.566 -0.145,0.854 0.026,0.02 0.045,0.043 0.07,0.054 0.374,0.174 0.554,0.485 0.556,0.88 C 0.446,2.278 0.286,2.632 -0.091,2.839 -0.245,2.924 -0.423,2.987 -0.597,3.009 -1.095,3.073 -1.575,2.993 -2.012,2.733 -2.462,2.464 -2.651,2.027 -2.55,1.516 -2.466,1.093 -2.159,0.803 -1.728,0.743 -1.622,0.728 -1.515,0.72 -1.393,0.708 c 0.051,-0.315 0.1,-0.617 0.152,-0.938 -0.076,-0.011 -0.129,-0.027 -0.183,-0.027 -1.026,0.002 -1.723,0.597 -1.933,1.47 -0.203,0.849 -0.04,1.601 0.628,2.203 0.289,0.261 0.633,0.425 1.008,0.521 0.474,0.121 0.951,0.14 1.43,0.019 C 0.527,3.75 1.169,3.106 1.29,2.087 1.328,1.77 1.312,1.455 1.209,1.148 1.009,0.558 0.602,0.187 0,0"
             style="fill:#ffffff;fill-opacity:1;fill-rule:nonzero;stroke:none"
             id="path450"
             inkscape:connector-curvature="0" /></g><g
           id="g452"
           transform="translate(345.0952,510.1818)"><path
             d="m 0,0 c -0.022,-0.001 -0.073,0.001 -0.122,-0.008 -0.222,-0.039 -0.388,-0.155 -0.466,-0.371 -0.076,-0.212 -0.051,-0.413 0.111,-0.581 0.217,-0.226 0.662,-0.28 0.919,-0.1 0.083,0.059 0.16,0.151 0.199,0.245 C 0.818,-0.387 0.526,-0.004 0,0 m -0.107,-3.202 c 0.299,0.002 0.545,0.148 0.655,0.407 0.112,0.263 0.104,0.522 -0.086,0.75 -0.251,0.303 -0.789,0.366 -1.096,0.12 -0.091,-0.073 -0.171,-0.181 -0.212,-0.29 -0.19,-0.504 0.179,-0.989 0.739,-0.987 m -0.832,1.865 c -0.314,0.174 -0.478,0.406 -0.509,0.724 -0.038,0.392 0.083,0.724 0.388,0.98 0.192,0.16 0.416,0.256 0.661,0.3 0.421,0.075 0.833,0.046 1.22,-0.15 0.406,-0.205 0.667,-0.531 0.7,-0.993 C 1.553,-0.908 1.378,-1.245 0.979,-1.447 0.949,-1.462 0.921,-1.479 0.876,-1.505 0.952,-1.551 1.014,-1.585 1.073,-1.624 1.35,-1.806 1.502,-2.064 1.527,-2.393 1.578,-3.077 1.23,-3.604 0.575,-3.808 -0.009,-3.99 -0.58,-3.932 -1.118,-3.643 c -0.569,0.306 -0.812,0.872 -0.656,1.497 0.088,0.351 0.297,0.601 0.64,0.733 0.052,0.02 0.104,0.04 0.195,0.076"
             style="fill:#ffffff;fill-opacity:1;fill-rule:nonzero;stroke:none"
             id="path454"
             inkscape:connector-curvature="0" /></g><g
           id="g456"
           transform="translate(348.755,508.9545)"><path
             d="M 0,0 C 0.111,0.027 0.225,0.044 0.331,0.084 0.494,0.146 0.605,0.267 0.651,0.439 0.736,0.761 0.551,1.101 0.239,1.163 -0.212,1.253 -0.535,1.051 -0.622,0.744 -0.628,0.723 -0.629,0.701 -0.632,0.68 -0.683,0.284 -0.431,0.018 0,0 m 0.13,-2.027 c 0.411,0.001 0.72,0.27 0.75,0.653 0.032,0.401 -0.213,0.702 -0.624,0.766 -0.521,0.082 -0.94,-0.295 -0.879,-0.79 0.046,-0.371 0.356,-0.63 0.753,-0.629 m -0.972,1.715 c -0.027,0.022 -0.036,0.036 -0.049,0.04 -0.632,0.194 -0.802,1.12 -0.32,1.642 0.289,0.313 0.658,0.46 1.07,0.503 C 0.132,1.9 0.405,1.885 0.669,1.79 1.157,1.614 1.494,1.177 1.498,0.711 1.501,0.371 1.374,0.095 1.097,-0.107 1.064,-0.131 1.032,-0.157 0.998,-0.183 1.018,-0.2 1.027,-0.213 1.04,-0.218 1.722,-0.497 1.998,-1.175 1.7,-1.843 1.575,-2.123 1.37,-2.334 1.102,-2.475 0.5,-2.793 -0.127,-2.822 -0.753,-2.567 c -0.622,0.254 -0.926,0.908 -0.751,1.545 0.095,0.346 0.326,0.567 0.662,0.71"
             style="fill:#ffffff;fill-opacity:1;fill-rule:nonzero;stroke:none"
             id="path458"
             inkscape:connector-curvature="0" /></g><g
           id="g460"
           transform="translate(353.0582,509.675)"><path
             d="M 0,0 C -0.001,0.306 -0.124,0.577 -0.335,0.74 -0.691,1.015 -1.176,0.882 -1.322,0.458 -1.452,0.076 -1.36,-0.267 -1.084,-0.556 -0.948,-0.7 -0.772,-0.754 -0.572,-0.718 -0.201,-0.651 0.002,-0.398 0,0 m -1.802,-2.001 c 0.297,0.065 0.562,0.122 0.834,0.182 0.047,-0.065 0.086,-0.124 0.13,-0.179 0.267,-0.337 0.737,-0.321 0.967,0.044 0.071,0.112 0.119,0.247 0.146,0.379 0.05,0.239 0.043,0.482 0.008,0.724 C 0.265,-0.837 0.247,-0.824 0.229,-0.81 0.222,-0.837 0.221,-0.868 0.208,-0.893 -0.15,-1.548 -1.205,-1.668 -1.795,-1.125 -2.415,-0.553 -2.448,0.557 -1.865,1.165 -1.189,1.871 -0.019,1.8 0.558,1.015 0.882,0.576 1.036,0.067 1.127,-0.463 1.202,-0.894 1.198,-1.325 1.079,-1.749 0.836,-2.622 0.032,-3.114 -0.834,-2.916 c -0.482,0.111 -0.782,0.428 -0.968,0.915"
             style="fill:#ffffff;fill-opacity:1;fill-rule:nonzero;stroke:none"
             id="path462"
             inkscape:connector-curvature="0" /></g><g
           id="g464"
           transform="translate(329.211,554.098)"><path
             d="m 0,0 c 0.181,-0.18 0.372,-0.371 0.569,-0.567 -0.495,-0.491 -1,-0.991 -1.491,-1.476 0.252,-0.254 0.483,-0.488 0.728,-0.735 0.423,0.421 0.861,0.856 1.297,1.289 0.188,-0.19 0.364,-0.368 0.556,-0.562 C 1.23,-2.48 0.794,-2.917 0.341,-3.369 0.777,-3.806 1.203,-4.232 1.65,-4.68 1.419,-4.926 1.183,-5.152 0.963,-5.373 -0.105,-4.308 -1.163,-3.252 -2.206,-2.212 -1.477,-1.482 -0.737,-0.739 0,0"
             style="fill:#ffffff;fill-opacity:1;fill-rule:nonzero;stroke:none"
             id="path466"
             inkscape:connector-curvature="0" /></g><g
           id="g468"
           transform="translate(328.6622,546.7562)"><path
             d="M 0,0 C -0.203,-0.275 -0.393,-0.533 -0.602,-0.816 -1.817,0.081 -3.019,0.968 -4.245,1.873 -3.611,2.731 -2.986,3.578 -2.35,4.439 -2.115,4.265 -1.896,4.104 -1.661,3.931 -2.093,3.344 -2.514,2.772 -2.951,2.18 -2.679,1.98 -2.415,1.785 -2.136,1.578 -1.76,2.086 -1.394,2.582 -1.015,3.094 -0.8,2.935 -0.599,2.786 -0.377,2.622 -0.75,2.116 -1.115,1.62 -1.494,1.105 -0.994,0.735 -0.504,0.373 0,0"
             style="fill:#ffffff;fill-opacity:1;fill-rule:nonzero;stroke:none"
             id="path470"
             inkscape:connector-curvature="0" /></g><g
           id="g472"
           transform="translate(371.3977,541.88)"><path
             d="M 0,0 C -0.251,-0.102 -0.481,-0.196 -0.732,-0.298 -0.975,0.287 -1.21,0.856 -1.451,1.44 -2.026,1.206 -2.583,0.979 -3.167,0.741 -3.305,1.051 -3.422,1.355 -3.553,1.677 -2.156,2.25 -0.774,2.816 0.633,3.393 1.036,2.412 1.433,1.444 1.843,0.446 1.577,0.335 1.323,0.23 1.052,0.118 0.774,0.793 0.503,1.45 0.224,2.128 -0.09,1.999 -0.392,1.875 -0.711,1.744 -0.473,1.16 -0.243,0.596 0,0"
             style="fill:#ffffff;fill-opacity:1;fill-rule:nonzero;stroke:none"
             id="path474"
             inkscape:connector-curvature="0" /></g><g
           id="g476"
           transform="translate(363.2815,555.8152)"><path
             d="m 0,0 c -0.157,-0.253 -0.3,-0.482 -0.452,-0.726 -0.392,0.242 -0.763,0.471 -1.147,0.709 -0.647,-1.039 -1.285,-2.064 -1.939,-3.113 -0.288,0.178 -0.566,0.35 -0.863,0.534 0.649,1.044 1.289,2.073 1.937,3.116 C -2.847,0.76 -3.211,0.989 -3.6,1.232 -3.462,1.483 -3.311,1.713 -3.151,1.96 -2.1,1.306 -1.063,0.661 0,0"
             style="fill:#ffffff;fill-opacity:1;fill-rule:nonzero;stroke:none"
             id="path478"
             inkscape:connector-curvature="0" /></g><g
           id="g480"
           transform="translate(336.0468,558.5421)"><path
             d="m 0,0 c 0.33,0.127 0.629,0.242 0.947,0.365 0.445,-1.146 0.882,-2.27 1.329,-3.418 0.682,0.263 1.349,0.521 2.043,0.789 C 4.423,-2.528 4.521,-2.778 4.63,-3.056 3.631,-3.454 2.643,-3.832 1.638,-4.22 1.091,-2.81 0.55,-1.418 0,0"
             style="fill:#ffffff;fill-opacity:1;fill-rule:nonzero;stroke:none"
             id="path482"
             inkscape:connector-curvature="0" /></g><g
           id="g484"
           transform="translate(341.9422,509.7077)"><path
             d="M 0,0 C -0.37,0.083 -0.718,0.16 -1.081,0.241 -1.032,0.472 -0.988,0.68 -0.941,0.9 -0.88,0.896 -0.832,0.892 -0.784,0.89 -0.626,0.882 -0.467,0.858 -0.311,0.87 0.019,0.895 0.277,1.048 0.439,1.346 0.463,1.389 0.487,1.433 0.524,1.499 0.749,1.452 0.977,1.404 1.231,1.351 0.919,-0.103 0.612,-1.535 0.301,-2.986 c -0.302,0.064 -0.581,0.123 -0.884,0.186 0.063,0.479 0.19,0.935 0.282,1.396 C -0.21,-0.946 -0.106,-0.49 0,0"
             style="fill:#ffffff;fill-opacity:1;fill-rule:nonzero;stroke:none"
             id="path486"
             inkscape:connector-curvature="0" /></g><g
           id="g488"
           transform="translate(333.512,551.7634)"><path
             d="M 0,0 C -0.245,-0.194 -0.493,-0.39 -0.765,-0.605 -1.7,0.576 -2.627,1.748 -3.573,2.943 -3.308,3.154 -3.053,3.357 -2.8,3.558 -2.606,3.39 -0.06,0.155 0,0"
             style="fill:#ffffff;fill-opacity:1;fill-rule:nonzero;stroke:none"
             id="path490"
             inkscape:connector-curvature="0" /></g><g
           id="g492"
           transform="translate(358.4733,558.5207)"><path
             d="M 0,0 C 0.323,-0.153 0.613,-0.291 0.917,-0.435 0.272,-1.801 -0.363,-3.148 -1.01,-4.518 -1.325,-4.393 -1.614,-4.241 -1.931,-4.092 -1.287,-2.727 -0.65,-1.376 0,0"
             style="fill:#ffffff;fill-opacity:1;fill-rule:nonzero;stroke:none"
             id="path494"
             inkscape:connector-curvature="0" /></g><g
           id="g496"
           transform="translate(369.2572,539.7141)"><path
             d="M 0,0 C -0.101,0.331 -0.192,0.632 -0.292,0.96 0.015,1.075 0.324,1.157 0.657,1.252 0.755,0.931 0.85,0.619 0.951,0.289 0.627,0.19 0.327,0.099 0,0"
             style="fill:#ffffff;fill-opacity:1;fill-rule:nonzero;stroke:none"
             id="path498"
             inkscape:connector-curvature="0" /></g><g
           id="g500"
           transform="translate(371.0886,533.8329)"><path
             d="m 0,0 h -0.976 c -0.049,0.155 -0.021,0.32 -0.032,0.482 -0.01,0.157 -0.016,0.314 -0.025,0.5 0.333,0.03 0.651,0.023 0.992,0.027 C -0.027,0.674 -0.014,0.355 0,0"
             style="fill:#ffffff;fill-opacity:1;fill-rule:nonzero;stroke:none"
             id="path502"
             inkscape:connector-curvature="0" /></g><g
           id="g504"
           transform="translate(342.1136,556.6829)"><path
             d="m 0,0 c 0.364,0.074 0.706,0.122 1.036,0.216 0.388,0.11 0.621,0.395 0.68,0.79 C 1.791,1.512 1.694,1.998 1.436,2.442 1.252,2.759 0.964,2.916 0.597,2.928 0.226,2.941 -0.125,2.832 -0.508,2.772 -0.338,1.844 -0.171,0.935 0,0 m -1.66,3.429 c 0.249,0.047 0.473,0.091 0.698,0.13 C -0.473,3.646 0.014,3.748 0.506,3.81 1.315,3.913 2.009,3.544 2.391,2.827 2.701,2.242 2.804,1.611 2.714,0.962 2.595,0.096 2.048,-0.467 1.165,-0.65 0.531,-0.781 -0.108,-0.887 -0.746,-1.003 -0.772,-1.007 -0.801,-1 -0.85,-0.998 c -0.269,1.47 -0.538,2.94 -0.81,4.427"
             style="fill:#ffffff;fill-opacity:1;fill-rule:nonzero;stroke:none"
             id="path506"
             inkscape:connector-curvature="0" /></g></g></g></g></svg>