<?xml version="1.0" encoding="UTF-8" standalone="no"?>
<!-- Generator: Adobe Illustrator 21.0.2, SVG Export Plug-In . SVG Version: 6.00 Build 0)  -->

<svg
   xmlns:dc="http://purl.org/dc/elements/1.1/"
   xmlns:cc="http://creativecommons.org/ns#"
   xmlns:rdf="http://www.w3.org/1999/02/22-rdf-syntax-ns#"
   xmlns:svg="http://www.w3.org/2000/svg"
   xmlns="http://www.w3.org/2000/svg"
   xmlns:sodipodi="http://sodipodi.sourceforge.net/DTD/sodipodi-0.dtd"
   xmlns:inkscape="http://www.inkscape.org/namespaces/inkscape"
   version="1.1"
   id="Layer_1"
   x="0px"
   y="0px"
   viewBox="0 0 512 512"
   style="enable-background:new 0 0 512 512;"
   xml:space="preserve"
   sodipodi:docname="wolverhampton-logo-escudo.svg"
   inkscape:version="0.92.2 (5c3e80d, 2017-08-06)"><metadata
     id="metadata19"><rdf:RDF><cc:Work
         rdf:about=""><dc:format>image/svg+xml</dc:format><dc:type
           rdf:resource="http://purl.org/dc/dcmitype/StillImage" /><dc:title></dc:title></cc:Work></rdf:RDF></metadata><defs
     id="defs17" /><sodipodi:namedview
     pagecolor="#ffffff"
     bordercolor="#666666"
     borderopacity="1"
     objecttolerance="10"
     gridtolerance="10"
     guidetolerance="10"
     inkscape:pageopacity="0"
     inkscape:pageshadow="2"
     inkscape:window-width="1600"
     inkscape:window-height="837"
     id="namedview15"
     showgrid="false"
     inkscape:zoom="0.4609375"
     inkscape:cx="256"
     inkscape:cy="256"
     inkscape:window-x="-8"
     inkscape:window-y="-8"
     inkscape:window-maximized="1"
     inkscape:current-layer="Layer_1" /><style
     type="text/css"
     id="style2">
	.st0{fill:#231F20;}
	.st1{fill:#FDB913;}
	.st2{fill:#FFFFFF;}
</style><polygon
     class="st0"
     points="128,477.8 0,256 128,34.2 384,34.2 512,256 384,477.8 "
     id="polygon4"
     inkscape:export-xdpi="9.375"
     inkscape:export-ydpi="9.375" /><polygon
     class="st1"
     points="152.6,435.1 49.2,256 152.6,76.9 359.4,76.9 462.8,256 359.4,435.1 "
     id="polygon6"
     inkscape:export-xdpi="9.375"
     inkscape:export-ydpi="9.375" /><path
     class="st2"
     d="M154.8,431.4h202.5L458.5,256L357.2,80.6H154.8L53.5,256L154.8,431.4z M361.5,438.9H150.5L44.9,256l1.1-1.9  l104.5-181h211.1l1.1,1.9l104.5,181L361.5,438.9z"
     id="path8"
     inkscape:export-xdpi="9.375"
     inkscape:export-ydpi="9.375" /><polygon
     class="st0"
     points="226.3,172.4 285.5,172.4 317.1,93.1 402.6,266.9 310.1,321.6 280.4,418.9 231.6,418.9 202,321.4   109.4,266.9 194.8,93.1 "
     id="polygon10"
     inkscape:export-xdpi="9.375"
     inkscape:export-ydpi="9.375" /><path
     class="st2"
     d="M238.5,279.4l-43.6-46.8v46.8H238.5z M317.1,232.6v46.8h-43.7L317.1,232.6z"
     id="path12"
     inkscape:export-xdpi="9.375"
     inkscape:export-ydpi="9.375" /></svg>